<?xml version="1.0" encoding="utf-8" standalone="no"?>
<!DOCTYPE svg PUBLIC "-//W3C//DTD SVG 1.1//EN"
  "http://www.w3.org/Graphics/SVG/1.1/DTD/svg11.dtd">
<!-- Created with matplotlib (https://matplotlib.org/) -->
<svg height="332.569134pt" version="1.1" viewBox="0 0 349.572627 332.569134" width="349.572627pt" xmlns="http://www.w3.org/2000/svg" xmlns:xlink="http://www.w3.org/1999/xlink">
 <metadata>
  <rdf:RDF xmlns:cc="http://creativecommons.org/ns#" xmlns:dc="http://purl.org/dc/elements/1.1/" xmlns:rdf="http://www.w3.org/1999/02/22-rdf-syntax-ns#">
   <cc:Work>
    <dc:type rdf:resource="http://purl.org/dc/dcmitype/StillImage"/>
    <dc:date>2021-11-10T00:21:11.855340</dc:date>
    <dc:format>image/svg+xml</dc:format>
    <dc:creator>
     <cc:Agent>
      <dc:title>Matplotlib v3.3.4, https://matplotlib.org/</dc:title>
     </cc:Agent>
    </dc:creator>
   </cc:Work>
  </rdf:RDF>
 </metadata>
 <defs>
  <style type="text/css">*{stroke-linecap:butt;stroke-linejoin:round;}</style>
 </defs>
 <g id="figure_1">
  <g id="patch_1">
   <path d="M 0 332.569134 
L 349.572627 332.569134 
L 349.572627 0 
L 0 0 
z
" style="fill:#ffffff;"/>
  </g>
  <g id="axes_1">
   <g id="patch_2">
    <path d="M 51.338438 249.101593 
L 336.928989 249.101593 
L 336.928989 24.597656 
L 51.338438 24.597656 
z
" style="fill:#ffffff;"/>
   </g>
   <g id="matplotlib.axis_1">
    <g id="xtick_1">
     <g id="line2d_1">
      <path clip-path="url(#p2d8284e208)" d="M 55.213479 249.101593 
L 55.213479 24.597656 
" style="fill:none;stroke:#b0b0b0;stroke-dasharray:2.96,1.28;stroke-dashoffset:0;stroke-opacity:0.6;stroke-width:0.8;"/>
     </g>
     <g id="line2d_2">
      <defs>
       <path d="M 0 0 
L 0 3.5 
" id="mc8e5bf8465" style="stroke:#000000;stroke-width:0.8;"/>
      </defs>
      <g>
       <use style="stroke:#000000;stroke-width:0.8;" x="55.213479" xlink:href="#mc8e5bf8465" y="249.101593"/>
      </g>
     </g>
     <g id="text_1">
      <!-- 0 -->
      <g transform="translate(52.032229 263.700031)scale(0.1 -0.1)">
       <defs>
        <path d="M 31.78125 66.40625 
Q 24.171875 66.40625 20.328125 58.90625 
Q 16.5 51.421875 16.5 36.375 
Q 16.5 21.390625 20.328125 13.890625 
Q 24.171875 6.390625 31.78125 6.390625 
Q 39.453125 6.390625 43.28125 13.890625 
Q 47.125 21.390625 47.125 36.375 
Q 47.125 51.421875 43.28125 58.90625 
Q 39.453125 66.40625 31.78125 66.40625 
z
M 31.78125 74.21875 
Q 44.046875 74.21875 50.515625 64.515625 
Q 56.984375 54.828125 56.984375 36.375 
Q 56.984375 17.96875 50.515625 8.265625 
Q 44.046875 -1.421875 31.78125 -1.421875 
Q 19.53125 -1.421875 13.0625 8.265625 
Q 6.59375 17.96875 6.59375 36.375 
Q 6.59375 54.828125 13.0625 64.515625 
Q 19.53125 74.21875 31.78125 74.21875 
z
" id="DejaVuSans-48"/>
       </defs>
       <use xlink:href="#DejaVuSans-48"/>
      </g>
     </g>
    </g>
    <g id="xtick_2">
     <g id="line2d_3">
      <path clip-path="url(#p2d8284e208)" d="M 93.963893 249.101593 
L 93.963893 24.597656 
" style="fill:none;stroke:#b0b0b0;stroke-dasharray:2.96,1.28;stroke-dashoffset:0;stroke-opacity:0.6;stroke-width:0.8;"/>
     </g>
     <g id="line2d_4">
      <g>
       <use style="stroke:#000000;stroke-width:0.8;" x="93.963893" xlink:href="#mc8e5bf8465" y="249.101593"/>
      </g>
     </g>
     <g id="text_2">
      <!-- 10000 -->
      <g transform="translate(78.057643 263.700031)scale(0.1 -0.1)">
       <defs>
        <path d="M 12.40625 8.296875 
L 28.515625 8.296875 
L 28.515625 63.921875 
L 10.984375 60.40625 
L 10.984375 69.390625 
L 28.421875 72.90625 
L 38.28125 72.90625 
L 38.28125 8.296875 
L 54.390625 8.296875 
L 54.390625 0 
L 12.40625 0 
z
" id="DejaVuSans-49"/>
       </defs>
       <use xlink:href="#DejaVuSans-49"/>
       <use x="63.623047" xlink:href="#DejaVuSans-48"/>
       <use x="127.246094" xlink:href="#DejaVuSans-48"/>
       <use x="190.869141" xlink:href="#DejaVuSans-48"/>
       <use x="254.492188" xlink:href="#DejaVuSans-48"/>
      </g>
     </g>
    </g>
    <g id="xtick_3">
     <g id="line2d_5">
      <path clip-path="url(#p2d8284e208)" d="M 132.714307 249.101593 
L 132.714307 24.597656 
" style="fill:none;stroke:#b0b0b0;stroke-dasharray:2.96,1.28;stroke-dashoffset:0;stroke-opacity:0.6;stroke-width:0.8;"/>
     </g>
     <g id="line2d_6">
      <g>
       <use style="stroke:#000000;stroke-width:0.8;" x="132.714307" xlink:href="#mc8e5bf8465" y="249.101593"/>
      </g>
     </g>
     <g id="text_3">
      <!-- 20000 -->
      <g transform="translate(116.808057 263.700031)scale(0.1 -0.1)">
       <defs>
        <path d="M 19.1875 8.296875 
L 53.609375 8.296875 
L 53.609375 0 
L 7.328125 0 
L 7.328125 8.296875 
Q 12.9375 14.109375 22.625 23.890625 
Q 32.328125 33.6875 34.8125 36.53125 
Q 39.546875 41.84375 41.421875 45.53125 
Q 43.3125 49.21875 43.3125 52.78125 
Q 43.3125 58.59375 39.234375 62.25 
Q 35.15625 65.921875 28.609375 65.921875 
Q 23.96875 65.921875 18.8125 64.3125 
Q 13.671875 62.703125 7.8125 59.421875 
L 7.8125 69.390625 
Q 13.765625 71.78125 18.9375 73 
Q 24.125 74.21875 28.421875 74.21875 
Q 39.75 74.21875 46.484375 68.546875 
Q 53.21875 62.890625 53.21875 53.421875 
Q 53.21875 48.921875 51.53125 44.890625 
Q 49.859375 40.875 45.40625 35.40625 
Q 44.1875 33.984375 37.640625 27.21875 
Q 31.109375 20.453125 19.1875 8.296875 
z
" id="DejaVuSans-50"/>
       </defs>
       <use xlink:href="#DejaVuSans-50"/>
       <use x="63.623047" xlink:href="#DejaVuSans-48"/>
       <use x="127.246094" xlink:href="#DejaVuSans-48"/>
       <use x="190.869141" xlink:href="#DejaVuSans-48"/>
       <use x="254.492188" xlink:href="#DejaVuSans-48"/>
      </g>
     </g>
    </g>
    <g id="xtick_4">
     <g id="line2d_7">
      <path clip-path="url(#p2d8284e208)" d="M 171.464721 249.101593 
L 171.464721 24.597656 
" style="fill:none;stroke:#b0b0b0;stroke-dasharray:2.96,1.28;stroke-dashoffset:0;stroke-opacity:0.6;stroke-width:0.8;"/>
     </g>
     <g id="line2d_8">
      <g>
       <use style="stroke:#000000;stroke-width:0.8;" x="171.464721" xlink:href="#mc8e5bf8465" y="249.101593"/>
      </g>
     </g>
     <g id="text_4">
      <!-- 30000 -->
      <g transform="translate(155.558471 263.700031)scale(0.1 -0.1)">
       <defs>
        <path d="M 40.578125 39.3125 
Q 47.65625 37.796875 51.625 33 
Q 55.609375 28.21875 55.609375 21.1875 
Q 55.609375 10.40625 48.1875 4.484375 
Q 40.765625 -1.421875 27.09375 -1.421875 
Q 22.515625 -1.421875 17.65625 -0.515625 
Q 12.796875 0.390625 7.625 2.203125 
L 7.625 11.71875 
Q 11.71875 9.328125 16.59375 8.109375 
Q 21.484375 6.890625 26.8125 6.890625 
Q 36.078125 6.890625 40.9375 10.546875 
Q 45.796875 14.203125 45.796875 21.1875 
Q 45.796875 27.640625 41.28125 31.265625 
Q 36.765625 34.90625 28.71875 34.90625 
L 20.21875 34.90625 
L 20.21875 43.015625 
L 29.109375 43.015625 
Q 36.375 43.015625 40.234375 45.921875 
Q 44.09375 48.828125 44.09375 54.296875 
Q 44.09375 59.90625 40.109375 62.90625 
Q 36.140625 65.921875 28.71875 65.921875 
Q 24.65625 65.921875 20.015625 65.03125 
Q 15.375 64.15625 9.8125 62.3125 
L 9.8125 71.09375 
Q 15.4375 72.65625 20.34375 73.4375 
Q 25.25 74.21875 29.59375 74.21875 
Q 40.828125 74.21875 47.359375 69.109375 
Q 53.90625 64.015625 53.90625 55.328125 
Q 53.90625 49.265625 50.4375 45.09375 
Q 46.96875 40.921875 40.578125 39.3125 
z
" id="DejaVuSans-51"/>
       </defs>
       <use xlink:href="#DejaVuSans-51"/>
       <use x="63.623047" xlink:href="#DejaVuSans-48"/>
       <use x="127.246094" xlink:href="#DejaVuSans-48"/>
       <use x="190.869141" xlink:href="#DejaVuSans-48"/>
       <use x="254.492188" xlink:href="#DejaVuSans-48"/>
      </g>
     </g>
    </g>
    <g id="xtick_5">
     <g id="line2d_9">
      <path clip-path="url(#p2d8284e208)" d="M 210.215135 249.101593 
L 210.215135 24.597656 
" style="fill:none;stroke:#b0b0b0;stroke-dasharray:2.96,1.28;stroke-dashoffset:0;stroke-opacity:0.6;stroke-width:0.8;"/>
     </g>
     <g id="line2d_10">
      <g>
       <use style="stroke:#000000;stroke-width:0.8;" x="210.215135" xlink:href="#mc8e5bf8465" y="249.101593"/>
      </g>
     </g>
     <g id="text_5">
      <!-- 40000 -->
      <g transform="translate(194.308885 263.700031)scale(0.1 -0.1)">
       <defs>
        <path d="M 37.796875 64.3125 
L 12.890625 25.390625 
L 37.796875 25.390625 
z
M 35.203125 72.90625 
L 47.609375 72.90625 
L 47.609375 25.390625 
L 58.015625 25.390625 
L 58.015625 17.1875 
L 47.609375 17.1875 
L 47.609375 0 
L 37.796875 0 
L 37.796875 17.1875 
L 4.890625 17.1875 
L 4.890625 26.703125 
z
" id="DejaVuSans-52"/>
       </defs>
       <use xlink:href="#DejaVuSans-52"/>
       <use x="63.623047" xlink:href="#DejaVuSans-48"/>
       <use x="127.246094" xlink:href="#DejaVuSans-48"/>
       <use x="190.869141" xlink:href="#DejaVuSans-48"/>
       <use x="254.492188" xlink:href="#DejaVuSans-48"/>
      </g>
     </g>
    </g>
    <g id="xtick_6">
     <g id="line2d_11">
      <path clip-path="url(#p2d8284e208)" d="M 248.965549 249.101593 
L 248.965549 24.597656 
" style="fill:none;stroke:#b0b0b0;stroke-dasharray:2.96,1.28;stroke-dashoffset:0;stroke-opacity:0.6;stroke-width:0.8;"/>
     </g>
     <g id="line2d_12">
      <g>
       <use style="stroke:#000000;stroke-width:0.8;" x="248.965549" xlink:href="#mc8e5bf8465" y="249.101593"/>
      </g>
     </g>
     <g id="text_6">
      <!-- 50000 -->
      <g transform="translate(233.059299 263.700031)scale(0.1 -0.1)">
       <defs>
        <path d="M 10.796875 72.90625 
L 49.515625 72.90625 
L 49.515625 64.59375 
L 19.828125 64.59375 
L 19.828125 46.734375 
Q 21.96875 47.46875 24.109375 47.828125 
Q 26.265625 48.1875 28.421875 48.1875 
Q 40.625 48.1875 47.75 41.5 
Q 54.890625 34.8125 54.890625 23.390625 
Q 54.890625 11.625 47.5625 5.09375 
Q 40.234375 -1.421875 26.90625 -1.421875 
Q 22.3125 -1.421875 17.546875 -0.640625 
Q 12.796875 0.140625 7.71875 1.703125 
L 7.71875 11.625 
Q 12.109375 9.234375 16.796875 8.0625 
Q 21.484375 6.890625 26.703125 6.890625 
Q 35.15625 6.890625 40.078125 11.328125 
Q 45.015625 15.765625 45.015625 23.390625 
Q 45.015625 31 40.078125 35.4375 
Q 35.15625 39.890625 26.703125 39.890625 
Q 22.75 39.890625 18.8125 39.015625 
Q 14.890625 38.140625 10.796875 36.28125 
z
" id="DejaVuSans-53"/>
       </defs>
       <use xlink:href="#DejaVuSans-53"/>
       <use x="63.623047" xlink:href="#DejaVuSans-48"/>
       <use x="127.246094" xlink:href="#DejaVuSans-48"/>
       <use x="190.869141" xlink:href="#DejaVuSans-48"/>
       <use x="254.492188" xlink:href="#DejaVuSans-48"/>
      </g>
     </g>
    </g>
    <g id="xtick_7">
     <g id="line2d_13">
      <path clip-path="url(#p2d8284e208)" d="M 287.715963 249.101593 
L 287.715963 24.597656 
" style="fill:none;stroke:#b0b0b0;stroke-dasharray:2.96,1.28;stroke-dashoffset:0;stroke-opacity:0.6;stroke-width:0.8;"/>
     </g>
     <g id="line2d_14">
      <g>
       <use style="stroke:#000000;stroke-width:0.8;" x="287.715963" xlink:href="#mc8e5bf8465" y="249.101593"/>
      </g>
     </g>
     <g id="text_7">
      <!-- 60000 -->
      <g transform="translate(271.809713 263.700031)scale(0.1 -0.1)">
       <defs>
        <path d="M 33.015625 40.375 
Q 26.375 40.375 22.484375 35.828125 
Q 18.609375 31.296875 18.609375 23.390625 
Q 18.609375 15.53125 22.484375 10.953125 
Q 26.375 6.390625 33.015625 6.390625 
Q 39.65625 6.390625 43.53125 10.953125 
Q 47.40625 15.53125 47.40625 23.390625 
Q 47.40625 31.296875 43.53125 35.828125 
Q 39.65625 40.375 33.015625 40.375 
z
M 52.59375 71.296875 
L 52.59375 62.3125 
Q 48.875 64.0625 45.09375 64.984375 
Q 41.3125 65.921875 37.59375 65.921875 
Q 27.828125 65.921875 22.671875 59.328125 
Q 17.53125 52.734375 16.796875 39.40625 
Q 19.671875 43.65625 24.015625 45.921875 
Q 28.375 48.1875 33.59375 48.1875 
Q 44.578125 48.1875 50.953125 41.515625 
Q 57.328125 34.859375 57.328125 23.390625 
Q 57.328125 12.15625 50.6875 5.359375 
Q 44.046875 -1.421875 33.015625 -1.421875 
Q 20.359375 -1.421875 13.671875 8.265625 
Q 6.984375 17.96875 6.984375 36.375 
Q 6.984375 53.65625 15.1875 63.9375 
Q 23.390625 74.21875 37.203125 74.21875 
Q 40.921875 74.21875 44.703125 73.484375 
Q 48.484375 72.75 52.59375 71.296875 
z
" id="DejaVuSans-54"/>
       </defs>
       <use xlink:href="#DejaVuSans-54"/>
       <use x="63.623047" xlink:href="#DejaVuSans-48"/>
       <use x="127.246094" xlink:href="#DejaVuSans-48"/>
       <use x="190.869141" xlink:href="#DejaVuSans-48"/>
       <use x="254.492188" xlink:href="#DejaVuSans-48"/>
      </g>
     </g>
    </g>
    <g id="xtick_8">
     <g id="line2d_15">
      <path clip-path="url(#p2d8284e208)" d="M 326.466377 249.101593 
L 326.466377 24.597656 
" style="fill:none;stroke:#b0b0b0;stroke-dasharray:2.96,1.28;stroke-dashoffset:0;stroke-opacity:0.6;stroke-width:0.8;"/>
     </g>
     <g id="line2d_16">
      <g>
       <use style="stroke:#000000;stroke-width:0.8;" x="326.466377" xlink:href="#mc8e5bf8465" y="249.101593"/>
      </g>
     </g>
     <g id="text_8">
      <!-- 70000 -->
      <g transform="translate(310.560127 263.700031)scale(0.1 -0.1)">
       <defs>
        <path d="M 8.203125 72.90625 
L 55.078125 72.90625 
L 55.078125 68.703125 
L 28.609375 0 
L 18.3125 0 
L 43.21875 64.59375 
L 8.203125 64.59375 
z
" id="DejaVuSans-55"/>
       </defs>
       <use xlink:href="#DejaVuSans-55"/>
       <use x="63.623047" xlink:href="#DejaVuSans-48"/>
       <use x="127.246094" xlink:href="#DejaVuSans-48"/>
       <use x="190.869141" xlink:href="#DejaVuSans-48"/>
       <use x="254.492188" xlink:href="#DejaVuSans-48"/>
      </g>
     </g>
    </g>
    <g id="text_9">
     <!-- Time steps -->
     <g transform="translate(155.993557 280.417531)scale(0.14 -0.14)">
      <defs>
       <path d="M -0.296875 72.90625 
L 61.375 72.90625 
L 61.375 64.59375 
L 35.5 64.59375 
L 35.5 0 
L 25.59375 0 
L 25.59375 64.59375 
L -0.296875 64.59375 
z
" id="DejaVuSans-84"/>
       <path d="M 9.421875 54.6875 
L 18.40625 54.6875 
L 18.40625 0 
L 9.421875 0 
z
M 9.421875 75.984375 
L 18.40625 75.984375 
L 18.40625 64.59375 
L 9.421875 64.59375 
z
" id="DejaVuSans-105"/>
       <path d="M 52 44.1875 
Q 55.375 50.25 60.0625 53.125 
Q 64.75 56 71.09375 56 
Q 79.640625 56 84.28125 50.015625 
Q 88.921875 44.046875 88.921875 33.015625 
L 88.921875 0 
L 79.890625 0 
L 79.890625 32.71875 
Q 79.890625 40.578125 77.09375 44.375 
Q 74.3125 48.1875 68.609375 48.1875 
Q 61.625 48.1875 57.5625 43.546875 
Q 53.515625 38.921875 53.515625 30.90625 
L 53.515625 0 
L 44.484375 0 
L 44.484375 32.71875 
Q 44.484375 40.625 41.703125 44.40625 
Q 38.921875 48.1875 33.109375 48.1875 
Q 26.21875 48.1875 22.15625 43.53125 
Q 18.109375 38.875 18.109375 30.90625 
L 18.109375 0 
L 9.078125 0 
L 9.078125 54.6875 
L 18.109375 54.6875 
L 18.109375 46.1875 
Q 21.1875 51.21875 25.484375 53.609375 
Q 29.78125 56 35.6875 56 
Q 41.65625 56 45.828125 52.96875 
Q 50 49.953125 52 44.1875 
z
" id="DejaVuSans-109"/>
       <path d="M 56.203125 29.59375 
L 56.203125 25.203125 
L 14.890625 25.203125 
Q 15.484375 15.921875 20.484375 11.0625 
Q 25.484375 6.203125 34.421875 6.203125 
Q 39.59375 6.203125 44.453125 7.46875 
Q 49.3125 8.734375 54.109375 11.28125 
L 54.109375 2.78125 
Q 49.265625 0.734375 44.1875 -0.34375 
Q 39.109375 -1.421875 33.890625 -1.421875 
Q 20.796875 -1.421875 13.15625 6.1875 
Q 5.515625 13.8125 5.515625 26.8125 
Q 5.515625 40.234375 12.765625 48.109375 
Q 20.015625 56 32.328125 56 
Q 43.359375 56 49.78125 48.890625 
Q 56.203125 41.796875 56.203125 29.59375 
z
M 47.21875 32.234375 
Q 47.125 39.59375 43.09375 43.984375 
Q 39.0625 48.390625 32.421875 48.390625 
Q 24.90625 48.390625 20.390625 44.140625 
Q 15.875 39.890625 15.1875 32.171875 
z
" id="DejaVuSans-101"/>
       <path id="DejaVuSans-32"/>
       <path d="M 44.28125 53.078125 
L 44.28125 44.578125 
Q 40.484375 46.53125 36.375 47.5 
Q 32.28125 48.484375 27.875 48.484375 
Q 21.1875 48.484375 17.84375 46.4375 
Q 14.5 44.390625 14.5 40.28125 
Q 14.5 37.15625 16.890625 35.375 
Q 19.28125 33.59375 26.515625 31.984375 
L 29.59375 31.296875 
Q 39.15625 29.25 43.1875 25.515625 
Q 47.21875 21.78125 47.21875 15.09375 
Q 47.21875 7.46875 41.1875 3.015625 
Q 35.15625 -1.421875 24.609375 -1.421875 
Q 20.21875 -1.421875 15.453125 -0.5625 
Q 10.6875 0.296875 5.421875 2 
L 5.421875 11.28125 
Q 10.40625 8.6875 15.234375 7.390625 
Q 20.0625 6.109375 24.8125 6.109375 
Q 31.15625 6.109375 34.5625 8.28125 
Q 37.984375 10.453125 37.984375 14.40625 
Q 37.984375 18.0625 35.515625 20.015625 
Q 33.0625 21.96875 24.703125 23.78125 
L 21.578125 24.515625 
Q 13.234375 26.265625 9.515625 29.90625 
Q 5.8125 33.546875 5.8125 39.890625 
Q 5.8125 47.609375 11.28125 51.796875 
Q 16.75 56 26.8125 56 
Q 31.78125 56 36.171875 55.265625 
Q 40.578125 54.546875 44.28125 53.078125 
z
" id="DejaVuSans-115"/>
       <path d="M 18.3125 70.21875 
L 18.3125 54.6875 
L 36.8125 54.6875 
L 36.8125 47.703125 
L 18.3125 47.703125 
L 18.3125 18.015625 
Q 18.3125 11.328125 20.140625 9.421875 
Q 21.96875 7.515625 27.59375 7.515625 
L 36.8125 7.515625 
L 36.8125 0 
L 27.59375 0 
Q 17.1875 0 13.234375 3.875 
Q 9.28125 7.765625 9.28125 18.015625 
L 9.28125 47.703125 
L 2.6875 47.703125 
L 2.6875 54.6875 
L 9.28125 54.6875 
L 9.28125 70.21875 
z
" id="DejaVuSans-116"/>
       <path d="M 18.109375 8.203125 
L 18.109375 -20.796875 
L 9.078125 -20.796875 
L 9.078125 54.6875 
L 18.109375 54.6875 
L 18.109375 46.390625 
Q 20.953125 51.265625 25.265625 53.625 
Q 29.59375 56 35.59375 56 
Q 45.5625 56 51.78125 48.09375 
Q 58.015625 40.1875 58.015625 27.296875 
Q 58.015625 14.40625 51.78125 6.484375 
Q 45.5625 -1.421875 35.59375 -1.421875 
Q 29.59375 -1.421875 25.265625 0.953125 
Q 20.953125 3.328125 18.109375 8.203125 
z
M 48.6875 27.296875 
Q 48.6875 37.203125 44.609375 42.84375 
Q 40.53125 48.484375 33.40625 48.484375 
Q 26.265625 48.484375 22.1875 42.84375 
Q 18.109375 37.203125 18.109375 27.296875 
Q 18.109375 17.390625 22.1875 11.75 
Q 26.265625 6.109375 33.40625 6.109375 
Q 40.53125 6.109375 44.609375 11.75 
Q 48.6875 17.390625 48.6875 27.296875 
z
" id="DejaVuSans-112"/>
      </defs>
      <use xlink:href="#DejaVuSans-84"/>
      <use x="57.958984" xlink:href="#DejaVuSans-105"/>
      <use x="85.742188" xlink:href="#DejaVuSans-109"/>
      <use x="183.154297" xlink:href="#DejaVuSans-101"/>
      <use x="244.677734" xlink:href="#DejaVuSans-32"/>
      <use x="276.464844" xlink:href="#DejaVuSans-115"/>
      <use x="328.564453" xlink:href="#DejaVuSans-116"/>
      <use x="367.773438" xlink:href="#DejaVuSans-101"/>
      <use x="429.296875" xlink:href="#DejaVuSans-112"/>
      <use x="492.773438" xlink:href="#DejaVuSans-115"/>
     </g>
    </g>
   </g>
   <g id="matplotlib.axis_2">
    <g id="ytick_1">
     <g id="line2d_17">
      <path clip-path="url(#p2d8284e208)" d="M 51.338438 249.101593 
L 336.928989 249.101593 
" style="fill:none;stroke:#b0b0b0;stroke-dasharray:2.96,1.28;stroke-dashoffset:0;stroke-opacity:0.6;stroke-width:0.8;"/>
     </g>
     <g id="line2d_18">
      <defs>
       <path d="M 0 0 
L -3.5 0 
" id="m94d28d0c24" style="stroke:#000000;stroke-width:0.8;"/>
      </defs>
      <g>
       <use style="stroke:#000000;stroke-width:0.8;" x="51.338438" xlink:href="#m94d28d0c24" y="249.101593"/>
      </g>
     </g>
     <g id="text_10">
      <!-- 0% -->
      <g transform="translate(28.474375 252.900812)scale(0.1 -0.1)">
       <defs>
        <path d="M 72.703125 32.078125 
Q 68.453125 32.078125 66.03125 28.46875 
Q 63.625 24.859375 63.625 18.40625 
Q 63.625 12.0625 66.03125 8.421875 
Q 68.453125 4.78125 72.703125 4.78125 
Q 76.859375 4.78125 79.265625 8.421875 
Q 81.6875 12.0625 81.6875 18.40625 
Q 81.6875 24.8125 79.265625 28.4375 
Q 76.859375 32.078125 72.703125 32.078125 
z
M 72.703125 38.28125 
Q 80.421875 38.28125 84.953125 32.90625 
Q 89.5 27.546875 89.5 18.40625 
Q 89.5 9.28125 84.9375 3.921875 
Q 80.375 -1.421875 72.703125 -1.421875 
Q 64.890625 -1.421875 60.34375 3.921875 
Q 55.8125 9.28125 55.8125 18.40625 
Q 55.8125 27.59375 60.375 32.9375 
Q 64.9375 38.28125 72.703125 38.28125 
z
M 22.3125 68.015625 
Q 18.109375 68.015625 15.6875 64.375 
Q 13.28125 60.75 13.28125 54.390625 
Q 13.28125 47.953125 15.671875 44.328125 
Q 18.0625 40.71875 22.3125 40.71875 
Q 26.5625 40.71875 28.96875 44.328125 
Q 31.390625 47.953125 31.390625 54.390625 
Q 31.390625 60.6875 28.953125 64.34375 
Q 26.515625 68.015625 22.3125 68.015625 
z
M 66.40625 74.21875 
L 74.21875 74.21875 
L 28.609375 -1.421875 
L 20.796875 -1.421875 
z
M 22.3125 74.21875 
Q 30.03125 74.21875 34.609375 68.875 
Q 39.203125 63.53125 39.203125 54.390625 
Q 39.203125 45.171875 34.640625 39.84375 
Q 30.078125 34.515625 22.3125 34.515625 
Q 14.546875 34.515625 10.03125 39.859375 
Q 5.515625 45.21875 5.515625 54.390625 
Q 5.515625 63.484375 10.046875 68.84375 
Q 14.59375 74.21875 22.3125 74.21875 
z
" id="DejaVuSans-37"/>
       </defs>
       <use xlink:href="#DejaVuSans-48"/>
       <use x="63.623047" xlink:href="#DejaVuSans-37"/>
      </g>
     </g>
    </g>
    <g id="ytick_2">
     <g id="line2d_19">
      <path clip-path="url(#p2d8284e208)" d="M 51.338438 205.081213 
L 336.928989 205.081213 
" style="fill:none;stroke:#b0b0b0;stroke-dasharray:2.96,1.28;stroke-dashoffset:0;stroke-opacity:0.6;stroke-width:0.8;"/>
     </g>
     <g id="line2d_20">
      <g>
       <use style="stroke:#000000;stroke-width:0.8;" x="51.338438" xlink:href="#m94d28d0c24" y="205.081213"/>
      </g>
     </g>
     <g id="text_11">
      <!-- 20% -->
      <g transform="translate(22.111875 208.880432)scale(0.1 -0.1)">
       <use xlink:href="#DejaVuSans-50"/>
       <use x="63.623047" xlink:href="#DejaVuSans-48"/>
       <use x="127.246094" xlink:href="#DejaVuSans-37"/>
      </g>
     </g>
    </g>
    <g id="ytick_3">
     <g id="line2d_21">
      <path clip-path="url(#p2d8284e208)" d="M 51.338438 161.060834 
L 336.928989 161.060834 
" style="fill:none;stroke:#b0b0b0;stroke-dasharray:2.96,1.28;stroke-dashoffset:0;stroke-opacity:0.6;stroke-width:0.8;"/>
     </g>
     <g id="line2d_22">
      <g>
       <use style="stroke:#000000;stroke-width:0.8;" x="51.338438" xlink:href="#m94d28d0c24" y="161.060834"/>
      </g>
     </g>
     <g id="text_12">
      <!-- 40% -->
      <g transform="translate(22.111875 164.860052)scale(0.1 -0.1)">
       <use xlink:href="#DejaVuSans-52"/>
       <use x="63.623047" xlink:href="#DejaVuSans-48"/>
       <use x="127.246094" xlink:href="#DejaVuSans-37"/>
      </g>
     </g>
    </g>
    <g id="ytick_4">
     <g id="line2d_23">
      <path clip-path="url(#p2d8284e208)" d="M 51.338438 117.040454 
L 336.928989 117.040454 
" style="fill:none;stroke:#b0b0b0;stroke-dasharray:2.96,1.28;stroke-dashoffset:0;stroke-opacity:0.6;stroke-width:0.8;"/>
     </g>
     <g id="line2d_24">
      <g>
       <use style="stroke:#000000;stroke-width:0.8;" x="51.338438" xlink:href="#m94d28d0c24" y="117.040454"/>
      </g>
     </g>
     <g id="text_13">
      <!-- 60% -->
      <g transform="translate(22.111875 120.839673)scale(0.1 -0.1)">
       <use xlink:href="#DejaVuSans-54"/>
       <use x="63.623047" xlink:href="#DejaVuSans-48"/>
       <use x="127.246094" xlink:href="#DejaVuSans-37"/>
      </g>
     </g>
    </g>
    <g id="ytick_5">
     <g id="line2d_25">
      <path clip-path="url(#p2d8284e208)" d="M 51.338438 73.020074 
L 336.928989 73.020074 
" style="fill:none;stroke:#b0b0b0;stroke-dasharray:2.96,1.28;stroke-dashoffset:0;stroke-opacity:0.6;stroke-width:0.8;"/>
     </g>
     <g id="line2d_26">
      <g>
       <use style="stroke:#000000;stroke-width:0.8;" x="51.338438" xlink:href="#m94d28d0c24" y="73.020074"/>
      </g>
     </g>
     <g id="text_14">
      <!-- 80% -->
      <g transform="translate(22.111875 76.819293)scale(0.1 -0.1)">
       <defs>
        <path d="M 31.78125 34.625 
Q 24.75 34.625 20.71875 30.859375 
Q 16.703125 27.09375 16.703125 20.515625 
Q 16.703125 13.921875 20.71875 10.15625 
Q 24.75 6.390625 31.78125 6.390625 
Q 38.8125 6.390625 42.859375 10.171875 
Q 46.921875 13.96875 46.921875 20.515625 
Q 46.921875 27.09375 42.890625 30.859375 
Q 38.875 34.625 31.78125 34.625 
z
M 21.921875 38.8125 
Q 15.578125 40.375 12.03125 44.71875 
Q 8.5 49.078125 8.5 55.328125 
Q 8.5 64.0625 14.71875 69.140625 
Q 20.953125 74.21875 31.78125 74.21875 
Q 42.671875 74.21875 48.875 69.140625 
Q 55.078125 64.0625 55.078125 55.328125 
Q 55.078125 49.078125 51.53125 44.71875 
Q 48 40.375 41.703125 38.8125 
Q 48.828125 37.15625 52.796875 32.3125 
Q 56.78125 27.484375 56.78125 20.515625 
Q 56.78125 9.90625 50.3125 4.234375 
Q 43.84375 -1.421875 31.78125 -1.421875 
Q 19.734375 -1.421875 13.25 4.234375 
Q 6.78125 9.90625 6.78125 20.515625 
Q 6.78125 27.484375 10.78125 32.3125 
Q 14.796875 37.15625 21.921875 38.8125 
z
M 18.3125 54.390625 
Q 18.3125 48.734375 21.84375 45.5625 
Q 25.390625 42.390625 31.78125 42.390625 
Q 38.140625 42.390625 41.71875 45.5625 
Q 45.3125 48.734375 45.3125 54.390625 
Q 45.3125 60.0625 41.71875 63.234375 
Q 38.140625 66.40625 31.78125 66.40625 
Q 25.390625 66.40625 21.84375 63.234375 
Q 18.3125 60.0625 18.3125 54.390625 
z
" id="DejaVuSans-56"/>
       </defs>
       <use xlink:href="#DejaVuSans-56"/>
       <use x="63.623047" xlink:href="#DejaVuSans-48"/>
       <use x="127.246094" xlink:href="#DejaVuSans-37"/>
      </g>
     </g>
    </g>
    <g id="ytick_6">
     <g id="line2d_27">
      <path clip-path="url(#p2d8284e208)" d="M 51.338438 28.999694 
L 336.928989 28.999694 
" style="fill:none;stroke:#b0b0b0;stroke-dasharray:2.96,1.28;stroke-dashoffset:0;stroke-opacity:0.6;stroke-width:0.8;"/>
     </g>
     <g id="line2d_28">
      <g>
       <use style="stroke:#000000;stroke-width:0.8;" x="51.338438" xlink:href="#m94d28d0c24" y="28.999694"/>
      </g>
     </g>
     <g id="text_15">
      <!-- 100% -->
      <g transform="translate(15.749375 32.798913)scale(0.1 -0.1)">
       <use xlink:href="#DejaVuSans-49"/>
       <use x="63.623047" xlink:href="#DejaVuSans-48"/>
       <use x="127.246094" xlink:href="#DejaVuSans-48"/>
       <use x="190.869141" xlink:href="#DejaVuSans-37"/>
      </g>
     </g>
    </g>
    <g id="text_16">
     <!-- Success per episode -->
     <g transform="translate(17.837812 208.482594)rotate(-90)scale(0.14 -0.14)">
      <defs>
       <path d="M 53.515625 70.515625 
L 53.515625 60.890625 
Q 47.90625 63.578125 42.921875 64.890625 
Q 37.9375 66.21875 33.296875 66.21875 
Q 25.25 66.21875 20.875 63.09375 
Q 16.5 59.96875 16.5 54.203125 
Q 16.5 49.359375 19.40625 46.890625 
Q 22.3125 44.4375 30.421875 42.921875 
L 36.375 41.703125 
Q 47.40625 39.59375 52.65625 34.296875 
Q 57.90625 29 57.90625 20.125 
Q 57.90625 9.515625 50.796875 4.046875 
Q 43.703125 -1.421875 29.984375 -1.421875 
Q 24.8125 -1.421875 18.96875 -0.25 
Q 13.140625 0.921875 6.890625 3.21875 
L 6.890625 13.375 
Q 12.890625 10.015625 18.65625 8.296875 
Q 24.421875 6.59375 29.984375 6.59375 
Q 38.421875 6.59375 43.015625 9.90625 
Q 47.609375 13.234375 47.609375 19.390625 
Q 47.609375 24.75 44.3125 27.78125 
Q 41.015625 30.8125 33.5 32.328125 
L 27.484375 33.5 
Q 16.453125 35.6875 11.515625 40.375 
Q 6.59375 45.0625 6.59375 53.421875 
Q 6.59375 63.09375 13.40625 68.65625 
Q 20.21875 74.21875 32.171875 74.21875 
Q 37.3125 74.21875 42.625 73.28125 
Q 47.953125 72.359375 53.515625 70.515625 
z
" id="DejaVuSans-83"/>
       <path d="M 8.5 21.578125 
L 8.5 54.6875 
L 17.484375 54.6875 
L 17.484375 21.921875 
Q 17.484375 14.15625 20.5 10.265625 
Q 23.53125 6.390625 29.59375 6.390625 
Q 36.859375 6.390625 41.078125 11.03125 
Q 45.3125 15.671875 45.3125 23.6875 
L 45.3125 54.6875 
L 54.296875 54.6875 
L 54.296875 0 
L 45.3125 0 
L 45.3125 8.40625 
Q 42.046875 3.421875 37.71875 1 
Q 33.40625 -1.421875 27.6875 -1.421875 
Q 18.265625 -1.421875 13.375 4.4375 
Q 8.5 10.296875 8.5 21.578125 
z
M 31.109375 56 
z
" id="DejaVuSans-117"/>
       <path d="M 48.78125 52.59375 
L 48.78125 44.1875 
Q 44.96875 46.296875 41.140625 47.34375 
Q 37.3125 48.390625 33.40625 48.390625 
Q 24.65625 48.390625 19.8125 42.84375 
Q 14.984375 37.3125 14.984375 27.296875 
Q 14.984375 17.28125 19.8125 11.734375 
Q 24.65625 6.203125 33.40625 6.203125 
Q 37.3125 6.203125 41.140625 7.25 
Q 44.96875 8.296875 48.78125 10.40625 
L 48.78125 2.09375 
Q 45.015625 0.34375 40.984375 -0.53125 
Q 36.96875 -1.421875 32.421875 -1.421875 
Q 20.0625 -1.421875 12.78125 6.34375 
Q 5.515625 14.109375 5.515625 27.296875 
Q 5.515625 40.671875 12.859375 48.328125 
Q 20.21875 56 33.015625 56 
Q 37.15625 56 41.109375 55.140625 
Q 45.0625 54.296875 48.78125 52.59375 
z
" id="DejaVuSans-99"/>
       <path d="M 41.109375 46.296875 
Q 39.59375 47.171875 37.8125 47.578125 
Q 36.03125 48 33.890625 48 
Q 26.265625 48 22.1875 43.046875 
Q 18.109375 38.09375 18.109375 28.8125 
L 18.109375 0 
L 9.078125 0 
L 9.078125 54.6875 
L 18.109375 54.6875 
L 18.109375 46.1875 
Q 20.953125 51.171875 25.484375 53.578125 
Q 30.03125 56 36.53125 56 
Q 37.453125 56 38.578125 55.875 
Q 39.703125 55.765625 41.0625 55.515625 
z
" id="DejaVuSans-114"/>
       <path d="M 30.609375 48.390625 
Q 23.390625 48.390625 19.1875 42.75 
Q 14.984375 37.109375 14.984375 27.296875 
Q 14.984375 17.484375 19.15625 11.84375 
Q 23.34375 6.203125 30.609375 6.203125 
Q 37.796875 6.203125 41.984375 11.859375 
Q 46.1875 17.53125 46.1875 27.296875 
Q 46.1875 37.015625 41.984375 42.703125 
Q 37.796875 48.390625 30.609375 48.390625 
z
M 30.609375 56 
Q 42.328125 56 49.015625 48.375 
Q 55.71875 40.765625 55.71875 27.296875 
Q 55.71875 13.875 49.015625 6.21875 
Q 42.328125 -1.421875 30.609375 -1.421875 
Q 18.84375 -1.421875 12.171875 6.21875 
Q 5.515625 13.875 5.515625 27.296875 
Q 5.515625 40.765625 12.171875 48.375 
Q 18.84375 56 30.609375 56 
z
" id="DejaVuSans-111"/>
       <path d="M 45.40625 46.390625 
L 45.40625 75.984375 
L 54.390625 75.984375 
L 54.390625 0 
L 45.40625 0 
L 45.40625 8.203125 
Q 42.578125 3.328125 38.25 0.953125 
Q 33.9375 -1.421875 27.875 -1.421875 
Q 17.96875 -1.421875 11.734375 6.484375 
Q 5.515625 14.40625 5.515625 27.296875 
Q 5.515625 40.1875 11.734375 48.09375 
Q 17.96875 56 27.875 56 
Q 33.9375 56 38.25 53.625 
Q 42.578125 51.265625 45.40625 46.390625 
z
M 14.796875 27.296875 
Q 14.796875 17.390625 18.875 11.75 
Q 22.953125 6.109375 30.078125 6.109375 
Q 37.203125 6.109375 41.296875 11.75 
Q 45.40625 17.390625 45.40625 27.296875 
Q 45.40625 37.203125 41.296875 42.84375 
Q 37.203125 48.484375 30.078125 48.484375 
Q 22.953125 48.484375 18.875 42.84375 
Q 14.796875 37.203125 14.796875 27.296875 
z
" id="DejaVuSans-100"/>
      </defs>
      <use xlink:href="#DejaVuSans-83"/>
      <use x="63.476562" xlink:href="#DejaVuSans-117"/>
      <use x="126.855469" xlink:href="#DejaVuSans-99"/>
      <use x="181.835938" xlink:href="#DejaVuSans-99"/>
      <use x="236.816406" xlink:href="#DejaVuSans-101"/>
      <use x="298.339844" xlink:href="#DejaVuSans-115"/>
      <use x="350.439453" xlink:href="#DejaVuSans-115"/>
      <use x="402.539062" xlink:href="#DejaVuSans-32"/>
      <use x="434.326172" xlink:href="#DejaVuSans-112"/>
      <use x="497.802734" xlink:href="#DejaVuSans-101"/>
      <use x="559.326172" xlink:href="#DejaVuSans-114"/>
      <use x="600.439453" xlink:href="#DejaVuSans-32"/>
      <use x="632.226562" xlink:href="#DejaVuSans-101"/>
      <use x="693.75" xlink:href="#DejaVuSans-112"/>
      <use x="757.226562" xlink:href="#DejaVuSans-105"/>
      <use x="785.009766" xlink:href="#DejaVuSans-115"/>
      <use x="837.109375" xlink:href="#DejaVuSans-111"/>
      <use x="898.291016" xlink:href="#DejaVuSans-100"/>
      <use x="961.767578" xlink:href="#DejaVuSans-101"/>
     </g>
    </g>
   </g>
   <g id="line2d_29">
    <path clip-path="url(#p2d8284e208)" d="M 55.136017 249.101593 
L 55.156555 248.994604 
L 55.181704 223.933371 
L 55.325855 185.733531 
L 57.240126 164.482963 
L 61.041541 120.726034 
L 61.456171 117.579771 
L 61.8553 116.034355 
L 62.246679 115.356103 
L 62.548932 115.188484 
L 63.374316 115.069074 
L 64.765456 114.268061 
L 65.424213 114.564786 
L 65.900843 114.717913 
L 66.288347 114.605821 
L 66.648726 114.254806 
L 67.04398 113.533034 
L 70.938397 105.654425 
L 71.449902 104.855581 
L 71.953658 103.578217 
L 72.724791 100.867858 
L 74.848314 93.776605 
L 75.9217 91.174948 
L 77.215964 87.055323 
L 78.564478 82.983622 
L 79.292986 81.601064 
L 80.598875 79.486934 
L 81.122006 79.151029 
L 81.792388 78.752084 
L 82.145017 78.094108 
L 82.582896 76.773437 
L 83.842285 72.698946 
L 84.721919 70.72967 
L 85.136549 70.233473 
L 85.493052 70.115492 
L 86.023933 70.258083 
L 86.403687 70.201715 
L 86.767941 69.908456 
L 87.217446 69.197667 
L 88.810088 66.43632 
L 89.379719 66.019841 
L 90.414355 65.456192 
L 91.421866 64.816142 
L 92.003122 64.86361 
L 92.526253 64.842612 
L 92.917632 64.622815 
L 93.611264 64.204444 
L 94.006518 64.282816 
L 94.428898 64.638963 
L 95.09928 65.156727 
L 96.106791 65.810793 
L 96.9903 66.495461 
L 97.296429 66.405156 
L 97.637432 66.045859 
L 98.737944 64.69349 
L 99.179699 64.586998 
L 100.012833 64.413079 
L 102.020104 63.566803 
L 102.860988 63.185527 
L 103.566245 62.481093 
L 104.143627 62.022039 
L 104.620257 61.908955 
L 105.441766 61.751694 
L 105.89127 61.412871 
L 107.317286 60.144968 
L 108.999054 59.414884 
L 109.828312 59.313364 
L 110.924949 59.2612 
L 111.258203 59.556693 
L 111.661207 60.259093 
L 112.40134 61.545995 
L 112.750094 61.738345 
L 113.052347 61.648592 
L 115.284371 60.472598 
L 116.663885 60.27764 
L 117.156016 60.514129 
L 117.59777 60.949589 
L 118.903659 62.366717 
L 119.256288 62.292261 
L 119.748418 61.914392 
L 120.263799 61.63079 
L 120.651303 61.657078 
L 121.112433 61.919384 
L 121.895191 62.407674 
L 122.317571 62.35942 
L 122.66245 62.068404 
L 123.212705 61.266146 
L 124.088465 60.010222 
L 124.685221 59.566078 
L 125.94461 58.975388 
L 126.324364 59.057967 
L 127.277624 59.621605 
L 127.979006 59.873724 
L 128.552512 59.916899 
L 128.959392 59.710754 
L 129.412772 59.180653 
L 130.071529 58.479098 
L 130.447408 58.357858 
L 131.020914 58.506541 
L 131.652546 58.559291 
L 132.396554 58.614512 
L 132.853808 58.930572 
L 133.357564 59.537248 
L 133.903945 60.59402 
L 135.411336 63.562814 
L 136.163094 64.381086 
L 136.903227 64.908634 
L 137.72086 65.193614 
L 140.014885 65.506734 
L 140.51089 65.561356 
L 140.851894 65.844241 
L 142.169408 67.254014 
L 143.192419 67.605937 
L 143.839551 67.962243 
L 144.157304 67.868092 
L 144.482808 67.521886 
L 145.075689 66.472127 
L 147.617716 61.689038 
L 148.268723 60.991424 
L 149.679238 59.626733 
L 151.016127 57.84842 
L 151.721385 57.599783 
L 152.14764 57.300231 
L 152.643645 56.632378 
L 153.434153 55.686864 
L 153.868158 55.486451 
L 155.228297 55.137345 
L 156.169932 54.542706 
L 156.596187 54.628078 
L 157.588198 54.858758 
L 158.204329 54.667884 
L 159.882222 54.050507 
L 160.583605 54.198306 
L 161.157111 54.503205 
L 162.284748 55.085052 
L 162.614126 54.981559 
L 163.203133 54.446679 
L 164.226144 53.517287 
L 165.377031 52.872224 
L 166.427167 52.420893 
L 166.826296 52.423967 
L 168.298812 52.686304 
L 168.911069 52.429745 
L 169.844954 52.090885 
L 170.414585 52.174005 
L 172.530357 52.704681 
L 173.018613 52.414986 
L 173.847871 51.594539 
L 174.305126 51.314581 
L 174.70038 51.328064 
L 174.991009 51.572633 
L 175.351387 52.223932 
L 176.820028 55.211045 
L 177.238533 55.310079 
L 178.257668 55.431727 
L 180.388941 56.726465 
L 180.830696 57.302916 
L 182.093959 59.136097 
L 184.46161 61.718342 
L 185.845 64.17428 
L 186.217004 64.216499 
L 186.701384 64.075606 
L 187.809646 63.330966 
L 188.27465 63.118407 
L 188.71253 63.16891 
L 189.448788 63.235267 
L 189.778167 63.010729 
L 190.177296 62.433398 
L 191.603311 60.166152 
L 192.021816 60.014105 
L 192.761948 59.737153 
L 193.269579 59.355253 
L 193.889585 58.934293 
L 194.563843 58.780712 
L 195.358226 58.624957 
L 195.757355 58.252699 
L 196.268861 57.432811 
L 197.210496 55.847439 
L 197.539874 55.711833 
L 197.892503 55.836852 
L 198.373008 56.248965 
L 199.136392 56.919722 
L 200.705783 58.106959 
L 201.500167 58.803654 
L 202.124048 59.483367 
L 202.569678 60.329236 
L 203.336936 61.749219 
L 203.705065 62.033872 
L 204.026694 62.009956 
L 204.499449 61.703908 
L 205.495334 61.032999 
L 206.150216 60.577936 
L 206.731473 60.202987 
L 207.060851 60.224322 
L 207.394105 60.490689 
L 208.362865 61.363045 
L 208.878246 61.417437 
L 209.529253 61.330816 
L 209.947757 61.068382 
L 210.346886 60.505118 
L 211.652775 58.516712 
L 212.544035 57.409061 
L 213.222167 56.624558 
L 213.741423 56.318055 
L 214.314929 55.945859 
L 215.140313 55.517463 
L 215.458066 55.564142 
L 215.938571 55.910682 
L 216.430701 56.543968 
L 217.337461 57.681937 
L 217.914842 58.075179 
L 218.325597 58.131073 
L 218.65885 57.93702 
L 219.13548 57.335773 
L 219.829113 56.518646 
L 220.139116 56.48251 
L 220.739747 56.681507 
L 221.975886 57.427484 
L 222.712143 58.042516 
L 223.045397 58.052128 
L 223.413526 57.789456 
L 224.266035 57.140375 
L 224.672914 57.177628 
L 225.723051 57.403261 
L 226.110555 57.133038 
L 227.850448 55.643484 
L 229.725968 55.158915 
L 230.113472 55.223719 
L 230.555227 55.527757 
L 231.105483 56.24083 
L 232.260245 57.614026 
L 232.72525 57.830318 
L 233.112755 57.802037 
L 233.492509 57.514117 
L 234.205516 57.010401 
L 234.59302 56.995005 
L 234.910774 57.22282 
L 235.360279 57.843856 
L 236.480166 59.435771 
L 238.80519 61.455649 
L 239.584074 61.646124 
L 241.029464 62.372127 
L 241.680471 62.674415 
L 242.141601 62.574874 
L 242.560105 62.24514 
L 243.563741 61.413516 
L 244.051996 61.202365 
L 244.493751 61.281174 
L 244.85413 61.59035 
L 245.919766 62.657322 
L 246.307271 62.716772 
L 246.7529 62.533431 
L 248.004539 61.628702 
L 248.60517 60.959989 
L 249.666931 59.668986 
L 249.97306 59.706696 
L 250.317938 59.977445 
L 251.43395 61.075171 
L 251.836955 61.082182 
L 252.441461 60.75452 
L 253.274595 60.51488 
L 253.805476 60.749058 
L 254.66186 61.035596 
L 255.12299 60.860608 
L 255.649995 60.431146 
L 257.017885 59.027558 
L 257.347263 59.175933 
L 257.92077 59.722845 
L 258.354774 60.010247 
L 258.726778 59.98736 
L 259.238284 59.702995 
L 259.81954 59.439283 
L 260.381421 59.4355 
L 261.160304 59.462384 
L 261.617559 59.204912 
L 262.353817 58.49045 
L 263.1017 57.797773 
L 263.527954 57.681097 
L 263.857333 57.846618 
L 264.465715 58.45001 
L 265.895605 59.95125 
L 266.686113 61.370768 
L 267.464997 63.256753 
L 268.162504 64.843909 
L 268.499633 65.122108 
L 268.790261 65.079766 
L 269.631145 64.834651 
L 269.941148 65.079892 
L 270.382903 65.781138 
L 271.498915 67.594317 
L 271.975545 67.851324 
L 272.568426 67.932744 
L 273.304684 67.775433 
L 275.734335 66.581769 
L 276.528718 65.434415 
L 278.191111 62.568629 
L 278.888619 61.651031 
L 279.772128 60.34793 
L 280.039506 60.353315 
L 280.349509 60.60772 
L 281.329895 61.549542 
L 281.880151 61.598672 
L 282.511782 61.693246 
L 283.383667 62.161907 
L 284.844557 63.108496 
L 286.018695 63.803693 
L 286.503075 63.763341 
L 287.316834 63.667217 
L 287.615212 63.949026 
L 288.045341 64.72414 
L 289.006352 66.519181 
L 289.347355 66.647415 
L 289.665109 66.528257 
L 290.505993 66.085675 
L 290.881872 66.198326 
L 291.65688 66.487832 
L 291.932008 66.305716 
L 292.300137 65.75237 
L 293.133271 64.486133 
L 293.5014 64.326362 
L 295.144417 64.352515 
L 295.818674 64.562694 
L 296.423181 64.667363 
L 297.132314 64.585635 
L 298.008073 64.449347 
L 298.767581 64.377541 
L 299.096959 64.05917 
L 299.492214 63.329515 
L 300.499724 61.401228 
L 300.856228 61.213407 
L 301.228232 61.260107 
L 302.592247 61.710333 
L 303.072752 61.42823 
L 303.665633 61.128954 
L 304.661519 60.812174 
L 305.045148 60.317005 
L 306.203785 58.610107 
L 306.65329 58.432675 
L 307.095045 58.474996 
L 307.59105 58.744269 
L 309.303819 59.985147 
L 310.206703 60.260294 
L 310.609707 60.650103 
L 311.082463 61.444239 
L 312.880482 64.895108 
L 313.213735 65.002497 
L 313.628365 64.87616 
L 314.236746 64.411123 
L 314.899378 63.998163 
L 315.306258 63.983528 
L 315.779013 64.215397 
L 317.174028 64.965323 
L 318.011037 65.185615 
L 318.390791 65.102 
L 318.824795 64.739534 
L 319.247175 64.120259 
L 320.843692 61.443217 
L 321.382323 61.184313 
L 321.940329 60.837335 
L 322.649461 60.111124 
L 323.45547 59.338285 
L 324.028976 59.000282 
L 325.358115 58.663303 
L 325.877371 58.799243 
L 326.931382 59.213838 
L 327.485513 58.88245 
L 328.078394 58.641374 
L 329.221531 58.466343 
L 330.659172 57.754677 
L 331.089301 57.905817 
L 331.627932 58.36468 
L 332.720694 59.744803 
L 334.061458 61.299452 
L 334.386962 61.36929 
L 334.859717 61.200565 
L 335.487473 60.744985 
L 336.006729 60.484208 
L 336.417483 60.485656 
L 336.773987 60.739997 
L 336.932864 60.890002 
L 336.932864 60.890002 
" style="fill:none;stroke:#145a32;stroke-dasharray:2,2;stroke-dashoffset:0;stroke-width:2;"/>
   </g>
   <g id="line2d_30">
    <path clip-path="url(#p2d8284e208)" d="M 55.136017 249.101593 
L 55.17934 248.992024 
L 55.212278 242.037106 
L 55.32198 241.244812 
L 56.468992 236.786319 
L 58.038384 229.682095 
L 59.797653 220.696919 
L 61.285669 211.763991 
L 63.773445 197.206362 
L 64.594954 193.85921 
L 65.807842 189.999181 
L 67.923615 183.961571 
L 72.16291 173.619422 
L 73.662551 171.353036 
L 74.48406 170.576987 
L 75.262943 169.770691 
L 75.9372 168.675141 
L 77.731344 165.10132 
L 79.296861 161.255412 
L 81.292508 156.404683 
L 82.148892 155.1056 
L 82.753398 154.06933 
L 83.602032 152.074588 
L 84.826545 148.791209 
L 87.57395 140.298652 
L 88.678336 137.390055 
L 90.898735 130.684632 
L 91.820995 129.073072 
L 93.274136 126.666013 
L 94.6459 124.108411 
L 96.323793 122.137127 
L 97.699433 120.867973 
L 98.439566 120.200049 
L 99.082823 119.242875 
L 100.532088 116.911033 
L 100.935092 116.750109 
L 101.407847 116.829751 
L 102.163481 116.993588 
L 102.535484 116.827899 
L 103.108991 116.277323 
L 104.790759 114.447669 
L 105.488266 114.176199 
L 107.278535 113.749754 
L 107.995418 114.082244 
L 109.316807 114.664036 
L 110.045315 114.953871 
L 110.51032 115.410138 
L 110.990825 116.211867 
L 111.626332 117.78704 
L 112.567967 120.010049 
L 113.009721 120.538936 
L 113.788605 120.986731 
L 114.486112 121.433116 
L 116.016754 122.671746 
L 116.462383 122.667366 
L 116.942888 122.426999 
L 117.907774 121.919905 
L 118.380529 121.91183 
L 118.992785 122.164556 
L 119.667043 122.684467 
L 120.85668 123.565007 
L 121.426311 123.714285 
L 121.949442 123.61904 
L 122.488073 123.285463 
L 123.751336 122.34261 
L 124.394593 122.325467 
L 125.088225 122.343342 
L 126.541366 121.87336 
L 127.661253 121.469791 
L 128.056507 121.609188 
L 128.498262 122.028001 
L 129.885527 123.517478 
L 130.505533 123.670176 
L 131.536294 123.932353 
L 132.299677 124.457693 
L 132.884809 124.737364 
L 133.404064 124.702195 
L 134.140322 124.458353 
L 134.946331 123.963095 
L 136.182469 123.048338 
L 136.535098 123.126449 
L 136.899352 123.467551 
L 137.585234 124.471951 
L 139.286377 126.929819 
L 141.832279 129.594807 
L 142.161658 129.573792 
L 142.502661 129.310814 
L 143.006417 128.58673 
L 143.893801 126.839248 
L 144.517683 125.901027 
L 146.319577 123.845733 
L 148.322974 120.742551 
L 148.95073 120.020296 
L 149.338235 119.884269 
L 150.206244 119.707768 
L 150.620873 119.26509 
L 151.058753 118.4442 
L 152.953648 114.319442 
L 153.492279 113.81475 
L 153.957284 113.650718 
L 154.422289 113.746311 
L 154.813668 114.025069 
L 155.379424 114.780272 
L 156.146682 115.676029 
L 156.526436 115.769901 
L 156.987566 115.637598 
L 158.595708 115.00484 
L 159.207965 115.148646 
L 159.909347 115.246568 
L 160.374352 115.118102 
L 160.850983 114.760521 
L 161.827493 113.974551 
L 162.149121 114.048189 
L 162.544376 114.409502 
L 163.017131 115.200356 
L 163.803764 116.419029 
L 164.187393 116.705503 
L 164.489646 116.656331 
L 164.873275 116.356386 
L 165.369281 115.67624 
L 167.802807 112.045229 
L 168.08956 112.10109 
L 168.430563 112.404202 
L 168.860693 113.117791 
L 170.383584 115.913372 
L 170.778839 116.021314 
L 171.406595 116.19493 
L 172.061477 116.589276 
L 172.941112 117.447208 
L 174.239251 118.577033 
L 174.777881 118.712618 
L 175.855143 118.947934 
L 176.351148 119.486186 
L 177.606662 121.00951 
L 178.087167 121.10166 
L 179.908436 121.111381 
L 181.1717 121.087859 
L 181.780081 121.233655 
L 183.717602 122.018411 
L 184.03148 121.778557 
L 184.45386 121.13977 
L 185.596997 119.284537 
L 185.907 119.278166 
L 186.32163 119.526256 
L 186.81376 119.73839 
L 187.209014 119.658159 
L 187.615893 119.327237 
L 188.836531 118.242539 
L 189.15041 118.243892 
L 189.483663 118.505143 
L 189.948668 119.189014 
L 191.250682 121.230564 
L 191.622686 121.337283 
L 192.192317 121.193654 
L 192.866575 121.101567 
L 193.451706 121.31436 
L 193.990337 121.77133 
L 194.900971 122.524967 
L 195.435727 123.000712 
L 195.869732 123.719242 
L 196.524614 125.342023 
L 197.036119 126.343187 
L 197.384873 126.601798 
L 197.660001 126.559171 
L 198.09013 126.179557 
L 198.617136 125.858066 
L 199.155767 125.790941 
L 199.570396 125.956356 
L 200.252403 126.520527 
L 201.085537 127.180813 
L 201.426541 127.162279 
L 201.75592 126.894109 
L 202.875806 125.683907 
L 203.887192 125.267664 
L 204.356072 124.540764 
L 207.738983 117.943833 
L 209.277375 114.620176 
L 209.76563 114.218784 
L 210.312011 114.037322 
L 210.707265 114.131654 
L 211.230396 114.509623 
L 212.319282 115.344776 
L 214.268428 116.249674 
L 215.430941 115.936959 
L 215.880445 116.294029 
L 217.72884 118.250301 
L 218.193845 118.661538 
L 218.802227 118.867274 
L 219.286607 119.079542 
L 219.670236 119.553348 
L 220.9955 121.372544 
L 221.491505 121.476812 
L 222.324639 121.358125 
L 222.723769 121.169659 
L 223.328275 120.606103 
L 224.316411 119.752271 
L 225.796676 118.886247 
L 226.149305 119.060063 
L 227.710947 120.085918 
L 228.609956 120.586771 
L 228.993586 120.70766 
L 230.636603 120.789013 
L 231.965742 121.401346 
L 232.632249 122.304414 
L 235.414529 126.625356 
L 235.751658 126.701623 
L 236.735918 126.755424 
L 237.076922 127.043987 
L 239.921202 130.303651 
L 240.62646 131.113836 
L 241.215466 132.310192 
L 242.362478 134.585138 
L 242.780983 134.884552 
L 243.156862 134.90692 
L 243.536616 134.714074 
L 244.668128 133.904257 
L 245.683389 133.332096 
L 246.811026 132.186697 
L 247.16753 132.211163 
L 248.062664 132.483274 
L 248.481169 132.253405 
L 248.860923 131.751898 
L 249.976935 130.131186 
L 251.891205 127.636216 
L 252.491837 127.375109 
L 254.514608 126.942083 
L 255.250866 126.95317 
L 256.882258 127.189665 
L 257.769643 127.12741 
L 259.094907 127.415167 
L 259.521162 127.778312 
L 260.567423 128.847796 
L 260.923927 128.823095 
L 261.865562 128.593349 
L 262.16394 128.894526 
L 262.60957 129.721243 
L 263.248952 130.863108 
L 263.574455 131.040749 
L 263.969709 130.982763 
L 264.671092 130.805693 
L 265.031471 130.99117 
L 266.104857 131.588709 
L 266.608612 131.46851 
L 267.139493 131.107898 
L 268.26713 130.260356 
L 269.309516 129.646293 
L 269.790021 129.060864 
L 270.61928 127.75098 
L 272.126671 124.930285 
L 272.750553 124.598015 
L 273.455811 124.282615 
L 273.889815 123.7658 
L 274.726824 122.828305 
L 275.025202 122.826344 
L 275.470832 123.135202 
L 275.974587 123.369691 
L 276.210965 123.200182 
L 276.505468 122.664393 
L 277.811357 119.760895 
L 278.05936 119.797419 
L 278.431364 120.110958 
L 279.830254 121.556331 
L 280.430885 122.052732 
L 280.992766 122.92136 
L 281.938276 124.854725 
L 283.124039 126.957292 
L 283.635544 127.486109 
L 284.2013 127.714616 
L 284.60043 127.685734 
L 285.166186 127.388853 
L 285.948944 126.764421 
L 286.851829 125.875372 
L 287.588087 124.585985 
L 288.180968 123.67254 
L 288.634348 123.42395 
L 289.521732 122.991809 
L 290.986498 121.614913 
L 291.552254 121.485195 
L 291.897133 121.13271 
L 292.249761 120.422448 
L 294.590286 114.832948 
L 294.97004 114.536156 
L 295.237418 114.58127 
L 295.597797 114.914073 
L 296.008551 115.602237 
L 297.701945 118.975317 
L 298.132074 119.121963 
L 298.608704 119.315053 
L 298.976833 119.732951 
L 299.441838 120.646653 
L 300.546225 122.903393 
L 301.813364 124.724808 
L 302.220243 124.959558 
L 302.487621 124.890683 
L 302.8945 124.480963 
L 303.491256 123.949628 
L 303.83226 123.921357 
L 304.169389 124.168893 
L 305.103274 125.259246 
L 306.726916 127.291983 
L 307.102795 127.372924 
L 307.517424 127.238318 
L 307.920429 126.818658 
L 308.524935 125.846577 
L 309.191442 124.884107 
L 309.613822 124.617906 
L 310.644583 124.148253 
L 311.613343 123.254416 
L 312.334101 122.798817 
L 313.054859 122.455341 
L 313.860867 121.898653 
L 314.372373 121.600487 
L 314.783127 121.600453 
L 315.348883 121.821382 
L 316.151017 122.128333 
L 316.926025 122.447049 
L 317.89866 122.822365 
L 318.402416 122.739855 
L 319.471927 122.372517 
L 319.828431 122.490351 
L 320.359312 122.962403 
L 320.990943 123.438711 
L 321.316447 123.438596 
L 321.692326 123.202866 
L 322.09533 122.66907 
L 322.672711 121.462243 
L 323.839099 118.947917 
L 324.645107 117.810958 
L 325.261239 117.176249 
L 325.656493 117.091212 
L 326.012997 117.257949 
L 326.683379 117.598303 
L 327.043758 117.505688 
L 327.423512 117.133579 
L 328.051269 116.17032 
L 329.895789 112.803248 
L 330.713422 111.987755 
L 331.41868 111.593947 
L 332.007686 111.420785 
L 332.724569 111.538354 
L 333.193449 111.843112 
L 333.693329 112.420812 
L 334.23196 113.416165 
L 335.386722 115.78156 
L 335.805227 116.136628 
L 336.456234 116.613808 
L 336.932864 117.273438 
L 336.932864 117.273438 
" style="fill:none;stroke:#145a32;stroke-linecap:square;stroke-width:2;"/>
   </g>
   <g id="line2d_31">
    <path clip-path="url(#p2d8284e208)" d="M 55.136017 249.101593 
L 55.157291 248.991464 
L 55.174108 234.169634 
L 55.325855 167.837191 
L 61.963801 60.971754 
L 62.421056 57.797902 
L 62.76206 56.715925 
L 63.114688 56.343988 
L 63.610694 56.174322 
L 64.114449 56.271942 
L 65.257586 56.633375 
L 65.924093 57.281839 
L 66.389098 57.62916 
L 66.764977 57.657659 
L 67.125356 57.479267 
L 68.187118 56.419141 
L 68.632747 56.104358 
L 69.043502 56.065618 
L 69.34188 56.258257 
L 69.830135 56.912804 
L 70.729145 58.121352 
L 71.318151 58.399619 
L 71.721155 58.715828 
L 72.062159 59.291582 
L 72.596915 60.658195 
L 73.844678 64.093816 
L 74.371684 64.813489 
L 74.805688 65.088318 
L 75.46832 65.202322 
L 75.968201 65.317877 
L 76.549457 65.830307 
L 77.75072 67.003003 
L 78.67298 67.522685 
L 79.568114 68.216984 
L 80.55625 69.073545 
L 80.998004 69.179594 
L 81.432009 69.040079 
L 82.055891 68.550781 
L 82.656522 68.202913 
L 83.40053 67.796779 
L 83.807409 67.293295 
L 84.435166 66.120403 
L 85.097798 65.038866 
L 85.551178 64.643218 
L 85.892182 64.621278 
L 86.361062 64.82472 
L 87.542949 65.645373 
L 87.891703 65.486524 
L 88.298582 65.024822 
L 88.941839 64.342387 
L 89.414594 64.148802 
L 89.716848 64.262086 
L 90.348479 64.803043 
L 92.173624 66.455192 
L 92.599878 66.354732 
L 93.061008 65.998769 
L 94.208021 65.024752 
L 94.63815 65.052163 
L 95.909164 65.566929 
L 96.703547 66.141795 
L 97.156927 66.356093 
L 97.501806 66.283406 
L 97.850559 65.948404 
L 98.280689 65.186891 
L 99.26495 63.43457 
L 99.768705 62.99791 
L 100.907967 62.286912 
L 101.415598 61.603778 
L 102.981114 58.856455 
L 103.651496 57.771152 
L 104.046751 57.515905 
L 104.507881 57.473885 
L 105.073637 57.699563 
L 107.476162 58.778799 
L 107.824916 58.656155 
L 108.313171 58.248793 
L 109.971689 56.806477 
L 110.355318 56.881583 
L 111.684457 57.398592 
L 112.486591 57.236444 
L 113.172473 57.116127 
L 113.83123 57.211953 
L 114.396986 57.635453 
L 115.6835 58.662898 
L 116.11363 58.597639 
L 116.663885 58.23483 
L 117.171516 57.663608 
L 117.892274 56.369694 
L 119.581792 52.859662 
L 120.101047 52.429333 
L 120.484676 52.357785 
L 121.007807 52.538383 
L 121.612313 52.649785 
L 122.023068 52.495133 
L 122.875577 52.072935 
L 123.325082 52.144116 
L 124.723972 52.509001 
L 125.557105 52.369079 
L 126.285613 51.946735 
L 127.707753 50.793161 
L 128.041007 50.972788 
L 128.467262 51.504076 
L 130.110279 53.834025 
L 131.691296 55.455946 
L 132.342303 56.115041 
L 132.931309 56.364458 
L 134.624702 56.512252 
L 135.35321 56.34023 
L 135.911216 56.331768 
L 136.372346 56.565927 
L 137.933988 57.479742 
L 138.987999 57.734122 
L 139.57313 57.731232 
L 140.910019 57.575038 
L 141.274273 57.872659 
L 141.836154 58.695251 
L 142.615038 59.664203 
L 143.068418 59.847433 
L 144.041053 60.200663 
L 144.796686 60.786333 
L 145.587194 61.282872 
L 145.982449 61.31153 
L 146.831083 61.034773 
L 147.52859 60.553411 
L 148.024595 59.954498 
L 149.024356 58.715808 
L 149.36536 58.616733 
L 149.698613 58.765133 
L 150.268244 59.315437 
L 150.857251 59.74494 
L 151.380381 59.843107 
L 153.112525 59.911467 
L 154.778793 60.152967 
L 155.096546 59.789471 
L 155.809554 58.494729 
L 156.40631 57.662622 
L 156.917815 57.359044 
L 158.080328 56.95033 
L 158.611209 56.94127 
L 159.328091 57.212883 
L 160.684356 57.942684 
L 161.005984 57.72763 
L 161.424489 57.141145 
L 162.408749 55.726318 
L 162.94738 55.457528 
L 163.544136 55.09625 
L 164.129268 54.428613 
L 164.8384 53.276178 
L 166.582169 50.486753 
L 166.973548 50.295581 
L 167.407553 50.341866 
L 171.666223 51.598332 
L 172.336605 51.489671 
L 172.929487 51.506542 
L 173.448742 51.803968 
L 175.409513 53.112275 
L 175.890018 53.086454 
L 176.738652 52.955574 
L 177.137782 53.118273 
L 177.676412 53.629181 
L 178.490171 54.36627 
L 178.900925 54.407108 
L 179.272929 54.238623 
L 179.79606 53.725628 
L 181.857582 51.50766 
L 182.853468 50.853323 
L 183.268097 50.854419 
L 183.616851 51.062453 
L 184.058605 51.648469 
L 185.151367 53.178429 
L 185.581497 53.357722 
L 186.143378 53.358277 
L 186.78276 53.301862 
L 188.557529 53.608252 
L 190.208296 53.643079 
L 190.758552 54.014694 
L 191.258432 54.640579 
L 192.064441 56.096492 
L 192.889825 57.47279 
L 193.730709 58.439779 
L 194.342965 58.80523 
L 194.811845 58.803679 
L 195.342726 58.611272 
L 195.772856 58.179781 
L 196.555614 56.995961 
L 197.245371 56.165519 
L 198.06688 55.60597 
L 198.872889 55.336724 
L 199.384394 55.465619 
L 200.213653 55.695075 
L 200.550782 55.520202 
L 201.434291 54.929581 
L 201.775295 54.981858 
L 202.848681 55.413708 
L 203.212935 55.134701 
L 203.922068 54.213435 
L 205.041955 52.470135 
L 205.743337 51.538957 
L 206.243217 51.200297 
L 207.642107 50.702217 
L 208.947996 50.408872 
L 211.160645 49.213423 
L 211.803902 48.894541 
L 212.206906 48.893509 
L 213.226042 49.059363 
L 213.617421 48.747114 
L 214.520306 47.952364 
L 214.93881 47.946882 
L 215.477441 48.181202 
L 216.225324 48.80069 
L 217.930342 50.498996 
L 218.879727 50.780874 
L 219.798112 51.112254 
L 220.270867 51.513543 
L 220.98 52.514087 
L 221.689132 53.333116 
L 222.123137 53.56139 
L 223.033772 53.648287 
L 224.169159 53.38818 
L 224.897667 53.164269 
L 225.548674 53.206057 
L 226.281057 53.238088 
L 227.834948 52.763763 
L 229.222213 52.342207 
L 229.962346 52.405462 
L 231.946367 52.773604 
L 232.891877 52.588971 
L 233.515759 52.835014 
L 234.310142 53.051074 
L 235.798158 53.136187 
L 236.267038 53.550428 
L 240.653585 57.947678 
L 241.246466 58.126042 
L 241.843223 58.10941 
L 244.133372 57.624251 
L 244.730129 57.32331 
L 245.342385 57.084387 
L 245.896516 57.066743 
L 246.780026 57.104213 
L 247.388407 56.870058 
L 247.907663 56.482966 
L 248.671046 55.661419 
L 249.961435 54.151793 
L 251.542451 52.719241 
L 252.015206 52.716774 
L 253.181594 52.906651 
L 253.789975 52.747775 
L 254.425482 52.608827 
L 256.475379 52.476076 
L 257.92077 52.267282 
L 259.187908 52.279958 
L 259.908666 52.259523 
L 260.462797 52.500272 
L 261.416057 52.924636 
L 262.136815 53.290708 
L 262.845947 53.597003 
L 263.260577 53.47419 
L 264.252587 53.077306 
L 264.698217 53.237144 
L 265.46935 53.832878 
L 267.220869 55.437617 
L 267.763375 55.467465 
L 270.255026 55.197766 
L 270.968034 55.448658 
L 271.700417 55.641193 
L 272.746678 55.968571 
L 274.269569 57.020918 
L 275.311955 57.153191 
L 276.334966 56.904298 
L 276.978223 56.430305 
L 277.454853 55.76125 
L 278.783992 53.658409 
L 279.101746 53.627235 
L 279.4505 53.827706 
L 280.562636 54.613781 
L 281.159393 55.0253 
L 281.717399 55.78094 
L 282.604783 56.910358 
L 283.034913 57.046911 
L 283.422417 56.950223 
L 284.457053 56.563603 
L 284.968559 56.531495 
L 286.142696 56.583835 
L 286.782078 56.754259 
L 287.681088 57.083591 
L 289.33573 57.288786 
L 290.060363 57.779179 
L 290.525368 57.93589 
L 290.881872 57.790405 
L 291.563879 57.156387 
L 292.048259 56.883665 
L 293.671902 56.341059 
L 294.102031 56.22855 
L 294.50891 56.398952 
L 295.741174 57.034394 
L 296.151928 56.81797 
L 296.554932 56.358255 
L 298.066198 54.423085 
L 298.775331 54.008287 
L 299.352712 53.967287 
L 300.127721 54.125571 
L 300.898854 54.559392 
L 301.766863 55.126306 
L 302.793749 55.47868 
L 304.72352 56.07473 
L 305.324151 56.301858 
L 305.742655 56.254897 
L 306.436288 55.854753 
L 307.021419 55.66414 
L 307.521299 55.815917 
L 308.428059 56.047006 
L 309.044191 56.165307 
L 310.505081 56.850498 
L 311.121213 56.546042 
L 311.776095 56.310362 
L 312.368976 56.374317 
L 312.981233 56.60191 
L 314.740502 57.355314 
L 315.317883 57.287927 
L 316.185892 56.758823 
L 317.131402 56.221852 
L 317.650658 56.213369 
L 318.81317 56.397972 
L 319.31305 56.531128 
L 320.037683 57.09536 
L 320.71194 57.592386 
L 321.475324 57.733447 
L 322.153456 57.867055 
L 324.292479 58.44896 
L 324.776859 58.188334 
L 325.404616 57.557295 
L 326.648504 56.243504 
L 327.086384 56.033612 
L 327.663765 56.021742 
L 329.004529 56.121654 
L 329.624536 55.860591 
L 330.438294 55.302213 
L 331.232678 54.72029 
L 331.686058 54.742299 
L 332.178188 55.042191 
L 332.933821 55.500614 
L 333.546078 55.545629 
L 334.491588 55.552951 
L 335.475848 55.603906 
L 336.932864 55.265165 
L 336.932864 55.265165 
" style="fill:none;stroke:#7251b5;stroke-dasharray:2,2;stroke-dashoffset:0;stroke-width:2;"/>
   </g>
   <g id="line2d_32">
    <path clip-path="url(#p2d8284e208)" d="M 55.136017 249.101593 
L 55.1626 248.992706 
L 55.180696 240.508998 
L 55.33748 196.279012 
L 61.084167 110.48384 
L 62.789185 90.280751 
L 63.459567 84.924828 
L 64.036948 81.898933 
L 64.416702 80.91818 
L 64.703455 80.663868 
L 64.963083 80.739753 
L 65.323462 81.12737 
L 66.637101 82.946671 
L 67.373359 84.447963 
L 68.694748 87.935246 
L 69.276004 90.028329 
L 70.488892 94.675604 
L 72.221036 99.026555 
L 72.60079 99.297896 
L 73.244047 99.680134 
L 73.542425 100.308502 
L 73.972554 101.868355 
L 74.96844 105.48532 
L 75.464445 106.368448 
L 76.146453 106.935221 
L 76.452581 106.976659 
L 76.774209 106.739345 
L 77.560843 106.142007 
L 77.78947 106.161857 
L 78.052973 106.464262 
L 78.413352 107.253981 
L 79.207735 108.988616 
L 79.498363 109.140255 
L 79.726991 109.024229 
L 80.14162 108.486322 
L 80.653126 107.417078 
L 82.133392 103.99153 
L 84.342165 100.590457 
L 85.217924 99.567339 
L 86.23706 97.870697 
L 86.888067 96.799237 
L 87.194196 96.629712 
L 87.585575 96.677461 
L 88.166831 97.021822 
L 88.620211 97.29704 
L 89.127841 97.23694 
L 89.46497 97.005879 
L 89.995851 96.28 
L 91.727994 93.448441 
L 92.111623 93.307356 
L 92.510752 93.410393 
L 93.425262 93.816869 
L 94.258396 94.469968 
L 95.308532 95.724629 
L 96.389669 96.950743 
L 96.719047 96.991327 
L 97.036801 96.82367 
L 98.602317 95.468043 
L 98.935571 95.001693 
L 99.474202 93.752017 
L 100.156209 91.656462 
L 101.059094 89.259773 
L 102.341732 86.313841 
L 102.651736 86.144482 
L 102.926864 86.245004 
L 104.101001 86.943171 
L 105.341014 86.730206 
L 105.84477 86.794707 
L 106.185773 86.544809 
L 106.453151 86.063565 
L 106.852281 84.79408 
L 108.119419 80.475431 
L 108.514673 80.043112 
L 108.832427 79.990479 
L 109.932939 80.102698 
L 110.421194 80.441683 
L 111.231077 81.339425 
L 111.719333 82.052711 
L 112.335464 83.422775 
L 113.552227 86.439897 
L 113.86223 86.645527 
L 114.125733 86.549317 
L 114.416361 86.178901 
L 115.140994 84.739528 
L 115.559499 84.184793 
L 115.842377 84.126231 
L 116.12138 84.319546 
L 119.543041 87.812975 
L 119.833669 87.65585 
L 120.926431 86.856378 
L 121.174434 87.104363 
L 121.600688 87.930947 
L 122.984078 90.92307 
L 123.418083 91.29636 
L 123.852087 91.34618 
L 124.173716 91.182671 
L 124.603845 90.648062 
L 125.595856 89.414367 
L 126.049236 89.224588 
L 126.831994 88.932626 
L 127.149747 88.585747 
L 127.498501 87.830746 
L 127.948006 86.295242 
L 129.215145 81.525902 
L 129.587148 80.993513 
L 129.916527 80.899827 
L 130.889162 80.871939 
L 131.245666 80.56749 
L 131.784297 79.723746 
L 133.105686 77.209303 
L 136.279345 70.658313 
L 136.554473 70.678183 
L 136.910977 70.991694 
L 137.992113 72.607256 
L 138.557869 73.227588 
L 139.216626 73.783216 
L 140.00326 74.86112 
L 140.576766 75.562511 
L 141.103772 75.889901 
L 141.46415 75.823927 
L 142.336035 75.583778 
L 142.727414 75.845812 
L 143.169169 76.495432 
L 143.816301 77.30032 
L 144.354931 77.614479 
L 145.079564 78.015678 
L 145.62982 78.68161 
L 146.0832 79.521467 
L 146.807832 80.822822 
L 147.141086 81.016384 
L 147.385214 80.926371 
L 147.671967 80.506761 
L 148.381099 79.397159 
L 148.737603 79.189813 
L 148.993356 79.301069 
L 149.632738 79.890105 
L 150.880501 81.217167 
L 151.283505 81.153794 
L 151.69426 80.839646 
L 154.344788 78.375787 
L 155.228297 77.287053 
L 156.262933 76.330606 
L 156.724063 75.368727 
L 157.998952 72.482141 
L 158.262455 72.384773 
L 158.525958 72.556761 
L 158.882461 73.116005 
L 159.572219 74.176727 
L 159.882222 74.245248 
L 160.15735 74.068776 
L 160.680481 73.379721 
L 161.211361 72.958997 
L 161.742242 72.765326 
L 162.176247 72.565753 
L 163.234133 71.718258 
L 164.388895 70.509527 
L 164.644648 70.579134 
L 165.857536 71.251313 
L 166.19079 71.061776 
L 166.791421 70.715443 
L 167.291301 70.753463 
L 167.663305 71.051662 
L 168.260062 71.856011 
L 169.372199 73.305777 
L 169.763578 73.317017 
L 170.147207 73.077565 
L 170.817589 72.647358 
L 171.274844 72.759303 
L 171.987851 72.954288 
L 172.266854 72.733994 
L 172.724109 72.06392 
L 173.580494 70.788618 
L 174.281876 70.275487 
L 175.514139 69.530334 
L 175.975269 68.883916 
L 177.389659 66.594673 
L 177.800414 66.51667 
L 178.211168 66.378546 
L 178.559922 66.020588 
L 180.567193 63.388717 
L 182.086209 59.696445 
L 183.802853 54.76257 
L 184.891739 53.298168 
L 185.372244 52.863369 
L 186.193753 52.620012 
L 186.875761 52.720925 
L 187.441517 52.991814 
L 188.131274 53.279321 
L 188.770656 53.172848 
L 189.685166 52.923608 
L 190.607425 52.943316 
L 190.886428 52.684532 
L 191.413434 51.811202 
L 191.990815 50.938333 
L 192.300819 50.80879 
L 192.699948 50.896858 
L 193.812085 51.503292 
L 194.474717 52.060208 
L 195.505478 52.972808 
L 195.993733 53.160867 
L 196.474238 53.072648 
L 197.5515 52.942296 
L 198.396259 53.118452 
L 199.03564 53.418852 
L 199.539396 53.927613 
L 200.295029 54.707986 
L 200.756159 54.862336 
L 201.139788 54.75702 
L 202.217049 53.951956 
L 202.627804 53.760587 
L 203.069559 53.813207 
L 203.790316 54.230184 
L 204.282447 54.350048 
L 204.770702 54.222585 
L 205.658086 54.029378 
L 206.409844 53.918008 
L 208.254364 53.343435 
L 208.82787 53.322868 
L 209.440127 53.504638 
L 209.862506 53.982077 
L 210.598764 54.728992 
L 210.897142 54.766907 
L 211.369897 54.500947 
L 212.303782 54.024139 
L 212.652536 54.164757 
L 213.06329 54.594733 
L 214.187052 55.878543 
L 214.512556 55.867801 
L 214.90781 55.606352 
L 215.372815 54.996401 
L 216.260199 53.7908 
L 216.639954 53.632519 
L 217.027458 53.70939 
L 217.608714 53.80526 
L 218.13572 53.684718 
L 219.422233 53.262213 
L 220.48787 53.298271 
L 220.886999 53.038481 
L 221.499255 52.348216 
L 223.064772 50.435979 
L 223.502652 50.324461 
L 224.157534 50.155033 
L 224.587663 49.77931 
L 225.451798 48.930839 
L 225.719176 49.012044 
L 226.029179 49.366285 
L 226.707311 50.656128 
L 228.071326 53.416397 
L 228.699082 54.217113 
L 229.272589 54.687429 
L 229.846095 54.80935 
L 231.182984 54.807446 
L 232.527623 54.7048 
L 233.860638 55.267657 
L 234.364393 55.041849 
L 235.96091 54.110491 
L 236.856045 54.004899 
L 237.208673 53.635535 
L 237.611678 52.831482 
L 238.452562 50.432646 
L 239.111319 48.753644 
L 239.952203 47.299385 
L 241.130215 45.827965 
L 241.432468 45.872252 
L 241.761847 46.192595 
L 242.800358 47.298331 
L 243.195612 47.346637 
L 243.714868 47.159199 
L 244.41625 46.711626 
L 244.962631 46.466556 
L 245.33851 46.55444 
L 245.722139 46.884315 
L 246.582398 48.013794 
L 247.295406 48.722084 
L 247.640285 48.788591 
L 248.178915 48.605092 
L 248.682671 48.514122 
L 249.023675 48.669436 
L 249.539055 49.19829 
L 251.375825 51.357614 
L 252.034582 51.866481 
L 252.553837 52.639244 
L 253.096343 53.318986 
L 253.580723 53.572265 
L 254.17748 53.874075 
L 254.750986 54.603822 
L 255.401993 55.335557 
L 255.940623 55.569991 
L 257.262013 55.791774 
L 258.908905 55.72219 
L 259.304159 56.017672 
L 260.458922 56.984053 
L 260.985927 57.110518 
L 262.036064 57.408816 
L 262.574694 57.459726 
L 263.082325 57.299178 
L 263.667456 57.1499 
L 264.178961 57.259635 
L 264.55484 57.594198 
L 265.151597 58.049084 
L 265.504226 58.061464 
L 265.880105 57.827625 
L 266.81399 57.196239 
L 267.294495 57.173874 
L 267.701374 57.388731 
L 268.817386 58.105915 
L 269.437393 58.166724 
L 270.049649 58.034733 
L 271.084285 57.820895 
L 272.514175 57.915585 
L 273.099307 57.816746 
L 273.661188 57.516634 
L 274.215319 57.25977 
L 274.707449 57.296806 
L 275.319705 57.367763 
L 275.649084 57.122078 
L 276.052088 56.505324 
L 277.075099 54.754 
L 277.931483 53.989614 
L 278.563115 53.656626 
L 279.497 53.381891 
L 279.869004 53.017786 
L 280.655637 52.172099 
L 281.050892 52.081911 
L 281.457771 52.273345 
L 282.073903 52.507016 
L 282.550533 52.408707 
L 283.27904 52.229045 
L 283.70917 52.42047 
L 284.313677 52.655642 
L 284.67793 52.551437 
L 285.201061 52.124915 
L 285.712566 51.826816 
L 286.169821 51.813861 
L 287.049456 51.849956 
L 288.173218 51.586259 
L 289.180729 51.424673 
L 290.110738 51.463128 
L 290.564118 51.138856 
L 291.529004 50.376996 
L 291.966883 50.457565 
L 292.734142 50.640677 
L 293.241772 50.410765 
L 294.44691 49.836197 
L 295.004916 49.71729 
L 295.531921 49.826718 
L 295.903925 50.183303 
L 297.566318 52.057666 
L 298.209575 52.306535 
L 298.860582 52.365463 
L 300.181971 52.390129 
L 301.061605 52.531732 
L 301.627362 52.414546 
L 303.006876 52.062932 
L 304.432892 51.873018 
L 306.010033 51.990415 
L 306.684291 52.250255 
L 307.079545 52.101953 
L 307.447674 51.697089 
L 308.222682 50.827834 
L 308.753563 50.520886 
L 309.265068 50.466437 
L 309.706823 50.638183 
L 310.214453 51.079628 
L 311.528092 52.59116 
L 312.547228 54.12605 
L 314.11662 56.376647 
L 314.62425 56.689072 
L 315.193881 56.803775 
L 315.957265 56.716299 
L 316.523021 56.730366 
L 317.088777 57.035448 
L 317.805659 57.416744 
L 318.406291 57.325561 
L 318.964297 57.318845 
L 319.363426 57.580302 
L 320.274061 58.416043 
L 321.758202 59.889927 
L 322.219332 59.85635 
L 323.362469 59.25085 
L 324.005726 58.655193 
L 325.555742 56.868033 
L 325.993622 56.803296 
L 326.931382 56.93119 
L 327.636639 56.9147 
L 329.062655 56.841313 
L 331.00405 57.008678 
L 331.352804 57.494812 
L 332.472691 59.275033 
L 332.705194 59.156491 
L 333.177949 58.570677 
L 333.813455 57.798696 
L 334.166084 57.776316 
L 335.386722 57.974063 
L 335.801352 58.292741 
L 336.456234 59.165263 
L 336.932864 59.711033 
L 336.932864 59.711033 
" style="fill:none;stroke:#7251b5;stroke-linecap:square;stroke-width:2;"/>
   </g>
   <g id="patch_3">
    <path d="M 51.338438 249.101593 
L 51.338438 24.597656 
" style="fill:none;stroke:#000000;stroke-linecap:square;stroke-linejoin:miter;stroke-width:0.8;"/>
   </g>
   <g id="patch_4">
    <path d="M 336.928989 249.101593 
L 336.928989 24.597656 
" style="fill:none;stroke:#000000;stroke-linecap:square;stroke-linejoin:miter;stroke-width:0.8;"/>
   </g>
   <g id="patch_5">
    <path d="M 51.338438 249.101593 
L 336.928989 249.101593 
" style="fill:none;stroke:#000000;stroke-linecap:square;stroke-linejoin:miter;stroke-width:0.8;"/>
   </g>
   <g id="patch_6">
    <path d="M 51.338438 24.597656 
L 336.928989 24.597656 
" style="fill:none;stroke:#000000;stroke-linecap:square;stroke-linejoin:miter;stroke-width:0.8;"/>
   </g>
   <g id="text_17">
    <!-- button-press-topdown-v2 -->
    <g transform="translate(99.632541 18.597656)scale(0.15 -0.15)">
     <defs>
      <path d="M 48.6875 27.296875 
Q 48.6875 37.203125 44.609375 42.84375 
Q 40.53125 48.484375 33.40625 48.484375 
Q 26.265625 48.484375 22.1875 42.84375 
Q 18.109375 37.203125 18.109375 27.296875 
Q 18.109375 17.390625 22.1875 11.75 
Q 26.265625 6.109375 33.40625 6.109375 
Q 40.53125 6.109375 44.609375 11.75 
Q 48.6875 17.390625 48.6875 27.296875 
z
M 18.109375 46.390625 
Q 20.953125 51.265625 25.265625 53.625 
Q 29.59375 56 35.59375 56 
Q 45.5625 56 51.78125 48.09375 
Q 58.015625 40.1875 58.015625 27.296875 
Q 58.015625 14.40625 51.78125 6.484375 
Q 45.5625 -1.421875 35.59375 -1.421875 
Q 29.59375 -1.421875 25.265625 0.953125 
Q 20.953125 3.328125 18.109375 8.203125 
L 18.109375 0 
L 9.078125 0 
L 9.078125 75.984375 
L 18.109375 75.984375 
z
" id="DejaVuSans-98"/>
      <path d="M 54.890625 33.015625 
L 54.890625 0 
L 45.90625 0 
L 45.90625 32.71875 
Q 45.90625 40.484375 42.875 44.328125 
Q 39.84375 48.1875 33.796875 48.1875 
Q 26.515625 48.1875 22.3125 43.546875 
Q 18.109375 38.921875 18.109375 30.90625 
L 18.109375 0 
L 9.078125 0 
L 9.078125 54.6875 
L 18.109375 54.6875 
L 18.109375 46.1875 
Q 21.34375 51.125 25.703125 53.5625 
Q 30.078125 56 35.796875 56 
Q 45.21875 56 50.046875 50.171875 
Q 54.890625 44.34375 54.890625 33.015625 
z
" id="DejaVuSans-110"/>
      <path d="M 4.890625 31.390625 
L 31.203125 31.390625 
L 31.203125 23.390625 
L 4.890625 23.390625 
z
" id="DejaVuSans-45"/>
      <path d="M 4.203125 54.6875 
L 13.1875 54.6875 
L 24.421875 12.015625 
L 35.59375 54.6875 
L 46.1875 54.6875 
L 57.421875 12.015625 
L 68.609375 54.6875 
L 77.59375 54.6875 
L 63.28125 0 
L 52.6875 0 
L 40.921875 44.828125 
L 29.109375 0 
L 18.5 0 
z
" id="DejaVuSans-119"/>
      <path d="M 2.984375 54.6875 
L 12.5 54.6875 
L 29.59375 8.796875 
L 46.6875 54.6875 
L 56.203125 54.6875 
L 35.6875 0 
L 23.484375 0 
z
" id="DejaVuSans-118"/>
     </defs>
     <use xlink:href="#DejaVuSans-98"/>
     <use x="63.476562" xlink:href="#DejaVuSans-117"/>
     <use x="126.855469" xlink:href="#DejaVuSans-116"/>
     <use x="166.064453" xlink:href="#DejaVuSans-116"/>
     <use x="205.273438" xlink:href="#DejaVuSans-111"/>
     <use x="266.455078" xlink:href="#DejaVuSans-110"/>
     <use x="329.833984" xlink:href="#DejaVuSans-45"/>
     <use x="365.917969" xlink:href="#DejaVuSans-112"/>
     <use x="429.394531" xlink:href="#DejaVuSans-114"/>
     <use x="468.257812" xlink:href="#DejaVuSans-101"/>
     <use x="529.78125" xlink:href="#DejaVuSans-115"/>
     <use x="581.880859" xlink:href="#DejaVuSans-115"/>
     <use x="633.980469" xlink:href="#DejaVuSans-45"/>
     <use x="670.064453" xlink:href="#DejaVuSans-116"/>
     <use x="709.273438" xlink:href="#DejaVuSans-111"/>
     <use x="770.455078" xlink:href="#DejaVuSans-112"/>
     <use x="833.931641" xlink:href="#DejaVuSans-100"/>
     <use x="897.408203" xlink:href="#DejaVuSans-111"/>
     <use x="958.589844" xlink:href="#DejaVuSans-119"/>
     <use x="1040.376953" xlink:href="#DejaVuSans-110"/>
     <use x="1103.755859" xlink:href="#DejaVuSans-45"/>
     <use x="1137.214844" xlink:href="#DejaVuSans-118"/>
     <use x="1196.394531" xlink:href="#DejaVuSans-50"/>
    </g>
   </g>
   <g id="legend_1">
    <g id="patch_7">
     <path d="M 130.028989 244.101593 
L 329.928989 244.101593 
Q 331.928989 244.101593 331.928989 242.101593 
L 331.928989 184.389093 
Q 331.928989 182.389093 329.928989 182.389093 
L 130.028989 182.389093 
Q 128.028989 182.389093 128.028989 184.389093 
L 128.028989 242.101593 
Q 128.028989 244.101593 130.028989 244.101593 
z
" style="fill:#ffffff;opacity:0.8;stroke:#cccccc;stroke-linejoin:miter;"/>
    </g>
    <g id="line2d_33">
     <path d="M 132.028989 190.487531 
L 152.028989 190.487531 
" style="fill:none;stroke:#145a32;stroke-dasharray:2,2;stroke-dashoffset:0;stroke-width:2;"/>
    </g>
    <g id="line2d_34"/>
    <g id="text_18">
     <!-- D-COACH, $K$: 15,000, $e$: 0.1, rel -->
     <g transform="translate(160.028989 193.987531)scale(0.1 -0.1)">
      <defs>
       <path d="M 19.671875 64.796875 
L 19.671875 8.109375 
L 31.59375 8.109375 
Q 46.6875 8.109375 53.6875 14.9375 
Q 60.6875 21.78125 60.6875 36.53125 
Q 60.6875 51.171875 53.6875 57.984375 
Q 46.6875 64.796875 31.59375 64.796875 
z
M 9.8125 72.90625 
L 30.078125 72.90625 
Q 51.265625 72.90625 61.171875 64.09375 
Q 71.09375 55.28125 71.09375 36.53125 
Q 71.09375 17.671875 61.125 8.828125 
Q 51.171875 0 30.078125 0 
L 9.8125 0 
z
" id="DejaVuSans-68"/>
       <path d="M 64.40625 67.28125 
L 64.40625 56.890625 
Q 59.421875 61.53125 53.78125 63.8125 
Q 48.140625 66.109375 41.796875 66.109375 
Q 29.296875 66.109375 22.65625 58.46875 
Q 16.015625 50.828125 16.015625 36.375 
Q 16.015625 21.96875 22.65625 14.328125 
Q 29.296875 6.6875 41.796875 6.6875 
Q 48.140625 6.6875 53.78125 8.984375 
Q 59.421875 11.28125 64.40625 15.921875 
L 64.40625 5.609375 
Q 59.234375 2.09375 53.4375 0.328125 
Q 47.65625 -1.421875 41.21875 -1.421875 
Q 24.65625 -1.421875 15.125 8.703125 
Q 5.609375 18.84375 5.609375 36.375 
Q 5.609375 53.953125 15.125 64.078125 
Q 24.65625 74.21875 41.21875 74.21875 
Q 47.75 74.21875 53.53125 72.484375 
Q 59.328125 70.75 64.40625 67.28125 
z
" id="DejaVuSans-67"/>
       <path d="M 39.40625 66.21875 
Q 28.65625 66.21875 22.328125 58.203125 
Q 16.015625 50.203125 16.015625 36.375 
Q 16.015625 22.609375 22.328125 14.59375 
Q 28.65625 6.59375 39.40625 6.59375 
Q 50.140625 6.59375 56.421875 14.59375 
Q 62.703125 22.609375 62.703125 36.375 
Q 62.703125 50.203125 56.421875 58.203125 
Q 50.140625 66.21875 39.40625 66.21875 
z
M 39.40625 74.21875 
Q 54.734375 74.21875 63.90625 63.9375 
Q 73.09375 53.65625 73.09375 36.375 
Q 73.09375 19.140625 63.90625 8.859375 
Q 54.734375 -1.421875 39.40625 -1.421875 
Q 24.03125 -1.421875 14.8125 8.828125 
Q 5.609375 19.09375 5.609375 36.375 
Q 5.609375 53.65625 14.8125 63.9375 
Q 24.03125 74.21875 39.40625 74.21875 
z
" id="DejaVuSans-79"/>
       <path d="M 34.1875 63.1875 
L 20.796875 26.90625 
L 47.609375 26.90625 
z
M 28.609375 72.90625 
L 39.796875 72.90625 
L 67.578125 0 
L 57.328125 0 
L 50.6875 18.703125 
L 17.828125 18.703125 
L 11.1875 0 
L 0.78125 0 
z
" id="DejaVuSans-65"/>
       <path d="M 9.8125 72.90625 
L 19.671875 72.90625 
L 19.671875 43.015625 
L 55.515625 43.015625 
L 55.515625 72.90625 
L 65.375 72.90625 
L 65.375 0 
L 55.515625 0 
L 55.515625 34.71875 
L 19.671875 34.71875 
L 19.671875 0 
L 9.8125 0 
z
" id="DejaVuSans-72"/>
       <path d="M 11.71875 12.40625 
L 22.015625 12.40625 
L 22.015625 4 
L 14.015625 -11.625 
L 7.71875 -11.625 
L 11.71875 4 
z
" id="DejaVuSans-44"/>
       <path d="M 16.890625 72.90625 
L 26.8125 72.90625 
L 20.796875 42.1875 
L 59.078125 72.90625 
L 72.21875 72.90625 
L 28.90625 38.09375 
L 60.59375 0 
L 48.578125 0 
L 19.484375 35.5 
L 12.59375 0 
L 2.6875 0 
z
" id="DejaVuSans-Oblique-75"/>
       <path d="M 11.71875 12.40625 
L 22.015625 12.40625 
L 22.015625 0 
L 11.71875 0 
z
M 11.71875 51.703125 
L 22.015625 51.703125 
L 22.015625 39.3125 
L 11.71875 39.3125 
z
" id="DejaVuSans-58"/>
       <path d="M 48.09375 32.234375 
Q 48.25 33.015625 48.3125 33.84375 
Q 48.390625 34.671875 48.390625 35.5 
Q 48.390625 41.453125 44.890625 44.921875 
Q 41.40625 48.390625 35.40625 48.390625 
Q 28.71875 48.390625 23.578125 44.15625 
Q 18.453125 39.9375 15.828125 32.171875 
z
M 55.90625 25.203125 
L 14.109375 25.203125 
Q 13.8125 23.34375 13.71875 22.265625 
Q 13.625 21.1875 13.625 20.40625 
Q 13.625 13.625 17.796875 9.90625 
Q 21.96875 6.203125 29.59375 6.203125 
Q 35.453125 6.203125 40.671875 7.515625 
Q 45.90625 8.84375 50.390625 11.375 
L 48.6875 2.484375 
Q 43.84375 0.53125 38.6875 -0.4375 
Q 33.546875 -1.421875 28.21875 -1.421875 
Q 16.84375 -1.421875 10.71875 4.015625 
Q 4.59375 9.46875 4.59375 19.484375 
Q 4.59375 28.03125 7.640625 35.375 
Q 10.6875 42.71875 16.609375 48.484375 
Q 20.40625 52.09375 25.65625 54.046875 
Q 30.90625 56 36.8125 56 
Q 46.09375 56 51.578125 50.4375 
Q 57.078125 44.875 57.078125 35.5 
Q 57.078125 33.25 56.78125 30.6875 
Q 56.5 28.125 55.90625 25.203125 
z
" id="DejaVuSans-Oblique-101"/>
       <path d="M 10.6875 12.40625 
L 21 12.40625 
L 21 0 
L 10.6875 0 
z
" id="DejaVuSans-46"/>
       <path d="M 9.421875 75.984375 
L 18.40625 75.984375 
L 18.40625 0 
L 9.421875 0 
z
" id="DejaVuSans-108"/>
      </defs>
      <use transform="translate(0 0.015625)" xlink:href="#DejaVuSans-68"/>
      <use transform="translate(77.001953 0.015625)" xlink:href="#DejaVuSans-45"/>
      <use transform="translate(113.085938 0.015625)" xlink:href="#DejaVuSans-67"/>
      <use transform="translate(182.910156 0.015625)" xlink:href="#DejaVuSans-79"/>
      <use transform="translate(261.621094 0.015625)" xlink:href="#DejaVuSans-65"/>
      <use transform="translate(330.029297 0.015625)" xlink:href="#DejaVuSans-67"/>
      <use transform="translate(399.853516 0.015625)" xlink:href="#DejaVuSans-72"/>
      <use transform="translate(475.048828 0.015625)" xlink:href="#DejaVuSans-44"/>
      <use transform="translate(506.835938 0.015625)" xlink:href="#DejaVuSans-32"/>
      <use transform="translate(538.623047 0.015625)" xlink:href="#DejaVuSans-Oblique-75"/>
      <use transform="translate(604.199219 0.015625)" xlink:href="#DejaVuSans-58"/>
      <use transform="translate(637.890625 0.015625)" xlink:href="#DejaVuSans-32"/>
      <use transform="translate(669.677734 0.015625)" xlink:href="#DejaVuSans-49"/>
      <use transform="translate(733.300781 0.015625)" xlink:href="#DejaVuSans-53"/>
      <use transform="translate(796.923828 0.015625)" xlink:href="#DejaVuSans-44"/>
      <use transform="translate(828.710938 0.015625)" xlink:href="#DejaVuSans-48"/>
      <use transform="translate(892.333984 0.015625)" xlink:href="#DejaVuSans-48"/>
      <use transform="translate(955.957031 0.015625)" xlink:href="#DejaVuSans-48"/>
      <use transform="translate(1019.580078 0.015625)" xlink:href="#DejaVuSans-44"/>
      <use transform="translate(1051.367188 0.015625)" xlink:href="#DejaVuSans-32"/>
      <use transform="translate(1083.154297 0.015625)" xlink:href="#DejaVuSans-Oblique-101"/>
      <use transform="translate(1144.677734 0.015625)" xlink:href="#DejaVuSans-58"/>
      <use transform="translate(1178.369141 0.015625)" xlink:href="#DejaVuSans-32"/>
      <use transform="translate(1210.15625 0.015625)" xlink:href="#DejaVuSans-48"/>
      <use transform="translate(1273.779297 0.015625)" xlink:href="#DejaVuSans-46"/>
      <use transform="translate(1305.566406 0.015625)" xlink:href="#DejaVuSans-49"/>
      <use transform="translate(1369.189453 0.015625)" xlink:href="#DejaVuSans-44"/>
      <use transform="translate(1400.976562 0.015625)" xlink:href="#DejaVuSans-32"/>
      <use transform="translate(1432.763672 0.015625)" xlink:href="#DejaVuSans-114"/>
      <use transform="translate(1473.876953 0.015625)" xlink:href="#DejaVuSans-101"/>
      <use transform="translate(1535.400391 0.015625)" xlink:href="#DejaVuSans-108"/>
     </g>
    </g>
    <g id="line2d_35">
     <path d="M 132.028989 205.165656 
L 152.028989 205.165656 
" style="fill:none;stroke:#145a32;stroke-linecap:square;stroke-width:2;"/>
    </g>
    <g id="line2d_36"/>
    <g id="text_19">
     <!-- D-COACH, $K$: 15,000, $e$: 0.1, abs -->
     <g transform="translate(160.028989 208.665656)scale(0.1 -0.1)">
      <defs>
       <path d="M 34.28125 27.484375 
Q 23.390625 27.484375 19.1875 25 
Q 14.984375 22.515625 14.984375 16.5 
Q 14.984375 11.71875 18.140625 8.90625 
Q 21.296875 6.109375 26.703125 6.109375 
Q 34.1875 6.109375 38.703125 11.40625 
Q 43.21875 16.703125 43.21875 25.484375 
L 43.21875 27.484375 
z
M 52.203125 31.203125 
L 52.203125 0 
L 43.21875 0 
L 43.21875 8.296875 
Q 40.140625 3.328125 35.546875 0.953125 
Q 30.953125 -1.421875 24.3125 -1.421875 
Q 15.921875 -1.421875 10.953125 3.296875 
Q 6 8.015625 6 15.921875 
Q 6 25.140625 12.171875 29.828125 
Q 18.359375 34.515625 30.609375 34.515625 
L 43.21875 34.515625 
L 43.21875 35.40625 
Q 43.21875 41.609375 39.140625 45 
Q 35.0625 48.390625 27.6875 48.390625 
Q 23 48.390625 18.546875 47.265625 
Q 14.109375 46.140625 10.015625 43.890625 
L 10.015625 52.203125 
Q 14.9375 54.109375 19.578125 55.046875 
Q 24.21875 56 28.609375 56 
Q 40.484375 56 46.34375 49.84375 
Q 52.203125 43.703125 52.203125 31.203125 
z
" id="DejaVuSans-97"/>
      </defs>
      <use transform="translate(0 0.015625)" xlink:href="#DejaVuSans-68"/>
      <use transform="translate(77.001953 0.015625)" xlink:href="#DejaVuSans-45"/>
      <use transform="translate(113.085938 0.015625)" xlink:href="#DejaVuSans-67"/>
      <use transform="translate(182.910156 0.015625)" xlink:href="#DejaVuSans-79"/>
      <use transform="translate(261.621094 0.015625)" xlink:href="#DejaVuSans-65"/>
      <use transform="translate(330.029297 0.015625)" xlink:href="#DejaVuSans-67"/>
      <use transform="translate(399.853516 0.015625)" xlink:href="#DejaVuSans-72"/>
      <use transform="translate(475.048828 0.015625)" xlink:href="#DejaVuSans-44"/>
      <use transform="translate(506.835938 0.015625)" xlink:href="#DejaVuSans-32"/>
      <use transform="translate(538.623047 0.015625)" xlink:href="#DejaVuSans-Oblique-75"/>
      <use transform="translate(604.199219 0.015625)" xlink:href="#DejaVuSans-58"/>
      <use transform="translate(637.890625 0.015625)" xlink:href="#DejaVuSans-32"/>
      <use transform="translate(669.677734 0.015625)" xlink:href="#DejaVuSans-49"/>
      <use transform="translate(733.300781 0.015625)" xlink:href="#DejaVuSans-53"/>
      <use transform="translate(796.923828 0.015625)" xlink:href="#DejaVuSans-44"/>
      <use transform="translate(828.710938 0.015625)" xlink:href="#DejaVuSans-48"/>
      <use transform="translate(892.333984 0.015625)" xlink:href="#DejaVuSans-48"/>
      <use transform="translate(955.957031 0.015625)" xlink:href="#DejaVuSans-48"/>
      <use transform="translate(1019.580078 0.015625)" xlink:href="#DejaVuSans-44"/>
      <use transform="translate(1051.367188 0.015625)" xlink:href="#DejaVuSans-32"/>
      <use transform="translate(1083.154297 0.015625)" xlink:href="#DejaVuSans-Oblique-101"/>
      <use transform="translate(1144.677734 0.015625)" xlink:href="#DejaVuSans-58"/>
      <use transform="translate(1178.369141 0.015625)" xlink:href="#DejaVuSans-32"/>
      <use transform="translate(1210.15625 0.015625)" xlink:href="#DejaVuSans-48"/>
      <use transform="translate(1273.779297 0.015625)" xlink:href="#DejaVuSans-46"/>
      <use transform="translate(1305.566406 0.015625)" xlink:href="#DejaVuSans-49"/>
      <use transform="translate(1369.189453 0.015625)" xlink:href="#DejaVuSans-44"/>
      <use transform="translate(1400.976562 0.015625)" xlink:href="#DejaVuSans-32"/>
      <use transform="translate(1432.763672 0.015625)" xlink:href="#DejaVuSans-97"/>
      <use transform="translate(1494.042969 0.015625)" xlink:href="#DejaVuSans-98"/>
      <use transform="translate(1557.519531 0.015625)" xlink:href="#DejaVuSans-115"/>
     </g>
    </g>
    <g id="line2d_37">
     <path d="M 132.028989 219.843781 
L 152.028989 219.843781 
" style="fill:none;stroke:#7251b5;stroke-dasharray:2,2;stroke-dashoffset:0;stroke-width:2;"/>
    </g>
    <g id="line2d_38"/>
    <g id="text_20">
     <!-- BD-COACH, $K$: 30,000, $e$: 0.1, rel -->
     <g transform="translate(160.028989 223.343781)scale(0.1 -0.1)">
      <defs>
       <path d="M 19.671875 34.8125 
L 19.671875 8.109375 
L 35.5 8.109375 
Q 43.453125 8.109375 47.28125 11.40625 
Q 51.125 14.703125 51.125 21.484375 
Q 51.125 28.328125 47.28125 31.5625 
Q 43.453125 34.8125 35.5 34.8125 
z
M 19.671875 64.796875 
L 19.671875 42.828125 
L 34.28125 42.828125 
Q 41.5 42.828125 45.03125 45.53125 
Q 48.578125 48.25 48.578125 53.8125 
Q 48.578125 59.328125 45.03125 62.0625 
Q 41.5 64.796875 34.28125 64.796875 
z
M 9.8125 72.90625 
L 35.015625 72.90625 
Q 46.296875 72.90625 52.390625 68.21875 
Q 58.5 63.53125 58.5 54.890625 
Q 58.5 48.1875 55.375 44.234375 
Q 52.25 40.28125 46.1875 39.3125 
Q 53.46875 37.75 57.5 32.78125 
Q 61.53125 27.828125 61.53125 20.40625 
Q 61.53125 10.640625 54.890625 5.3125 
Q 48.25 0 35.984375 0 
L 9.8125 0 
z
" id="DejaVuSans-66"/>
      </defs>
      <use transform="translate(0 0.015625)" xlink:href="#DejaVuSans-66"/>
      <use transform="translate(68.603516 0.015625)" xlink:href="#DejaVuSans-68"/>
      <use transform="translate(145.605469 0.015625)" xlink:href="#DejaVuSans-45"/>
      <use transform="translate(181.689453 0.015625)" xlink:href="#DejaVuSans-67"/>
      <use transform="translate(251.513672 0.015625)" xlink:href="#DejaVuSans-79"/>
      <use transform="translate(330.224609 0.015625)" xlink:href="#DejaVuSans-65"/>
      <use transform="translate(398.632812 0.015625)" xlink:href="#DejaVuSans-67"/>
      <use transform="translate(468.457031 0.015625)" xlink:href="#DejaVuSans-72"/>
      <use transform="translate(543.652344 0.015625)" xlink:href="#DejaVuSans-44"/>
      <use transform="translate(575.439453 0.015625)" xlink:href="#DejaVuSans-32"/>
      <use transform="translate(607.226562 0.015625)" xlink:href="#DejaVuSans-Oblique-75"/>
      <use transform="translate(672.802734 0.015625)" xlink:href="#DejaVuSans-58"/>
      <use transform="translate(706.494141 0.015625)" xlink:href="#DejaVuSans-32"/>
      <use transform="translate(738.28125 0.015625)" xlink:href="#DejaVuSans-51"/>
      <use transform="translate(801.904297 0.015625)" xlink:href="#DejaVuSans-48"/>
      <use transform="translate(865.527344 0.015625)" xlink:href="#DejaVuSans-44"/>
      <use transform="translate(897.314453 0.015625)" xlink:href="#DejaVuSans-48"/>
      <use transform="translate(960.9375 0.015625)" xlink:href="#DejaVuSans-48"/>
      <use transform="translate(1024.560547 0.015625)" xlink:href="#DejaVuSans-48"/>
      <use transform="translate(1088.183594 0.015625)" xlink:href="#DejaVuSans-44"/>
      <use transform="translate(1119.970703 0.015625)" xlink:href="#DejaVuSans-32"/>
      <use transform="translate(1151.757812 0.015625)" xlink:href="#DejaVuSans-Oblique-101"/>
      <use transform="translate(1213.28125 0.015625)" xlink:href="#DejaVuSans-58"/>
      <use transform="translate(1246.972656 0.015625)" xlink:href="#DejaVuSans-32"/>
      <use transform="translate(1278.759766 0.015625)" xlink:href="#DejaVuSans-48"/>
      <use transform="translate(1342.382812 0.015625)" xlink:href="#DejaVuSans-46"/>
      <use transform="translate(1374.169922 0.015625)" xlink:href="#DejaVuSans-49"/>
      <use transform="translate(1437.792969 0.015625)" xlink:href="#DejaVuSans-44"/>
      <use transform="translate(1469.580078 0.015625)" xlink:href="#DejaVuSans-32"/>
      <use transform="translate(1501.367188 0.015625)" xlink:href="#DejaVuSans-114"/>
      <use transform="translate(1542.480469 0.015625)" xlink:href="#DejaVuSans-101"/>
      <use transform="translate(1604.003906 0.015625)" xlink:href="#DejaVuSans-108"/>
     </g>
    </g>
    <g id="line2d_39">
     <path d="M 132.028989 234.521906 
L 152.028989 234.521906 
" style="fill:none;stroke:#7251b5;stroke-linecap:square;stroke-width:2;"/>
    </g>
    <g id="line2d_40"/>
    <g id="text_21">
     <!-- BD-COACH, $K$: 30,000, $e$: 0.1, abs -->
     <g transform="translate(160.028989 238.021906)scale(0.1 -0.1)">
      <use transform="translate(0 0.015625)" xlink:href="#DejaVuSans-66"/>
      <use transform="translate(68.603516 0.015625)" xlink:href="#DejaVuSans-68"/>
      <use transform="translate(145.605469 0.015625)" xlink:href="#DejaVuSans-45"/>
      <use transform="translate(181.689453 0.015625)" xlink:href="#DejaVuSans-67"/>
      <use transform="translate(251.513672 0.015625)" xlink:href="#DejaVuSans-79"/>
      <use transform="translate(330.224609 0.015625)" xlink:href="#DejaVuSans-65"/>
      <use transform="translate(398.632812 0.015625)" xlink:href="#DejaVuSans-67"/>
      <use transform="translate(468.457031 0.015625)" xlink:href="#DejaVuSans-72"/>
      <use transform="translate(543.652344 0.015625)" xlink:href="#DejaVuSans-44"/>
      <use transform="translate(575.439453 0.015625)" xlink:href="#DejaVuSans-32"/>
      <use transform="translate(607.226562 0.015625)" xlink:href="#DejaVuSans-Oblique-75"/>
      <use transform="translate(672.802734 0.015625)" xlink:href="#DejaVuSans-58"/>
      <use transform="translate(706.494141 0.015625)" xlink:href="#DejaVuSans-32"/>
      <use transform="translate(738.28125 0.015625)" xlink:href="#DejaVuSans-51"/>
      <use transform="translate(801.904297 0.015625)" xlink:href="#DejaVuSans-48"/>
      <use transform="translate(865.527344 0.015625)" xlink:href="#DejaVuSans-44"/>
      <use transform="translate(897.314453 0.015625)" xlink:href="#DejaVuSans-48"/>
      <use transform="translate(960.9375 0.015625)" xlink:href="#DejaVuSans-48"/>
      <use transform="translate(1024.560547 0.015625)" xlink:href="#DejaVuSans-48"/>
      <use transform="translate(1088.183594 0.015625)" xlink:href="#DejaVuSans-44"/>
      <use transform="translate(1119.970703 0.015625)" xlink:href="#DejaVuSans-32"/>
      <use transform="translate(1151.757812 0.015625)" xlink:href="#DejaVuSans-Oblique-101"/>
      <use transform="translate(1213.28125 0.015625)" xlink:href="#DejaVuSans-58"/>
      <use transform="translate(1246.972656 0.015625)" xlink:href="#DejaVuSans-32"/>
      <use transform="translate(1278.759766 0.015625)" xlink:href="#DejaVuSans-48"/>
      <use transform="translate(1342.382812 0.015625)" xlink:href="#DejaVuSans-46"/>
      <use transform="translate(1374.169922 0.015625)" xlink:href="#DejaVuSans-49"/>
      <use transform="translate(1437.792969 0.015625)" xlink:href="#DejaVuSans-44"/>
      <use transform="translate(1469.580078 0.015625)" xlink:href="#DejaVuSans-32"/>
      <use transform="translate(1501.367188 0.015625)" xlink:href="#DejaVuSans-97"/>
      <use transform="translate(1562.646484 0.015625)" xlink:href="#DejaVuSans-98"/>
      <use transform="translate(1626.123047 0.015625)" xlink:href="#DejaVuSans-115"/>
     </g>
    </g>
   </g>
  </g>
  <g id="axes_2">
   <g id="matplotlib.axis_3">
    <g id="xtick_9">
     <g id="line2d_41">
      <g>
       <use style="stroke:#000000;stroke-width:0.8;" x="55.213479" xlink:href="#mc8e5bf8465" y="289.101593"/>
      </g>
     </g>
     <g id="text_22">
      <!-- 0 -->
      <g transform="translate(52.28483 304.225645)rotate(-5)scale(0.1 -0.1)">
       <use xlink:href="#DejaVuSans-48"/>
      </g>
     </g>
    </g>
    <g id="xtick_10">
     <g id="line2d_42">
      <g>
       <use style="stroke:#000000;stroke-width:0.8;" x="92.413876" xlink:href="#mc8e5bf8465" y="289.101593"/>
      </g>
     </g>
     <g id="text_23">
      <!-- 2 -->
      <g transform="translate(89.485227 304.225645)rotate(-5)scale(0.1 -0.1)">
       <use xlink:href="#DejaVuSans-50"/>
      </g>
     </g>
    </g>
    <g id="xtick_11">
     <g id="line2d_43">
      <g>
       <use style="stroke:#000000;stroke-width:0.8;" x="129.614274" xlink:href="#mc8e5bf8465" y="289.101593"/>
      </g>
     </g>
     <g id="text_24">
      <!-- 4 -->
      <g transform="translate(126.685625 304.225645)rotate(-5)scale(0.1 -0.1)">
       <use xlink:href="#DejaVuSans-52"/>
      </g>
     </g>
    </g>
    <g id="xtick_12">
     <g id="line2d_44">
      <g>
       <use style="stroke:#000000;stroke-width:0.8;" x="166.814671" xlink:href="#mc8e5bf8465" y="289.101593"/>
      </g>
     </g>
     <g id="text_25">
      <!-- 6 -->
      <g transform="translate(163.886022 304.225645)rotate(-5)scale(0.1 -0.1)">
       <use xlink:href="#DejaVuSans-54"/>
      </g>
     </g>
    </g>
    <g id="xtick_13">
     <g id="line2d_45">
      <g>
       <use style="stroke:#000000;stroke-width:0.8;" x="204.015069" xlink:href="#mc8e5bf8465" y="289.101593"/>
      </g>
     </g>
     <g id="text_26">
      <!-- 8 -->
      <g transform="translate(201.08642 304.225645)rotate(-5)scale(0.1 -0.1)">
       <use xlink:href="#DejaVuSans-56"/>
      </g>
     </g>
    </g>
    <g id="xtick_14">
     <g id="line2d_46">
      <g>
       <use style="stroke:#000000;stroke-width:0.8;" x="241.215466" xlink:href="#mc8e5bf8465" y="289.101593"/>
      </g>
     </g>
     <g id="text_27">
      <!-- 10 -->
      <g transform="translate(235.117673 304.780173)rotate(-5)scale(0.1 -0.1)">
       <use xlink:href="#DejaVuSans-49"/>
       <use x="63.623047" xlink:href="#DejaVuSans-48"/>
      </g>
     </g>
    </g>
    <g id="xtick_15">
     <g id="line2d_47">
      <g>
       <use style="stroke:#000000;stroke-width:0.8;" x="278.415864" xlink:href="#mc8e5bf8465" y="289.101593"/>
      </g>
     </g>
     <g id="text_28">
      <!-- 12 -->
      <g transform="translate(272.31807 304.780173)rotate(-5)scale(0.1 -0.1)">
       <use xlink:href="#DejaVuSans-49"/>
       <use x="63.623047" xlink:href="#DejaVuSans-50"/>
      </g>
     </g>
    </g>
    <g id="xtick_16">
     <g id="line2d_48">
      <g>
       <use style="stroke:#000000;stroke-width:0.8;" x="315.616261" xlink:href="#mc8e5bf8465" y="289.101593"/>
      </g>
     </g>
     <g id="text_29">
      <!-- 14 -->
      <g transform="translate(309.518468 304.780173)rotate(-5)scale(0.1 -0.1)">
       <use xlink:href="#DejaVuSans-49"/>
       <use x="63.623047" xlink:href="#DejaVuSans-52"/>
      </g>
     </g>
    </g>
    <g id="text_30">
     <!-- Time (min) -->
     <g transform="translate(153.405197 322.249603)scale(0.15 -0.15)">
      <defs>
       <path d="M 31 75.875 
Q 24.46875 64.65625 21.28125 53.65625 
Q 18.109375 42.671875 18.109375 31.390625 
Q 18.109375 20.125 21.3125 9.0625 
Q 24.515625 -2 31 -13.1875 
L 23.1875 -13.1875 
Q 15.875 -1.703125 12.234375 9.375 
Q 8.59375 20.453125 8.59375 31.390625 
Q 8.59375 42.28125 12.203125 53.3125 
Q 15.828125 64.359375 23.1875 75.875 
z
" id="DejaVuSans-40"/>
       <path d="M 8.015625 75.875 
L 15.828125 75.875 
Q 23.140625 64.359375 26.78125 53.3125 
Q 30.421875 42.28125 30.421875 31.390625 
Q 30.421875 20.453125 26.78125 9.375 
Q 23.140625 -1.703125 15.828125 -13.1875 
L 8.015625 -13.1875 
Q 14.5 -2 17.703125 9.0625 
Q 20.90625 20.125 20.90625 31.390625 
Q 20.90625 42.671875 17.703125 53.65625 
Q 14.5 64.65625 8.015625 75.875 
z
" id="DejaVuSans-41"/>
      </defs>
      <use xlink:href="#DejaVuSans-84"/>
      <use x="57.958984" xlink:href="#DejaVuSans-105"/>
      <use x="85.742188" xlink:href="#DejaVuSans-109"/>
      <use x="183.154297" xlink:href="#DejaVuSans-101"/>
      <use x="244.677734" xlink:href="#DejaVuSans-32"/>
      <use x="276.464844" xlink:href="#DejaVuSans-40"/>
      <use x="315.478516" xlink:href="#DejaVuSans-109"/>
      <use x="412.890625" xlink:href="#DejaVuSans-105"/>
      <use x="440.673828" xlink:href="#DejaVuSans-110"/>
      <use x="504.052734" xlink:href="#DejaVuSans-41"/>
     </g>
    </g>
   </g>
   <g id="patch_8">
    <path d="M 51.338438 249.101593 
L 51.338438 24.597656 
" style="fill:none;stroke:#000000;stroke-linecap:square;stroke-linejoin:miter;stroke-width:0.8;"/>
   </g>
   <g id="patch_9">
    <path d="M 336.928989 249.101593 
L 336.928989 24.597656 
" style="fill:none;stroke:#000000;stroke-linecap:square;stroke-linejoin:miter;stroke-width:0.8;"/>
   </g>
   <g id="patch_10">
    <path d="M 51.338438 289.101593 
L 336.928989 289.101593 
" style="fill:none;stroke:#000000;stroke-linecap:square;stroke-linejoin:miter;stroke-width:0.8;"/>
   </g>
   <g id="patch_11">
    <path d="M 51.338438 24.597656 
L 336.928989 24.597656 
" style="fill:none;stroke:#000000;stroke-linecap:square;stroke-linejoin:miter;stroke-width:0.8;"/>
   </g>
  </g>
 </g>
 <defs>
  <clipPath id="p2d8284e208">
   <rect height="224.503937" width="285.590551" x="51.338438" y="24.597656"/>
  </clipPath>
 </defs>
</svg>
