<?xml version="1.0" encoding="utf-8" standalone="no"?>
<!DOCTYPE svg PUBLIC "-//W3C//DTD SVG 1.1//EN"
  "http://www.w3.org/Graphics/SVG/1.1/DTD/svg11.dtd">
<!-- Created with matplotlib (https://matplotlib.org/) -->
<svg height="331.601322pt" version="1.1" viewBox="0 0 349.572627 331.601322" width="349.572627pt" xmlns="http://www.w3.org/2000/svg" xmlns:xlink="http://www.w3.org/1999/xlink">
 <metadata>
  <rdf:RDF xmlns:cc="http://creativecommons.org/ns#" xmlns:dc="http://purl.org/dc/elements/1.1/" xmlns:rdf="http://www.w3.org/1999/02/22-rdf-syntax-ns#">
   <cc:Work>
    <dc:type rdf:resource="http://purl.org/dc/dcmitype/StillImage"/>
    <dc:date>2021-11-12T16:28:39.798668</dc:date>
    <dc:format>image/svg+xml</dc:format>
    <dc:creator>
     <cc:Agent>
      <dc:title>Matplotlib v3.3.4, https://matplotlib.org/</dc:title>
     </cc:Agent>
    </dc:creator>
   </cc:Work>
  </rdf:RDF>
 </metadata>
 <defs>
  <style type="text/css">*{stroke-linecap:butt;stroke-linejoin:round;}</style>
 </defs>
 <g id="figure_1">
  <g id="patch_1">
   <path d="M 0 331.601322 
L 349.572627 331.601322 
L 349.572627 0 
L 0 0 
z
" style="fill:#ffffff;"/>
  </g>
  <g id="axes_1">
   <g id="patch_2">
    <path d="M 51.338438 249.101593 
L 336.928989 249.101593 
L 336.928989 24.597656 
L 51.338438 24.597656 
z
" style="fill:#ffffff;"/>
   </g>
   <g id="matplotlib.axis_1">
    <g id="xtick_1">
     <g id="line2d_1">
      <path clip-path="url(#p7b801c7d8d)" d="M 55.213479 249.101593 
L 55.213479 24.597656 
" style="fill:none;stroke:#b0b0b0;stroke-dasharray:2.96,1.28;stroke-dashoffset:0;stroke-opacity:0.6;stroke-width:0.8;"/>
     </g>
     <g id="line2d_2">
      <defs>
       <path d="M 0 0 
L 0 3.5 
" id="mff27e6af11" style="stroke:#000000;stroke-width:0.8;"/>
      </defs>
      <g>
       <use style="stroke:#000000;stroke-width:0.8;" x="55.213479" xlink:href="#mff27e6af11" y="249.101593"/>
      </g>
     </g>
     <g id="text_1">
      <!-- 0 -->
      <g transform="translate(52.032229 263.700031)scale(0.1 -0.1)">
       <defs>
        <path d="M 31.78125 66.40625 
Q 24.171875 66.40625 20.328125 58.90625 
Q 16.5 51.421875 16.5 36.375 
Q 16.5 21.390625 20.328125 13.890625 
Q 24.171875 6.390625 31.78125 6.390625 
Q 39.453125 6.390625 43.28125 13.890625 
Q 47.125 21.390625 47.125 36.375 
Q 47.125 51.421875 43.28125 58.90625 
Q 39.453125 66.40625 31.78125 66.40625 
z
M 31.78125 74.21875 
Q 44.046875 74.21875 50.515625 64.515625 
Q 56.984375 54.828125 56.984375 36.375 
Q 56.984375 17.96875 50.515625 8.265625 
Q 44.046875 -1.421875 31.78125 -1.421875 
Q 19.53125 -1.421875 13.0625 8.265625 
Q 6.59375 17.96875 6.59375 36.375 
Q 6.59375 54.828125 13.0625 64.515625 
Q 19.53125 74.21875 31.78125 74.21875 
z
" id="DejaVuSans-48"/>
       </defs>
       <use xlink:href="#DejaVuSans-48"/>
      </g>
     </g>
    </g>
    <g id="xtick_2">
     <g id="line2d_3">
      <path clip-path="url(#p7b801c7d8d)" d="M 93.963893 249.101593 
L 93.963893 24.597656 
" style="fill:none;stroke:#b0b0b0;stroke-dasharray:2.96,1.28;stroke-dashoffset:0;stroke-opacity:0.6;stroke-width:0.8;"/>
     </g>
     <g id="line2d_4">
      <g>
       <use style="stroke:#000000;stroke-width:0.8;" x="93.963893" xlink:href="#mff27e6af11" y="249.101593"/>
      </g>
     </g>
     <g id="text_2">
      <!-- 10000 -->
      <g transform="translate(78.057643 263.700031)scale(0.1 -0.1)">
       <defs>
        <path d="M 12.40625 8.296875 
L 28.515625 8.296875 
L 28.515625 63.921875 
L 10.984375 60.40625 
L 10.984375 69.390625 
L 28.421875 72.90625 
L 38.28125 72.90625 
L 38.28125 8.296875 
L 54.390625 8.296875 
L 54.390625 0 
L 12.40625 0 
z
" id="DejaVuSans-49"/>
       </defs>
       <use xlink:href="#DejaVuSans-49"/>
       <use x="63.623047" xlink:href="#DejaVuSans-48"/>
       <use x="127.246094" xlink:href="#DejaVuSans-48"/>
       <use x="190.869141" xlink:href="#DejaVuSans-48"/>
       <use x="254.492188" xlink:href="#DejaVuSans-48"/>
      </g>
     </g>
    </g>
    <g id="xtick_3">
     <g id="line2d_5">
      <path clip-path="url(#p7b801c7d8d)" d="M 132.714307 249.101593 
L 132.714307 24.597656 
" style="fill:none;stroke:#b0b0b0;stroke-dasharray:2.96,1.28;stroke-dashoffset:0;stroke-opacity:0.6;stroke-width:0.8;"/>
     </g>
     <g id="line2d_6">
      <g>
       <use style="stroke:#000000;stroke-width:0.8;" x="132.714307" xlink:href="#mff27e6af11" y="249.101593"/>
      </g>
     </g>
     <g id="text_3">
      <!-- 20000 -->
      <g transform="translate(116.808057 263.700031)scale(0.1 -0.1)">
       <defs>
        <path d="M 19.1875 8.296875 
L 53.609375 8.296875 
L 53.609375 0 
L 7.328125 0 
L 7.328125 8.296875 
Q 12.9375 14.109375 22.625 23.890625 
Q 32.328125 33.6875 34.8125 36.53125 
Q 39.546875 41.84375 41.421875 45.53125 
Q 43.3125 49.21875 43.3125 52.78125 
Q 43.3125 58.59375 39.234375 62.25 
Q 35.15625 65.921875 28.609375 65.921875 
Q 23.96875 65.921875 18.8125 64.3125 
Q 13.671875 62.703125 7.8125 59.421875 
L 7.8125 69.390625 
Q 13.765625 71.78125 18.9375 73 
Q 24.125 74.21875 28.421875 74.21875 
Q 39.75 74.21875 46.484375 68.546875 
Q 53.21875 62.890625 53.21875 53.421875 
Q 53.21875 48.921875 51.53125 44.890625 
Q 49.859375 40.875 45.40625 35.40625 
Q 44.1875 33.984375 37.640625 27.21875 
Q 31.109375 20.453125 19.1875 8.296875 
z
" id="DejaVuSans-50"/>
       </defs>
       <use xlink:href="#DejaVuSans-50"/>
       <use x="63.623047" xlink:href="#DejaVuSans-48"/>
       <use x="127.246094" xlink:href="#DejaVuSans-48"/>
       <use x="190.869141" xlink:href="#DejaVuSans-48"/>
       <use x="254.492188" xlink:href="#DejaVuSans-48"/>
      </g>
     </g>
    </g>
    <g id="xtick_4">
     <g id="line2d_7">
      <path clip-path="url(#p7b801c7d8d)" d="M 171.464721 249.101593 
L 171.464721 24.597656 
" style="fill:none;stroke:#b0b0b0;stroke-dasharray:2.96,1.28;stroke-dashoffset:0;stroke-opacity:0.6;stroke-width:0.8;"/>
     </g>
     <g id="line2d_8">
      <g>
       <use style="stroke:#000000;stroke-width:0.8;" x="171.464721" xlink:href="#mff27e6af11" y="249.101593"/>
      </g>
     </g>
     <g id="text_4">
      <!-- 30000 -->
      <g transform="translate(155.558471 263.700031)scale(0.1 -0.1)">
       <defs>
        <path d="M 40.578125 39.3125 
Q 47.65625 37.796875 51.625 33 
Q 55.609375 28.21875 55.609375 21.1875 
Q 55.609375 10.40625 48.1875 4.484375 
Q 40.765625 -1.421875 27.09375 -1.421875 
Q 22.515625 -1.421875 17.65625 -0.515625 
Q 12.796875 0.390625 7.625 2.203125 
L 7.625 11.71875 
Q 11.71875 9.328125 16.59375 8.109375 
Q 21.484375 6.890625 26.8125 6.890625 
Q 36.078125 6.890625 40.9375 10.546875 
Q 45.796875 14.203125 45.796875 21.1875 
Q 45.796875 27.640625 41.28125 31.265625 
Q 36.765625 34.90625 28.71875 34.90625 
L 20.21875 34.90625 
L 20.21875 43.015625 
L 29.109375 43.015625 
Q 36.375 43.015625 40.234375 45.921875 
Q 44.09375 48.828125 44.09375 54.296875 
Q 44.09375 59.90625 40.109375 62.90625 
Q 36.140625 65.921875 28.71875 65.921875 
Q 24.65625 65.921875 20.015625 65.03125 
Q 15.375 64.15625 9.8125 62.3125 
L 9.8125 71.09375 
Q 15.4375 72.65625 20.34375 73.4375 
Q 25.25 74.21875 29.59375 74.21875 
Q 40.828125 74.21875 47.359375 69.109375 
Q 53.90625 64.015625 53.90625 55.328125 
Q 53.90625 49.265625 50.4375 45.09375 
Q 46.96875 40.921875 40.578125 39.3125 
z
" id="DejaVuSans-51"/>
       </defs>
       <use xlink:href="#DejaVuSans-51"/>
       <use x="63.623047" xlink:href="#DejaVuSans-48"/>
       <use x="127.246094" xlink:href="#DejaVuSans-48"/>
       <use x="190.869141" xlink:href="#DejaVuSans-48"/>
       <use x="254.492188" xlink:href="#DejaVuSans-48"/>
      </g>
     </g>
    </g>
    <g id="xtick_5">
     <g id="line2d_9">
      <path clip-path="url(#p7b801c7d8d)" d="M 210.215135 249.101593 
L 210.215135 24.597656 
" style="fill:none;stroke:#b0b0b0;stroke-dasharray:2.96,1.28;stroke-dashoffset:0;stroke-opacity:0.6;stroke-width:0.8;"/>
     </g>
     <g id="line2d_10">
      <g>
       <use style="stroke:#000000;stroke-width:0.8;" x="210.215135" xlink:href="#mff27e6af11" y="249.101593"/>
      </g>
     </g>
     <g id="text_5">
      <!-- 40000 -->
      <g transform="translate(194.308885 263.700031)scale(0.1 -0.1)">
       <defs>
        <path d="M 37.796875 64.3125 
L 12.890625 25.390625 
L 37.796875 25.390625 
z
M 35.203125 72.90625 
L 47.609375 72.90625 
L 47.609375 25.390625 
L 58.015625 25.390625 
L 58.015625 17.1875 
L 47.609375 17.1875 
L 47.609375 0 
L 37.796875 0 
L 37.796875 17.1875 
L 4.890625 17.1875 
L 4.890625 26.703125 
z
" id="DejaVuSans-52"/>
       </defs>
       <use xlink:href="#DejaVuSans-52"/>
       <use x="63.623047" xlink:href="#DejaVuSans-48"/>
       <use x="127.246094" xlink:href="#DejaVuSans-48"/>
       <use x="190.869141" xlink:href="#DejaVuSans-48"/>
       <use x="254.492188" xlink:href="#DejaVuSans-48"/>
      </g>
     </g>
    </g>
    <g id="xtick_6">
     <g id="line2d_11">
      <path clip-path="url(#p7b801c7d8d)" d="M 248.965549 249.101593 
L 248.965549 24.597656 
" style="fill:none;stroke:#b0b0b0;stroke-dasharray:2.96,1.28;stroke-dashoffset:0;stroke-opacity:0.6;stroke-width:0.8;"/>
     </g>
     <g id="line2d_12">
      <g>
       <use style="stroke:#000000;stroke-width:0.8;" x="248.965549" xlink:href="#mff27e6af11" y="249.101593"/>
      </g>
     </g>
     <g id="text_6">
      <!-- 50000 -->
      <g transform="translate(233.059299 263.700031)scale(0.1 -0.1)">
       <defs>
        <path d="M 10.796875 72.90625 
L 49.515625 72.90625 
L 49.515625 64.59375 
L 19.828125 64.59375 
L 19.828125 46.734375 
Q 21.96875 47.46875 24.109375 47.828125 
Q 26.265625 48.1875 28.421875 48.1875 
Q 40.625 48.1875 47.75 41.5 
Q 54.890625 34.8125 54.890625 23.390625 
Q 54.890625 11.625 47.5625 5.09375 
Q 40.234375 -1.421875 26.90625 -1.421875 
Q 22.3125 -1.421875 17.546875 -0.640625 
Q 12.796875 0.140625 7.71875 1.703125 
L 7.71875 11.625 
Q 12.109375 9.234375 16.796875 8.0625 
Q 21.484375 6.890625 26.703125 6.890625 
Q 35.15625 6.890625 40.078125 11.328125 
Q 45.015625 15.765625 45.015625 23.390625 
Q 45.015625 31 40.078125 35.4375 
Q 35.15625 39.890625 26.703125 39.890625 
Q 22.75 39.890625 18.8125 39.015625 
Q 14.890625 38.140625 10.796875 36.28125 
z
" id="DejaVuSans-53"/>
       </defs>
       <use xlink:href="#DejaVuSans-53"/>
       <use x="63.623047" xlink:href="#DejaVuSans-48"/>
       <use x="127.246094" xlink:href="#DejaVuSans-48"/>
       <use x="190.869141" xlink:href="#DejaVuSans-48"/>
       <use x="254.492188" xlink:href="#DejaVuSans-48"/>
      </g>
     </g>
    </g>
    <g id="xtick_7">
     <g id="line2d_13">
      <path clip-path="url(#p7b801c7d8d)" d="M 287.715963 249.101593 
L 287.715963 24.597656 
" style="fill:none;stroke:#b0b0b0;stroke-dasharray:2.96,1.28;stroke-dashoffset:0;stroke-opacity:0.6;stroke-width:0.8;"/>
     </g>
     <g id="line2d_14">
      <g>
       <use style="stroke:#000000;stroke-width:0.8;" x="287.715963" xlink:href="#mff27e6af11" y="249.101593"/>
      </g>
     </g>
     <g id="text_7">
      <!-- 60000 -->
      <g transform="translate(271.809713 263.700031)scale(0.1 -0.1)">
       <defs>
        <path d="M 33.015625 40.375 
Q 26.375 40.375 22.484375 35.828125 
Q 18.609375 31.296875 18.609375 23.390625 
Q 18.609375 15.53125 22.484375 10.953125 
Q 26.375 6.390625 33.015625 6.390625 
Q 39.65625 6.390625 43.53125 10.953125 
Q 47.40625 15.53125 47.40625 23.390625 
Q 47.40625 31.296875 43.53125 35.828125 
Q 39.65625 40.375 33.015625 40.375 
z
M 52.59375 71.296875 
L 52.59375 62.3125 
Q 48.875 64.0625 45.09375 64.984375 
Q 41.3125 65.921875 37.59375 65.921875 
Q 27.828125 65.921875 22.671875 59.328125 
Q 17.53125 52.734375 16.796875 39.40625 
Q 19.671875 43.65625 24.015625 45.921875 
Q 28.375 48.1875 33.59375 48.1875 
Q 44.578125 48.1875 50.953125 41.515625 
Q 57.328125 34.859375 57.328125 23.390625 
Q 57.328125 12.15625 50.6875 5.359375 
Q 44.046875 -1.421875 33.015625 -1.421875 
Q 20.359375 -1.421875 13.671875 8.265625 
Q 6.984375 17.96875 6.984375 36.375 
Q 6.984375 53.65625 15.1875 63.9375 
Q 23.390625 74.21875 37.203125 74.21875 
Q 40.921875 74.21875 44.703125 73.484375 
Q 48.484375 72.75 52.59375 71.296875 
z
" id="DejaVuSans-54"/>
       </defs>
       <use xlink:href="#DejaVuSans-54"/>
       <use x="63.623047" xlink:href="#DejaVuSans-48"/>
       <use x="127.246094" xlink:href="#DejaVuSans-48"/>
       <use x="190.869141" xlink:href="#DejaVuSans-48"/>
       <use x="254.492188" xlink:href="#DejaVuSans-48"/>
      </g>
     </g>
    </g>
    <g id="xtick_8">
     <g id="line2d_15">
      <path clip-path="url(#p7b801c7d8d)" d="M 326.466377 249.101593 
L 326.466377 24.597656 
" style="fill:none;stroke:#b0b0b0;stroke-dasharray:2.96,1.28;stroke-dashoffset:0;stroke-opacity:0.6;stroke-width:0.8;"/>
     </g>
     <g id="line2d_16">
      <g>
       <use style="stroke:#000000;stroke-width:0.8;" x="326.466377" xlink:href="#mff27e6af11" y="249.101593"/>
      </g>
     </g>
     <g id="text_8">
      <!-- 70000 -->
      <g transform="translate(310.560127 263.700031)scale(0.1 -0.1)">
       <defs>
        <path d="M 8.203125 72.90625 
L 55.078125 72.90625 
L 55.078125 68.703125 
L 28.609375 0 
L 18.3125 0 
L 43.21875 64.59375 
L 8.203125 64.59375 
z
" id="DejaVuSans-55"/>
       </defs>
       <use xlink:href="#DejaVuSans-55"/>
       <use x="63.623047" xlink:href="#DejaVuSans-48"/>
       <use x="127.246094" xlink:href="#DejaVuSans-48"/>
       <use x="190.869141" xlink:href="#DejaVuSans-48"/>
       <use x="254.492188" xlink:href="#DejaVuSans-48"/>
      </g>
     </g>
    </g>
    <g id="text_9">
     <!-- Time steps -->
     <g transform="translate(155.993557 280.417531)scale(0.14 -0.14)">
      <defs>
       <path d="M -0.296875 72.90625 
L 61.375 72.90625 
L 61.375 64.59375 
L 35.5 64.59375 
L 35.5 0 
L 25.59375 0 
L 25.59375 64.59375 
L -0.296875 64.59375 
z
" id="DejaVuSans-84"/>
       <path d="M 9.421875 54.6875 
L 18.40625 54.6875 
L 18.40625 0 
L 9.421875 0 
z
M 9.421875 75.984375 
L 18.40625 75.984375 
L 18.40625 64.59375 
L 9.421875 64.59375 
z
" id="DejaVuSans-105"/>
       <path d="M 52 44.1875 
Q 55.375 50.25 60.0625 53.125 
Q 64.75 56 71.09375 56 
Q 79.640625 56 84.28125 50.015625 
Q 88.921875 44.046875 88.921875 33.015625 
L 88.921875 0 
L 79.890625 0 
L 79.890625 32.71875 
Q 79.890625 40.578125 77.09375 44.375 
Q 74.3125 48.1875 68.609375 48.1875 
Q 61.625 48.1875 57.5625 43.546875 
Q 53.515625 38.921875 53.515625 30.90625 
L 53.515625 0 
L 44.484375 0 
L 44.484375 32.71875 
Q 44.484375 40.625 41.703125 44.40625 
Q 38.921875 48.1875 33.109375 48.1875 
Q 26.21875 48.1875 22.15625 43.53125 
Q 18.109375 38.875 18.109375 30.90625 
L 18.109375 0 
L 9.078125 0 
L 9.078125 54.6875 
L 18.109375 54.6875 
L 18.109375 46.1875 
Q 21.1875 51.21875 25.484375 53.609375 
Q 29.78125 56 35.6875 56 
Q 41.65625 56 45.828125 52.96875 
Q 50 49.953125 52 44.1875 
z
" id="DejaVuSans-109"/>
       <path d="M 56.203125 29.59375 
L 56.203125 25.203125 
L 14.890625 25.203125 
Q 15.484375 15.921875 20.484375 11.0625 
Q 25.484375 6.203125 34.421875 6.203125 
Q 39.59375 6.203125 44.453125 7.46875 
Q 49.3125 8.734375 54.109375 11.28125 
L 54.109375 2.78125 
Q 49.265625 0.734375 44.1875 -0.34375 
Q 39.109375 -1.421875 33.890625 -1.421875 
Q 20.796875 -1.421875 13.15625 6.1875 
Q 5.515625 13.8125 5.515625 26.8125 
Q 5.515625 40.234375 12.765625 48.109375 
Q 20.015625 56 32.328125 56 
Q 43.359375 56 49.78125 48.890625 
Q 56.203125 41.796875 56.203125 29.59375 
z
M 47.21875 32.234375 
Q 47.125 39.59375 43.09375 43.984375 
Q 39.0625 48.390625 32.421875 48.390625 
Q 24.90625 48.390625 20.390625 44.140625 
Q 15.875 39.890625 15.1875 32.171875 
z
" id="DejaVuSans-101"/>
       <path id="DejaVuSans-32"/>
       <path d="M 44.28125 53.078125 
L 44.28125 44.578125 
Q 40.484375 46.53125 36.375 47.5 
Q 32.28125 48.484375 27.875 48.484375 
Q 21.1875 48.484375 17.84375 46.4375 
Q 14.5 44.390625 14.5 40.28125 
Q 14.5 37.15625 16.890625 35.375 
Q 19.28125 33.59375 26.515625 31.984375 
L 29.59375 31.296875 
Q 39.15625 29.25 43.1875 25.515625 
Q 47.21875 21.78125 47.21875 15.09375 
Q 47.21875 7.46875 41.1875 3.015625 
Q 35.15625 -1.421875 24.609375 -1.421875 
Q 20.21875 -1.421875 15.453125 -0.5625 
Q 10.6875 0.296875 5.421875 2 
L 5.421875 11.28125 
Q 10.40625 8.6875 15.234375 7.390625 
Q 20.0625 6.109375 24.8125 6.109375 
Q 31.15625 6.109375 34.5625 8.28125 
Q 37.984375 10.453125 37.984375 14.40625 
Q 37.984375 18.0625 35.515625 20.015625 
Q 33.0625 21.96875 24.703125 23.78125 
L 21.578125 24.515625 
Q 13.234375 26.265625 9.515625 29.90625 
Q 5.8125 33.546875 5.8125 39.890625 
Q 5.8125 47.609375 11.28125 51.796875 
Q 16.75 56 26.8125 56 
Q 31.78125 56 36.171875 55.265625 
Q 40.578125 54.546875 44.28125 53.078125 
z
" id="DejaVuSans-115"/>
       <path d="M 18.3125 70.21875 
L 18.3125 54.6875 
L 36.8125 54.6875 
L 36.8125 47.703125 
L 18.3125 47.703125 
L 18.3125 18.015625 
Q 18.3125 11.328125 20.140625 9.421875 
Q 21.96875 7.515625 27.59375 7.515625 
L 36.8125 7.515625 
L 36.8125 0 
L 27.59375 0 
Q 17.1875 0 13.234375 3.875 
Q 9.28125 7.765625 9.28125 18.015625 
L 9.28125 47.703125 
L 2.6875 47.703125 
L 2.6875 54.6875 
L 9.28125 54.6875 
L 9.28125 70.21875 
z
" id="DejaVuSans-116"/>
       <path d="M 18.109375 8.203125 
L 18.109375 -20.796875 
L 9.078125 -20.796875 
L 9.078125 54.6875 
L 18.109375 54.6875 
L 18.109375 46.390625 
Q 20.953125 51.265625 25.265625 53.625 
Q 29.59375 56 35.59375 56 
Q 45.5625 56 51.78125 48.09375 
Q 58.015625 40.1875 58.015625 27.296875 
Q 58.015625 14.40625 51.78125 6.484375 
Q 45.5625 -1.421875 35.59375 -1.421875 
Q 29.59375 -1.421875 25.265625 0.953125 
Q 20.953125 3.328125 18.109375 8.203125 
z
M 48.6875 27.296875 
Q 48.6875 37.203125 44.609375 42.84375 
Q 40.53125 48.484375 33.40625 48.484375 
Q 26.265625 48.484375 22.1875 42.84375 
Q 18.109375 37.203125 18.109375 27.296875 
Q 18.109375 17.390625 22.1875 11.75 
Q 26.265625 6.109375 33.40625 6.109375 
Q 40.53125 6.109375 44.609375 11.75 
Q 48.6875 17.390625 48.6875 27.296875 
z
" id="DejaVuSans-112"/>
      </defs>
      <use xlink:href="#DejaVuSans-84"/>
      <use x="57.958984" xlink:href="#DejaVuSans-105"/>
      <use x="85.742188" xlink:href="#DejaVuSans-109"/>
      <use x="183.154297" xlink:href="#DejaVuSans-101"/>
      <use x="244.677734" xlink:href="#DejaVuSans-32"/>
      <use x="276.464844" xlink:href="#DejaVuSans-115"/>
      <use x="328.564453" xlink:href="#DejaVuSans-116"/>
      <use x="367.773438" xlink:href="#DejaVuSans-101"/>
      <use x="429.296875" xlink:href="#DejaVuSans-112"/>
      <use x="492.773438" xlink:href="#DejaVuSans-115"/>
     </g>
    </g>
   </g>
   <g id="matplotlib.axis_2">
    <g id="ytick_1">
     <g id="line2d_17">
      <path clip-path="url(#p7b801c7d8d)" d="M 51.338438 249.101593 
L 336.928989 249.101593 
" style="fill:none;stroke:#b0b0b0;stroke-dasharray:2.96,1.28;stroke-dashoffset:0;stroke-opacity:0.6;stroke-width:0.8;"/>
     </g>
     <g id="line2d_18">
      <defs>
       <path d="M 0 0 
L -3.5 0 
" id="mb640f39853" style="stroke:#000000;stroke-width:0.8;"/>
      </defs>
      <g>
       <use style="stroke:#000000;stroke-width:0.8;" x="51.338438" xlink:href="#mb640f39853" y="249.101593"/>
      </g>
     </g>
     <g id="text_10">
      <!-- 0% -->
      <g transform="translate(28.474375 252.900812)scale(0.1 -0.1)">
       <defs>
        <path d="M 72.703125 32.078125 
Q 68.453125 32.078125 66.03125 28.46875 
Q 63.625 24.859375 63.625 18.40625 
Q 63.625 12.0625 66.03125 8.421875 
Q 68.453125 4.78125 72.703125 4.78125 
Q 76.859375 4.78125 79.265625 8.421875 
Q 81.6875 12.0625 81.6875 18.40625 
Q 81.6875 24.8125 79.265625 28.4375 
Q 76.859375 32.078125 72.703125 32.078125 
z
M 72.703125 38.28125 
Q 80.421875 38.28125 84.953125 32.90625 
Q 89.5 27.546875 89.5 18.40625 
Q 89.5 9.28125 84.9375 3.921875 
Q 80.375 -1.421875 72.703125 -1.421875 
Q 64.890625 -1.421875 60.34375 3.921875 
Q 55.8125 9.28125 55.8125 18.40625 
Q 55.8125 27.59375 60.375 32.9375 
Q 64.9375 38.28125 72.703125 38.28125 
z
M 22.3125 68.015625 
Q 18.109375 68.015625 15.6875 64.375 
Q 13.28125 60.75 13.28125 54.390625 
Q 13.28125 47.953125 15.671875 44.328125 
Q 18.0625 40.71875 22.3125 40.71875 
Q 26.5625 40.71875 28.96875 44.328125 
Q 31.390625 47.953125 31.390625 54.390625 
Q 31.390625 60.6875 28.953125 64.34375 
Q 26.515625 68.015625 22.3125 68.015625 
z
M 66.40625 74.21875 
L 74.21875 74.21875 
L 28.609375 -1.421875 
L 20.796875 -1.421875 
z
M 22.3125 74.21875 
Q 30.03125 74.21875 34.609375 68.875 
Q 39.203125 63.53125 39.203125 54.390625 
Q 39.203125 45.171875 34.640625 39.84375 
Q 30.078125 34.515625 22.3125 34.515625 
Q 14.546875 34.515625 10.03125 39.859375 
Q 5.515625 45.21875 5.515625 54.390625 
Q 5.515625 63.484375 10.046875 68.84375 
Q 14.59375 74.21875 22.3125 74.21875 
z
" id="DejaVuSans-37"/>
       </defs>
       <use xlink:href="#DejaVuSans-48"/>
       <use x="63.623047" xlink:href="#DejaVuSans-37"/>
      </g>
     </g>
    </g>
    <g id="ytick_2">
     <g id="line2d_19">
      <path clip-path="url(#p7b801c7d8d)" d="M 51.338438 205.081213 
L 336.928989 205.081213 
" style="fill:none;stroke:#b0b0b0;stroke-dasharray:2.96,1.28;stroke-dashoffset:0;stroke-opacity:0.6;stroke-width:0.8;"/>
     </g>
     <g id="line2d_20">
      <g>
       <use style="stroke:#000000;stroke-width:0.8;" x="51.338438" xlink:href="#mb640f39853" y="205.081213"/>
      </g>
     </g>
     <g id="text_11">
      <!-- 20% -->
      <g transform="translate(22.111875 208.880432)scale(0.1 -0.1)">
       <use xlink:href="#DejaVuSans-50"/>
       <use x="63.623047" xlink:href="#DejaVuSans-48"/>
       <use x="127.246094" xlink:href="#DejaVuSans-37"/>
      </g>
     </g>
    </g>
    <g id="ytick_3">
     <g id="line2d_21">
      <path clip-path="url(#p7b801c7d8d)" d="M 51.338438 161.060834 
L 336.928989 161.060834 
" style="fill:none;stroke:#b0b0b0;stroke-dasharray:2.96,1.28;stroke-dashoffset:0;stroke-opacity:0.6;stroke-width:0.8;"/>
     </g>
     <g id="line2d_22">
      <g>
       <use style="stroke:#000000;stroke-width:0.8;" x="51.338438" xlink:href="#mb640f39853" y="161.060834"/>
      </g>
     </g>
     <g id="text_12">
      <!-- 40% -->
      <g transform="translate(22.111875 164.860052)scale(0.1 -0.1)">
       <use xlink:href="#DejaVuSans-52"/>
       <use x="63.623047" xlink:href="#DejaVuSans-48"/>
       <use x="127.246094" xlink:href="#DejaVuSans-37"/>
      </g>
     </g>
    </g>
    <g id="ytick_4">
     <g id="line2d_23">
      <path clip-path="url(#p7b801c7d8d)" d="M 51.338438 117.040454 
L 336.928989 117.040454 
" style="fill:none;stroke:#b0b0b0;stroke-dasharray:2.96,1.28;stroke-dashoffset:0;stroke-opacity:0.6;stroke-width:0.8;"/>
     </g>
     <g id="line2d_24">
      <g>
       <use style="stroke:#000000;stroke-width:0.8;" x="51.338438" xlink:href="#mb640f39853" y="117.040454"/>
      </g>
     </g>
     <g id="text_13">
      <!-- 60% -->
      <g transform="translate(22.111875 120.839673)scale(0.1 -0.1)">
       <use xlink:href="#DejaVuSans-54"/>
       <use x="63.623047" xlink:href="#DejaVuSans-48"/>
       <use x="127.246094" xlink:href="#DejaVuSans-37"/>
      </g>
     </g>
    </g>
    <g id="ytick_5">
     <g id="line2d_25">
      <path clip-path="url(#p7b801c7d8d)" d="M 51.338438 73.020074 
L 336.928989 73.020074 
" style="fill:none;stroke:#b0b0b0;stroke-dasharray:2.96,1.28;stroke-dashoffset:0;stroke-opacity:0.6;stroke-width:0.8;"/>
     </g>
     <g id="line2d_26">
      <g>
       <use style="stroke:#000000;stroke-width:0.8;" x="51.338438" xlink:href="#mb640f39853" y="73.020074"/>
      </g>
     </g>
     <g id="text_14">
      <!-- 80% -->
      <g transform="translate(22.111875 76.819293)scale(0.1 -0.1)">
       <defs>
        <path d="M 31.78125 34.625 
Q 24.75 34.625 20.71875 30.859375 
Q 16.703125 27.09375 16.703125 20.515625 
Q 16.703125 13.921875 20.71875 10.15625 
Q 24.75 6.390625 31.78125 6.390625 
Q 38.8125 6.390625 42.859375 10.171875 
Q 46.921875 13.96875 46.921875 20.515625 
Q 46.921875 27.09375 42.890625 30.859375 
Q 38.875 34.625 31.78125 34.625 
z
M 21.921875 38.8125 
Q 15.578125 40.375 12.03125 44.71875 
Q 8.5 49.078125 8.5 55.328125 
Q 8.5 64.0625 14.71875 69.140625 
Q 20.953125 74.21875 31.78125 74.21875 
Q 42.671875 74.21875 48.875 69.140625 
Q 55.078125 64.0625 55.078125 55.328125 
Q 55.078125 49.078125 51.53125 44.71875 
Q 48 40.375 41.703125 38.8125 
Q 48.828125 37.15625 52.796875 32.3125 
Q 56.78125 27.484375 56.78125 20.515625 
Q 56.78125 9.90625 50.3125 4.234375 
Q 43.84375 -1.421875 31.78125 -1.421875 
Q 19.734375 -1.421875 13.25 4.234375 
Q 6.78125 9.90625 6.78125 20.515625 
Q 6.78125 27.484375 10.78125 32.3125 
Q 14.796875 37.15625 21.921875 38.8125 
z
M 18.3125 54.390625 
Q 18.3125 48.734375 21.84375 45.5625 
Q 25.390625 42.390625 31.78125 42.390625 
Q 38.140625 42.390625 41.71875 45.5625 
Q 45.3125 48.734375 45.3125 54.390625 
Q 45.3125 60.0625 41.71875 63.234375 
Q 38.140625 66.40625 31.78125 66.40625 
Q 25.390625 66.40625 21.84375 63.234375 
Q 18.3125 60.0625 18.3125 54.390625 
z
" id="DejaVuSans-56"/>
       </defs>
       <use xlink:href="#DejaVuSans-56"/>
       <use x="63.623047" xlink:href="#DejaVuSans-48"/>
       <use x="127.246094" xlink:href="#DejaVuSans-37"/>
      </g>
     </g>
    </g>
    <g id="ytick_6">
     <g id="line2d_27">
      <path clip-path="url(#p7b801c7d8d)" d="M 51.338438 28.999694 
L 336.928989 28.999694 
" style="fill:none;stroke:#b0b0b0;stroke-dasharray:2.96,1.28;stroke-dashoffset:0;stroke-opacity:0.6;stroke-width:0.8;"/>
     </g>
     <g id="line2d_28">
      <g>
       <use style="stroke:#000000;stroke-width:0.8;" x="51.338438" xlink:href="#mb640f39853" y="28.999694"/>
      </g>
     </g>
     <g id="text_15">
      <!-- 100% -->
      <g transform="translate(15.749375 32.798913)scale(0.1 -0.1)">
       <use xlink:href="#DejaVuSans-49"/>
       <use x="63.623047" xlink:href="#DejaVuSans-48"/>
       <use x="127.246094" xlink:href="#DejaVuSans-48"/>
       <use x="190.869141" xlink:href="#DejaVuSans-37"/>
      </g>
     </g>
    </g>
    <g id="text_16">
     <!-- Success per episode -->
     <g transform="translate(17.837812 208.482594)rotate(-90)scale(0.14 -0.14)">
      <defs>
       <path d="M 53.515625 70.515625 
L 53.515625 60.890625 
Q 47.90625 63.578125 42.921875 64.890625 
Q 37.9375 66.21875 33.296875 66.21875 
Q 25.25 66.21875 20.875 63.09375 
Q 16.5 59.96875 16.5 54.203125 
Q 16.5 49.359375 19.40625 46.890625 
Q 22.3125 44.4375 30.421875 42.921875 
L 36.375 41.703125 
Q 47.40625 39.59375 52.65625 34.296875 
Q 57.90625 29 57.90625 20.125 
Q 57.90625 9.515625 50.796875 4.046875 
Q 43.703125 -1.421875 29.984375 -1.421875 
Q 24.8125 -1.421875 18.96875 -0.25 
Q 13.140625 0.921875 6.890625 3.21875 
L 6.890625 13.375 
Q 12.890625 10.015625 18.65625 8.296875 
Q 24.421875 6.59375 29.984375 6.59375 
Q 38.421875 6.59375 43.015625 9.90625 
Q 47.609375 13.234375 47.609375 19.390625 
Q 47.609375 24.75 44.3125 27.78125 
Q 41.015625 30.8125 33.5 32.328125 
L 27.484375 33.5 
Q 16.453125 35.6875 11.515625 40.375 
Q 6.59375 45.0625 6.59375 53.421875 
Q 6.59375 63.09375 13.40625 68.65625 
Q 20.21875 74.21875 32.171875 74.21875 
Q 37.3125 74.21875 42.625 73.28125 
Q 47.953125 72.359375 53.515625 70.515625 
z
" id="DejaVuSans-83"/>
       <path d="M 8.5 21.578125 
L 8.5 54.6875 
L 17.484375 54.6875 
L 17.484375 21.921875 
Q 17.484375 14.15625 20.5 10.265625 
Q 23.53125 6.390625 29.59375 6.390625 
Q 36.859375 6.390625 41.078125 11.03125 
Q 45.3125 15.671875 45.3125 23.6875 
L 45.3125 54.6875 
L 54.296875 54.6875 
L 54.296875 0 
L 45.3125 0 
L 45.3125 8.40625 
Q 42.046875 3.421875 37.71875 1 
Q 33.40625 -1.421875 27.6875 -1.421875 
Q 18.265625 -1.421875 13.375 4.4375 
Q 8.5 10.296875 8.5 21.578125 
z
M 31.109375 56 
z
" id="DejaVuSans-117"/>
       <path d="M 48.78125 52.59375 
L 48.78125 44.1875 
Q 44.96875 46.296875 41.140625 47.34375 
Q 37.3125 48.390625 33.40625 48.390625 
Q 24.65625 48.390625 19.8125 42.84375 
Q 14.984375 37.3125 14.984375 27.296875 
Q 14.984375 17.28125 19.8125 11.734375 
Q 24.65625 6.203125 33.40625 6.203125 
Q 37.3125 6.203125 41.140625 7.25 
Q 44.96875 8.296875 48.78125 10.40625 
L 48.78125 2.09375 
Q 45.015625 0.34375 40.984375 -0.53125 
Q 36.96875 -1.421875 32.421875 -1.421875 
Q 20.0625 -1.421875 12.78125 6.34375 
Q 5.515625 14.109375 5.515625 27.296875 
Q 5.515625 40.671875 12.859375 48.328125 
Q 20.21875 56 33.015625 56 
Q 37.15625 56 41.109375 55.140625 
Q 45.0625 54.296875 48.78125 52.59375 
z
" id="DejaVuSans-99"/>
       <path d="M 41.109375 46.296875 
Q 39.59375 47.171875 37.8125 47.578125 
Q 36.03125 48 33.890625 48 
Q 26.265625 48 22.1875 43.046875 
Q 18.109375 38.09375 18.109375 28.8125 
L 18.109375 0 
L 9.078125 0 
L 9.078125 54.6875 
L 18.109375 54.6875 
L 18.109375 46.1875 
Q 20.953125 51.171875 25.484375 53.578125 
Q 30.03125 56 36.53125 56 
Q 37.453125 56 38.578125 55.875 
Q 39.703125 55.765625 41.0625 55.515625 
z
" id="DejaVuSans-114"/>
       <path d="M 30.609375 48.390625 
Q 23.390625 48.390625 19.1875 42.75 
Q 14.984375 37.109375 14.984375 27.296875 
Q 14.984375 17.484375 19.15625 11.84375 
Q 23.34375 6.203125 30.609375 6.203125 
Q 37.796875 6.203125 41.984375 11.859375 
Q 46.1875 17.53125 46.1875 27.296875 
Q 46.1875 37.015625 41.984375 42.703125 
Q 37.796875 48.390625 30.609375 48.390625 
z
M 30.609375 56 
Q 42.328125 56 49.015625 48.375 
Q 55.71875 40.765625 55.71875 27.296875 
Q 55.71875 13.875 49.015625 6.21875 
Q 42.328125 -1.421875 30.609375 -1.421875 
Q 18.84375 -1.421875 12.171875 6.21875 
Q 5.515625 13.875 5.515625 27.296875 
Q 5.515625 40.765625 12.171875 48.375 
Q 18.84375 56 30.609375 56 
z
" id="DejaVuSans-111"/>
       <path d="M 45.40625 46.390625 
L 45.40625 75.984375 
L 54.390625 75.984375 
L 54.390625 0 
L 45.40625 0 
L 45.40625 8.203125 
Q 42.578125 3.328125 38.25 0.953125 
Q 33.9375 -1.421875 27.875 -1.421875 
Q 17.96875 -1.421875 11.734375 6.484375 
Q 5.515625 14.40625 5.515625 27.296875 
Q 5.515625 40.1875 11.734375 48.09375 
Q 17.96875 56 27.875 56 
Q 33.9375 56 38.25 53.625 
Q 42.578125 51.265625 45.40625 46.390625 
z
M 14.796875 27.296875 
Q 14.796875 17.390625 18.875 11.75 
Q 22.953125 6.109375 30.078125 6.109375 
Q 37.203125 6.109375 41.296875 11.75 
Q 45.40625 17.390625 45.40625 27.296875 
Q 45.40625 37.203125 41.296875 42.84375 
Q 37.203125 48.484375 30.078125 48.484375 
Q 22.953125 48.484375 18.875 42.84375 
Q 14.796875 37.203125 14.796875 27.296875 
z
" id="DejaVuSans-100"/>
      </defs>
      <use xlink:href="#DejaVuSans-83"/>
      <use x="63.476562" xlink:href="#DejaVuSans-117"/>
      <use x="126.855469" xlink:href="#DejaVuSans-99"/>
      <use x="181.835938" xlink:href="#DejaVuSans-99"/>
      <use x="236.816406" xlink:href="#DejaVuSans-101"/>
      <use x="298.339844" xlink:href="#DejaVuSans-115"/>
      <use x="350.439453" xlink:href="#DejaVuSans-115"/>
      <use x="402.539062" xlink:href="#DejaVuSans-32"/>
      <use x="434.326172" xlink:href="#DejaVuSans-112"/>
      <use x="497.802734" xlink:href="#DejaVuSans-101"/>
      <use x="559.326172" xlink:href="#DejaVuSans-114"/>
      <use x="600.439453" xlink:href="#DejaVuSans-32"/>
      <use x="632.226562" xlink:href="#DejaVuSans-101"/>
      <use x="693.75" xlink:href="#DejaVuSans-112"/>
      <use x="757.226562" xlink:href="#DejaVuSans-105"/>
      <use x="785.009766" xlink:href="#DejaVuSans-115"/>
      <use x="837.109375" xlink:href="#DejaVuSans-111"/>
      <use x="898.291016" xlink:href="#DejaVuSans-100"/>
      <use x="961.767578" xlink:href="#DejaVuSans-101"/>
     </g>
    </g>
   </g>
   <g id="line2d_29">
    <path clip-path="url(#p7b801c7d8d)" d="M 55.136017 249.101593 
L 55.15671 248.991067 
L 55.18058 226.359361 
L 55.325855 180.851185 
L 58.16626 148.354568 
L 60.44866 127.017251 
L 61.38642 119.252031 
L 61.704173 118.314961 
L 62.176928 117.685417 
L 62.548932 117.498351 
L 62.870561 117.572134 
L 63.420817 118.042557 
L 63.77732 118.589986 
L 64.257826 119.830286 
L 65.249836 123.080795 
L 66.919979 128.54723 
L 68.38862 133.133831 
L 69.248879 136.157279 
L 69.617008 136.739876 
L 69.845635 136.781538 
L 70.047137 136.55991 
L 70.345516 135.817545 
L 70.876396 133.808053 
L 73.205296 124.21022 
L 73.736177 122.918751 
L 74.123681 122.513354 
L 74.472435 122.463056 
L 74.92969 122.620036 
L 75.646572 122.987429 
L 76.251079 122.954053 
L 76.615333 122.763965 
L 77.153963 122.13243 
L 77.746845 121.202602 
L 78.374601 119.799498 
L 79.21161 117.521612 
L 79.742491 115.116117 
L 80.467124 110.638139 
L 81.09488 107.128791 
L 81.54826 105.723173 
L 81.823388 105.445969 
L 82.02489 105.536031 
L 82.280643 105.935657 
L 82.865774 107.466705 
L 83.640783 109.248005 
L 84.005037 109.534547 
L 84.311165 109.510236 
L 84.83042 109.194618 
L 85.361301 109.010755 
L 86.15956 108.987544 
L 86.802816 108.908386 
L 88.441959 108.221907 
L 89.100716 108.35545 
L 90.057851 108.501632 
L 90.414355 108.221762 
L 91.259114 107.549375 
L 91.631118 107.536995 
L 91.933371 107.747047 
L 93.23926 109.026745 
L 93.572514 109.033998 
L 94.254521 108.985023 
L 95.479034 109.666906 
L 95.909164 109.825741 
L 96.238542 109.663475 
L 96.610546 109.249476 
L 97.137552 108.257237 
L 98.017186 106.095132 
L 98.788319 104.480563 
L 99.555578 103.454117 
L 101.384597 101.439098 
L 102.07823 100.599437 
L 102.399858 100.501343 
L 102.771862 100.609471 
L 103.182616 100.981268 
L 103.860749 101.995072 
L 104.333504 102.471772 
L 104.690007 102.546244 
L 105.038761 102.39105 
L 105.329389 102.043985 
L 105.728519 101.12122 
L 107.627289 96.274595 
L 109.154055 94.307476 
L 109.805062 93.706357 
L 110.983075 92.828185 
L 111.389954 92.052136 
L 111.796833 90.778991 
L 112.719093 86.797566 
L 113.451476 83.886935 
L 114.319485 81.617431 
L 114.966617 79.676437 
L 115.485873 77.132986 
L 116.601885 71.554391 
L 117.086265 70.092292 
L 118.938535 65.962082 
L 120.500176 61.004817 
L 121.000057 60.248159 
L 121.480562 59.907793 
L 122.720575 59.022618 
L 123.305706 58.645929 
L 123.759086 58.654022 
L 124.08459 58.829788 
L 124.530219 59.385677 
L 125.816733 61.281747 
L 128.013882 65.738075 
L 128.382011 65.891998 
L 128.719139 65.797611 
L 129.118268 65.405149 
L 129.939777 64.613164 
L 130.528784 64.401221 
L 130.869787 64.474293 
L 131.815297 65.041164 
L 132.311303 65.216012 
L 132.594181 65.117659 
L 132.915809 64.743276 
L 133.535816 63.590986 
L 134.256573 62.305618 
L 135.047082 61.506313 
L 135.969342 60.541533 
L 137.085354 58.554097 
L 137.639485 56.979864 
L 139.522755 51.363952 
L 140.069135 50.744153 
L 140.658142 50.37012 
L 141.619152 50.048272 
L 141.948531 50.209866 
L 142.35541 50.695918 
L 142.913416 51.734794 
L 143.711674 53.183736 
L 144.19218 53.562654 
L 144.71531 53.704634 
L 146.714831 53.679027 
L 149.737364 53.115279 
L 150.144243 53.405165 
L 151.492758 54.608211 
L 151.953887 54.645402 
L 152.775396 54.620535 
L 153.255901 54.850068 
L 154.185911 55.384213 
L 154.693542 55.369639 
L 155.995556 55.177271 
L 156.545812 55.522963 
L 157.274319 55.905928 
L 157.7897 55.94958 
L 158.835961 55.904958 
L 159.382342 56.223056 
L 160.343352 56.83794 
L 161.191986 56.828802 
L 162.067746 56.536921 
L 162.714877 56.2762 
L 163.579012 55.782912 
L 164.090517 55.774678 
L 164.660148 56.01697 
L 165.218154 56.147979 
L 165.675409 56.068303 
L 166.074538 55.734197 
L 166.69842 54.863439 
L 167.438553 53.447145 
L 168.57394 51.377936 
L 169.286948 50.583257 
L 169.999955 50.099945 
L 170.778839 49.496332 
L 171.631348 48.537997 
L 174.502753 44.927859 
L 174.960008 44.82888 
L 175.634265 44.716851 
L 175.975269 44.435037 
L 176.4984 43.666173 
L 178.056166 41.001042 
L 178.432045 40.814256 
L 179.179928 40.856291 
L 180.059563 40.804537 
L 180.698945 40.42547 
L 181.818832 39.631748 
L 183.097595 38.772168 
L 183.612976 38.679739 
L 185.197868 38.502673 
L 185.841124 38.0858 
L 186.426256 37.413362 
L 187.894896 35.48594 
L 188.263025 35.43288 
L 188.68153 35.643602 
L 189.475913 36.329693 
L 190.068795 36.704702 
L 190.832178 36.82058 
L 192.076066 36.942071 
L 193.079702 37.636696 
L 193.653208 37.9207 
L 194.094963 37.86104 
L 195.152849 37.636916 
L 195.551978 37.732539 
L 196.121609 38.153213 
L 197.094245 38.747775 
L 197.722001 38.895689 
L 199.512271 38.970469 
L 200.287279 38.594041 
L 202.782805 36.90275 
L 203.879442 35.699239 
L 205.003204 34.465879 
L 205.464334 34.275055 
L 205.96809 34.328007 
L 206.901975 34.378305 
L 207.347604 34.10879 
L 208.637993 33.130444 
L 209.079748 33.129549 
L 209.606753 33.380875 
L 210.893267 34.03946 
L 211.393147 34.020866 
L 211.939528 33.74046 
L 213.49342 32.857905 
L 214.028176 32.939594 
L 215.698318 33.291681 
L 217.011958 33.181605 
L 217.662964 32.836345 
L 219.472609 31.683918 
L 222.289764 31.209598 
L 225.885802 32.863404 
L 226.761562 33.052245 
L 228.075201 33.076348 
L 230.38085 33.18617 
L 230.989232 33.511127 
L 231.628614 34.113996 
L 232.872502 35.439139 
L 233.306507 35.58355 
L 233.705636 35.466963 
L 234.267517 35.049574 
L 235.278903 34.3817 
L 236.456915 33.751466 
L 238.460312 32.33459 
L 239.192694 32.292052 
L 242.005975 32.18223 
L 242.614356 31.857273 
L 243.253738 31.254404 
L 244.761129 29.611169 
L 245.28426 29.374167 
L 246.074768 29.284055 
L 253.549723 29.519226 
L 254.464233 29.954499 
L 256.339753 31.011873 
L 256.886134 31.840553 
L 257.963395 33.508601 
L 258.587277 34.020123 
L 260.203169 34.800851 
L 262.13294 35.729183 
L 263.264452 36.547254 
L 263.996834 36.745574 
L 264.942345 36.740675 
L 265.810354 36.535743 
L 266.426485 36.4566 
L 267.104618 36.63083 
L 267.728499 36.721614 
L 268.081128 36.529097 
L 268.484132 36.032999 
L 269.61952 34.484828 
L 269.995399 34.383732 
L 270.344152 34.521827 
L 270.898283 35.033283 
L 272.48705 36.447191 
L 273.021806 36.634365 
L 273.572062 36.566567 
L 275.029077 36.234479 
L 275.587083 36.525383 
L 276.606219 37.40814 
L 277.338602 37.914169 
L 277.815232 37.999033 
L 278.338363 37.851935 
L 279.93488 37.204893 
L 280.461885 37.428703 
L 281.566272 37.951574 
L 281.973152 37.773846 
L 282.736535 37.103253 
L 283.290666 36.770133 
L 283.647169 36.809324 
L 284.092799 37.123352 
L 285.871443 38.635276 
L 286.340323 38.592317 
L 287.064956 38.252603 
L 288.235218 37.774639 
L 288.932726 37.71303 
L 289.568233 37.894537 
L 290.870247 38.342869 
L 291.436003 38.32055 
L 292.172261 38.058959 
L 294.660037 36.655586 
L 295.194793 36.015699 
L 296.892061 33.699674 
L 297.310565 33.572085 
L 297.76007 33.668466 
L 298.411077 34.063803 
L 299.054334 34.395112 
L 299.538714 34.384607 
L 300.015344 34.148325 
L 302.956501 32.388013 
L 304.537518 31.800614 
L 305.541153 31.687116 
L 307.761552 31.472863 
L 308.625686 31.038904 
L 309.730073 30.483595 
L 310.303579 30.484718 
L 310.714334 30.715853 
L 312.523978 32.105533 
L 313.132359 32.684955 
L 314.058494 33.588136 
L 314.721126 33.936021 
L 315.461259 34.033558 
L 316.995776 34.244605 
L 317.949036 34.702724 
L 318.824795 34.988286 
L 319.723805 35.042592 
L 321.273821 34.93182 
L 321.905453 34.563998 
L 323.00984 33.921916 
L 323.633722 33.974873 
L 324.284729 33.93726 
L 324.710983 33.692025 
L 326.342376 32.473853 
L 327.078633 32.375701 
L 328.624775 32.16276 
L 329.585785 31.70063 
L 330.461545 31.418319 
L 331.368304 31.366156 
L 332.960946 31.255633 
L 333.77083 30.969439 
L 334.658214 30.306869 
L 336.09198 29.173565 
L 336.770112 29.004408 
L 336.932864 28.999694 
L 336.932864 28.999694 
" style="fill:none;stroke:#ff6000;stroke-dasharray:2,2;stroke-dashoffset:0;stroke-width:2;"/>
   </g>
   <g id="line2d_30">
    <path clip-path="url(#p7b801c7d8d)" d="M 55.136017 249.101593 
L 55.157291 248.993995 
L 55.181045 233.732223 
L 55.32973 189.47475 
L 60.514536 116.924523 
L 61.688673 103.74815 
L 62.304805 99.494727 
L 62.773685 97.599397 
L 63.192189 96.735529 
L 63.509943 96.505379 
L 63.757945 96.579197 
L 64.106699 96.96988 
L 65.125835 98.196607 
L 65.57534 98.354884 
L 66.420099 98.270726 
L 66.912229 98.36918 
L 67.346234 98.697315 
L 68.140617 99.658422 
L 69.500757 101.031165 
L 70.140138 101.690884 
L 71.260025 102.917768 
L 72.031159 103.434994 
L 73.216921 104.048092 
L 73.685801 104.220531 
L 74.065555 104.106228 
L 74.52281 103.676761 
L 74.98394 102.947198 
L 75.654322 101.425936 
L 76.506831 99.558904 
L 77.080338 98.917202 
L 77.463967 98.748832 
L 78.060723 98.818506 
L 79.451863 99.129124 
L 80.478749 99.570304 
L 81.164631 99.898428 
L 81.625761 99.893111 
L 82.03264 99.689765 
L 84.032162 98.274648 
L 85.047423 98.149361 
L 85.803056 98.041786 
L 86.337811 97.702179 
L 87.345322 96.853815 
L 88.472959 95.888412 
L 89.147216 95.590436 
L 90.026851 95.16657 
L 90.530606 94.724655 
L 91.743494 93.437213 
L 92.340251 93.264002 
L 92.766505 93.396775 
L 93.634514 94.012716 
L 94.239021 94.350476 
L 94.6459 94.304395 
L 95.11478 93.984547 
L 95.610785 93.393866 
L 96.730672 92.016015 
L 97.056176 92.032819 
L 97.335179 92.274746 
L 97.823434 93.101382 
L 99.2882 95.812411 
L 99.834581 96.321665 
L 100.260835 96.421043 
L 101.260596 96.508541 
L 101.605475 96.894833 
L 102.020104 97.731358 
L 103.108991 100.056666 
L 103.395744 100.149016 
L 103.651496 99.991623 
L 103.977 99.468612 
L 104.43813 98.218788 
L 105.647143 94.700017 
L 105.976521 94.397609 
L 106.220649 94.432131 
L 106.499652 94.736491 
L 106.879406 95.532089 
L 107.968293 98.037152 
L 108.21242 98.100045 
L 108.425547 97.909037 
L 108.716176 97.271902 
L 109.196681 95.568709 
L 110.161566 92.212656 
L 110.545195 91.565312 
L 110.870699 91.404931 
L 111.211702 91.482198 
L 111.583706 91.823972 
L 112.126212 92.653535 
L 112.703593 93.37495 
L 113.180223 93.624449 
L 113.614228 93.626503 
L 114.451237 93.52766 
L 114.73024 93.844592 
L 115.268871 94.863059 
L 116.028379 96.769787 
L 117.380768 100.384453 
L 117.690771 100.57449 
L 117.911649 100.472394 
L 118.136401 100.101095 
L 118.461905 99.055524 
L 119.969296 93.513044 
L 120.256049 93.310366 
L 120.523427 93.389948 
L 120.938056 93.784319 
L 121.759565 94.582605 
L 122.123819 94.657275 
L 123.379332 94.604249 
L 123.983839 94.932472 
L 124.999099 95.645153 
L 125.351728 95.423742 
L 125.789608 94.853611 
L 126.184862 93.969473 
L 127.498501 90.60894 
L 128.354885 89.350672 
L 128.723014 89.117699 
L 129.149269 89.125086 
L 129.610399 89.386599 
L 129.974653 89.883843 
L 131.017039 91.432182 
L 131.358042 91.491151 
L 131.702921 91.31714 
L 132.195051 90.795967 
L 132.98556 89.978067 
L 133.345939 89.965888 
L 133.760568 90.17006 
L 135.008331 91.012327 
L 135.391961 90.828861 
L 135.82209 90.40951 
L 136.422722 89.780325 
L 136.794725 89.781787 
L 137.430232 90.073058 
L 138.274991 90.642741 
L 139.391003 91.531786 
L 140.751143 93.014667 
L 141.820654 93.695779 
L 142.223658 94.280721 
L 142.649913 95.371182 
L 143.440421 98.187053 
L 144.428557 101.509428 
L 144.785061 101.992127 
L 145.133815 102.102013 
L 145.412818 101.968778 
L 145.734446 101.538384 
L 146.656706 100.258577 
L 147.110086 100.032886 
L 147.454964 100.076529 
L 147.830843 100.394677 
L 148.787979 101.468411 
L 149.303359 102.586905 
L 150.585998 105.512205 
L 151.008377 105.980565 
L 151.349381 106.067099 
L 151.957762 105.884408 
L 152.546769 105.833768 
L 153.255901 106.011396 
L 154.139411 106.411075 
L 154.54629 106.238391 
L 155.317423 105.618523 
L 156.313309 104.599228 
L 156.85194 104.460018 
L 157.468071 104.477753 
L 159.328091 104.918329 
L 159.812471 105.302183 
L 160.847107 106.251731 
L 161.575615 106.307514 
L 162.01737 106.109614 
L 162.745878 105.715175 
L 164.001391 105.41129 
L 164.625273 104.96649 
L 165.028277 104.340894 
L 167.314552 100.387041 
L 167.686556 100.218843 
L 168.12831 100.283011 
L 168.53519 100.557757 
L 169.000195 101.228935 
L 169.670577 102.60521 
L 171.015216 105.282645 
L 171.313594 105.420986 
L 171.577097 105.290067 
L 172.007227 104.751615 
L 172.460607 103.75358 
L 173.75487 100.836195 
L 176.572025 96.2331 
L 176.928529 96.121081 
L 177.223032 96.27657 
L 177.688037 96.798726 
L 178.722673 98.214251 
L 179.117928 98.276393 
L 179.462806 98.086801 
L 180.144814 97.353909 
L 180.803571 96.829349 
L 181.969958 95.807298 
L 182.764342 94.889461 
L 183.03947 94.872907 
L 183.361098 95.085705 
L 183.717602 95.602149 
L 184.159357 96.73535 
L 186.348755 102.649483 
L 187.484142 105.321146 
L 188.290151 107.814713 
L 189.708416 112.162581 
L 190.545425 114.906948 
L 192.851074 123.017747 
L 193.37808 123.942547 
L 194.025212 124.686185 
L 194.319715 124.740978 
L 194.583218 124.543835 
L 195.466727 123.419035 
L 196.036358 122.872711 
L 196.450988 122.769806 
L 197.338372 122.874976 
L 197.962254 123.060006 
L 198.717887 123.316505 
L 199.167392 123.223731 
L 199.469645 122.936158 
L 199.799024 122.265884 
L 200.213653 120.835854 
L 200.85691 117.716368 
L 202.538678 109.346906 
L 203.092809 107.940087 
L 203.70894 107.068214 
L 204.425823 105.993803 
L 205.382958 104.552512 
L 205.863463 104.193497 
L 207.037601 103.638452 
L 208.165238 102.725303 
L 208.471366 102.802845 
L 209.172749 103.314512 
L 209.610628 103.526987 
L 210.439887 103.606047 
L 210.889392 103.756672 
L 211.249771 104.137965 
L 211.583025 104.852159 
L 212.036404 106.425609 
L 212.722287 109.781947 
L 213.807298 114.791491 
L 214.249053 115.841192 
L 214.752808 116.412994 
L 215.802945 117.524923 
L 217.011958 118.947524 
L 217.449837 118.866474 
L 217.891592 118.886523 
L 218.356597 119.131423 
L 218.6821 119.608123 
L 219.224606 120.893873 
L 219.860113 122.19697 
L 220.449119 122.878415 
L 221.390754 123.902199 
L 221.898385 124.928473 
L 222.812894 126.860839 
L 223.165523 127.148464 
L 223.440651 127.112253 
L 223.735154 126.820781 
L 224.099408 126.093782 
L 225.847052 122.266132 
L 227.927949 119.045406 
L 228.350329 118.74506 
L 228.668082 118.757687 
L 229.547716 118.933614 
L 230.090222 118.774943 
L 230.500977 118.345143 
L 231.039607 117.390636 
L 231.841741 116.173589 
L 233.531259 113.820875 
L 234.503894 111.883952 
L 235.178152 111.074659 
L 236.573167 109.5633 
L 237.41405 108.503153 
L 237.933306 108.230743 
L 239.297321 107.634007 
L 241.498344 105.99205 
L 241.885848 105.183638 
L 242.374103 103.553932 
L 242.997985 100.655597 
L 244.059746 95.873405 
L 244.695253 94.004106 
L 247.179155 88.615144 
L 247.589909 88.297611 
L 247.903788 88.321952 
L 248.504419 88.636595 
L 249.217427 89.007796 
L 250.42644 89.626975 
L 251.778829 90.492111 
L 252.108207 90.26642 
L 252.549962 89.664124 
L 253.561348 88.238878 
L 253.898477 88.197177 
L 254.235605 88.3904 
L 254.66186 88.932235 
L 256.06075 90.90897 
L 256.870633 91.755413 
L 257.99827 92.695993 
L 258.505901 92.719025 
L 258.92828 92.484463 
L 259.792415 92.046116 
L 260.214794 92.059212 
L 260.532547 92.283073 
L 261.284306 92.931144 
L 261.822936 93.159225 
L 262.229816 93.048625 
L 262.904073 92.790606 
L 263.175326 92.978734 
L 263.516329 93.545583 
L 264.051085 94.958004 
L 265.624352 99.466015 
L 266.914741 102.199328 
L 267.457246 102.884627 
L 267.82925 103.030823 
L 269.061514 103.203834 
L 269.739646 103.727094 
L 270.208526 104.383134 
L 271.580291 106.523368 
L 271.909669 106.711553 
L 272.161547 106.6089 
L 272.506425 106.151037 
L 273.006306 105.101788 
L 274.075817 102.674415 
L 275.904837 99.655061 
L 276.346591 99.469831 
L 276.71472 99.550647 
L 277.571105 99.8785 
L 277.869483 99.582907 
L 278.346113 98.73607 
L 278.919619 97.26146 
L 280.012381 94.35939 
L 281.574022 91.03771 
L 282.070028 90.554763 
L 282.418781 90.5289 
L 282.837286 90.762836 
L 283.829296 91.610418 
L 284.565554 92.087396 
L 285.204936 92.253996 
L 285.774567 92.19365 
L 287.684963 91.666883 
L 288.630473 91.44978 
L 288.952101 91.538944 
L 289.308605 91.916851 
L 289.785235 92.779724 
L 290.525368 94.587357 
L 292.57914 100.045259 
L 293.07902 100.895212 
L 293.408399 101.099095 
L 293.664151 101.009422 
L 293.935404 100.653479 
L 294.315158 99.701656 
L 295.624922 96.063312 
L 295.969801 95.799108 
L 296.295305 95.822704 
L 297.411316 96.138783 
L 297.701945 95.893999 
L 298.104949 95.233849 
L 298.728831 93.710286 
L 300.770977 88.281025 
L 301.162357 87.935477 
L 301.658362 87.749922 
L 302.739498 87.499726 
L 303.084377 87.146762 
L 303.762509 86.039684 
L 304.541393 84.93352 
L 304.905647 84.771335 
L 305.1924 84.90043 
L 305.576029 85.357315 
L 306.16891 86.48643 
L 307.09117 88.20288 
L 307.513549 88.586194 
L 308.160681 88.845669 
L 309.334819 89.190787 
L 309.8967 89.696874 
L 310.524457 90.591521 
L 311.27234 91.603063 
L 311.621093 91.747615 
L 311.927222 91.626068 
L 312.2876 91.222546 
L 313.500488 89.632619 
L 313.760116 89.737267 
L 314.046869 90.121104 
L 314.391748 91.005392 
L 315.10088 93.669246 
L 315.868139 96.238838 
L 316.294393 97.016971 
L 316.577271 97.153394 
L 316.821399 97.032219 
L 317.170153 96.548547 
L 317.662283 95.486931 
L 318.31329 93.445935 
L 319.223925 90.664709 
L 320.006683 88.933929 
L 320.541439 88.240737 
L 321.235071 87.763895 
L 321.773702 87.626144 
L 322.281332 87.711948 
L 322.998215 88.081943 
L 323.490345 88.623238 
L 324.769109 90.099095 
L 325.059737 90.03429 
L 325.358115 89.700124 
L 325.687494 88.979683 
L 326.105998 87.449038 
L 328.000893 79.817935 
L 328.415523 79.175114 
L 328.686776 79.094742 
L 328.961904 79.253141 
L 329.279657 79.723507 
L 329.678786 80.757755 
L 330.325918 83.193431 
L 331.066051 85.612622 
L 331.573681 86.622341 
L 331.945685 86.938017 
L 332.275064 86.942846 
L 332.654818 86.698323 
L 333.115948 86.12689 
L 333.658454 85.054647 
L 335.251096 80.985275 
L 336.208231 78.339191 
L 336.932864 76.051308 
L 336.932864 76.051308 
" style="fill:none;stroke:#ffa200;stroke-dasharray:2,2;stroke-dashoffset:0;stroke-width:2;"/>
   </g>
   <g id="line2d_31">
    <path clip-path="url(#p7b801c7d8d)" d="M 55.136017 249.101593 
L 55.162793 248.992009 
L 55.187245 237.850728 
L 55.325855 217.570317 
L 59.127271 187.383885 
L 62.142053 165.956253 
L 62.80081 163.263058 
L 63.459567 161.443309 
L 64.792581 158.191679 
L 66.144971 153.954482 
L 67.129231 150.310695 
L 68.473871 145.17681 
L 69.237254 142.30842 
L 70.31839 136.838902 
L 71.066273 133.658331 
L 72.531039 128.142761 
L 73.736177 122.82261 
L 74.166306 121.783203 
L 74.673937 121.226879 
L 75.778324 120.282947 
L 76.316954 119.135189 
L 77.785595 115.819156 
L 78.157599 115.571246 
L 78.490853 115.594615 
L 79.18836 115.998517 
L 79.606865 116.08938 
L 79.967243 115.921167 
L 80.757752 115.519358 
L 81.300258 115.582116 
L 82.47052 115.713436 
L 83.319154 115.472434 
L 84.907921 115.338148 
L 85.295425 114.877159 
L 85.648054 114.103406 
L 86.171185 112.277061 
L 87.872328 106.221997 
L 89.131716 102.141071 
L 91.406366 94.021171 
L 92.196874 91.309621 
L 93.309011 86.323257 
L 94.541274 81.127424 
L 96.486545 72.578164 
L 97.575431 68.2991 
L 98.164438 66.640521 
L 98.718569 65.758892 
L 99.133198 65.45735 
L 99.427701 65.496158 
L 99.76483 65.802065 
L 100.435212 66.785867 
L 101.318721 68.040938 
L 101.6636 68.134275 
L 102.016229 68.012344 
L 103.232992 67.402321 
L 103.566245 67.639972 
L 104.94576 68.933744 
L 105.348765 68.903778 
L 106.209024 68.511859 
L 106.910406 68.287226 
L 107.336661 68.41186 
L 107.790041 68.733411 
L 108.568924 69.355488 
L 108.832427 69.274278 
L 109.14243 68.909928 
L 109.514434 68.10991 
L 110.018189 66.39167 
L 111.091576 61.772294 
L 112.044836 58.128407 
L 112.583467 56.87805 
L 113.040722 56.311121 
L 113.443726 56.15615 
L 114.625614 56.010124 
L 114.978242 55.538612 
L 116.334507 53.499805 
L 116.61351 53.500195 
L 116.962264 53.736208 
L 118.206152 54.673985 
L 118.49678 54.655289 
L 118.907534 54.350348 
L 119.484916 53.660043 
L 120.221173 52.833013 
L 120.500176 52.841241 
L 120.821805 53.09632 
L 121.186059 53.705434 
L 122.096693 55.880175 
L 122.720575 57.079296 
L 123.13908 57.477662 
L 123.483958 57.526451 
L 123.770711 57.350755 
L 124.239591 56.709888 
L 125.460229 54.911638 
L 126.033736 54.59389 
L 126.494865 54.627043 
L 127.262124 54.636167 
L 128.428511 54.490675 
L 130.098654 53.959591 
L 130.610159 53.596322 
L 132.303553 51.972671 
L 133.179312 50.58617 
L 134.004696 49.479292 
L 134.729328 48.918495 
L 135.295084 48.705672 
L 136.469222 48.493895 
L 136.876101 48.170635 
L 137.430232 47.329936 
L 138.712871 45.4424 
L 139.325128 45.091981 
L 139.960634 44.738289 
L 140.483765 44.143075 
L 141.111522 42.989007 
L 142.429036 40.538202 
L 143.711674 38.74137 
L 144.335556 38.20998 
L 144.785061 38.066035 
L 145.284941 38.131627 
L 146.207201 38.575473 
L 147.501465 39.284228 
L 147.95097 39.35459 
L 148.4276 39.197326 
L 149.489361 38.838538 
L 150.062867 38.907393 
L 151.074253 39.226044 
L 151.829886 39.037087 
L 153.1629 38.296281 
L 153.596905 38.324801 
L 154.178161 38.656895 
L 155.782428 39.704253 
L 156.87519 39.996792 
L 157.599823 40.008749 
L 159.273841 39.702632 
L 159.789221 40.032614 
L 161.044735 40.864832 
L 161.490364 40.769839 
L 162.01737 40.431099 
L 162.544376 40.186144 
L 162.94738 40.252196 
L 163.42401 40.583525 
L 164.621398 41.598925 
L 165.059277 41.634011 
L 165.543658 41.433485 
L 166.694545 40.943939 
L 167.446303 41.03035 
L 168.054684 40.948501 
L 168.570065 40.633357 
L 169.407074 40.181695 
L 170.864089 39.652757 
L 172.142853 38.67161 
L 172.487732 38.765342 
L 172.848111 39.114763 
L 174.115249 40.531653 
L 174.433003 40.454299 
L 174.789506 40.109614 
L 175.831893 38.991795 
L 176.149646 39.034181 
L 176.533275 39.348096 
L 177.88954 40.646991 
L 178.339044 40.59414 
L 178.862175 40.283444 
L 179.505432 39.950942 
L 180.024687 39.892442 
L 180.551693 40.081176 
L 181.22595 40.54414 
L 181.927333 41.442609 
L 182.520214 42.582681 
L 183.725352 44.988555 
L 184.170982 45.37329 
L 184.550736 45.420298 
L 185.054491 45.261001 
L 185.957376 44.900214 
L 186.488256 44.900929 
L 187.050137 45.150115 
L 188.030523 45.496852 
L 188.685405 45.475321 
L 189.576664 45.47627 
L 190.836053 45.469518 
L 191.936565 45.164888 
L 192.692198 44.698854 
L 193.184328 44.051115 
L 193.804335 42.90089 
L 194.970722 39.963569 
L 195.776731 38.253754 
L 196.369612 37.501664 
L 196.974118 37.061679 
L 198.388509 36.117749 
L 199.299143 34.858497 
L 200.209778 33.580976 
L 201.058412 32.742768 
L 201.527292 32.649502 
L 201.972922 32.788441 
L 203.522938 33.534101 
L 204.952829 33.711105 
L 206.52222 34.205408 
L 207.130602 34.694246 
L 208.196238 35.705948 
L 208.81237 36.010439 
L 209.494377 35.963827 
L 211.059894 35.886204 
L 211.521024 36.157388 
L 212.032529 36.734219 
L 212.714537 37.891295 
L 213.671672 39.338489 
L 214.334304 40.011959 
L 214.993061 40.442537 
L 215.461941 40.495684 
L 215.977321 40.312845 
L 217.128209 39.795074 
L 218.162845 39.44627 
L 218.945603 38.93832 
L 220.51112 37.85417 
L 220.98 37.831056 
L 221.44113 38.035672 
L 221.95651 38.542973 
L 222.646268 39.101274 
L 223.119023 39.196452 
L 223.545277 39.069347 
L 224.060658 38.680156 
L 224.940292 37.730798 
L 226.265556 36.125527 
L 226.676311 35.93741 
L 227.125816 36.016809 
L 227.730322 36.388802 
L 228.179827 36.929583 
L 228.885084 38.163193 
L 229.694968 40.187661 
L 230.33435 41.395681 
L 230.760604 41.782191 
L 231.136483 41.838398 
L 231.988993 41.882931 
L 232.543123 42.151037 
L 233.449883 42.645778 
L 234.05439 42.677469 
L 234.620146 42.487615 
L 235.728407 41.766198 
L 236.592542 41.283427 
L 239.312821 40.684277 
L 239.7507 40.649605 
L 240.316456 40.310932 
L 240.719461 39.750224 
L 241.343342 38.410069 
L 242.098976 37.095147 
L 242.567856 36.701458 
L 244.974256 35.379328 
L 245.706639 35.004919 
L 246.194894 34.972518 
L 246.76065 35.146993 
L 248.361042 35.825782 
L 249.99631 35.886282 
L 250.616317 35.918453 
L 251.825329 35.871213 
L 252.30196 36.121074 
L 253.228094 36.553893 
L 253.910102 36.576457 
L 254.495233 36.706147 
L 256.053 37.233654 
L 256.607131 36.968075 
L 257.924645 36.394543 
L 258.591152 36.035324 
L 259.683913 35.376868 
L 260.133418 35.450085 
L 261.392807 35.798178 
L 261.869437 35.540836 
L 262.683195 34.844419 
L 263.865083 33.951007 
L 264.337838 33.838729 
L 265.151597 33.864106 
L 265.740603 33.847536 
L 266.445861 33.513079 
L 267.554122 32.946219 
L 267.972627 33.066539 
L 268.379506 33.439133 
L 269.104139 34.510447 
L 270.297652 36.735169 
L 271.05716 37.935287 
L 271.49504 38.178414 
L 271.878669 38.149183 
L 272.289423 37.876949 
L 272.90168 37.509917 
L 273.300809 37.532025 
L 273.703813 37.787956 
L 274.296695 38.489582 
L 274.967077 39.117392 
L 275.509582 39.331549 
L 276.528718 39.596511 
L 277.222351 40.14313 
L 278.400363 41.140308 
L 278.845993 41.222383 
L 279.272248 41.073709 
L 279.772128 40.644997 
L 280.868765 39.334529 
L 282.387781 37.503362 
L 282.798535 37.307885 
L 283.445667 37.310039 
L 284.739931 37.382406 
L 285.270812 36.993063 
L 285.890818 36.238013 
L 287.119207 34.741144 
L 289.978987 32.011551 
L 290.432367 31.989223 
L 290.881872 32.19548 
L 291.436003 32.727192 
L 292.621765 34.166149 
L 293.458774 35.112235 
L 294.698788 36.484238 
L 295.206418 37.52501 
L 296.159678 40.039626 
L 296.938561 41.813996 
L 299.794467 47.149138 
L 300.333098 47.828315 
L 300.918229 48.243637 
L 301.379359 48.327553 
L 301.960615 48.132852 
L 302.623247 47.677568 
L 303.231629 46.997704 
L 304.064763 45.732655 
L 305.878282 42.841887 
L 306.986544 40.910781 
L 307.792552 39.789265 
L 308.238182 39.523512 
L 308.772938 39.468924 
L 311.675344 40.022293 
L 312.620854 40.756187 
L 314.434373 42.307881 
L 315.759638 43.329974 
L 317.747534 45.294449 
L 318.169913 45.299705 
L 318.534167 45.066421 
L 319.030172 44.432677 
L 319.948557 42.820153 
L 321.754327 39.806981 
L 322.165081 39.55098 
L 322.591336 39.557934 
L 323.160967 39.508782 
L 324.098727 39.129757 
L 326.853881 37.047104 
L 327.446762 36.468017 
L 328.911528 34.954084 
L 329.341658 34.831111 
L 329.791162 34.953194 
L 330.407294 35.344128 
L 331.891435 36.400775 
L 333.015197 36.827516 
L 333.635203 36.760663 
L 334.065333 36.438094 
L 334.673715 36.011885 
L 335.13872 35.958394 
L 335.475848 36.121458 
L 336.932864 37.136398 
L 336.932864 37.136398 
" style="fill:none;stroke:#7251b5;stroke-linecap:square;stroke-width:2;"/>
   </g>
   <g id="line2d_32">
    <path clip-path="url(#p7b801c7d8d)" d="M 55.136017 249.101593 
L 55.168606 248.990716 
L 55.208248 245.305723 
L 55.325855 243.964804 
L 56.321741 241.421329 
L 57.840757 237.400612 
L 58.821142 235.588668 
L 60.731538 231.896861 
L 61.494921 229.785359 
L 63.947822 222.465795 
L 64.63758 221.255154 
L 65.602465 220.138824 
L 66.532475 219.377771 
L 67.02073 219.164286 
L 67.477985 219.210061 
L 67.96624 219.483299 
L 69.531757 220.629475 
L 70.101388 220.663984 
L 72.554289 220.430617 
L 73.375798 220.481734 
L 73.871803 220.325312 
L 74.251557 219.935644 
L 74.755313 219.077943 
L 75.379194 217.527171 
L 79.413112 205.90619 
L 80.312122 202.033839 
L 81.168506 197.417632 
L 82.210892 190.292724 
L 84.032162 177.923822 
L 84.904046 173.61132 
L 85.806931 170.431223 
L 86.589689 168.414729 
L 87.163195 166.882765 
L 87.725076 164.618911 
L 88.523335 160.322684 
L 89.240217 156.926506 
L 89.887349 155.019888 
L 90.530606 153.699424 
L 92.026372 151.353185 
L 93.607389 149.366232 
L 94.006518 149.131256 
L 94.684651 148.838156 
L 95.10703 148.274812 
L 95.909164 146.807219 
L 96.440044 146.034743 
L 96.889549 145.743054 
L 97.672308 145.307645 
L 98.055937 144.672439 
L 99.160323 142.743948 
L 99.598203 142.508333 
L 100.101958 142.262332 
L 100.408087 141.724593 
L 100.795591 140.54301 
L 101.462098 137.556456 
L 102.105355 135.165793 
L 102.62461 134.019424 
L 104.996136 130.536281 
L 105.561892 129.76384 
L 106.457026 128.432464 
L 107.991543 127.16525 
L 109.584185 124.7177 
L 110.149941 124.575567 
L 110.55682 124.364567 
L 110.909449 123.916823 
L 111.389954 122.841106 
L 112.471091 120.378793 
L 113.207348 119.252896 
L 114.30786 117.452382 
L 115.036368 116.455099 
L 115.792001 115.726397 
L 116.435258 115.389842 
L 116.869263 115.314614 
L 117.493144 115.245411 
L 117.876773 114.954642 
L 118.306903 114.342166 
L 118.748658 113.299969 
L 120.461426 108.797638 
L 121.30231 107.644304 
L 122.20132 106.360281 
L 123.026703 105.290068 
L 123.441333 105.039591 
L 123.793962 105.086415 
L 125.018475 105.490592 
L 125.324603 105.275093 
L 125.653981 104.744815 
L 126.157737 103.409249 
L 126.917245 101.495254 
L 127.467501 100.594153 
L 127.762004 100.484957 
L 128.947767 100.646427 
L 130.311781 101.706005 
L 130.765161 102.019911 
L 131.08679 102.016363 
L 131.416168 101.777537 
L 131.726171 101.26728 
L 132.113675 100.135191 
L 132.826683 97.177171 
L 133.706317 93.74861 
L 134.136447 92.890514 
L 134.489076 92.618972 
L 134.83008 92.661766 
L 135.80659 92.912807 
L 136.194094 92.631372 
L 136.79085 91.882745 
L 137.344981 91.345522 
L 137.631734 91.348278 
L 138.046364 91.650006 
L 138.883373 92.246189 
L 139.11975 92.18318 
L 139.340628 91.852205 
L 139.704882 90.788809 
L 140.255137 88.530568 
L 141.328524 83.824724 
L 141.750903 83.048034 
L 142.033781 82.923763 
L 142.274034 83.061607 
L 142.936666 83.860187 
L 145.118314 86.244482 
L 145.405067 86.245932 
L 145.656945 85.988873 
L 146.017324 85.242041 
L 146.60633 83.435526 
L 147.338713 81.447408 
L 147.637091 81.17989 
L 147.919969 81.223322 
L 148.365599 81.590433 
L 149.36536 82.419341 
L 149.601737 82.171597 
L 149.977616 81.386361 
L 150.636373 79.461817 
L 151.419132 77.184608 
L 151.857011 76.594255 
L 152.376267 76.229981 
L 152.984648 75.839223 
L 153.379903 75.248377 
L 153.875908 74.02035 
L 155.600301 68.604152 
L 156.499311 66.155657 
L 156.84419 65.80344 
L 157.076692 65.840569 
L 157.32082 66.150591 
L 157.700574 67.060818 
L 158.615084 69.350369 
L 158.975462 69.695069 
L 159.215715 69.657506 
L 159.502468 69.336181 
L 160.006223 68.366902 
L 160.583605 66.79198 
L 161.943744 62.782458 
L 162.280873 62.437655 
L 162.505625 62.479666 
L 162.757503 62.780511 
L 163.214758 63.768166 
L 164.664023 67.22836 
L 165.136778 67.592598 
L 165.508782 67.596331 
L 166.458167 67.565829 
L 166.923172 67.749545 
L 168.275562 68.571246 
L 168.57394 68.394595 
L 168.965319 67.868415 
L 170.817589 65.002639 
L 172.35598 63.112692 
L 172.646609 63.1635 
L 173.041863 63.481766 
L 173.530118 64.179849 
L 174.072624 64.820065 
L 174.316751 64.798309 
L 174.572504 64.519305 
L 174.925133 63.755904 
L 175.61489 61.511694 
L 176.265897 59.745842 
L 176.754152 59.014961 
L 177.145532 58.776266 
L 177.521411 58.781279 
L 177.94379 59.029103 
L 178.37392 59.571252 
L 179.017177 60.825448 
L 180.179689 62.947728 
L 180.795821 63.613582 
L 181.299576 63.887224 
L 184.136106 64.665753 
L 184.643737 64.363264 
L 185.488496 63.580328 
L 185.969001 63.224097 
L 186.35263 63.228504 
L 187.135388 63.528151 
L 187.658519 63.589594 
L 188.1894 63.323885 
L 190.146295 61.906944 
L 191.51031 60.342883 
L 192.599197 59.701427 
L 193.215328 59.197065 
L 193.990337 58.559082 
L 194.625843 58.32536 
L 194.978472 58.40652 
L 195.889107 58.785273 
L 196.288236 58.707903 
L 196.617615 58.388931 
L 197.156245 57.417094 
L 197.970004 56.126775 
L 198.303258 55.959296 
L 198.586136 56.060489 
L 199.01239 56.519662 
L 200.074152 57.683614 
L 200.41903 57.720015 
L 200.822035 57.490308 
L 201.949672 56.815036 
L 202.306175 56.815171 
L 202.968807 56.902875 
L 203.902692 56.586516 
L 204.906328 55.936934 
L 205.638711 55.880092 
L 206.154092 56.148249 
L 206.774098 56.377936 
L 207.281729 56.369727 
L 208.33574 56.193472 
L 208.808495 56.496916 
L 209.874131 57.368199 
L 210.184135 57.320302 
L 210.618139 57.006144 
L 211.699276 55.837691 
L 213.04779 53.955087 
L 213.873174 52.101138 
L 214.756683 50.051126 
L 215.221688 49.518109 
L 215.516192 49.481142 
L 215.83007 49.694305 
L 217.217335 50.933596 
L 217.581589 50.845837 
L 218.310096 50.316852 
L 218.829352 50.051322 
L 219.185856 50.139806 
L 219.980239 50.603981 
L 220.592496 50.817552 
L 221.131127 50.972748 
L 221.611632 51.384806 
L 222.142512 52.238241 
L 222.836145 53.706918 
L 223.584028 55.823614 
L 225.19217 60.489347 
L 227.765197 65.359449 
L 228.330953 65.671428 
L 228.772708 65.695479 
L 229.171837 65.447323 
L 229.698843 64.86235 
L 230.466101 63.554579 
L 231.27211 62.331701 
L 231.849491 61.846526 
L 233.248381 61.025196 
L 233.674636 60.292499 
L 234.162891 58.977643 
L 234.872023 56.287974 
L 236.019036 51.989748 
L 236.43754 51.329658 
L 236.817294 51.100248 
L 237.526427 50.84579 
L 237.894556 50.295202 
L 238.417686 49.038187 
L 239.560823 46.240442 
L 240.130455 45.608232 
L 240.502458 45.43167 
L 240.878337 45.538419 
L 241.502219 45.930147 
L 242.00985 46.554484 
L 244.381375 49.65627 
L 244.912256 49.955553 
L 245.431511 50.273899 
L 246.001142 50.936658 
L 247.694535 53.142958 
L 247.992914 53.099759 
L 248.349417 52.801941 
L 248.950049 51.923781 
L 250.112561 50.353001 
L 251.131697 49.545977 
L 252.146958 49.108456 
L 253.460597 48.611031 
L 254.103854 48.142164 
L 254.533983 47.620348 
L 256.51413 44.833622 
L 257.870394 43.403022 
L 258.587277 42.723498 
L 259.629663 42.017795 
L 260.086918 41.96764 
L 260.474422 42.148605 
L 260.881301 42.595775 
L 261.435432 43.64089 
L 262.861447 46.394573 
L 263.806957 47.339957 
L 264.756343 48.36974 
L 265.349224 48.863717 
L 265.94598 49.085283 
L 266.511736 49.12095 
L 266.988366 48.970018 
L 267.422371 48.602911 
L 267.976502 47.778614 
L 268.685635 46.958325 
L 269.034388 46.845253 
L 269.305641 46.989514 
L 269.817147 47.613293 
L 270.421653 48.716945 
L 272.266173 52.415042 
L 273.079932 53.499697 
L 273.858815 54.161136 
L 274.335445 54.366674 
L 275.296455 54.467651 
L 275.72271 54.28519 
L 276.528718 53.692728 
L 277.330852 53.084247 
L 277.733856 53.090276 
L 278.11361 53.337425 
L 278.477864 53.852265 
L 279.283873 55.572062 
L 280.043381 57.008165 
L 280.508386 57.454789 
L 280.91139 57.55999 
L 281.461646 57.400732 
L 282.240529 56.90682 
L 283.027163 56.412084 
L 284.119924 55.789752 
L 284.736056 55.248965 
L 285.755192 54.30395 
L 286.224072 54.196384 
L 286.638701 54.277496 
L 287.053331 54.618169 
L 287.657837 55.530207 
L 288.239093 56.754268 
L 289.010227 58.270416 
L 289.506232 58.791901 
L 289.816235 58.847869 
L 290.168864 58.656267 
L 291.281001 57.905091 
L 291.715006 57.949546 
L 293.06352 58.170224 
L 293.5324 57.868275 
L 294.129156 57.229005 
L 295.8613 54.988305 
L 296.454181 54.706808 
L 298.225075 54.2394 
L 298.65908 53.742661 
L 299.724716 52.45375 
L 299.999844 52.393713 
L 300.340848 52.581095 
L 300.813603 53.132647 
L 302.85575 55.835083 
L 303.165753 55.816715 
L 303.526132 55.562984 
L 303.991137 54.926153 
L 304.897896 53.59334 
L 305.297026 53.38685 
L 305.626404 53.459592 
L 305.982908 53.820344 
L 306.455663 54.640463 
L 307.234546 55.976071 
L 307.579425 56.179564 
L 307.901054 56.124899 
L 308.257557 55.799827 
L 308.865939 54.881784 
L 309.637072 53.897868 
L 310.001326 53.734291 
L 310.338455 53.856553 
L 310.760834 54.278148 
L 311.376966 54.844871 
L 311.667594 54.837005 
L 312.051223 54.546646 
L 312.558853 53.823325 
L 313.027733 53.30375 
L 313.469488 53.159776 
L 313.953868 53.228735 
L 314.694001 53.622519 
L 315.248132 54.020597 
L 316.027015 54.920041 
L 317.507281 56.729091 
L 317.85991 56.731826 
L 318.173788 56.51391 
L 319.196799 55.614408 
L 319.638554 55.574032 
L 319.967932 55.756953 
L 320.510438 56.349668 
L 321.692326 57.65257 
L 321.982954 57.562843 
L 322.327833 57.203432 
L 322.854838 56.255044 
L 323.521345 55.244967 
L 323.9941 54.972665 
L 324.691608 54.620206 
L 325.187613 53.912472 
L 325.671993 52.82389 
L 326.896506 49.967194 
L 327.380887 49.364467 
L 327.772266 49.197993 
L 328.19852 49.273531 
L 328.648025 49.649274 
L 329.891913 50.696077 
L 330.256167 50.688702 
L 330.798673 50.419907 
L 331.786809 49.89396 
L 332.205313 49.907768 
L 333.414326 50.227869 
L 334.080833 50.377849 
L 335.933103 50.604206 
L 336.762362 51.037383 
L 336.932864 51.165324 
L 336.932864 51.165324 
" style="fill:none;stroke:#8e94f2;stroke-linecap:square;stroke-width:2;"/>
   </g>
   <g id="patch_3">
    <path d="M 51.338438 249.101593 
L 51.338438 24.597656 
" style="fill:none;stroke:#000000;stroke-linecap:square;stroke-linejoin:miter;stroke-width:0.8;"/>
   </g>
   <g id="patch_4">
    <path d="M 336.928989 249.101593 
L 336.928989 24.597656 
" style="fill:none;stroke:#000000;stroke-linecap:square;stroke-linejoin:miter;stroke-width:0.8;"/>
   </g>
   <g id="patch_5">
    <path d="M 51.338438 249.101593 
L 336.928989 249.101593 
" style="fill:none;stroke:#000000;stroke-linecap:square;stroke-linejoin:miter;stroke-width:0.8;"/>
   </g>
   <g id="patch_6">
    <path d="M 51.338438 24.597656 
L 336.928989 24.597656 
" style="fill:none;stroke:#000000;stroke-linecap:square;stroke-linejoin:miter;stroke-width:0.8;"/>
   </g>
   <g id="text_17">
    <!-- drawer-open-v2 -->
    <g transform="translate(135.054807 18.597656)scale(0.15 -0.15)">
     <defs>
      <path d="M 34.28125 27.484375 
Q 23.390625 27.484375 19.1875 25 
Q 14.984375 22.515625 14.984375 16.5 
Q 14.984375 11.71875 18.140625 8.90625 
Q 21.296875 6.109375 26.703125 6.109375 
Q 34.1875 6.109375 38.703125 11.40625 
Q 43.21875 16.703125 43.21875 25.484375 
L 43.21875 27.484375 
z
M 52.203125 31.203125 
L 52.203125 0 
L 43.21875 0 
L 43.21875 8.296875 
Q 40.140625 3.328125 35.546875 0.953125 
Q 30.953125 -1.421875 24.3125 -1.421875 
Q 15.921875 -1.421875 10.953125 3.296875 
Q 6 8.015625 6 15.921875 
Q 6 25.140625 12.171875 29.828125 
Q 18.359375 34.515625 30.609375 34.515625 
L 43.21875 34.515625 
L 43.21875 35.40625 
Q 43.21875 41.609375 39.140625 45 
Q 35.0625 48.390625 27.6875 48.390625 
Q 23 48.390625 18.546875 47.265625 
Q 14.109375 46.140625 10.015625 43.890625 
L 10.015625 52.203125 
Q 14.9375 54.109375 19.578125 55.046875 
Q 24.21875 56 28.609375 56 
Q 40.484375 56 46.34375 49.84375 
Q 52.203125 43.703125 52.203125 31.203125 
z
" id="DejaVuSans-97"/>
      <path d="M 4.203125 54.6875 
L 13.1875 54.6875 
L 24.421875 12.015625 
L 35.59375 54.6875 
L 46.1875 54.6875 
L 57.421875 12.015625 
L 68.609375 54.6875 
L 77.59375 54.6875 
L 63.28125 0 
L 52.6875 0 
L 40.921875 44.828125 
L 29.109375 0 
L 18.5 0 
z
" id="DejaVuSans-119"/>
      <path d="M 4.890625 31.390625 
L 31.203125 31.390625 
L 31.203125 23.390625 
L 4.890625 23.390625 
z
" id="DejaVuSans-45"/>
      <path d="M 54.890625 33.015625 
L 54.890625 0 
L 45.90625 0 
L 45.90625 32.71875 
Q 45.90625 40.484375 42.875 44.328125 
Q 39.84375 48.1875 33.796875 48.1875 
Q 26.515625 48.1875 22.3125 43.546875 
Q 18.109375 38.921875 18.109375 30.90625 
L 18.109375 0 
L 9.078125 0 
L 9.078125 54.6875 
L 18.109375 54.6875 
L 18.109375 46.1875 
Q 21.34375 51.125 25.703125 53.5625 
Q 30.078125 56 35.796875 56 
Q 45.21875 56 50.046875 50.171875 
Q 54.890625 44.34375 54.890625 33.015625 
z
" id="DejaVuSans-110"/>
      <path d="M 2.984375 54.6875 
L 12.5 54.6875 
L 29.59375 8.796875 
L 46.6875 54.6875 
L 56.203125 54.6875 
L 35.6875 0 
L 23.484375 0 
z
" id="DejaVuSans-118"/>
     </defs>
     <use xlink:href="#DejaVuSans-100"/>
     <use x="63.476562" xlink:href="#DejaVuSans-114"/>
     <use x="104.589844" xlink:href="#DejaVuSans-97"/>
     <use x="165.869141" xlink:href="#DejaVuSans-119"/>
     <use x="247.65625" xlink:href="#DejaVuSans-101"/>
     <use x="309.179688" xlink:href="#DejaVuSans-114"/>
     <use x="343.917969" xlink:href="#DejaVuSans-45"/>
     <use x="381.876953" xlink:href="#DejaVuSans-111"/>
     <use x="443.058594" xlink:href="#DejaVuSans-112"/>
     <use x="506.535156" xlink:href="#DejaVuSans-101"/>
     <use x="568.058594" xlink:href="#DejaVuSans-110"/>
     <use x="631.4375" xlink:href="#DejaVuSans-45"/>
     <use x="664.896484" xlink:href="#DejaVuSans-118"/>
     <use x="724.076172" xlink:href="#DejaVuSans-50"/>
    </g>
   </g>
   <g id="legend_1">
    <g id="patch_7">
     <path d="M 130.028989 244.101593 
L 329.928989 244.101593 
Q 331.928989 244.101593 331.928989 242.101593 
L 331.928989 184.389093 
Q 331.928989 182.389093 329.928989 182.389093 
L 130.028989 182.389093 
Q 128.028989 182.389093 128.028989 184.389093 
L 128.028989 242.101593 
Q 128.028989 244.101593 130.028989 244.101593 
z
" style="fill:#ffffff;opacity:0.8;stroke:#cccccc;stroke-linejoin:miter;"/>
    </g>
    <g id="line2d_33">
     <path d="M 132.028989 190.487531 
L 152.028989 190.487531 
" style="fill:none;stroke:#ff6000;stroke-dasharray:2,2;stroke-dashoffset:0;stroke-width:2;"/>
    </g>
    <g id="line2d_34"/>
    <g id="text_18">
     <!-- D-COACH, $K$: 3,000, $e$: 0.1, rel -->
     <g transform="translate(160.028989 193.987531)scale(0.1 -0.1)">
      <defs>
       <path d="M 19.671875 64.796875 
L 19.671875 8.109375 
L 31.59375 8.109375 
Q 46.6875 8.109375 53.6875 14.9375 
Q 60.6875 21.78125 60.6875 36.53125 
Q 60.6875 51.171875 53.6875 57.984375 
Q 46.6875 64.796875 31.59375 64.796875 
z
M 9.8125 72.90625 
L 30.078125 72.90625 
Q 51.265625 72.90625 61.171875 64.09375 
Q 71.09375 55.28125 71.09375 36.53125 
Q 71.09375 17.671875 61.125 8.828125 
Q 51.171875 0 30.078125 0 
L 9.8125 0 
z
" id="DejaVuSans-68"/>
       <path d="M 64.40625 67.28125 
L 64.40625 56.890625 
Q 59.421875 61.53125 53.78125 63.8125 
Q 48.140625 66.109375 41.796875 66.109375 
Q 29.296875 66.109375 22.65625 58.46875 
Q 16.015625 50.828125 16.015625 36.375 
Q 16.015625 21.96875 22.65625 14.328125 
Q 29.296875 6.6875 41.796875 6.6875 
Q 48.140625 6.6875 53.78125 8.984375 
Q 59.421875 11.28125 64.40625 15.921875 
L 64.40625 5.609375 
Q 59.234375 2.09375 53.4375 0.328125 
Q 47.65625 -1.421875 41.21875 -1.421875 
Q 24.65625 -1.421875 15.125 8.703125 
Q 5.609375 18.84375 5.609375 36.375 
Q 5.609375 53.953125 15.125 64.078125 
Q 24.65625 74.21875 41.21875 74.21875 
Q 47.75 74.21875 53.53125 72.484375 
Q 59.328125 70.75 64.40625 67.28125 
z
" id="DejaVuSans-67"/>
       <path d="M 39.40625 66.21875 
Q 28.65625 66.21875 22.328125 58.203125 
Q 16.015625 50.203125 16.015625 36.375 
Q 16.015625 22.609375 22.328125 14.59375 
Q 28.65625 6.59375 39.40625 6.59375 
Q 50.140625 6.59375 56.421875 14.59375 
Q 62.703125 22.609375 62.703125 36.375 
Q 62.703125 50.203125 56.421875 58.203125 
Q 50.140625 66.21875 39.40625 66.21875 
z
M 39.40625 74.21875 
Q 54.734375 74.21875 63.90625 63.9375 
Q 73.09375 53.65625 73.09375 36.375 
Q 73.09375 19.140625 63.90625 8.859375 
Q 54.734375 -1.421875 39.40625 -1.421875 
Q 24.03125 -1.421875 14.8125 8.828125 
Q 5.609375 19.09375 5.609375 36.375 
Q 5.609375 53.65625 14.8125 63.9375 
Q 24.03125 74.21875 39.40625 74.21875 
z
" id="DejaVuSans-79"/>
       <path d="M 34.1875 63.1875 
L 20.796875 26.90625 
L 47.609375 26.90625 
z
M 28.609375 72.90625 
L 39.796875 72.90625 
L 67.578125 0 
L 57.328125 0 
L 50.6875 18.703125 
L 17.828125 18.703125 
L 11.1875 0 
L 0.78125 0 
z
" id="DejaVuSans-65"/>
       <path d="M 9.8125 72.90625 
L 19.671875 72.90625 
L 19.671875 43.015625 
L 55.515625 43.015625 
L 55.515625 72.90625 
L 65.375 72.90625 
L 65.375 0 
L 55.515625 0 
L 55.515625 34.71875 
L 19.671875 34.71875 
L 19.671875 0 
L 9.8125 0 
z
" id="DejaVuSans-72"/>
       <path d="M 11.71875 12.40625 
L 22.015625 12.40625 
L 22.015625 4 
L 14.015625 -11.625 
L 7.71875 -11.625 
L 11.71875 4 
z
" id="DejaVuSans-44"/>
       <path d="M 16.890625 72.90625 
L 26.8125 72.90625 
L 20.796875 42.1875 
L 59.078125 72.90625 
L 72.21875 72.90625 
L 28.90625 38.09375 
L 60.59375 0 
L 48.578125 0 
L 19.484375 35.5 
L 12.59375 0 
L 2.6875 0 
z
" id="DejaVuSans-Oblique-75"/>
       <path d="M 11.71875 12.40625 
L 22.015625 12.40625 
L 22.015625 0 
L 11.71875 0 
z
M 11.71875 51.703125 
L 22.015625 51.703125 
L 22.015625 39.3125 
L 11.71875 39.3125 
z
" id="DejaVuSans-58"/>
       <path d="M 48.09375 32.234375 
Q 48.25 33.015625 48.3125 33.84375 
Q 48.390625 34.671875 48.390625 35.5 
Q 48.390625 41.453125 44.890625 44.921875 
Q 41.40625 48.390625 35.40625 48.390625 
Q 28.71875 48.390625 23.578125 44.15625 
Q 18.453125 39.9375 15.828125 32.171875 
z
M 55.90625 25.203125 
L 14.109375 25.203125 
Q 13.8125 23.34375 13.71875 22.265625 
Q 13.625 21.1875 13.625 20.40625 
Q 13.625 13.625 17.796875 9.90625 
Q 21.96875 6.203125 29.59375 6.203125 
Q 35.453125 6.203125 40.671875 7.515625 
Q 45.90625 8.84375 50.390625 11.375 
L 48.6875 2.484375 
Q 43.84375 0.53125 38.6875 -0.4375 
Q 33.546875 -1.421875 28.21875 -1.421875 
Q 16.84375 -1.421875 10.71875 4.015625 
Q 4.59375 9.46875 4.59375 19.484375 
Q 4.59375 28.03125 7.640625 35.375 
Q 10.6875 42.71875 16.609375 48.484375 
Q 20.40625 52.09375 25.65625 54.046875 
Q 30.90625 56 36.8125 56 
Q 46.09375 56 51.578125 50.4375 
Q 57.078125 44.875 57.078125 35.5 
Q 57.078125 33.25 56.78125 30.6875 
Q 56.5 28.125 55.90625 25.203125 
z
" id="DejaVuSans-Oblique-101"/>
       <path d="M 10.6875 12.40625 
L 21 12.40625 
L 21 0 
L 10.6875 0 
z
" id="DejaVuSans-46"/>
       <path d="M 9.421875 75.984375 
L 18.40625 75.984375 
L 18.40625 0 
L 9.421875 0 
z
" id="DejaVuSans-108"/>
      </defs>
      <use transform="translate(0 0.015625)" xlink:href="#DejaVuSans-68"/>
      <use transform="translate(77.001953 0.015625)" xlink:href="#DejaVuSans-45"/>
      <use transform="translate(113.085938 0.015625)" xlink:href="#DejaVuSans-67"/>
      <use transform="translate(182.910156 0.015625)" xlink:href="#DejaVuSans-79"/>
      <use transform="translate(261.621094 0.015625)" xlink:href="#DejaVuSans-65"/>
      <use transform="translate(330.029297 0.015625)" xlink:href="#DejaVuSans-67"/>
      <use transform="translate(399.853516 0.015625)" xlink:href="#DejaVuSans-72"/>
      <use transform="translate(475.048828 0.015625)" xlink:href="#DejaVuSans-44"/>
      <use transform="translate(506.835938 0.015625)" xlink:href="#DejaVuSans-32"/>
      <use transform="translate(538.623047 0.015625)" xlink:href="#DejaVuSans-Oblique-75"/>
      <use transform="translate(604.199219 0.015625)" xlink:href="#DejaVuSans-58"/>
      <use transform="translate(637.890625 0.015625)" xlink:href="#DejaVuSans-32"/>
      <use transform="translate(669.677734 0.015625)" xlink:href="#DejaVuSans-51"/>
      <use transform="translate(733.300781 0.015625)" xlink:href="#DejaVuSans-44"/>
      <use transform="translate(765.087891 0.015625)" xlink:href="#DejaVuSans-48"/>
      <use transform="translate(828.710938 0.015625)" xlink:href="#DejaVuSans-48"/>
      <use transform="translate(892.333984 0.015625)" xlink:href="#DejaVuSans-48"/>
      <use transform="translate(955.957031 0.015625)" xlink:href="#DejaVuSans-44"/>
      <use transform="translate(987.744141 0.015625)" xlink:href="#DejaVuSans-32"/>
      <use transform="translate(1019.53125 0.015625)" xlink:href="#DejaVuSans-Oblique-101"/>
      <use transform="translate(1081.054688 0.015625)" xlink:href="#DejaVuSans-58"/>
      <use transform="translate(1114.746094 0.015625)" xlink:href="#DejaVuSans-32"/>
      <use transform="translate(1146.533203 0.015625)" xlink:href="#DejaVuSans-48"/>
      <use transform="translate(1210.15625 0.015625)" xlink:href="#DejaVuSans-46"/>
      <use transform="translate(1241.943359 0.015625)" xlink:href="#DejaVuSans-49"/>
      <use transform="translate(1305.566406 0.015625)" xlink:href="#DejaVuSans-44"/>
      <use transform="translate(1337.353516 0.015625)" xlink:href="#DejaVuSans-32"/>
      <use transform="translate(1369.140625 0.015625)" xlink:href="#DejaVuSans-114"/>
      <use transform="translate(1410.253906 0.015625)" xlink:href="#DejaVuSans-101"/>
      <use transform="translate(1471.777344 0.015625)" xlink:href="#DejaVuSans-108"/>
     </g>
    </g>
    <g id="line2d_35">
     <path d="M 132.028989 205.165656 
L 152.028989 205.165656 
" style="fill:none;stroke:#ffa200;stroke-dasharray:2,2;stroke-dashoffset:0;stroke-width:2;"/>
    </g>
    <g id="line2d_36"/>
    <g id="text_19">
     <!-- D-COACH, $K$: 3,000, $e$: 0.1, abs -->
     <g transform="translate(160.028989 208.665656)scale(0.1 -0.1)">
      <defs>
       <path d="M 48.6875 27.296875 
Q 48.6875 37.203125 44.609375 42.84375 
Q 40.53125 48.484375 33.40625 48.484375 
Q 26.265625 48.484375 22.1875 42.84375 
Q 18.109375 37.203125 18.109375 27.296875 
Q 18.109375 17.390625 22.1875 11.75 
Q 26.265625 6.109375 33.40625 6.109375 
Q 40.53125 6.109375 44.609375 11.75 
Q 48.6875 17.390625 48.6875 27.296875 
z
M 18.109375 46.390625 
Q 20.953125 51.265625 25.265625 53.625 
Q 29.59375 56 35.59375 56 
Q 45.5625 56 51.78125 48.09375 
Q 58.015625 40.1875 58.015625 27.296875 
Q 58.015625 14.40625 51.78125 6.484375 
Q 45.5625 -1.421875 35.59375 -1.421875 
Q 29.59375 -1.421875 25.265625 0.953125 
Q 20.953125 3.328125 18.109375 8.203125 
L 18.109375 0 
L 9.078125 0 
L 9.078125 75.984375 
L 18.109375 75.984375 
z
" id="DejaVuSans-98"/>
      </defs>
      <use transform="translate(0 0.015625)" xlink:href="#DejaVuSans-68"/>
      <use transform="translate(77.001953 0.015625)" xlink:href="#DejaVuSans-45"/>
      <use transform="translate(113.085938 0.015625)" xlink:href="#DejaVuSans-67"/>
      <use transform="translate(182.910156 0.015625)" xlink:href="#DejaVuSans-79"/>
      <use transform="translate(261.621094 0.015625)" xlink:href="#DejaVuSans-65"/>
      <use transform="translate(330.029297 0.015625)" xlink:href="#DejaVuSans-67"/>
      <use transform="translate(399.853516 0.015625)" xlink:href="#DejaVuSans-72"/>
      <use transform="translate(475.048828 0.015625)" xlink:href="#DejaVuSans-44"/>
      <use transform="translate(506.835938 0.015625)" xlink:href="#DejaVuSans-32"/>
      <use transform="translate(538.623047 0.015625)" xlink:href="#DejaVuSans-Oblique-75"/>
      <use transform="translate(604.199219 0.015625)" xlink:href="#DejaVuSans-58"/>
      <use transform="translate(637.890625 0.015625)" xlink:href="#DejaVuSans-32"/>
      <use transform="translate(669.677734 0.015625)" xlink:href="#DejaVuSans-51"/>
      <use transform="translate(733.300781 0.015625)" xlink:href="#DejaVuSans-44"/>
      <use transform="translate(765.087891 0.015625)" xlink:href="#DejaVuSans-48"/>
      <use transform="translate(828.710938 0.015625)" xlink:href="#DejaVuSans-48"/>
      <use transform="translate(892.333984 0.015625)" xlink:href="#DejaVuSans-48"/>
      <use transform="translate(955.957031 0.015625)" xlink:href="#DejaVuSans-44"/>
      <use transform="translate(987.744141 0.015625)" xlink:href="#DejaVuSans-32"/>
      <use transform="translate(1019.53125 0.015625)" xlink:href="#DejaVuSans-Oblique-101"/>
      <use transform="translate(1081.054688 0.015625)" xlink:href="#DejaVuSans-58"/>
      <use transform="translate(1114.746094 0.015625)" xlink:href="#DejaVuSans-32"/>
      <use transform="translate(1146.533203 0.015625)" xlink:href="#DejaVuSans-48"/>
      <use transform="translate(1210.15625 0.015625)" xlink:href="#DejaVuSans-46"/>
      <use transform="translate(1241.943359 0.015625)" xlink:href="#DejaVuSans-49"/>
      <use transform="translate(1305.566406 0.015625)" xlink:href="#DejaVuSans-44"/>
      <use transform="translate(1337.353516 0.015625)" xlink:href="#DejaVuSans-32"/>
      <use transform="translate(1369.140625 0.015625)" xlink:href="#DejaVuSans-97"/>
      <use transform="translate(1430.419922 0.015625)" xlink:href="#DejaVuSans-98"/>
      <use transform="translate(1493.896484 0.015625)" xlink:href="#DejaVuSans-115"/>
     </g>
    </g>
    <g id="line2d_37">
     <path d="M 132.028989 219.843781 
L 152.028989 219.843781 
" style="fill:none;stroke:#7251b5;stroke-linecap:square;stroke-width:2;"/>
    </g>
    <g id="line2d_38"/>
    <g id="text_20">
     <!-- BD-COACH, $K$: 30,000, $e$: 0.1, rel -->
     <g transform="translate(160.028989 223.343781)scale(0.1 -0.1)">
      <defs>
       <path d="M 19.671875 34.8125 
L 19.671875 8.109375 
L 35.5 8.109375 
Q 43.453125 8.109375 47.28125 11.40625 
Q 51.125 14.703125 51.125 21.484375 
Q 51.125 28.328125 47.28125 31.5625 
Q 43.453125 34.8125 35.5 34.8125 
z
M 19.671875 64.796875 
L 19.671875 42.828125 
L 34.28125 42.828125 
Q 41.5 42.828125 45.03125 45.53125 
Q 48.578125 48.25 48.578125 53.8125 
Q 48.578125 59.328125 45.03125 62.0625 
Q 41.5 64.796875 34.28125 64.796875 
z
M 9.8125 72.90625 
L 35.015625 72.90625 
Q 46.296875 72.90625 52.390625 68.21875 
Q 58.5 63.53125 58.5 54.890625 
Q 58.5 48.1875 55.375 44.234375 
Q 52.25 40.28125 46.1875 39.3125 
Q 53.46875 37.75 57.5 32.78125 
Q 61.53125 27.828125 61.53125 20.40625 
Q 61.53125 10.640625 54.890625 5.3125 
Q 48.25 0 35.984375 0 
L 9.8125 0 
z
" id="DejaVuSans-66"/>
      </defs>
      <use transform="translate(0 0.015625)" xlink:href="#DejaVuSans-66"/>
      <use transform="translate(68.603516 0.015625)" xlink:href="#DejaVuSans-68"/>
      <use transform="translate(145.605469 0.015625)" xlink:href="#DejaVuSans-45"/>
      <use transform="translate(181.689453 0.015625)" xlink:href="#DejaVuSans-67"/>
      <use transform="translate(251.513672 0.015625)" xlink:href="#DejaVuSans-79"/>
      <use transform="translate(330.224609 0.015625)" xlink:href="#DejaVuSans-65"/>
      <use transform="translate(398.632812 0.015625)" xlink:href="#DejaVuSans-67"/>
      <use transform="translate(468.457031 0.015625)" xlink:href="#DejaVuSans-72"/>
      <use transform="translate(543.652344 0.015625)" xlink:href="#DejaVuSans-44"/>
      <use transform="translate(575.439453 0.015625)" xlink:href="#DejaVuSans-32"/>
      <use transform="translate(607.226562 0.015625)" xlink:href="#DejaVuSans-Oblique-75"/>
      <use transform="translate(672.802734 0.015625)" xlink:href="#DejaVuSans-58"/>
      <use transform="translate(706.494141 0.015625)" xlink:href="#DejaVuSans-32"/>
      <use transform="translate(738.28125 0.015625)" xlink:href="#DejaVuSans-51"/>
      <use transform="translate(801.904297 0.015625)" xlink:href="#DejaVuSans-48"/>
      <use transform="translate(865.527344 0.015625)" xlink:href="#DejaVuSans-44"/>
      <use transform="translate(897.314453 0.015625)" xlink:href="#DejaVuSans-48"/>
      <use transform="translate(960.9375 0.015625)" xlink:href="#DejaVuSans-48"/>
      <use transform="translate(1024.560547 0.015625)" xlink:href="#DejaVuSans-48"/>
      <use transform="translate(1088.183594 0.015625)" xlink:href="#DejaVuSans-44"/>
      <use transform="translate(1119.970703 0.015625)" xlink:href="#DejaVuSans-32"/>
      <use transform="translate(1151.757812 0.015625)" xlink:href="#DejaVuSans-Oblique-101"/>
      <use transform="translate(1213.28125 0.015625)" xlink:href="#DejaVuSans-58"/>
      <use transform="translate(1246.972656 0.015625)" xlink:href="#DejaVuSans-32"/>
      <use transform="translate(1278.759766 0.015625)" xlink:href="#DejaVuSans-48"/>
      <use transform="translate(1342.382812 0.015625)" xlink:href="#DejaVuSans-46"/>
      <use transform="translate(1374.169922 0.015625)" xlink:href="#DejaVuSans-49"/>
      <use transform="translate(1437.792969 0.015625)" xlink:href="#DejaVuSans-44"/>
      <use transform="translate(1469.580078 0.015625)" xlink:href="#DejaVuSans-32"/>
      <use transform="translate(1501.367188 0.015625)" xlink:href="#DejaVuSans-114"/>
      <use transform="translate(1542.480469 0.015625)" xlink:href="#DejaVuSans-101"/>
      <use transform="translate(1604.003906 0.015625)" xlink:href="#DejaVuSans-108"/>
     </g>
    </g>
    <g id="line2d_39">
     <path d="M 132.028989 234.521906 
L 152.028989 234.521906 
" style="fill:none;stroke:#8e94f2;stroke-linecap:square;stroke-width:2;"/>
    </g>
    <g id="line2d_40"/>
    <g id="text_21">
     <!-- BD-COACH, $K$: 30,000, $e$: 0.1, abs -->
     <g transform="translate(160.028989 238.021906)scale(0.1 -0.1)">
      <use transform="translate(0 0.015625)" xlink:href="#DejaVuSans-66"/>
      <use transform="translate(68.603516 0.015625)" xlink:href="#DejaVuSans-68"/>
      <use transform="translate(145.605469 0.015625)" xlink:href="#DejaVuSans-45"/>
      <use transform="translate(181.689453 0.015625)" xlink:href="#DejaVuSans-67"/>
      <use transform="translate(251.513672 0.015625)" xlink:href="#DejaVuSans-79"/>
      <use transform="translate(330.224609 0.015625)" xlink:href="#DejaVuSans-65"/>
      <use transform="translate(398.632812 0.015625)" xlink:href="#DejaVuSans-67"/>
      <use transform="translate(468.457031 0.015625)" xlink:href="#DejaVuSans-72"/>
      <use transform="translate(543.652344 0.015625)" xlink:href="#DejaVuSans-44"/>
      <use transform="translate(575.439453 0.015625)" xlink:href="#DejaVuSans-32"/>
      <use transform="translate(607.226562 0.015625)" xlink:href="#DejaVuSans-Oblique-75"/>
      <use transform="translate(672.802734 0.015625)" xlink:href="#DejaVuSans-58"/>
      <use transform="translate(706.494141 0.015625)" xlink:href="#DejaVuSans-32"/>
      <use transform="translate(738.28125 0.015625)" xlink:href="#DejaVuSans-51"/>
      <use transform="translate(801.904297 0.015625)" xlink:href="#DejaVuSans-48"/>
      <use transform="translate(865.527344 0.015625)" xlink:href="#DejaVuSans-44"/>
      <use transform="translate(897.314453 0.015625)" xlink:href="#DejaVuSans-48"/>
      <use transform="translate(960.9375 0.015625)" xlink:href="#DejaVuSans-48"/>
      <use transform="translate(1024.560547 0.015625)" xlink:href="#DejaVuSans-48"/>
      <use transform="translate(1088.183594 0.015625)" xlink:href="#DejaVuSans-44"/>
      <use transform="translate(1119.970703 0.015625)" xlink:href="#DejaVuSans-32"/>
      <use transform="translate(1151.757812 0.015625)" xlink:href="#DejaVuSans-Oblique-101"/>
      <use transform="translate(1213.28125 0.015625)" xlink:href="#DejaVuSans-58"/>
      <use transform="translate(1246.972656 0.015625)" xlink:href="#DejaVuSans-32"/>
      <use transform="translate(1278.759766 0.015625)" xlink:href="#DejaVuSans-48"/>
      <use transform="translate(1342.382812 0.015625)" xlink:href="#DejaVuSans-46"/>
      <use transform="translate(1374.169922 0.015625)" xlink:href="#DejaVuSans-49"/>
      <use transform="translate(1437.792969 0.015625)" xlink:href="#DejaVuSans-44"/>
      <use transform="translate(1469.580078 0.015625)" xlink:href="#DejaVuSans-32"/>
      <use transform="translate(1501.367188 0.015625)" xlink:href="#DejaVuSans-97"/>
      <use transform="translate(1562.646484 0.015625)" xlink:href="#DejaVuSans-98"/>
      <use transform="translate(1626.123047 0.015625)" xlink:href="#DejaVuSans-115"/>
     </g>
    </g>
   </g>
  </g>
  <g id="axes_2">
   <g id="matplotlib.axis_3">
    <g id="xtick_9">
     <g id="line2d_41">
      <g>
       <use style="stroke:#000000;stroke-width:0.8;" x="55.213479" xlink:href="#mff27e6af11" y="289.101593"/>
      </g>
     </g>
     <g id="text_22">
      <!-- 0 -->
      <g transform="translate(52.28483 304.225645)rotate(-5)scale(0.1 -0.1)">
       <use xlink:href="#DejaVuSans-48"/>
      </g>
     </g>
    </g>
    <g id="xtick_10">
     <g id="line2d_42">
      <g>
       <use style="stroke:#000000;stroke-width:0.8;" x="92.413876" xlink:href="#mff27e6af11" y="289.101593"/>
      </g>
     </g>
     <g id="text_23">
      <!-- 2 -->
      <g transform="translate(89.485227 304.225645)rotate(-5)scale(0.1 -0.1)">
       <use xlink:href="#DejaVuSans-50"/>
      </g>
     </g>
    </g>
    <g id="xtick_11">
     <g id="line2d_43">
      <g>
       <use style="stroke:#000000;stroke-width:0.8;" x="129.614274" xlink:href="#mff27e6af11" y="289.101593"/>
      </g>
     </g>
     <g id="text_24">
      <!-- 4 -->
      <g transform="translate(126.685625 304.225645)rotate(-5)scale(0.1 -0.1)">
       <use xlink:href="#DejaVuSans-52"/>
      </g>
     </g>
    </g>
    <g id="xtick_12">
     <g id="line2d_44">
      <g>
       <use style="stroke:#000000;stroke-width:0.8;" x="166.814671" xlink:href="#mff27e6af11" y="289.101593"/>
      </g>
     </g>
     <g id="text_25">
      <!-- 6 -->
      <g transform="translate(163.886022 304.225645)rotate(-5)scale(0.1 -0.1)">
       <use xlink:href="#DejaVuSans-54"/>
      </g>
     </g>
    </g>
    <g id="xtick_13">
     <g id="line2d_45">
      <g>
       <use style="stroke:#000000;stroke-width:0.8;" x="204.015069" xlink:href="#mff27e6af11" y="289.101593"/>
      </g>
     </g>
     <g id="text_26">
      <!-- 8 -->
      <g transform="translate(201.08642 304.225645)rotate(-5)scale(0.1 -0.1)">
       <use xlink:href="#DejaVuSans-56"/>
      </g>
     </g>
    </g>
    <g id="xtick_14">
     <g id="line2d_46">
      <g>
       <use style="stroke:#000000;stroke-width:0.8;" x="241.215466" xlink:href="#mff27e6af11" y="289.101593"/>
      </g>
     </g>
     <g id="text_27">
      <!-- 10 -->
      <g transform="translate(235.117673 304.780173)rotate(-5)scale(0.1 -0.1)">
       <use xlink:href="#DejaVuSans-49"/>
       <use x="63.623047" xlink:href="#DejaVuSans-48"/>
      </g>
     </g>
    </g>
    <g id="xtick_15">
     <g id="line2d_47">
      <g>
       <use style="stroke:#000000;stroke-width:0.8;" x="278.415864" xlink:href="#mff27e6af11" y="289.101593"/>
      </g>
     </g>
     <g id="text_28">
      <!-- 12 -->
      <g transform="translate(272.31807 304.780173)rotate(-5)scale(0.1 -0.1)">
       <use xlink:href="#DejaVuSans-49"/>
       <use x="63.623047" xlink:href="#DejaVuSans-50"/>
      </g>
     </g>
    </g>
    <g id="xtick_16">
     <g id="line2d_48">
      <g>
       <use style="stroke:#000000;stroke-width:0.8;" x="315.616261" xlink:href="#mff27e6af11" y="289.101593"/>
      </g>
     </g>
     <g id="text_29">
      <!-- 14 -->
      <g transform="translate(309.518468 304.780173)rotate(-5)scale(0.1 -0.1)">
       <use xlink:href="#DejaVuSans-49"/>
       <use x="63.623047" xlink:href="#DejaVuSans-52"/>
      </g>
     </g>
    </g>
    <g id="text_30">
     <!-- Time (min) -->
     <g transform="translate(156.120432 321.489759)scale(0.14 -0.14)">
      <defs>
       <path d="M 31 75.875 
Q 24.46875 64.65625 21.28125 53.65625 
Q 18.109375 42.671875 18.109375 31.390625 
Q 18.109375 20.125 21.3125 9.0625 
Q 24.515625 -2 31 -13.1875 
L 23.1875 -13.1875 
Q 15.875 -1.703125 12.234375 9.375 
Q 8.59375 20.453125 8.59375 31.390625 
Q 8.59375 42.28125 12.203125 53.3125 
Q 15.828125 64.359375 23.1875 75.875 
z
" id="DejaVuSans-40"/>
       <path d="M 8.015625 75.875 
L 15.828125 75.875 
Q 23.140625 64.359375 26.78125 53.3125 
Q 30.421875 42.28125 30.421875 31.390625 
Q 30.421875 20.453125 26.78125 9.375 
Q 23.140625 -1.703125 15.828125 -13.1875 
L 8.015625 -13.1875 
Q 14.5 -2 17.703125 9.0625 
Q 20.90625 20.125 20.90625 31.390625 
Q 20.90625 42.671875 17.703125 53.65625 
Q 14.5 64.65625 8.015625 75.875 
z
" id="DejaVuSans-41"/>
      </defs>
      <use xlink:href="#DejaVuSans-84"/>
      <use x="57.958984" xlink:href="#DejaVuSans-105"/>
      <use x="85.742188" xlink:href="#DejaVuSans-109"/>
      <use x="183.154297" xlink:href="#DejaVuSans-101"/>
      <use x="244.677734" xlink:href="#DejaVuSans-32"/>
      <use x="276.464844" xlink:href="#DejaVuSans-40"/>
      <use x="315.478516" xlink:href="#DejaVuSans-109"/>
      <use x="412.890625" xlink:href="#DejaVuSans-105"/>
      <use x="440.673828" xlink:href="#DejaVuSans-110"/>
      <use x="504.052734" xlink:href="#DejaVuSans-41"/>
     </g>
    </g>
   </g>
   <g id="patch_8">
    <path d="M 51.338438 249.101593 
L 51.338438 24.597656 
" style="fill:none;stroke:#000000;stroke-linecap:square;stroke-linejoin:miter;stroke-width:0.8;"/>
   </g>
   <g id="patch_9">
    <path d="M 336.928989 249.101593 
L 336.928989 24.597656 
" style="fill:none;stroke:#000000;stroke-linecap:square;stroke-linejoin:miter;stroke-width:0.8;"/>
   </g>
   <g id="patch_10">
    <path d="M 51.338438 289.101593 
L 336.928989 289.101593 
" style="fill:none;stroke:#000000;stroke-linecap:square;stroke-linejoin:miter;stroke-width:0.8;"/>
   </g>
   <g id="patch_11">
    <path d="M 51.338438 24.597656 
L 336.928989 24.597656 
" style="fill:none;stroke:#000000;stroke-linecap:square;stroke-linejoin:miter;stroke-width:0.8;"/>
   </g>
  </g>
 </g>
 <defs>
  <clipPath id="p7b801c7d8d">
   <rect height="224.503937" width="285.590551" x="51.338438" y="24.597656"/>
  </clipPath>
 </defs>
</svg>
