<?xml version="1.0" encoding="utf-8" standalone="no"?>
<!DOCTYPE svg PUBLIC "-//W3C//DTD SVG 1.1//EN"
  "http://www.w3.org/Graphics/SVG/1.1/DTD/svg11.dtd">
<!-- Created with matplotlib (https://matplotlib.org/) -->
<svg height="332.569134pt" version="1.1" viewBox="0 0 349.572627 332.569134" width="349.572627pt" xmlns="http://www.w3.org/2000/svg" xmlns:xlink="http://www.w3.org/1999/xlink">
 <metadata>
  <rdf:RDF xmlns:cc="http://creativecommons.org/ns#" xmlns:dc="http://purl.org/dc/elements/1.1/" xmlns:rdf="http://www.w3.org/1999/02/22-rdf-syntax-ns#">
   <cc:Work>
    <dc:type rdf:resource="http://purl.org/dc/dcmitype/StillImage"/>
    <dc:date>2021-11-10T00:17:26.988915</dc:date>
    <dc:format>image/svg+xml</dc:format>
    <dc:creator>
     <cc:Agent>
      <dc:title>Matplotlib v3.3.4, https://matplotlib.org/</dc:title>
     </cc:Agent>
    </dc:creator>
   </cc:Work>
  </rdf:RDF>
 </metadata>
 <defs>
  <style type="text/css">*{stroke-linecap:butt;stroke-linejoin:round;}</style>
 </defs>
 <g id="figure_1">
  <g id="patch_1">
   <path d="M 0 332.569134 
L 349.572627 332.569134 
L 349.572627 0 
L 0 0 
z
" style="fill:#ffffff;"/>
  </g>
  <g id="axes_1">
   <g id="patch_2">
    <path d="M 51.338438 249.101593 
L 336.928989 249.101593 
L 336.928989 24.597656 
L 51.338438 24.597656 
z
" style="fill:#ffffff;"/>
   </g>
   <g id="matplotlib.axis_1">
    <g id="xtick_1">
     <g id="line2d_1">
      <path clip-path="url(#pfff52ea822)" d="M 55.213479 249.101593 
L 55.213479 24.597656 
" style="fill:none;stroke:#b0b0b0;stroke-dasharray:2.96,1.28;stroke-dashoffset:0;stroke-opacity:0.6;stroke-width:0.8;"/>
     </g>
     <g id="line2d_2">
      <defs>
       <path d="M 0 0 
L 0 3.5 
" id="mf4a361144e" style="stroke:#000000;stroke-width:0.8;"/>
      </defs>
      <g>
       <use style="stroke:#000000;stroke-width:0.8;" x="55.213479" xlink:href="#mf4a361144e" y="249.101593"/>
      </g>
     </g>
     <g id="text_1">
      <!-- 0 -->
      <g transform="translate(52.032229 263.700031)scale(0.1 -0.1)">
       <defs>
        <path d="M 31.78125 66.40625 
Q 24.171875 66.40625 20.328125 58.90625 
Q 16.5 51.421875 16.5 36.375 
Q 16.5 21.390625 20.328125 13.890625 
Q 24.171875 6.390625 31.78125 6.390625 
Q 39.453125 6.390625 43.28125 13.890625 
Q 47.125 21.390625 47.125 36.375 
Q 47.125 51.421875 43.28125 58.90625 
Q 39.453125 66.40625 31.78125 66.40625 
z
M 31.78125 74.21875 
Q 44.046875 74.21875 50.515625 64.515625 
Q 56.984375 54.828125 56.984375 36.375 
Q 56.984375 17.96875 50.515625 8.265625 
Q 44.046875 -1.421875 31.78125 -1.421875 
Q 19.53125 -1.421875 13.0625 8.265625 
Q 6.59375 17.96875 6.59375 36.375 
Q 6.59375 54.828125 13.0625 64.515625 
Q 19.53125 74.21875 31.78125 74.21875 
z
" id="DejaVuSans-48"/>
       </defs>
       <use xlink:href="#DejaVuSans-48"/>
      </g>
     </g>
    </g>
    <g id="xtick_2">
     <g id="line2d_3">
      <path clip-path="url(#pfff52ea822)" d="M 93.963893 249.101593 
L 93.963893 24.597656 
" style="fill:none;stroke:#b0b0b0;stroke-dasharray:2.96,1.28;stroke-dashoffset:0;stroke-opacity:0.6;stroke-width:0.8;"/>
     </g>
     <g id="line2d_4">
      <g>
       <use style="stroke:#000000;stroke-width:0.8;" x="93.963893" xlink:href="#mf4a361144e" y="249.101593"/>
      </g>
     </g>
     <g id="text_2">
      <!-- 10000 -->
      <g transform="translate(78.057643 263.700031)scale(0.1 -0.1)">
       <defs>
        <path d="M 12.40625 8.296875 
L 28.515625 8.296875 
L 28.515625 63.921875 
L 10.984375 60.40625 
L 10.984375 69.390625 
L 28.421875 72.90625 
L 38.28125 72.90625 
L 38.28125 8.296875 
L 54.390625 8.296875 
L 54.390625 0 
L 12.40625 0 
z
" id="DejaVuSans-49"/>
       </defs>
       <use xlink:href="#DejaVuSans-49"/>
       <use x="63.623047" xlink:href="#DejaVuSans-48"/>
       <use x="127.246094" xlink:href="#DejaVuSans-48"/>
       <use x="190.869141" xlink:href="#DejaVuSans-48"/>
       <use x="254.492188" xlink:href="#DejaVuSans-48"/>
      </g>
     </g>
    </g>
    <g id="xtick_3">
     <g id="line2d_5">
      <path clip-path="url(#pfff52ea822)" d="M 132.714307 249.101593 
L 132.714307 24.597656 
" style="fill:none;stroke:#b0b0b0;stroke-dasharray:2.96,1.28;stroke-dashoffset:0;stroke-opacity:0.6;stroke-width:0.8;"/>
     </g>
     <g id="line2d_6">
      <g>
       <use style="stroke:#000000;stroke-width:0.8;" x="132.714307" xlink:href="#mf4a361144e" y="249.101593"/>
      </g>
     </g>
     <g id="text_3">
      <!-- 20000 -->
      <g transform="translate(116.808057 263.700031)scale(0.1 -0.1)">
       <defs>
        <path d="M 19.1875 8.296875 
L 53.609375 8.296875 
L 53.609375 0 
L 7.328125 0 
L 7.328125 8.296875 
Q 12.9375 14.109375 22.625 23.890625 
Q 32.328125 33.6875 34.8125 36.53125 
Q 39.546875 41.84375 41.421875 45.53125 
Q 43.3125 49.21875 43.3125 52.78125 
Q 43.3125 58.59375 39.234375 62.25 
Q 35.15625 65.921875 28.609375 65.921875 
Q 23.96875 65.921875 18.8125 64.3125 
Q 13.671875 62.703125 7.8125 59.421875 
L 7.8125 69.390625 
Q 13.765625 71.78125 18.9375 73 
Q 24.125 74.21875 28.421875 74.21875 
Q 39.75 74.21875 46.484375 68.546875 
Q 53.21875 62.890625 53.21875 53.421875 
Q 53.21875 48.921875 51.53125 44.890625 
Q 49.859375 40.875 45.40625 35.40625 
Q 44.1875 33.984375 37.640625 27.21875 
Q 31.109375 20.453125 19.1875 8.296875 
z
" id="DejaVuSans-50"/>
       </defs>
       <use xlink:href="#DejaVuSans-50"/>
       <use x="63.623047" xlink:href="#DejaVuSans-48"/>
       <use x="127.246094" xlink:href="#DejaVuSans-48"/>
       <use x="190.869141" xlink:href="#DejaVuSans-48"/>
       <use x="254.492188" xlink:href="#DejaVuSans-48"/>
      </g>
     </g>
    </g>
    <g id="xtick_4">
     <g id="line2d_7">
      <path clip-path="url(#pfff52ea822)" d="M 171.464721 249.101593 
L 171.464721 24.597656 
" style="fill:none;stroke:#b0b0b0;stroke-dasharray:2.96,1.28;stroke-dashoffset:0;stroke-opacity:0.6;stroke-width:0.8;"/>
     </g>
     <g id="line2d_8">
      <g>
       <use style="stroke:#000000;stroke-width:0.8;" x="171.464721" xlink:href="#mf4a361144e" y="249.101593"/>
      </g>
     </g>
     <g id="text_4">
      <!-- 30000 -->
      <g transform="translate(155.558471 263.700031)scale(0.1 -0.1)">
       <defs>
        <path d="M 40.578125 39.3125 
Q 47.65625 37.796875 51.625 33 
Q 55.609375 28.21875 55.609375 21.1875 
Q 55.609375 10.40625 48.1875 4.484375 
Q 40.765625 -1.421875 27.09375 -1.421875 
Q 22.515625 -1.421875 17.65625 -0.515625 
Q 12.796875 0.390625 7.625 2.203125 
L 7.625 11.71875 
Q 11.71875 9.328125 16.59375 8.109375 
Q 21.484375 6.890625 26.8125 6.890625 
Q 36.078125 6.890625 40.9375 10.546875 
Q 45.796875 14.203125 45.796875 21.1875 
Q 45.796875 27.640625 41.28125 31.265625 
Q 36.765625 34.90625 28.71875 34.90625 
L 20.21875 34.90625 
L 20.21875 43.015625 
L 29.109375 43.015625 
Q 36.375 43.015625 40.234375 45.921875 
Q 44.09375 48.828125 44.09375 54.296875 
Q 44.09375 59.90625 40.109375 62.90625 
Q 36.140625 65.921875 28.71875 65.921875 
Q 24.65625 65.921875 20.015625 65.03125 
Q 15.375 64.15625 9.8125 62.3125 
L 9.8125 71.09375 
Q 15.4375 72.65625 20.34375 73.4375 
Q 25.25 74.21875 29.59375 74.21875 
Q 40.828125 74.21875 47.359375 69.109375 
Q 53.90625 64.015625 53.90625 55.328125 
Q 53.90625 49.265625 50.4375 45.09375 
Q 46.96875 40.921875 40.578125 39.3125 
z
" id="DejaVuSans-51"/>
       </defs>
       <use xlink:href="#DejaVuSans-51"/>
       <use x="63.623047" xlink:href="#DejaVuSans-48"/>
       <use x="127.246094" xlink:href="#DejaVuSans-48"/>
       <use x="190.869141" xlink:href="#DejaVuSans-48"/>
       <use x="254.492188" xlink:href="#DejaVuSans-48"/>
      </g>
     </g>
    </g>
    <g id="xtick_5">
     <g id="line2d_9">
      <path clip-path="url(#pfff52ea822)" d="M 210.215135 249.101593 
L 210.215135 24.597656 
" style="fill:none;stroke:#b0b0b0;stroke-dasharray:2.96,1.28;stroke-dashoffset:0;stroke-opacity:0.6;stroke-width:0.8;"/>
     </g>
     <g id="line2d_10">
      <g>
       <use style="stroke:#000000;stroke-width:0.8;" x="210.215135" xlink:href="#mf4a361144e" y="249.101593"/>
      </g>
     </g>
     <g id="text_5">
      <!-- 40000 -->
      <g transform="translate(194.308885 263.700031)scale(0.1 -0.1)">
       <defs>
        <path d="M 37.796875 64.3125 
L 12.890625 25.390625 
L 37.796875 25.390625 
z
M 35.203125 72.90625 
L 47.609375 72.90625 
L 47.609375 25.390625 
L 58.015625 25.390625 
L 58.015625 17.1875 
L 47.609375 17.1875 
L 47.609375 0 
L 37.796875 0 
L 37.796875 17.1875 
L 4.890625 17.1875 
L 4.890625 26.703125 
z
" id="DejaVuSans-52"/>
       </defs>
       <use xlink:href="#DejaVuSans-52"/>
       <use x="63.623047" xlink:href="#DejaVuSans-48"/>
       <use x="127.246094" xlink:href="#DejaVuSans-48"/>
       <use x="190.869141" xlink:href="#DejaVuSans-48"/>
       <use x="254.492188" xlink:href="#DejaVuSans-48"/>
      </g>
     </g>
    </g>
    <g id="xtick_6">
     <g id="line2d_11">
      <path clip-path="url(#pfff52ea822)" d="M 248.965549 249.101593 
L 248.965549 24.597656 
" style="fill:none;stroke:#b0b0b0;stroke-dasharray:2.96,1.28;stroke-dashoffset:0;stroke-opacity:0.6;stroke-width:0.8;"/>
     </g>
     <g id="line2d_12">
      <g>
       <use style="stroke:#000000;stroke-width:0.8;" x="248.965549" xlink:href="#mf4a361144e" y="249.101593"/>
      </g>
     </g>
     <g id="text_6">
      <!-- 50000 -->
      <g transform="translate(233.059299 263.700031)scale(0.1 -0.1)">
       <defs>
        <path d="M 10.796875 72.90625 
L 49.515625 72.90625 
L 49.515625 64.59375 
L 19.828125 64.59375 
L 19.828125 46.734375 
Q 21.96875 47.46875 24.109375 47.828125 
Q 26.265625 48.1875 28.421875 48.1875 
Q 40.625 48.1875 47.75 41.5 
Q 54.890625 34.8125 54.890625 23.390625 
Q 54.890625 11.625 47.5625 5.09375 
Q 40.234375 -1.421875 26.90625 -1.421875 
Q 22.3125 -1.421875 17.546875 -0.640625 
Q 12.796875 0.140625 7.71875 1.703125 
L 7.71875 11.625 
Q 12.109375 9.234375 16.796875 8.0625 
Q 21.484375 6.890625 26.703125 6.890625 
Q 35.15625 6.890625 40.078125 11.328125 
Q 45.015625 15.765625 45.015625 23.390625 
Q 45.015625 31 40.078125 35.4375 
Q 35.15625 39.890625 26.703125 39.890625 
Q 22.75 39.890625 18.8125 39.015625 
Q 14.890625 38.140625 10.796875 36.28125 
z
" id="DejaVuSans-53"/>
       </defs>
       <use xlink:href="#DejaVuSans-53"/>
       <use x="63.623047" xlink:href="#DejaVuSans-48"/>
       <use x="127.246094" xlink:href="#DejaVuSans-48"/>
       <use x="190.869141" xlink:href="#DejaVuSans-48"/>
       <use x="254.492188" xlink:href="#DejaVuSans-48"/>
      </g>
     </g>
    </g>
    <g id="xtick_7">
     <g id="line2d_13">
      <path clip-path="url(#pfff52ea822)" d="M 287.715963 249.101593 
L 287.715963 24.597656 
" style="fill:none;stroke:#b0b0b0;stroke-dasharray:2.96,1.28;stroke-dashoffset:0;stroke-opacity:0.6;stroke-width:0.8;"/>
     </g>
     <g id="line2d_14">
      <g>
       <use style="stroke:#000000;stroke-width:0.8;" x="287.715963" xlink:href="#mf4a361144e" y="249.101593"/>
      </g>
     </g>
     <g id="text_7">
      <!-- 60000 -->
      <g transform="translate(271.809713 263.700031)scale(0.1 -0.1)">
       <defs>
        <path d="M 33.015625 40.375 
Q 26.375 40.375 22.484375 35.828125 
Q 18.609375 31.296875 18.609375 23.390625 
Q 18.609375 15.53125 22.484375 10.953125 
Q 26.375 6.390625 33.015625 6.390625 
Q 39.65625 6.390625 43.53125 10.953125 
Q 47.40625 15.53125 47.40625 23.390625 
Q 47.40625 31.296875 43.53125 35.828125 
Q 39.65625 40.375 33.015625 40.375 
z
M 52.59375 71.296875 
L 52.59375 62.3125 
Q 48.875 64.0625 45.09375 64.984375 
Q 41.3125 65.921875 37.59375 65.921875 
Q 27.828125 65.921875 22.671875 59.328125 
Q 17.53125 52.734375 16.796875 39.40625 
Q 19.671875 43.65625 24.015625 45.921875 
Q 28.375 48.1875 33.59375 48.1875 
Q 44.578125 48.1875 50.953125 41.515625 
Q 57.328125 34.859375 57.328125 23.390625 
Q 57.328125 12.15625 50.6875 5.359375 
Q 44.046875 -1.421875 33.015625 -1.421875 
Q 20.359375 -1.421875 13.671875 8.265625 
Q 6.984375 17.96875 6.984375 36.375 
Q 6.984375 53.65625 15.1875 63.9375 
Q 23.390625 74.21875 37.203125 74.21875 
Q 40.921875 74.21875 44.703125 73.484375 
Q 48.484375 72.75 52.59375 71.296875 
z
" id="DejaVuSans-54"/>
       </defs>
       <use xlink:href="#DejaVuSans-54"/>
       <use x="63.623047" xlink:href="#DejaVuSans-48"/>
       <use x="127.246094" xlink:href="#DejaVuSans-48"/>
       <use x="190.869141" xlink:href="#DejaVuSans-48"/>
       <use x="254.492188" xlink:href="#DejaVuSans-48"/>
      </g>
     </g>
    </g>
    <g id="xtick_8">
     <g id="line2d_15">
      <path clip-path="url(#pfff52ea822)" d="M 326.466377 249.101593 
L 326.466377 24.597656 
" style="fill:none;stroke:#b0b0b0;stroke-dasharray:2.96,1.28;stroke-dashoffset:0;stroke-opacity:0.6;stroke-width:0.8;"/>
     </g>
     <g id="line2d_16">
      <g>
       <use style="stroke:#000000;stroke-width:0.8;" x="326.466377" xlink:href="#mf4a361144e" y="249.101593"/>
      </g>
     </g>
     <g id="text_8">
      <!-- 70000 -->
      <g transform="translate(310.560127 263.700031)scale(0.1 -0.1)">
       <defs>
        <path d="M 8.203125 72.90625 
L 55.078125 72.90625 
L 55.078125 68.703125 
L 28.609375 0 
L 18.3125 0 
L 43.21875 64.59375 
L 8.203125 64.59375 
z
" id="DejaVuSans-55"/>
       </defs>
       <use xlink:href="#DejaVuSans-55"/>
       <use x="63.623047" xlink:href="#DejaVuSans-48"/>
       <use x="127.246094" xlink:href="#DejaVuSans-48"/>
       <use x="190.869141" xlink:href="#DejaVuSans-48"/>
       <use x="254.492188" xlink:href="#DejaVuSans-48"/>
      </g>
     </g>
    </g>
    <g id="text_9">
     <!-- Time steps -->
     <g transform="translate(155.993557 280.417531)scale(0.14 -0.14)">
      <defs>
       <path d="M -0.296875 72.90625 
L 61.375 72.90625 
L 61.375 64.59375 
L 35.5 64.59375 
L 35.5 0 
L 25.59375 0 
L 25.59375 64.59375 
L -0.296875 64.59375 
z
" id="DejaVuSans-84"/>
       <path d="M 9.421875 54.6875 
L 18.40625 54.6875 
L 18.40625 0 
L 9.421875 0 
z
M 9.421875 75.984375 
L 18.40625 75.984375 
L 18.40625 64.59375 
L 9.421875 64.59375 
z
" id="DejaVuSans-105"/>
       <path d="M 52 44.1875 
Q 55.375 50.25 60.0625 53.125 
Q 64.75 56 71.09375 56 
Q 79.640625 56 84.28125 50.015625 
Q 88.921875 44.046875 88.921875 33.015625 
L 88.921875 0 
L 79.890625 0 
L 79.890625 32.71875 
Q 79.890625 40.578125 77.09375 44.375 
Q 74.3125 48.1875 68.609375 48.1875 
Q 61.625 48.1875 57.5625 43.546875 
Q 53.515625 38.921875 53.515625 30.90625 
L 53.515625 0 
L 44.484375 0 
L 44.484375 32.71875 
Q 44.484375 40.625 41.703125 44.40625 
Q 38.921875 48.1875 33.109375 48.1875 
Q 26.21875 48.1875 22.15625 43.53125 
Q 18.109375 38.875 18.109375 30.90625 
L 18.109375 0 
L 9.078125 0 
L 9.078125 54.6875 
L 18.109375 54.6875 
L 18.109375 46.1875 
Q 21.1875 51.21875 25.484375 53.609375 
Q 29.78125 56 35.6875 56 
Q 41.65625 56 45.828125 52.96875 
Q 50 49.953125 52 44.1875 
z
" id="DejaVuSans-109"/>
       <path d="M 56.203125 29.59375 
L 56.203125 25.203125 
L 14.890625 25.203125 
Q 15.484375 15.921875 20.484375 11.0625 
Q 25.484375 6.203125 34.421875 6.203125 
Q 39.59375 6.203125 44.453125 7.46875 
Q 49.3125 8.734375 54.109375 11.28125 
L 54.109375 2.78125 
Q 49.265625 0.734375 44.1875 -0.34375 
Q 39.109375 -1.421875 33.890625 -1.421875 
Q 20.796875 -1.421875 13.15625 6.1875 
Q 5.515625 13.8125 5.515625 26.8125 
Q 5.515625 40.234375 12.765625 48.109375 
Q 20.015625 56 32.328125 56 
Q 43.359375 56 49.78125 48.890625 
Q 56.203125 41.796875 56.203125 29.59375 
z
M 47.21875 32.234375 
Q 47.125 39.59375 43.09375 43.984375 
Q 39.0625 48.390625 32.421875 48.390625 
Q 24.90625 48.390625 20.390625 44.140625 
Q 15.875 39.890625 15.1875 32.171875 
z
" id="DejaVuSans-101"/>
       <path id="DejaVuSans-32"/>
       <path d="M 44.28125 53.078125 
L 44.28125 44.578125 
Q 40.484375 46.53125 36.375 47.5 
Q 32.28125 48.484375 27.875 48.484375 
Q 21.1875 48.484375 17.84375 46.4375 
Q 14.5 44.390625 14.5 40.28125 
Q 14.5 37.15625 16.890625 35.375 
Q 19.28125 33.59375 26.515625 31.984375 
L 29.59375 31.296875 
Q 39.15625 29.25 43.1875 25.515625 
Q 47.21875 21.78125 47.21875 15.09375 
Q 47.21875 7.46875 41.1875 3.015625 
Q 35.15625 -1.421875 24.609375 -1.421875 
Q 20.21875 -1.421875 15.453125 -0.5625 
Q 10.6875 0.296875 5.421875 2 
L 5.421875 11.28125 
Q 10.40625 8.6875 15.234375 7.390625 
Q 20.0625 6.109375 24.8125 6.109375 
Q 31.15625 6.109375 34.5625 8.28125 
Q 37.984375 10.453125 37.984375 14.40625 
Q 37.984375 18.0625 35.515625 20.015625 
Q 33.0625 21.96875 24.703125 23.78125 
L 21.578125 24.515625 
Q 13.234375 26.265625 9.515625 29.90625 
Q 5.8125 33.546875 5.8125 39.890625 
Q 5.8125 47.609375 11.28125 51.796875 
Q 16.75 56 26.8125 56 
Q 31.78125 56 36.171875 55.265625 
Q 40.578125 54.546875 44.28125 53.078125 
z
" id="DejaVuSans-115"/>
       <path d="M 18.3125 70.21875 
L 18.3125 54.6875 
L 36.8125 54.6875 
L 36.8125 47.703125 
L 18.3125 47.703125 
L 18.3125 18.015625 
Q 18.3125 11.328125 20.140625 9.421875 
Q 21.96875 7.515625 27.59375 7.515625 
L 36.8125 7.515625 
L 36.8125 0 
L 27.59375 0 
Q 17.1875 0 13.234375 3.875 
Q 9.28125 7.765625 9.28125 18.015625 
L 9.28125 47.703125 
L 2.6875 47.703125 
L 2.6875 54.6875 
L 9.28125 54.6875 
L 9.28125 70.21875 
z
" id="DejaVuSans-116"/>
       <path d="M 18.109375 8.203125 
L 18.109375 -20.796875 
L 9.078125 -20.796875 
L 9.078125 54.6875 
L 18.109375 54.6875 
L 18.109375 46.390625 
Q 20.953125 51.265625 25.265625 53.625 
Q 29.59375 56 35.59375 56 
Q 45.5625 56 51.78125 48.09375 
Q 58.015625 40.1875 58.015625 27.296875 
Q 58.015625 14.40625 51.78125 6.484375 
Q 45.5625 -1.421875 35.59375 -1.421875 
Q 29.59375 -1.421875 25.265625 0.953125 
Q 20.953125 3.328125 18.109375 8.203125 
z
M 48.6875 27.296875 
Q 48.6875 37.203125 44.609375 42.84375 
Q 40.53125 48.484375 33.40625 48.484375 
Q 26.265625 48.484375 22.1875 42.84375 
Q 18.109375 37.203125 18.109375 27.296875 
Q 18.109375 17.390625 22.1875 11.75 
Q 26.265625 6.109375 33.40625 6.109375 
Q 40.53125 6.109375 44.609375 11.75 
Q 48.6875 17.390625 48.6875 27.296875 
z
" id="DejaVuSans-112"/>
      </defs>
      <use xlink:href="#DejaVuSans-84"/>
      <use x="57.958984" xlink:href="#DejaVuSans-105"/>
      <use x="85.742188" xlink:href="#DejaVuSans-109"/>
      <use x="183.154297" xlink:href="#DejaVuSans-101"/>
      <use x="244.677734" xlink:href="#DejaVuSans-32"/>
      <use x="276.464844" xlink:href="#DejaVuSans-115"/>
      <use x="328.564453" xlink:href="#DejaVuSans-116"/>
      <use x="367.773438" xlink:href="#DejaVuSans-101"/>
      <use x="429.296875" xlink:href="#DejaVuSans-112"/>
      <use x="492.773438" xlink:href="#DejaVuSans-115"/>
     </g>
    </g>
   </g>
   <g id="matplotlib.axis_2">
    <g id="ytick_1">
     <g id="line2d_17">
      <path clip-path="url(#pfff52ea822)" d="M 51.338438 249.101593 
L 336.928989 249.101593 
" style="fill:none;stroke:#b0b0b0;stroke-dasharray:2.96,1.28;stroke-dashoffset:0;stroke-opacity:0.6;stroke-width:0.8;"/>
     </g>
     <g id="line2d_18">
      <defs>
       <path d="M 0 0 
L -3.5 0 
" id="mff5d25cd22" style="stroke:#000000;stroke-width:0.8;"/>
      </defs>
      <g>
       <use style="stroke:#000000;stroke-width:0.8;" x="51.338438" xlink:href="#mff5d25cd22" y="249.101593"/>
      </g>
     </g>
     <g id="text_10">
      <!-- 0% -->
      <g transform="translate(28.474375 252.900812)scale(0.1 -0.1)">
       <defs>
        <path d="M 72.703125 32.078125 
Q 68.453125 32.078125 66.03125 28.46875 
Q 63.625 24.859375 63.625 18.40625 
Q 63.625 12.0625 66.03125 8.421875 
Q 68.453125 4.78125 72.703125 4.78125 
Q 76.859375 4.78125 79.265625 8.421875 
Q 81.6875 12.0625 81.6875 18.40625 
Q 81.6875 24.8125 79.265625 28.4375 
Q 76.859375 32.078125 72.703125 32.078125 
z
M 72.703125 38.28125 
Q 80.421875 38.28125 84.953125 32.90625 
Q 89.5 27.546875 89.5 18.40625 
Q 89.5 9.28125 84.9375 3.921875 
Q 80.375 -1.421875 72.703125 -1.421875 
Q 64.890625 -1.421875 60.34375 3.921875 
Q 55.8125 9.28125 55.8125 18.40625 
Q 55.8125 27.59375 60.375 32.9375 
Q 64.9375 38.28125 72.703125 38.28125 
z
M 22.3125 68.015625 
Q 18.109375 68.015625 15.6875 64.375 
Q 13.28125 60.75 13.28125 54.390625 
Q 13.28125 47.953125 15.671875 44.328125 
Q 18.0625 40.71875 22.3125 40.71875 
Q 26.5625 40.71875 28.96875 44.328125 
Q 31.390625 47.953125 31.390625 54.390625 
Q 31.390625 60.6875 28.953125 64.34375 
Q 26.515625 68.015625 22.3125 68.015625 
z
M 66.40625 74.21875 
L 74.21875 74.21875 
L 28.609375 -1.421875 
L 20.796875 -1.421875 
z
M 22.3125 74.21875 
Q 30.03125 74.21875 34.609375 68.875 
Q 39.203125 63.53125 39.203125 54.390625 
Q 39.203125 45.171875 34.640625 39.84375 
Q 30.078125 34.515625 22.3125 34.515625 
Q 14.546875 34.515625 10.03125 39.859375 
Q 5.515625 45.21875 5.515625 54.390625 
Q 5.515625 63.484375 10.046875 68.84375 
Q 14.59375 74.21875 22.3125 74.21875 
z
" id="DejaVuSans-37"/>
       </defs>
       <use xlink:href="#DejaVuSans-48"/>
       <use x="63.623047" xlink:href="#DejaVuSans-37"/>
      </g>
     </g>
    </g>
    <g id="ytick_2">
     <g id="line2d_19">
      <path clip-path="url(#pfff52ea822)" d="M 51.338438 205.081213 
L 336.928989 205.081213 
" style="fill:none;stroke:#b0b0b0;stroke-dasharray:2.96,1.28;stroke-dashoffset:0;stroke-opacity:0.6;stroke-width:0.8;"/>
     </g>
     <g id="line2d_20">
      <g>
       <use style="stroke:#000000;stroke-width:0.8;" x="51.338438" xlink:href="#mff5d25cd22" y="205.081213"/>
      </g>
     </g>
     <g id="text_11">
      <!-- 20% -->
      <g transform="translate(22.111875 208.880432)scale(0.1 -0.1)">
       <use xlink:href="#DejaVuSans-50"/>
       <use x="63.623047" xlink:href="#DejaVuSans-48"/>
       <use x="127.246094" xlink:href="#DejaVuSans-37"/>
      </g>
     </g>
    </g>
    <g id="ytick_3">
     <g id="line2d_21">
      <path clip-path="url(#pfff52ea822)" d="M 51.338438 161.060834 
L 336.928989 161.060834 
" style="fill:none;stroke:#b0b0b0;stroke-dasharray:2.96,1.28;stroke-dashoffset:0;stroke-opacity:0.6;stroke-width:0.8;"/>
     </g>
     <g id="line2d_22">
      <g>
       <use style="stroke:#000000;stroke-width:0.8;" x="51.338438" xlink:href="#mff5d25cd22" y="161.060834"/>
      </g>
     </g>
     <g id="text_12">
      <!-- 40% -->
      <g transform="translate(22.111875 164.860052)scale(0.1 -0.1)">
       <use xlink:href="#DejaVuSans-52"/>
       <use x="63.623047" xlink:href="#DejaVuSans-48"/>
       <use x="127.246094" xlink:href="#DejaVuSans-37"/>
      </g>
     </g>
    </g>
    <g id="ytick_4">
     <g id="line2d_23">
      <path clip-path="url(#pfff52ea822)" d="M 51.338438 117.040454 
L 336.928989 117.040454 
" style="fill:none;stroke:#b0b0b0;stroke-dasharray:2.96,1.28;stroke-dashoffset:0;stroke-opacity:0.6;stroke-width:0.8;"/>
     </g>
     <g id="line2d_24">
      <g>
       <use style="stroke:#000000;stroke-width:0.8;" x="51.338438" xlink:href="#mff5d25cd22" y="117.040454"/>
      </g>
     </g>
     <g id="text_13">
      <!-- 60% -->
      <g transform="translate(22.111875 120.839673)scale(0.1 -0.1)">
       <use xlink:href="#DejaVuSans-54"/>
       <use x="63.623047" xlink:href="#DejaVuSans-48"/>
       <use x="127.246094" xlink:href="#DejaVuSans-37"/>
      </g>
     </g>
    </g>
    <g id="ytick_5">
     <g id="line2d_25">
      <path clip-path="url(#pfff52ea822)" d="M 51.338438 73.020074 
L 336.928989 73.020074 
" style="fill:none;stroke:#b0b0b0;stroke-dasharray:2.96,1.28;stroke-dashoffset:0;stroke-opacity:0.6;stroke-width:0.8;"/>
     </g>
     <g id="line2d_26">
      <g>
       <use style="stroke:#000000;stroke-width:0.8;" x="51.338438" xlink:href="#mff5d25cd22" y="73.020074"/>
      </g>
     </g>
     <g id="text_14">
      <!-- 80% -->
      <g transform="translate(22.111875 76.819293)scale(0.1 -0.1)">
       <defs>
        <path d="M 31.78125 34.625 
Q 24.75 34.625 20.71875 30.859375 
Q 16.703125 27.09375 16.703125 20.515625 
Q 16.703125 13.921875 20.71875 10.15625 
Q 24.75 6.390625 31.78125 6.390625 
Q 38.8125 6.390625 42.859375 10.171875 
Q 46.921875 13.96875 46.921875 20.515625 
Q 46.921875 27.09375 42.890625 30.859375 
Q 38.875 34.625 31.78125 34.625 
z
M 21.921875 38.8125 
Q 15.578125 40.375 12.03125 44.71875 
Q 8.5 49.078125 8.5 55.328125 
Q 8.5 64.0625 14.71875 69.140625 
Q 20.953125 74.21875 31.78125 74.21875 
Q 42.671875 74.21875 48.875 69.140625 
Q 55.078125 64.0625 55.078125 55.328125 
Q 55.078125 49.078125 51.53125 44.71875 
Q 48 40.375 41.703125 38.8125 
Q 48.828125 37.15625 52.796875 32.3125 
Q 56.78125 27.484375 56.78125 20.515625 
Q 56.78125 9.90625 50.3125 4.234375 
Q 43.84375 -1.421875 31.78125 -1.421875 
Q 19.734375 -1.421875 13.25 4.234375 
Q 6.78125 9.90625 6.78125 20.515625 
Q 6.78125 27.484375 10.78125 32.3125 
Q 14.796875 37.15625 21.921875 38.8125 
z
M 18.3125 54.390625 
Q 18.3125 48.734375 21.84375 45.5625 
Q 25.390625 42.390625 31.78125 42.390625 
Q 38.140625 42.390625 41.71875 45.5625 
Q 45.3125 48.734375 45.3125 54.390625 
Q 45.3125 60.0625 41.71875 63.234375 
Q 38.140625 66.40625 31.78125 66.40625 
Q 25.390625 66.40625 21.84375 63.234375 
Q 18.3125 60.0625 18.3125 54.390625 
z
" id="DejaVuSans-56"/>
       </defs>
       <use xlink:href="#DejaVuSans-56"/>
       <use x="63.623047" xlink:href="#DejaVuSans-48"/>
       <use x="127.246094" xlink:href="#DejaVuSans-37"/>
      </g>
     </g>
    </g>
    <g id="ytick_6">
     <g id="line2d_27">
      <path clip-path="url(#pfff52ea822)" d="M 51.338438 28.999694 
L 336.928989 28.999694 
" style="fill:none;stroke:#b0b0b0;stroke-dasharray:2.96,1.28;stroke-dashoffset:0;stroke-opacity:0.6;stroke-width:0.8;"/>
     </g>
     <g id="line2d_28">
      <g>
       <use style="stroke:#000000;stroke-width:0.8;" x="51.338438" xlink:href="#mff5d25cd22" y="28.999694"/>
      </g>
     </g>
     <g id="text_15">
      <!-- 100% -->
      <g transform="translate(15.749375 32.798913)scale(0.1 -0.1)">
       <use xlink:href="#DejaVuSans-49"/>
       <use x="63.623047" xlink:href="#DejaVuSans-48"/>
       <use x="127.246094" xlink:href="#DejaVuSans-48"/>
       <use x="190.869141" xlink:href="#DejaVuSans-37"/>
      </g>
     </g>
    </g>
    <g id="text_16">
     <!-- Success per episode -->
     <g transform="translate(17.837812 208.482594)rotate(-90)scale(0.14 -0.14)">
      <defs>
       <path d="M 53.515625 70.515625 
L 53.515625 60.890625 
Q 47.90625 63.578125 42.921875 64.890625 
Q 37.9375 66.21875 33.296875 66.21875 
Q 25.25 66.21875 20.875 63.09375 
Q 16.5 59.96875 16.5 54.203125 
Q 16.5 49.359375 19.40625 46.890625 
Q 22.3125 44.4375 30.421875 42.921875 
L 36.375 41.703125 
Q 47.40625 39.59375 52.65625 34.296875 
Q 57.90625 29 57.90625 20.125 
Q 57.90625 9.515625 50.796875 4.046875 
Q 43.703125 -1.421875 29.984375 -1.421875 
Q 24.8125 -1.421875 18.96875 -0.25 
Q 13.140625 0.921875 6.890625 3.21875 
L 6.890625 13.375 
Q 12.890625 10.015625 18.65625 8.296875 
Q 24.421875 6.59375 29.984375 6.59375 
Q 38.421875 6.59375 43.015625 9.90625 
Q 47.609375 13.234375 47.609375 19.390625 
Q 47.609375 24.75 44.3125 27.78125 
Q 41.015625 30.8125 33.5 32.328125 
L 27.484375 33.5 
Q 16.453125 35.6875 11.515625 40.375 
Q 6.59375 45.0625 6.59375 53.421875 
Q 6.59375 63.09375 13.40625 68.65625 
Q 20.21875 74.21875 32.171875 74.21875 
Q 37.3125 74.21875 42.625 73.28125 
Q 47.953125 72.359375 53.515625 70.515625 
z
" id="DejaVuSans-83"/>
       <path d="M 8.5 21.578125 
L 8.5 54.6875 
L 17.484375 54.6875 
L 17.484375 21.921875 
Q 17.484375 14.15625 20.5 10.265625 
Q 23.53125 6.390625 29.59375 6.390625 
Q 36.859375 6.390625 41.078125 11.03125 
Q 45.3125 15.671875 45.3125 23.6875 
L 45.3125 54.6875 
L 54.296875 54.6875 
L 54.296875 0 
L 45.3125 0 
L 45.3125 8.40625 
Q 42.046875 3.421875 37.71875 1 
Q 33.40625 -1.421875 27.6875 -1.421875 
Q 18.265625 -1.421875 13.375 4.4375 
Q 8.5 10.296875 8.5 21.578125 
z
M 31.109375 56 
z
" id="DejaVuSans-117"/>
       <path d="M 48.78125 52.59375 
L 48.78125 44.1875 
Q 44.96875 46.296875 41.140625 47.34375 
Q 37.3125 48.390625 33.40625 48.390625 
Q 24.65625 48.390625 19.8125 42.84375 
Q 14.984375 37.3125 14.984375 27.296875 
Q 14.984375 17.28125 19.8125 11.734375 
Q 24.65625 6.203125 33.40625 6.203125 
Q 37.3125 6.203125 41.140625 7.25 
Q 44.96875 8.296875 48.78125 10.40625 
L 48.78125 2.09375 
Q 45.015625 0.34375 40.984375 -0.53125 
Q 36.96875 -1.421875 32.421875 -1.421875 
Q 20.0625 -1.421875 12.78125 6.34375 
Q 5.515625 14.109375 5.515625 27.296875 
Q 5.515625 40.671875 12.859375 48.328125 
Q 20.21875 56 33.015625 56 
Q 37.15625 56 41.109375 55.140625 
Q 45.0625 54.296875 48.78125 52.59375 
z
" id="DejaVuSans-99"/>
       <path d="M 41.109375 46.296875 
Q 39.59375 47.171875 37.8125 47.578125 
Q 36.03125 48 33.890625 48 
Q 26.265625 48 22.1875 43.046875 
Q 18.109375 38.09375 18.109375 28.8125 
L 18.109375 0 
L 9.078125 0 
L 9.078125 54.6875 
L 18.109375 54.6875 
L 18.109375 46.1875 
Q 20.953125 51.171875 25.484375 53.578125 
Q 30.03125 56 36.53125 56 
Q 37.453125 56 38.578125 55.875 
Q 39.703125 55.765625 41.0625 55.515625 
z
" id="DejaVuSans-114"/>
       <path d="M 30.609375 48.390625 
Q 23.390625 48.390625 19.1875 42.75 
Q 14.984375 37.109375 14.984375 27.296875 
Q 14.984375 17.484375 19.15625 11.84375 
Q 23.34375 6.203125 30.609375 6.203125 
Q 37.796875 6.203125 41.984375 11.859375 
Q 46.1875 17.53125 46.1875 27.296875 
Q 46.1875 37.015625 41.984375 42.703125 
Q 37.796875 48.390625 30.609375 48.390625 
z
M 30.609375 56 
Q 42.328125 56 49.015625 48.375 
Q 55.71875 40.765625 55.71875 27.296875 
Q 55.71875 13.875 49.015625 6.21875 
Q 42.328125 -1.421875 30.609375 -1.421875 
Q 18.84375 -1.421875 12.171875 6.21875 
Q 5.515625 13.875 5.515625 27.296875 
Q 5.515625 40.765625 12.171875 48.375 
Q 18.84375 56 30.609375 56 
z
" id="DejaVuSans-111"/>
       <path d="M 45.40625 46.390625 
L 45.40625 75.984375 
L 54.390625 75.984375 
L 54.390625 0 
L 45.40625 0 
L 45.40625 8.203125 
Q 42.578125 3.328125 38.25 0.953125 
Q 33.9375 -1.421875 27.875 -1.421875 
Q 17.96875 -1.421875 11.734375 6.484375 
Q 5.515625 14.40625 5.515625 27.296875 
Q 5.515625 40.1875 11.734375 48.09375 
Q 17.96875 56 27.875 56 
Q 33.9375 56 38.25 53.625 
Q 42.578125 51.265625 45.40625 46.390625 
z
M 14.796875 27.296875 
Q 14.796875 17.390625 18.875 11.75 
Q 22.953125 6.109375 30.078125 6.109375 
Q 37.203125 6.109375 41.296875 11.75 
Q 45.40625 17.390625 45.40625 27.296875 
Q 45.40625 37.203125 41.296875 42.84375 
Q 37.203125 48.484375 30.078125 48.484375 
Q 22.953125 48.484375 18.875 42.84375 
Q 14.796875 37.203125 14.796875 27.296875 
z
" id="DejaVuSans-100"/>
      </defs>
      <use xlink:href="#DejaVuSans-83"/>
      <use x="63.476562" xlink:href="#DejaVuSans-117"/>
      <use x="126.855469" xlink:href="#DejaVuSans-99"/>
      <use x="181.835938" xlink:href="#DejaVuSans-99"/>
      <use x="236.816406" xlink:href="#DejaVuSans-101"/>
      <use x="298.339844" xlink:href="#DejaVuSans-115"/>
      <use x="350.439453" xlink:href="#DejaVuSans-115"/>
      <use x="402.539062" xlink:href="#DejaVuSans-32"/>
      <use x="434.326172" xlink:href="#DejaVuSans-112"/>
      <use x="497.802734" xlink:href="#DejaVuSans-101"/>
      <use x="559.326172" xlink:href="#DejaVuSans-114"/>
      <use x="600.439453" xlink:href="#DejaVuSans-32"/>
      <use x="632.226562" xlink:href="#DejaVuSans-101"/>
      <use x="693.75" xlink:href="#DejaVuSans-112"/>
      <use x="757.226562" xlink:href="#DejaVuSans-105"/>
      <use x="785.009766" xlink:href="#DejaVuSans-115"/>
      <use x="837.109375" xlink:href="#DejaVuSans-111"/>
      <use x="898.291016" xlink:href="#DejaVuSans-100"/>
      <use x="961.767578" xlink:href="#DejaVuSans-101"/>
     </g>
    </g>
   </g>
   <g id="line2d_29">
    <path clip-path="url(#pfff52ea822)" d="M 55.136017 249.101593 
L 55.156322 248.998713 
L 55.198754 215.044097 
L 55.32198 205.545126 
L 56.468992 199.947712 
L 58.58089 190.780791 
L 61.165542 181.127352 
L 61.262419 181.113982 
L 61.289544 181.146349 
L 61.429045 181.553575 
L 61.758424 183.437372 
L 62.32418 186.187692 
L 62.789185 187.511831 
L 63.161189 187.976559 
L 63.591318 188.153231 
L 64.044698 188.451586 
L 64.498078 189.025966 
L 65.57534 190.598845 
L 65.939593 190.697461 
L 66.237972 190.564197 
L 66.586725 190.134063 
L 68.008866 188.061546 
L 68.710248 187.576992 
L 69.512382 187.000228 
L 70.085888 186.174159 
L 71.066273 184.39239 
L 72.054409 182.05527 
L 74.04618 176.489747 
L 74.631311 175.783875 
L 75.057566 175.564247 
L 75.925575 175.276939 
L 76.747084 175.173112 
L 77.359341 175.494541 
L 78.452102 175.984384 
L 78.71948 175.707742 
L 79.021733 175.043738 
L 79.424738 173.497727 
L 80.532999 168.039083 
L 81.49401 163.861709 
L 82.172142 161.68861 
L 83.338529 158.90155 
L 84.063162 157.444379 
L 84.547542 157.010652 
L 85.2373 156.542828 
L 86.512188 154.964364 
L 86.981068 154.079282 
L 87.496449 152.623329 
L 89.255718 145.700368 
L 89.98035 141.145515 
L 90.770859 136.759244 
L 91.30949 135.128013 
L 91.696994 134.487401 
L 92.3015 133.989548 
L 92.948632 133.475971 
L 93.332261 132.871301 
L 93.71589 131.723319 
L 94.270021 129.323733 
L 98.249689 110.054604 
L 99.32695 106.400995 
L 99.74933 104.659777 
L 101.272221 97.919455 
L 101.853477 96.88653 
L 103.783248 93.773242 
L 104.182377 92.588361 
L 105.763394 87.475004 
L 106.883281 85.77213 
L 107.716415 83.28503 
L 108.359672 81.570017 
L 109.599685 78.725176 
L 110.882324 74.599584 
L 111.428704 73.78892 
L 112.711343 72.356661 
L 113.319725 71.929202 
L 114.137358 71.715067 
L 114.555863 71.148958 
L 115.613749 68.993208 
L 116.299632 67.655126 
L 116.63676 67.335611 
L 117.241267 67.177826 
L 118.031775 67.212067 
L 118.49678 67.580512 
L 118.954035 67.8431 
L 119.267913 67.733983 
L 119.632167 67.391691 
L 120.399425 66.225026 
L 121.000057 65.569721 
L 121.313935 65.457096 
L 121.988192 65.403741 
L 122.329196 65.134032 
L 122.697325 64.432779 
L 123.363832 62.70637 
L 124.111715 60.837243 
L 124.55347 60.368632 
L 125.165726 59.821703 
L 126.359239 58.248967 
L 127.36675 57.248923 
L 127.672878 57.389903 
L 128.308385 57.745226 
L 128.560263 57.548114 
L 128.893516 56.956683 
L 129.796401 55.214939 
L 130.028903 55.247848 
L 130.269156 55.547 
L 131.15654 56.846902 
L 131.784297 57.223637 
L 132.105925 57.24482 
L 132.415929 56.999709 
L 132.776308 56.390027 
L 133.396314 54.783732 
L 133.919445 53.750069 
L 134.186823 53.615456 
L 134.4387 53.749525 
L 134.954081 54.364407 
L 135.500462 54.929163 
L 136.748225 55.650195 
L 137.344981 56.188836 
L 138.057989 56.544368 
L 138.631495 56.683145 
L 138.929873 56.401314 
L 139.363878 55.608942 
L 140.069135 54.417141 
L 140.441139 54.26022 
L 140.910019 54.251134 
L 141.200648 54.149538 
L 141.568776 53.713166 
L 142.642163 52.393216 
L 143.552798 51.998658 
L 143.858926 52.107553 
L 144.211555 52.50823 
L 145.219065 53.755659 
L 145.560069 53.803091 
L 145.901073 53.638343 
L 146.772957 53.073833 
L 147.05196 53.21535 
L 147.52859 53.793741 
L 148.024595 54.21708 
L 148.369474 54.230839 
L 148.853854 54.248155 
L 149.900116 54.577177 
L 150.678999 54.301975 
L 151.101378 54.478815 
L 152.035263 54.997639 
L 153.13965 55.406337 
L 153.744157 55.490701 
L 154.608291 55.56626 
L 155.057796 56.054568 
L 156.038181 57.611433 
L 156.638813 59.12024 
L 157.859451 62.821344 
L 158.487207 64.451333 
L 158.820461 64.764757 
L 159.18084 64.807927 
L 160.219351 64.540012 
L 160.870358 64.184741 
L 161.455489 63.898988 
L 161.815868 63.939463 
L 162.261498 64.23942 
L 163.38526 65.183141 
L 163.962641 65.950154 
L 164.412146 66.335408 
L 164.718274 66.34031 
L 165.055402 66.039525 
L 165.938912 65.137167 
L 166.23729 65.219902 
L 166.613169 65.611285 
L 167.818307 67.12565 
L 168.170936 67.101713 
L 168.616565 67.104932 
L 169.426449 67.142493 
L 169.810078 66.941819 
L 170.647087 66.212955 
L 171.821225 64.999275 
L 172.204854 65.0111 
L 172.572983 65.253153 
L 173.398367 66.114321 
L 174.216 66.842187 
L 174.549254 66.90491 
L 174.870882 66.720924 
L 175.812517 66.080905 
L 176.118646 66.394276 
L 176.517775 67.099542 
L 177.234658 68.291677 
L 177.502035 68.409617 
L 177.746163 68.244765 
L 178.075542 67.690608 
L 179.389181 65.227888 
L 180.152564 64.159145 
L 181.260826 62.223642 
L 181.551454 62.159243 
L 181.876957 62.348521 
L 183.454099 63.819908 
L 184.066356 64.561789 
L 184.356984 64.563888 
L 184.740613 64.320936 
L 186.468881 62.928168 
L 186.763384 63.15581 
L 187.608143 63.995786 
L 187.902647 63.84014 
L 188.402527 63.218848 
L 188.790031 62.959731 
L 189.022533 63.01858 
L 189.340287 63.376802 
L 190.068795 64.219153 
L 190.351673 64.215099 
L 190.715927 63.962855 
L 191.432809 63.391939 
L 191.789313 63.397566 
L 192.498446 63.554165 
L 192.808449 63.287932 
L 193.184328 62.602856 
L 193.80821 61.582604 
L 194.110463 61.464666 
L 194.804095 61.375863 
L 195.179974 60.941495 
L 196.400612 59.249047 
L 197.435248 58.129223 
L 197.776252 58.284272 
L 198.334258 58.510744 
L 198.54351 58.295901 
L 198.96589 57.416038 
L 199.562646 56.347741 
L 199.864899 56.199999 
L 200.225278 56.275244 
L 201.143663 56.766816 
L 202.027172 57.395059 
L 202.360426 57.395056 
L 203.092809 57.363538 
L 203.511313 57.597278 
L 203.902692 58.074983 
L 204.398698 58.985132 
L 205.665836 61.693037 
L 206.010715 61.687457 
L 207.149977 61.567655 
L 207.785484 61.795912 
L 208.296989 62.302505 
L 208.959621 62.876848 
L 209.2425 62.783665 
L 209.657129 62.367455 
L 210.129884 61.90201 
L 210.412762 61.919315 
L 211.005643 62.232205 
L 211.563649 62.411774 
L 212.559535 62.489414 
L 212.850163 62.207061 
L 213.299668 61.475428 
L 213.93905 60.470271 
L 215.062812 59.262663 
L 215.578192 58.00396 
L 216.3222 55.707139 
L 217.383961 52.495101 
L 217.837341 51.860926 
L 219.418358 50.485434 
L 220.410369 49.400677 
L 220.700997 49.432532 
L 221.111751 49.770401 
L 221.522506 49.943719 
L 221.817009 49.855242 
L 222.161888 49.430396 
L 222.82452 48.725341 
L 223.103523 48.686685 
L 224.979043 49.192903 
L 226.885563 51.701081 
L 227.947324 54.17177 
L 229.098212 56.554204 
L 229.45859 56.687341 
L 230.206473 56.782381 
L 230.946606 57.450909 
L 231.465862 58.293074 
L 232.132369 59.272322 
L 232.411372 59.357109 
L 232.733 59.178961 
L 233.492509 58.797642 
L 234.372143 58.698272 
L 234.655021 58.284052 
L 235.123901 57.056624 
L 235.871784 55.240027 
L 236.313539 54.770916 
L 236.941295 54.491911 
L 238.165809 53.899001 
L 238.623063 53.224335 
L 239.332196 52.350358 
L 240.153705 51.641582 
L 240.444333 51.646964 
L 240.692336 51.919067 
L 241.234841 52.907994 
L 241.843223 53.918889 
L 242.246227 54.073265 
L 242.52523 53.961946 
L 242.866234 53.557485 
L 243.435865 52.575229 
L 244.38525 50.845759 
L 244.761129 50.590704 
L 245.183508 50.558923 
L 245.989517 50.916485 
L 246.636649 51.414206 
L 247.22953 52.347363 
L 247.834037 53.197677 
L 248.314542 53.50404 
L 249.132176 53.898872 
L 249.752182 54.423075 
L 250.98057 55.694757 
L 251.352574 55.648875 
L 252.042332 55.305047 
L 252.487962 54.864796 
L 252.918091 54.099727 
L 253.623349 52.87512 
L 253.917852 52.765635 
L 254.394482 52.923524 
L 255.60737 53.520308 
L 256.886134 54.856805 
L 257.196137 54.754381 
L 258.4129 54.145202 
L 258.788779 53.932391 
L 259.416536 53.168089 
L 259.982292 52.077541 
L 261.094428 49.904392 
L 261.943063 48.562107 
L 262.555319 47.68366 
L 262.880823 47.602548 
L 263.427203 47.432146 
L 263.930959 46.965115 
L 264.450214 46.546771 
L 265.031471 46.392243 
L 266.81399 46.445885 
L 267.34487 46.529683 
L 267.720749 46.285234 
L 268.371756 45.905111 
L 268.755385 46.041734 
L 269.561394 46.478569 
L 269.879147 46.330632 
L 270.255026 45.85452 
L 270.828532 45.220749 
L 271.146286 45.154337 
L 271.471789 45.335363 
L 272.211922 46.129892 
L 272.94043 47.111565 
L 273.560437 48.549731 
L 274.114568 49.571939 
L 274.401321 49.69168 
L 274.870201 49.609964 
L 275.280955 49.5981 
L 275.610334 49.813535 
L 276.830972 50.792195 
L 278.12911 51.011378 
L 279.644252 51.173079 
L 280.055006 51.095533 
L 280.613012 50.971578 
L 280.88039 51.132116 
L 281.171018 51.621787 
L 281.740649 53.133726 
L 282.252155 54.149321 
L 282.620283 54.460727 
L 283.151164 54.601236 
L 283.480543 54.410647 
L 283.961048 53.859202 
L 284.395052 53.489528 
L 284.933683 53.423731 
L 285.328937 53.311731 
L 285.894693 53.121644 
L 286.247322 53.269481 
L 286.878954 53.635655 
L 287.142457 53.467686 
L 287.47571 52.94869 
L 288.521972 51.183109 
L 289.227229 50.532357 
L 289.823985 50.212771 
L 290.370366 50.2105 
L 291.125999 50.229449 
L 291.653005 49.78865 
L 293.361898 47.558068 
L 294.071031 46.673697 
L 294.559286 46.335866 
L 294.830539 46.351044 
L 295.132792 46.621981 
L 295.810924 47.30342 
L 296.020177 47.196658 
L 296.310805 46.741112 
L 298.120449 43.274062 
L 298.345201 43.308901 
L 298.604829 43.630004 
L 299.085334 44.635323 
L 299.821592 46.12743 
L 300.220721 46.49541 
L 300.608226 46.556402 
L 302.111742 46.524892 
L 302.592247 46.020616 
L 303.417631 45.280962 
L 304.165514 44.820751 
L 304.649894 44.20709 
L 305.20015 43.642771 
L 305.471403 43.632463 
L 305.843407 43.902253 
L 306.409163 44.239153 
L 306.672665 44.119854 
L 307.133795 43.576877 
L 307.897179 42.723535 
L 308.575311 42.376862 
L 308.881439 42.479986 
L 309.265068 42.889166 
L 309.989701 43.652093 
L 310.299704 43.566917 
L 310.772459 43.226508 
L 312.105473 42.070977 
L 312.752605 41.58859 
L 313.442363 40.727804 
L 313.887993 40.347437 
L 314.186371 40.346354 
L 314.476999 40.576995 
L 315.232632 41.643168 
L 316.189767 43.328883 
L 316.743898 44.162477 
L 317.022901 44.261598 
L 317.278654 44.090899 
L 317.763034 43.438534 
L 318.251289 42.899021 
L 318.553542 42.889044 
L 318.863546 43.116094 
L 319.406051 43.844001 
L 321.018069 46.039626 
L 321.269946 46.063701 
L 321.738826 45.795379 
L 322.97884 44.925486 
L 323.288843 45.083296 
L 323.684097 45.553287 
L 325.141113 47.618299 
L 325.826995 47.885997 
L 326.574878 47.909748 
L 326.985632 47.711927 
L 327.384762 47.253235 
L 328.314772 46.09007 
L 328.539524 46.200901 
L 328.806902 46.630928 
L 330.085666 49.043275 
L 330.438294 49.136818 
L 330.783173 49.032087 
L 331.244303 48.627801 
L 331.736433 47.888115 
L 333.127573 45.388769 
L 333.406576 45.464127 
L 334.673715 46.036515 
L 335.049594 45.909808 
L 335.549474 45.466234 
L 335.967978 45.180627 
L 336.227606 45.271537 
L 336.587985 45.696348 
L 336.932864 46.217468 
L 336.932864 46.217468 
" style="fill:none;stroke:#dd0a34;stroke-dasharray:2,2;stroke-dashoffset:0;stroke-width:2;"/>
   </g>
   <g id="line2d_30">
    <path clip-path="url(#pfff52ea822)" d="M 55.136017 249.101593 
L 55.157136 248.994822 
L 55.186044 231.861145 
L 55.325855 206.53495 
L 60.301408 160.279164 
L 61.471671 151.819728 
L 61.905675 150.401731 
L 62.359055 149.645333 
L 62.719434 149.426998 
L 63.118563 149.46092 
L 64.269451 150.006975 
L 64.897207 150.494487 
L 65.501714 151.217149 
L 66.03647 152.272714 
L 66.854103 154.445661 
L 68.834249 159.84682 
L 70.558643 164.873896 
L 71.643654 167.727432 
L 72.581414 169.348484 
L 73.441674 170.523014 
L 75.88295 173.669967 
L 76.681208 175.357446 
L 77.987097 178.321339 
L 78.486978 178.902566 
L 79.897493 180.12937 
L 80.540749 181.394508 
L 81.447509 183.11971 
L 82.083016 183.910596 
L 82.49377 184.089312 
L 83.997286 184.419291 
L 85.520178 185.607513 
L 87.395698 186.864849 
L 88.06608 186.940288 
L 88.492334 186.781902 
L 89.085216 186.605946 
L 89.643222 186.659113 
L 90.119852 186.973998 
L 91.402491 188.089155 
L 91.782245 188.090562 
L 92.258875 187.840503 
L 92.956382 187.54142 
L 95.289157 186.739732 
L 96.254042 185.920772 
L 97.773059 184.513489 
L 98.497691 183.399478 
L 99.226199 182.541123 
L 100.22596 181.303147 
L 101.520224 179.435946 
L 101.880602 179.419547 
L 102.186731 179.614255 
L 103.124491 180.348085 
L 103.473244 180.284523 
L 103.783248 179.988167 
L 104.465255 178.962758 
L 105.259639 177.804163 
L 105.643268 177.648289 
L 105.945521 177.758002 
L 106.259399 178.160883 
L 106.887156 179.39315 
L 108.162045 181.897273 
L 108.456548 181.923267 
L 108.720051 181.709527 
L 109.068804 181.089596 
L 110.091815 179.193234 
L 110.49482 178.83796 
L 110.886199 178.799139 
L 111.397704 179.004204 
L 112.316089 179.381776 
L 112.626092 179.289849 
L 112.963221 178.923869 
L 113.3856 178.125607 
L 113.881606 176.636385 
L 114.648864 174.333852 
L 115.090619 173.697356 
L 115.354121 173.624237 
L 116.226006 173.638474 
L 116.66776 173.296656 
L 116.989389 172.608361 
L 117.485394 170.923366 
L 118.740908 166.563233 
L 119.92667 164.069821 
L 120.201798 163.901399 
L 120.383925 164.041118 
L 120.631928 164.570079 
L 121.042682 166.069232 
L 121.81769 169.035096 
L 122.154819 169.482879 
L 122.383447 169.491134 
L 122.627574 169.239732 
L 123.832712 167.576033 
L 124.111715 167.548905 
L 124.386843 167.765129 
L 124.789847 168.431485 
L 125.266477 169.664029 
L 125.851609 171.052056 
L 126.134487 171.275377 
L 126.382489 171.201283 
L 126.878495 170.699199 
L 127.269874 170.513427 
L 127.552752 170.604912 
L 127.81238 170.955311 
L 128.362635 172.246024 
L 128.83539 173.88605 
L 129.866151 177.722563 
L 130.18003 178.150573 
L 130.393157 178.134186 
L 130.652785 177.850415 
L 131.036414 177.029739 
L 131.733921 174.9365 
L 132.415929 172.124553 
L 133.136686 169.705156 
L 133.551316 169.121075 
L 134.299199 168.497018 
L 134.659578 168.537769 
L 135.050957 168.852965 
L 135.856965 169.620189 
L 136.089468 169.447842 
L 136.341346 168.931437 
L 136.674599 167.673282 
L 141.90203 143.862295 
L 142.417411 142.775739 
L 143.684549 140.584573 
L 144.141804 139.050869 
L 144.796686 135.892294 
L 145.594945 132.446903 
L 148.160222 123.759306 
L 148.652352 122.946222 
L 148.931355 122.812835 
L 149.183233 122.960645 
L 149.535862 123.462367 
L 149.915616 124.409151 
L 150.492997 125.700295 
L 150.961877 126.142284 
L 151.202129 126.091838 
L 153.426403 124.651805 
L 153.802282 123.985043 
L 154.371913 123.107634 
L 154.635416 123.053143 
L 154.879544 123.237061 
L 155.185672 123.862059 
L 156.448935 126.610279 
L 156.685313 126.628386 
L 156.941066 126.398826 
L 157.289819 125.73632 
L 157.82845 124.176144 
L 159.083964 120.395873 
L 159.448218 119.944517 
L 159.707845 119.93833 
L 159.951973 120.173162 
L 160.300727 120.913288 
L 161.253987 122.960924 
L 161.800368 123.686031 
L 162.284748 124.392799 
L 162.652877 124.768604 
L 162.912505 124.723989 
L 163.214758 124.464146 
L 163.598387 123.749665 
L 165.020527 120.861975 
L 165.687034 119.412489 
L 166.264415 117.536814 
L 166.954173 115.394486 
L 167.67493 113.890404 
L 168.054684 113.482145 
L 168.244561 113.549924 
L 168.477064 113.925166 
L 168.818068 114.901643 
L 169.434199 117.610787 
L 170.073581 119.887629 
L 170.45721 120.52873 
L 170.732338 120.625418 
L 170.991966 120.485298 
L 171.429846 119.899442 
L 171.8096 118.997243 
L 172.386981 116.937312 
L 173.076738 113.537842 
L 174.045498 109.027115 
L 174.425253 108.034265 
L 174.770131 107.711725 
L 175.060759 107.70021 
L 175.347512 107.924443 
L 176.180646 109.120798 
L 176.940154 110.784403 
L 177.381909 112.414688 
L 178.559922 116.991532 
L 178.807924 117.110241 
L 179.048177 116.973463 
L 179.35043 116.505783 
L 180.388941 114.686161 
L 180.679569 114.667242 
L 181.086449 114.942937 
L 181.64058 115.261065 
L 182.031959 115.48948 
L 182.555089 116.199759 
L 183.186721 117.537108 
L 185.879875 123.4097 
L 186.569632 124.881061 
L 187.050137 125.578596 
L 187.422141 125.76835 
L 187.72827 125.66331 
L 188.328901 125.029395 
L 190.188921 123.005251 
L 190.417548 123.30277 
L 190.777927 124.186992 
L 191.642061 126.412094 
L 191.936565 126.579086 
L 192.141942 126.442456 
L 192.45582 125.914433 
L 193.285079 123.977735 
L 193.920586 121.876344 
L 194.742095 119.238604 
L 195.160599 118.536838 
L 196.171985 117.040285 
L 196.633115 115.568592 
L 198.09013 110.600922 
L 198.663636 109.550072 
L 199.562646 108.318315 
L 199.988901 108.210597 
L 201.000286 108.370358 
L 201.263789 108.032194 
L 201.686169 107.015837 
L 202.189924 105.260053 
L 203.166435 101.955249 
L 203.825192 100.429532 
L 204.212696 100.014529 
L 204.499449 99.994636 
L 204.731951 100.228067 
L 205.03808 100.865028 
L 205.700712 102.916054 
L 206.107591 103.76809 
L 206.386594 103.926474 
L 206.626847 103.799342 
L 207.304979 103.316327 
L 207.572357 103.4157 
L 207.89011 103.841342 
L 209.517627 106.512421 
L 209.847006 106.563155 
L 210.122134 106.352136 
L 210.920392 105.710909 
L 211.338897 105.627597 
L 211.920153 105.854495 
L 212.408408 106.367017 
L 213.012915 107.269929 
L 213.683297 108.761013 
L 215.306939 112.90961 
L 215.597567 113.038022 
L 215.849445 112.899771 
L 216.302825 112.334517 
L 216.787205 111.36838 
L 217.566088 109.873092 
L 218.15122 109.164535 
L 218.589099 108.546769 
L 219.054104 107.473108 
L 219.708986 106.154669 
L 219.976364 106.000808 
L 220.193367 106.141303 
L 220.561495 106.699598 
L 221.088501 107.988068 
L 222.045636 110.110555 
L 222.479641 110.542334 
L 222.770269 110.551993 
L 223.068647 110.362636 
L 223.587903 109.726121 
L 224.126534 109.098631 
L 224.444287 109.082241 
L 224.893792 109.312717 
L 225.750176 109.787272 
L 226.501934 110.046862 
L 227.862073 110.727467 
L 228.222452 111.16042 
L 228.675832 112.127784 
L 229.171837 113.718005 
L 229.993346 117.129988 
L 231.078358 122.170335 
L 231.399986 122.738496 
L 231.597613 122.744462 
L 231.806866 122.47121 
L 232.101369 121.67754 
L 232.589624 119.639815 
L 233.198005 117.326599 
L 233.558384 116.713471 
L 233.798637 116.653644 
L 234.05439 116.854798 
L 234.666646 117.769301 
L 235.139401 118.260205 
L 235.488155 118.350856 
L 235.732283 118.190951 
L 236.073286 117.601981 
L 236.751418 115.940233 
L 237.545802 114.017596 
L 238.161933 113.117851 
L 239.289571 111.971806 
L 239.642199 111.221889 
L 240.14983 109.632843 
L 240.62646 107.38308 
L 241.60297 101.311042 
L 242.257852 97.669667 
L 242.633731 96.614268 
L 242.885609 96.426705 
L 243.087111 96.554365 
L 243.381614 97.060628 
L 243.834994 98.3514 
L 244.768879 100.918418 
L 245.133133 101.239186 
L 245.505137 101.276944 
L 247.438783 101.104285 
L 247.849537 101.450514 
L 249.015924 102.439667 
L 249.438304 102.32384 
L 250.298563 101.993648 
L 251.340949 102.02406 
L 251.639327 101.645687 
L 252.499587 100.439655 
L 253.042092 100.069634 
L 253.534223 100.002088 
L 254.367357 100.036387 
L 255.921248 100.57471 
L 256.59938 100.399256 
L 257.366639 100.51453 
L 257.676642 100.491402 
L 260.040417 99.498465 
L 260.815426 98.768846 
L 261.199055 98.791654 
L 261.675685 99.145368 
L 262.365442 99.842978 
L 262.822697 100.840532 
L 263.248952 102.382597 
L 264.93847 109.198483 
L 265.527476 110.762659 
L 265.965356 111.410496 
L 266.600862 111.916719 
L 266.992241 111.921604 
L 267.383621 111.669455 
L 268.023003 111.321133 
L 268.437632 111.302626 
L 269.530394 111.724728 
L 270.650281 112.700055 
L 271.092035 112.631047 
L 271.467914 112.630675 
L 271.743042 112.916203 
L 272.111171 113.692373 
L 273.672813 117.306152 
L 274.044817 117.59598 
L 274.37032 117.594409 
L 274.908951 117.391469 
L 275.296455 117.291815 
L 275.71496 117.524104 
L 276.412467 117.84588 
L 276.861972 117.865025 
L 277.427728 117.653163 
L 277.830732 117.296917 
L 278.373238 116.460706 
L 278.869243 115.854423 
L 279.183122 115.803289 
L 279.438874 115.994243 
L 279.741128 116.540044 
L 281.050892 119.300399 
L 281.415146 119.591368 
L 282.008027 119.62634 
L 282.28703 119.767459 
L 282.604783 120.19835 
L 283.422417 121.425092 
L 283.627794 121.397417 
L 283.860297 121.09274 
L 284.294301 120.050197 
L 285.387063 117.304462 
L 285.836568 116.81712 
L 286.293823 116.680252 
L 286.565076 116.834486 
L 288.355345 118.589826 
L 288.975351 120.135364 
L 289.835611 122.042479 
L 290.145614 122.301497 
L 290.509868 122.304312 
L 290.858621 122.07305 
L 291.207375 121.501635 
L 292.292387 118.978723 
L 292.831018 117.927391 
L 293.284397 117.471693 
L 293.625401 117.41241 
L 294.722038 117.506275 
L 295.233543 117.636975 
L 295.741174 118.095897 
L 296.206179 118.821773 
L 296.911436 120.362866 
L 297.577943 121.758636 
L 298.132074 122.498498 
L 298.511828 122.619512 
L 298.887707 122.523197 
L 299.325587 122.139741 
L 300.011469 121.280969 
L 300.472599 120.21737 
L 301.720363 117.076496 
L 302.022616 117.042291 
L 302.247368 117.249881 
L 302.592247 117.938124 
L 303.514507 119.884886 
L 303.859385 120.051118 
L 304.146138 119.965656 
L 304.425141 119.606139 
L 305.258275 117.842588 
L 305.971283 116.539927 
L 307.505799 114.359592 
L 307.99018 112.618728 
L 308.679937 109.249587 
L 310.133077 102.08223 
L 310.691083 100.298065 
L 311.268465 99.177119 
L 311.911721 98.314007 
L 312.306976 98.052899 
L 312.593729 98.113701 
L 312.892107 98.455813 
L 314.267747 100.250682 
L 314.589375 100.209027 
L 315.139631 100.114202 
L 315.426384 100.48247 
L 315.879764 101.437229 
L 317.522781 105.468942 
L 317.960661 105.810895 
L 318.31329 105.829527 
L 318.658168 105.581169 
L 319.347926 105.121287 
L 319.688929 105.147013 
L 320.026058 105.413902 
L 320.630565 106.248106 
L 321.312572 107.628848 
L 322.428584 109.787497 
L 322.835463 110.07779 
L 323.126091 110.04139 
L 323.412844 109.734657 
L 323.9631 108.723761 
L 326.032372 104.226897 
L 326.877131 102.357137 
L 327.315011 101.947679 
L 327.749016 101.815789 
L 328.334147 101.592022 
L 328.6209 101.228261 
L 329.132405 100.045241 
L 330.329793 97.346022 
L 330.709547 97.161531 
L 331.197802 97.265716 
L 331.600807 97.247508 
L 332.077437 96.958892 
L 332.650943 96.271192 
L 333.658454 94.741816 
L 334.662089 93.213391 
L 334.917842 93.157327 
L 335.173595 93.338644 
L 335.510724 93.894448 
L 335.933103 95.051785 
L 336.932864 98.336137 
L 336.932864 98.336137 
" style="fill:none;stroke:#dd0a34;stroke-linecap:square;stroke-width:2;"/>
   </g>
   <g id="line2d_31">
    <path clip-path="url(#pfff52ea822)" d="M 55.136017 249.101593 
L 55.16508 248.990819 
L 55.204954 244.29249 
L 55.325855 242.093898 
L 56.426367 239.037662 
L 57.457128 235.472786 
L 58.832768 229.794982 
L 61.359295 219.379675 
L 62.641933 214.908245 
L 63.955572 211.11719 
L 65.381588 207.643258 
L 66.346473 205.857223 
L 68.962126 201.558401 
L 69.555007 201.072472 
L 70.225389 200.817968 
L 71.519653 200.654947 
L 72.759666 200.661978 
L 73.767177 200.550477 
L 74.53056 200.286602 
L 75.491571 199.929486 
L 76.173578 199.936857 
L 76.89046 200.18425 
L 77.529842 200.318307 
L 79.238736 200.525923 
L 80.10287 200.52665 
L 80.715126 200.322472 
L 81.118131 199.914369 
L 81.625761 199.043902 
L 83.253278 196.057459 
L 84.373165 193.914564 
L 85.558928 191.216427 
L 86.562564 189.130705 
L 87.449948 187.867614 
L 88.51946 186.376644 
L 89.608346 184.749681 
L 90.580982 183.644661 
L 91.32499 182.792376 
L 92.413876 181.592299 
L 92.76263 181.57595 
L 93.157884 181.793378 
L 95.967289 183.851735 
L 96.552421 183.967767 
L 98.125687 183.923645 
L 98.40469 183.601625 
L 98.714694 182.873384 
L 99.152573 181.171111 
L 100.016708 176.700878 
L 102.690486 162.931353 
L 103.337618 160.902442 
L 103.942125 159.75544 
L 104.856634 158.156596 
L 105.298389 156.705295 
L 106.015272 153.383587 
L 108.289921 142.039746 
L 109.09593 138.227342 
L 110.657571 130.081203 
L 111.343454 128.283057 
L 112.742344 125.246106 
L 113.3236 124.605262 
L 114.31561 123.485756 
L 114.954992 122.255441 
L 115.505248 120.584792 
L 116.009003 118.363786 
L 117.369143 111.158397 
L 119.376414 99.739475 
L 121.015557 91.144756 
L 121.999817 86.936882 
L 122.426072 85.875241 
L 122.836826 85.423051 
L 123.371582 85.17971 
L 123.766836 84.843227 
L 124.351968 84.055689 
L 124.828598 82.902142 
L 125.305228 81.068471 
L 126.607242 74.661213 
L 127.591502 70.38835 
L 128.103008 69.041203 
L 128.389761 68.766582 
L 128.664889 68.794328 
L 128.959392 69.078314 
L 129.912652 70.189445 
L 130.245906 70.165657 
L 132.264802 69.562922 
L 132.598056 69.706809 
L 133.105686 69.908974 
L 133.435065 69.818406 
L 133.698567 69.478561 
L 134.012446 68.640247 
L 134.543326 66.474871 
L 136.329721 58.848819 
L 136.825726 57.309698 
L 137.325606 56.500063 
L 139.441379 54.281278 
L 140.45664 53.305568 
L 141.072771 52.73582 
L 141.495151 52.668206 
L 142.487161 52.63964 
L 143.045167 52.219511 
L 144.26968 51.005436 
L 145.188065 49.892368 
L 145.746071 49.561583 
L 146.0987 49.571513 
L 146.428078 49.805452 
L 146.858208 50.420445 
L 148.586476 53.394252 
L 149.012731 53.560056 
L 149.326609 53.432503 
L 149.950491 52.869093 
L 150.717749 51.605517 
L 152.287141 48.277612 
L 154.123911 43.486613 
L 154.805918 42.538962 
L 155.910305 41.44757 
L 156.588437 41.182482 
L 157.801325 40.852527 
L 158.475582 40.67373 
L 158.797211 40.337181 
L 159.471468 39.201973 
L 160.14185 38.151541 
L 160.606855 37.815601 
L 161.246237 37.731925 
L 162.362249 37.442842 
L 162.98613 36.966262 
L 163.39301 36.761456 
L 163.644887 36.87819 
L 163.989766 37.339776 
L 165.148403 39.096394 
L 166.012538 39.897629 
L 166.531793 40.37994 
L 166.927047 40.462702 
L 167.504429 40.282782 
L 169.445824 39.399579 
L 169.841079 38.733864 
L 170.658712 37.283758 
L 171.003591 37.095378 
L 171.542222 37.12452 
L 172.069227 37.033597 
L 173.115489 36.619343 
L 174.824382 36.76507 
L 175.273887 36.55437 
L 175.746642 36.021879 
L 176.719277 34.750129 
L 178.145292 33.900589 
L 178.455296 34.073042 
L 179.501557 34.863088 
L 180.30369 34.930942 
L 181.043823 34.958647 
L 181.497203 35.226576 
L 182.330337 35.683671 
L 183.04722 35.828838 
L 184.00048 36.027726 
L 185.186242 36.651197 
L 187.197389 37.007678 
L 188.344401 37.656502 
L 189.995169 37.292286 
L 190.816678 36.945477 
L 191.165431 37.108276 
L 191.859064 37.487199 
L 192.308569 37.526716 
L 192.781324 37.326679 
L 194.156963 36.535555 
L 194.699469 36.232567 
L 195.579104 35.47486 
L 196.044109 35.21425 
L 196.377362 35.244362 
L 197.380998 35.685233 
L 198.795388 35.607362 
L 199.306893 35.554761 
L 199.585896 35.805247 
L 199.996651 36.544577 
L 200.628282 37.655662 
L 200.988661 37.84944 
L 201.531167 37.819337 
L 202.616179 37.643344 
L 203.18581 37.416929 
L 203.515188 37.546282 
L 204.119695 38.133823 
L 204.669951 38.465905 
L 205.216331 38.501816 
L 206.192842 38.551718 
L 207.363104 38.837711 
L 208.002486 38.501507 
L 208.347365 38.405226 
L 208.761994 38.54764 
L 209.238624 38.95218 
L 210.765391 40.339286 
L 211.017268 40.216197 
L 211.315647 39.770594 
L 212.299907 38.197112 
L 212.617661 38.21239 
L 212.900539 38.448391 
L 213.257042 39.085786 
L 214.442805 41.495707 
L 214.838059 41.72365 
L 215.930821 42.169723 
L 216.698079 42.572733 
L 218.127969 43.180176 
L 218.472848 43.792905 
L 219.139355 45.469662 
L 219.615985 46.367132 
L 219.991864 46.65642 
L 220.538245 46.747757 
L 220.98 46.608366 
L 221.328754 46.262551 
L 221.851884 45.339337 
L 222.36339 44.643396 
L 222.669518 44.562928 
L 222.948521 44.733824 
L 223.467776 45.340035 
L 224.126534 46.01871 
L 224.448162 46.035537 
L 224.711665 45.801692 
L 225.339421 44.788396 
L 225.773426 44.296891 
L 226.381808 44.065662 
L 226.846813 43.824033 
L 227.823323 43.153672 
L 228.168202 43.315731 
L 229.222213 44.010188 
L 229.640717 43.933063 
L 229.970096 43.65409 
L 230.520352 42.851798 
L 231.574363 41.136195 
L 232.229245 40.617483 
L 232.682625 40.506752 
L 233.054629 40.674832 
L 234.368268 41.529076 
L 235.228527 41.640506 
L 235.685782 41.366175 
L 236.321289 41.093559 
L 236.949046 40.938334 
L 237.615553 40.754272 
L 238.041807 40.916081 
L 238.79744 41.531603 
L 239.587949 42.672105 
L 240.076204 43.203824 
L 240.61871 43.443102 
L 240.975214 43.359189 
L 242.00985 43.088906 
L 242.804233 43.172227 
L 244.055871 43.072806 
L 244.641003 43.242149 
L 246.036018 43.17523 
L 246.353771 42.96678 
L 247.299281 42.163177 
L 247.589909 42.252208 
L 248.256416 42.869819 
L 249.364678 44.088731 
L 249.903309 44.304422 
L 250.306313 44.2471 
L 250.600816 43.986036 
L 251.569577 42.9 
L 252.050082 42.760653 
L 253.169969 42.358265 
L 253.720225 42.081295 
L 253.972102 42.208697 
L 254.24723 42.644931 
L 255.440743 44.842153 
L 255.793372 44.913571 
L 256.328128 45.035947 
L 256.704007 45.401169 
L 257.486765 46.614116 
L 258.385775 47.758144 
L 259.029031 48.053299 
L 259.416536 47.969467 
L 259.823415 47.702378 
L 260.404671 46.855946 
L 261.373431 45.617971 
L 261.74931 45.468209 
L 262.125189 45.571751 
L 262.570819 45.712781 
L 262.849822 45.533937 
L 264.035585 44.48951 
L 264.49284 44.638634 
L 265.00822 44.767682 
L 265.279473 44.574311 
L 265.620477 44.018053 
L 266.538862 42.385573 
L 266.771364 42.445139 
L 267.042617 42.775983 
L 267.647123 43.565628 
L 267.953252 43.612225 
L 268.216755 43.40157 
L 269.545894 42.054416 
L 270.700656 41.330453 
L 271.52604 40.417133 
L 271.785668 40.564634 
L 272.084046 41.013237 
L 273.017931 42.622 
L 273.324059 42.742084 
L 273.618562 42.621236 
L 274.76945 41.857245 
L 275.416581 41.768404 
L 276.602344 41.346972 
L 276.993723 41.618423 
L 278.241487 42.712591 
L 278.570865 42.543558 
L 279.52025 41.782913 
L 280.45801 41.395971 
L 281.597273 40.136928 
L 281.860775 40.269209 
L 282.244404 40.779098 
L 282.817911 41.391175 
L 283.065913 41.358468 
L 283.368166 41.058213 
L 283.778921 40.291092 
L 284.395052 39.21261 
L 284.747681 38.96519 
L 285.007309 39.053592 
L 285.356063 39.441001 
L 285.941194 39.9884 
L 286.313198 40.049362 
L 287.080456 40.008773 
L 287.533836 40.293015 
L 288.029841 40.588588 
L 288.425095 40.562813 
L 288.8746 40.286009 
L 289.905361 39.352918 
L 290.393617 38.997343 
L 290.75787 39.014852 
L 291.219 39.296476 
L 291.730506 39.479479 
L 293.210772 39.707889 
L 293.54015 39.479724 
L 294.210532 38.969499 
L 294.49341 39.050102 
L 294.92354 39.486995 
L 295.512546 39.982918 
L 295.896175 39.972299 
L 296.79906 39.943489 
L 297.500442 40.316857 
L 298.891582 40.863098 
L 299.608465 41.102563 
L 300.309847 41.801798 
L 300.809728 42.106338 
L 301.263108 42.396421 
L 302.235743 43.130525 
L 302.530246 42.946708 
L 303.902011 41.735865 
L 304.649894 41.290554 
L 305.281526 41.002194 
L 306.366537 40.583216 
L 307.420548 40.08607 
L 307.823553 39.915371 
L 308.133556 39.562151 
L 308.548185 38.700173 
L 309.152692 37.564096 
L 309.540196 37.279035 
L 311.605593 36.641377 
L 312.713855 37.033425 
L 313.085859 36.775893 
L 313.876367 36.133823 
L 314.434373 36.040589 
L 315.356633 36.160011 
L 316.433895 36.294806 
L 317.011276 36.072952 
L 317.743659 35.546654 
L 318.913921 34.681463 
L 319.479677 34.539038 
L 319.929182 34.66852 
L 321.13432 35.190423 
L 321.769827 35.381996 
L 322.606836 35.796502 
L 322.889714 35.612499 
L 323.242342 35.083875 
L 324.172352 33.643743 
L 325.78437 32.049469 
L 326.369501 31.868453 
L 327.346011 31.877302 
L 327.795516 32.203516 
L 329.004529 33.26269 
L 330.732797 34.49795 
L 331.604682 34.892893 
L 332.081312 34.857921 
L 332.914446 34.60426 
L 333.480202 34.216451 
L 333.956832 33.954104 
L 334.321086 34.019556 
L 335.6696 34.546764 
L 336.932864 34.515448 
L 336.932864 34.515448 
" style="fill:none;stroke:#7251b5;stroke-dasharray:2,2;stroke-dashoffset:0;stroke-width:2;"/>
   </g>
   <g id="line2d_32">
    <path clip-path="url(#pfff52ea822)" d="M 55.136017 249.101593 
L 55.164498 248.990672 
L 55.201311 244.199511 
L 55.325855 240.754106 
L 56.492243 237.048038 
L 58.077134 231.187726 
L 59.445024 225.353379 
L 60.983416 217.692286 
L 62.556682 210.107801 
L 63.451817 206.927951 
L 64.377952 204.420137 
L 65.218836 202.711033 
L 65.846593 201.904518 
L 66.888979 200.992407 
L 67.369484 200.841168 
L 67.768613 200.928231 
L 69.000876 201.372639 
L 69.806885 201.373156 
L 70.430766 201.643523 
L 71.310401 202.331647 
L 71.957533 203.07283 
L 74.840564 206.51415 
L 75.402445 206.883122 
L 75.956576 206.961218 
L 76.568832 206.818491 
L 77.913471 206.469311 
L 78.413352 206.70311 
L 79.223235 207.072324 
L 80.331497 207.270013 
L 80.812002 207.823084 
L 81.373883 208.347341 
L 82.090766 208.673738 
L 82.706898 208.769584 
L 84.710294 208.743951 
L 85.128799 208.440583 
L 85.655804 207.734562 
L 86.426937 206.287032 
L 87.291072 204.692628 
L 88.108705 203.675782 
L 89.697472 201.861437 
L 90.782484 199.805943 
L 92.041872 197.818545 
L 94.835777 193.804183 
L 96.269543 191.393828 
L 98.916196 187.668307 
L 99.396701 187.336815 
L 99.981832 187.275304 
L 100.74909 187.152818 
L 101.221845 186.702482 
L 102.446359 185.325291 
L 103.310493 184.821966 
L 103.736747 184.133819 
L 104.306378 182.676607 
L 107.72804 172.472385 
L 110.800948 162.708244 
L 111.374454 160.776477 
L 113.079472 154.569658 
L 114.70699 150.665644 
L 116.466258 145.810103 
L 117.56677 143.797603 
L 117.993025 143.507986 
L 118.365029 143.52145 
L 118.872659 143.772811 
L 119.391915 144.331737 
L 121.065932 146.373907 
L 121.430186 146.354575 
L 121.759565 146.112435 
L 122.267195 145.373607 
L 123.19333 143.934076 
L 124.669721 142.250889 
L 125.289728 140.910215 
L 126.374739 138.486504 
L 127.211748 137.501524 
L 127.750379 136.766659 
L 128.428511 135.924366 
L 130.261406 133.893644 
L 130.757411 132.684309 
L 131.985799 129.452004 
L 132.474054 128.818435 
L 133.419564 128.165497 
L 133.934945 128.098777 
L 134.86883 128.075503 
L 135.198208 127.625632 
L 135.713589 126.45341 
L 136.616474 124.484376 
L 137.654985 122.561145 
L 138.104489 120.783321 
L 139.627381 113.153619 
L 140.611641 107.46338 
L 141.750903 101.155511 
L 142.36316 98.962624 
L 142.971541 97.590532 
L 144.936187 93.801674 
L 147.071335 88.982832 
L 147.582841 88.540178 
L 148.470225 88.057733 
L 149.187108 87.920823 
L 149.493236 88.277579 
L 149.927241 89.149133 
L 151.965513 94.291759 
L 153.069899 97.305578 
L 153.488404 97.881922 
L 153.841033 98.034421 
L 154.189786 97.968218 
L 155.387174 97.508015 
L 156.553562 97.876626 
L 156.871315 97.64743 
L 157.32082 96.977212 
L 158.429082 95.270212 
L 158.73521 95.208754 
L 159.037463 95.397467 
L 159.428842 95.941369 
L 159.932598 96.531788 
L 160.242601 96.567163 
L 160.552604 96.397913 
L 160.928483 95.885826 
L 161.672491 94.926861 
L 163.582887 92.632585 
L 164.090517 92.152994 
L 164.524522 92.063487 
L 164.962401 92.263145 
L 166.310916 92.956918 
L 166.636419 92.789024 
L 167.027798 92.304038 
L 167.678805 91.528624 
L 168.023684 91.503011 
L 168.55844 91.744224 
L 169.00407 91.81133 
L 169.457449 91.643306 
L 169.953455 91.222662 
L 170.348709 90.60761 
L 170.89509 89.25137 
L 171.588722 87.661213 
L 171.964601 87.327982 
L 172.386981 87.235783 
L 174.359377 87.474768 
L 174.940633 87.84594 
L 175.285512 87.969957 
L 175.572265 87.83265 
L 175.963644 87.360859 
L 176.696027 86.028571 
L 177.707413 84.539343 
L 179.730184 81.755502 
L 179.966562 81.821629 
L 180.245565 82.161188 
L 180.644694 83.045778 
L 182.183085 87.013132 
L 182.555089 87.348171 
L 182.834092 87.328958 
L 183.186721 87.031383 
L 184.124481 86.189759 
L 184.550736 86.250529 
L 186.089127 86.855847 
L 186.80601 87.123255 
L 187.263265 87.022821 
L 188.092524 86.770911 
L 188.460652 86.954643 
L 189.111659 87.604923 
L 189.720041 88.062335 
L 190.146295 88.107232 
L 190.52605 87.913655 
L 190.901929 87.45416 
L 191.432809 86.391035 
L 193.963211 80.605284 
L 194.435966 79.991113 
L 194.765345 79.892458 
L 195.106348 80.01435 
L 196.032483 80.465359 
L 196.702866 80.732306 
L 197.059369 81.146788 
L 197.652251 82.302878 
L 199.88815 86.601185 
L 200.186528 86.65686 
L 200.581782 86.458469 
L 201.535042 85.937988 
L 201.879921 86.055712 
L 203.476438 86.792221 
L 205.220207 86.647877 
L 205.596086 86.413475 
L 206.080466 85.823457 
L 206.615221 84.83821 
L 207.378605 82.842722 
L 208.265989 79.86337 
L 209.28125 75.783928 
L 210.354636 71.70022 
L 210.808016 70.800786 
L 211.19552 70.508517 
L 212.908289 69.705489 
L 213.295793 69.992109 
L 213.644547 70.5307 
L 214.144427 71.826888 
L 214.993061 73.844978 
L 215.465816 74.453109 
L 215.87657 74.648582 
L 216.938332 74.724281 
L 217.391712 75.281603 
L 218.16672 76.139821 
L 218.786726 76.906106 
L 219.476484 78.222749 
L 220.084865 79.190869 
L 220.731997 79.756112 
L 221.305503 80.48112 
L 222.204513 81.687704 
L 222.40989 81.596231 
L 222.688893 81.165607 
L 223.3089 79.720616 
L 223.81653 78.804249 
L 224.227285 78.542889 
L 224.796916 78.185006 
L 225.18442 77.619005 
L 225.6378 76.529988 
L 226.924313 73.266347 
L 227.524945 72.315238 
L 228.330953 71.505419 
L 229.284214 70.736324 
L 230.128973 70.108975 
L 230.644353 69.286348 
L 231.388361 68.096629 
L 231.694489 67.992104 
L 231.961867 68.13184 
L 232.597374 68.574631 
L 232.950003 68.549738 
L 233.287131 68.285467 
L 234.089265 67.522057 
L 234.395393 67.568514 
L 234.782897 67.880363 
L 236.662292 69.731848 
L 236.933545 69.678379 
L 237.259049 69.351505 
L 237.758929 68.468026 
L 239.006693 66.207338 
L 239.607324 65.523556 
L 240.161455 65.289967 
L 240.723336 65.229626 
L 241.180591 65.46061 
L 241.568095 65.876874 
L 242.172601 66.971138 
L 242.850734 67.985163 
L 243.168487 68.099531 
L 243.45524 67.952068 
L 244.43175 67.289528 
L 244.765004 67.389619 
L 246.012767 68.032877 
L 246.365396 67.763289 
L 246.7374 67.196951 
L 247.349657 65.804158 
L 248.705921 62.574699 
L 249.015924 62.450043 
L 249.50418 62.559992 
L 250.550441 62.92298 
L 250.91857 63.359422 
L 251.844705 64.558734 
L 252.208959 64.675484 
L 252.503462 64.548835 
L 252.852215 64.127603 
L 253.30172 63.205167 
L 254.487483 60.474144 
L 255.080364 59.848015 
L 255.63837 59.120551 
L 256.281627 57.852236 
L 257.122511 56.183656 
L 257.568141 55.750864 
L 257.92852 55.725865 
L 259.552162 55.909401 
L 260.420171 55.649426 
L 260.7883 55.872091 
L 261.206805 56.469151 
L 261.71831 57.105431 
L 262.020563 57.184627 
L 262.253066 57.006228 
L 262.555319 56.441174 
L 263.973584 53.405943 
L 264.465715 53.084318 
L 264.930719 53.039508 
L 266.38386 53.059702 
L 267.325495 52.826839 
L 267.918376 52.649627 
L 268.437632 52.225734 
L 269.243641 51.202362 
L 270.61928 49.276908 
L 271.037785 49.11059 
L 271.479539 49.192917 
L 272.03367 49.278559 
L 272.374674 49.072545 
L 273.455811 48.218904 
L 273.789064 48.375347 
L 274.254069 48.872365 
L 275.339081 50.074257 
L 276.083089 50.533492 
L 276.455093 50.509832 
L 276.985973 50.242488 
L 277.919858 49.73775 
L 279.163747 49.636617 
L 279.671377 49.913731 
L 280.361134 50.244292 
L 281.047017 50.574754 
L 281.903401 51.446877 
L 282.383906 51.736788 
L 283.046538 51.811699 
L 283.449542 51.6389 
L 284.026923 51.132913 
L 285.352188 49.895269 
L 285.832693 49.81293 
L 286.534075 49.904297 
L 287.154082 50.227427 
L 287.657837 50.727937 
L 288.084092 51.45746 
L 289.653484 54.527611 
L 290.707495 55.232754 
L 291.2345 55.485253 
L 293.389024 56.329265 
L 293.997405 57.116059 
L 296.132553 60.285764 
L 296.539432 60.473766 
L 296.899811 60.402141 
L 297.337691 60.061545 
L 299.775092 57.50952 
L 300.333098 56.273575 
L 301.100356 54.497582 
L 301.534361 53.965803 
L 301.960615 53.818065 
L 303.227754 53.579897 
L 304.25464 53.689094 
L 304.758395 53.415045 
L 305.266025 52.808914 
L 306.172785 51.392452 
L 306.967169 50.325904 
L 307.420548 49.991377 
L 307.885553 49.920856 
L 308.242057 50.082858 
L 308.710937 50.619016 
L 310.121452 52.469542 
L 310.768584 52.750518 
L 312.582104 53.726891 
L 313.581864 54.359797 
L 314.426623 54.403037 
L 314.926504 54.188567 
L 316.743898 53.161522 
L 317.817284 52.881144 
L 318.801545 52.659247 
L 319.514553 52.280783 
L 320.231435 51.631461 
L 321.18082 50.790411 
L 322.323958 50.023853 
L 323.238467 49.326157 
L 323.711222 49.305983 
L 324.172352 49.478463 
L 326.869381 51.201177 
L 327.411887 52.049209 
L 328.330272 53.476607 
L 328.67515 53.623648 
L 329.039404 53.528219 
L 329.779537 53.026588 
L 331.984436 51.547509 
L 333.232199 50.487007 
L 334.631089 49.661922 
L 335.282096 48.979604 
L 335.847852 48.140187 
L 336.932864 46.293457 
L 336.932864 46.293457 
" style="fill:none;stroke:#7251b5;stroke-linecap:square;stroke-width:2;"/>
   </g>
   <g id="patch_3">
    <path d="M 51.338438 249.101593 
L 51.338438 24.597656 
" style="fill:none;stroke:#000000;stroke-linecap:square;stroke-linejoin:miter;stroke-width:0.8;"/>
   </g>
   <g id="patch_4">
    <path d="M 336.928989 249.101593 
L 336.928989 24.597656 
" style="fill:none;stroke:#000000;stroke-linecap:square;stroke-linejoin:miter;stroke-width:0.8;"/>
   </g>
   <g id="patch_5">
    <path d="M 51.338438 249.101593 
L 336.928989 249.101593 
" style="fill:none;stroke:#000000;stroke-linecap:square;stroke-linejoin:miter;stroke-width:0.8;"/>
   </g>
   <g id="patch_6">
    <path d="M 51.338438 24.597656 
L 336.928989 24.597656 
" style="fill:none;stroke:#000000;stroke-linecap:square;stroke-linejoin:miter;stroke-width:0.8;"/>
   </g>
   <g id="text_17">
    <!-- plate-slide-v2 -->
    <g transform="translate(143.261447 18.597656)scale(0.15 -0.15)">
     <defs>
      <path d="M 9.421875 75.984375 
L 18.40625 75.984375 
L 18.40625 0 
L 9.421875 0 
z
" id="DejaVuSans-108"/>
      <path d="M 34.28125 27.484375 
Q 23.390625 27.484375 19.1875 25 
Q 14.984375 22.515625 14.984375 16.5 
Q 14.984375 11.71875 18.140625 8.90625 
Q 21.296875 6.109375 26.703125 6.109375 
Q 34.1875 6.109375 38.703125 11.40625 
Q 43.21875 16.703125 43.21875 25.484375 
L 43.21875 27.484375 
z
M 52.203125 31.203125 
L 52.203125 0 
L 43.21875 0 
L 43.21875 8.296875 
Q 40.140625 3.328125 35.546875 0.953125 
Q 30.953125 -1.421875 24.3125 -1.421875 
Q 15.921875 -1.421875 10.953125 3.296875 
Q 6 8.015625 6 15.921875 
Q 6 25.140625 12.171875 29.828125 
Q 18.359375 34.515625 30.609375 34.515625 
L 43.21875 34.515625 
L 43.21875 35.40625 
Q 43.21875 41.609375 39.140625 45 
Q 35.0625 48.390625 27.6875 48.390625 
Q 23 48.390625 18.546875 47.265625 
Q 14.109375 46.140625 10.015625 43.890625 
L 10.015625 52.203125 
Q 14.9375 54.109375 19.578125 55.046875 
Q 24.21875 56 28.609375 56 
Q 40.484375 56 46.34375 49.84375 
Q 52.203125 43.703125 52.203125 31.203125 
z
" id="DejaVuSans-97"/>
      <path d="M 4.890625 31.390625 
L 31.203125 31.390625 
L 31.203125 23.390625 
L 4.890625 23.390625 
z
" id="DejaVuSans-45"/>
      <path d="M 2.984375 54.6875 
L 12.5 54.6875 
L 29.59375 8.796875 
L 46.6875 54.6875 
L 56.203125 54.6875 
L 35.6875 0 
L 23.484375 0 
z
" id="DejaVuSans-118"/>
     </defs>
     <use xlink:href="#DejaVuSans-112"/>
     <use x="63.476562" xlink:href="#DejaVuSans-108"/>
     <use x="91.259766" xlink:href="#DejaVuSans-97"/>
     <use x="152.539062" xlink:href="#DejaVuSans-116"/>
     <use x="191.748047" xlink:href="#DejaVuSans-101"/>
     <use x="253.271484" xlink:href="#DejaVuSans-45"/>
     <use x="289.355469" xlink:href="#DejaVuSans-115"/>
     <use x="341.455078" xlink:href="#DejaVuSans-108"/>
     <use x="369.238281" xlink:href="#DejaVuSans-105"/>
     <use x="397.021484" xlink:href="#DejaVuSans-100"/>
     <use x="460.498047" xlink:href="#DejaVuSans-101"/>
     <use x="522.021484" xlink:href="#DejaVuSans-45"/>
     <use x="555.480469" xlink:href="#DejaVuSans-118"/>
     <use x="614.660156" xlink:href="#DejaVuSans-50"/>
    </g>
   </g>
   <g id="legend_1">
    <g id="patch_7">
     <path d="M 130.028989 244.101593 
L 329.928989 244.101593 
Q 331.928989 244.101593 331.928989 242.101593 
L 331.928989 184.389093 
Q 331.928989 182.389093 329.928989 182.389093 
L 130.028989 182.389093 
Q 128.028989 182.389093 128.028989 184.389093 
L 128.028989 242.101593 
Q 128.028989 244.101593 130.028989 244.101593 
z
" style="fill:#ffffff;opacity:0.8;stroke:#cccccc;stroke-linejoin:miter;"/>
    </g>
    <g id="line2d_33">
     <path d="M 132.028989 190.487531 
L 152.028989 190.487531 
" style="fill:none;stroke:#dd0a34;stroke-dasharray:2,2;stroke-dashoffset:0;stroke-width:2;"/>
    </g>
    <g id="line2d_34"/>
    <g id="text_18">
     <!-- D-COACH, $K$: 15,000, $e$: 1, rel -->
     <g transform="translate(160.028989 193.987531)scale(0.1 -0.1)">
      <defs>
       <path d="M 19.671875 64.796875 
L 19.671875 8.109375 
L 31.59375 8.109375 
Q 46.6875 8.109375 53.6875 14.9375 
Q 60.6875 21.78125 60.6875 36.53125 
Q 60.6875 51.171875 53.6875 57.984375 
Q 46.6875 64.796875 31.59375 64.796875 
z
M 9.8125 72.90625 
L 30.078125 72.90625 
Q 51.265625 72.90625 61.171875 64.09375 
Q 71.09375 55.28125 71.09375 36.53125 
Q 71.09375 17.671875 61.125 8.828125 
Q 51.171875 0 30.078125 0 
L 9.8125 0 
z
" id="DejaVuSans-68"/>
       <path d="M 64.40625 67.28125 
L 64.40625 56.890625 
Q 59.421875 61.53125 53.78125 63.8125 
Q 48.140625 66.109375 41.796875 66.109375 
Q 29.296875 66.109375 22.65625 58.46875 
Q 16.015625 50.828125 16.015625 36.375 
Q 16.015625 21.96875 22.65625 14.328125 
Q 29.296875 6.6875 41.796875 6.6875 
Q 48.140625 6.6875 53.78125 8.984375 
Q 59.421875 11.28125 64.40625 15.921875 
L 64.40625 5.609375 
Q 59.234375 2.09375 53.4375 0.328125 
Q 47.65625 -1.421875 41.21875 -1.421875 
Q 24.65625 -1.421875 15.125 8.703125 
Q 5.609375 18.84375 5.609375 36.375 
Q 5.609375 53.953125 15.125 64.078125 
Q 24.65625 74.21875 41.21875 74.21875 
Q 47.75 74.21875 53.53125 72.484375 
Q 59.328125 70.75 64.40625 67.28125 
z
" id="DejaVuSans-67"/>
       <path d="M 39.40625 66.21875 
Q 28.65625 66.21875 22.328125 58.203125 
Q 16.015625 50.203125 16.015625 36.375 
Q 16.015625 22.609375 22.328125 14.59375 
Q 28.65625 6.59375 39.40625 6.59375 
Q 50.140625 6.59375 56.421875 14.59375 
Q 62.703125 22.609375 62.703125 36.375 
Q 62.703125 50.203125 56.421875 58.203125 
Q 50.140625 66.21875 39.40625 66.21875 
z
M 39.40625 74.21875 
Q 54.734375 74.21875 63.90625 63.9375 
Q 73.09375 53.65625 73.09375 36.375 
Q 73.09375 19.140625 63.90625 8.859375 
Q 54.734375 -1.421875 39.40625 -1.421875 
Q 24.03125 -1.421875 14.8125 8.828125 
Q 5.609375 19.09375 5.609375 36.375 
Q 5.609375 53.65625 14.8125 63.9375 
Q 24.03125 74.21875 39.40625 74.21875 
z
" id="DejaVuSans-79"/>
       <path d="M 34.1875 63.1875 
L 20.796875 26.90625 
L 47.609375 26.90625 
z
M 28.609375 72.90625 
L 39.796875 72.90625 
L 67.578125 0 
L 57.328125 0 
L 50.6875 18.703125 
L 17.828125 18.703125 
L 11.1875 0 
L 0.78125 0 
z
" id="DejaVuSans-65"/>
       <path d="M 9.8125 72.90625 
L 19.671875 72.90625 
L 19.671875 43.015625 
L 55.515625 43.015625 
L 55.515625 72.90625 
L 65.375 72.90625 
L 65.375 0 
L 55.515625 0 
L 55.515625 34.71875 
L 19.671875 34.71875 
L 19.671875 0 
L 9.8125 0 
z
" id="DejaVuSans-72"/>
       <path d="M 11.71875 12.40625 
L 22.015625 12.40625 
L 22.015625 4 
L 14.015625 -11.625 
L 7.71875 -11.625 
L 11.71875 4 
z
" id="DejaVuSans-44"/>
       <path d="M 16.890625 72.90625 
L 26.8125 72.90625 
L 20.796875 42.1875 
L 59.078125 72.90625 
L 72.21875 72.90625 
L 28.90625 38.09375 
L 60.59375 0 
L 48.578125 0 
L 19.484375 35.5 
L 12.59375 0 
L 2.6875 0 
z
" id="DejaVuSans-Oblique-75"/>
       <path d="M 11.71875 12.40625 
L 22.015625 12.40625 
L 22.015625 0 
L 11.71875 0 
z
M 11.71875 51.703125 
L 22.015625 51.703125 
L 22.015625 39.3125 
L 11.71875 39.3125 
z
" id="DejaVuSans-58"/>
       <path d="M 48.09375 32.234375 
Q 48.25 33.015625 48.3125 33.84375 
Q 48.390625 34.671875 48.390625 35.5 
Q 48.390625 41.453125 44.890625 44.921875 
Q 41.40625 48.390625 35.40625 48.390625 
Q 28.71875 48.390625 23.578125 44.15625 
Q 18.453125 39.9375 15.828125 32.171875 
z
M 55.90625 25.203125 
L 14.109375 25.203125 
Q 13.8125 23.34375 13.71875 22.265625 
Q 13.625 21.1875 13.625 20.40625 
Q 13.625 13.625 17.796875 9.90625 
Q 21.96875 6.203125 29.59375 6.203125 
Q 35.453125 6.203125 40.671875 7.515625 
Q 45.90625 8.84375 50.390625 11.375 
L 48.6875 2.484375 
Q 43.84375 0.53125 38.6875 -0.4375 
Q 33.546875 -1.421875 28.21875 -1.421875 
Q 16.84375 -1.421875 10.71875 4.015625 
Q 4.59375 9.46875 4.59375 19.484375 
Q 4.59375 28.03125 7.640625 35.375 
Q 10.6875 42.71875 16.609375 48.484375 
Q 20.40625 52.09375 25.65625 54.046875 
Q 30.90625 56 36.8125 56 
Q 46.09375 56 51.578125 50.4375 
Q 57.078125 44.875 57.078125 35.5 
Q 57.078125 33.25 56.78125 30.6875 
Q 56.5 28.125 55.90625 25.203125 
z
" id="DejaVuSans-Oblique-101"/>
      </defs>
      <use transform="translate(0 0.015625)" xlink:href="#DejaVuSans-68"/>
      <use transform="translate(77.001953 0.015625)" xlink:href="#DejaVuSans-45"/>
      <use transform="translate(113.085938 0.015625)" xlink:href="#DejaVuSans-67"/>
      <use transform="translate(182.910156 0.015625)" xlink:href="#DejaVuSans-79"/>
      <use transform="translate(261.621094 0.015625)" xlink:href="#DejaVuSans-65"/>
      <use transform="translate(330.029297 0.015625)" xlink:href="#DejaVuSans-67"/>
      <use transform="translate(399.853516 0.015625)" xlink:href="#DejaVuSans-72"/>
      <use transform="translate(475.048828 0.015625)" xlink:href="#DejaVuSans-44"/>
      <use transform="translate(506.835938 0.015625)" xlink:href="#DejaVuSans-32"/>
      <use transform="translate(538.623047 0.015625)" xlink:href="#DejaVuSans-Oblique-75"/>
      <use transform="translate(604.199219 0.015625)" xlink:href="#DejaVuSans-58"/>
      <use transform="translate(637.890625 0.015625)" xlink:href="#DejaVuSans-32"/>
      <use transform="translate(669.677734 0.015625)" xlink:href="#DejaVuSans-49"/>
      <use transform="translate(733.300781 0.015625)" xlink:href="#DejaVuSans-53"/>
      <use transform="translate(796.923828 0.015625)" xlink:href="#DejaVuSans-44"/>
      <use transform="translate(828.710938 0.015625)" xlink:href="#DejaVuSans-48"/>
      <use transform="translate(892.333984 0.015625)" xlink:href="#DejaVuSans-48"/>
      <use transform="translate(955.957031 0.015625)" xlink:href="#DejaVuSans-48"/>
      <use transform="translate(1019.580078 0.015625)" xlink:href="#DejaVuSans-44"/>
      <use transform="translate(1051.367188 0.015625)" xlink:href="#DejaVuSans-32"/>
      <use transform="translate(1083.154297 0.015625)" xlink:href="#DejaVuSans-Oblique-101"/>
      <use transform="translate(1144.677734 0.015625)" xlink:href="#DejaVuSans-58"/>
      <use transform="translate(1178.369141 0.015625)" xlink:href="#DejaVuSans-32"/>
      <use transform="translate(1210.15625 0.015625)" xlink:href="#DejaVuSans-49"/>
      <use transform="translate(1273.779297 0.015625)" xlink:href="#DejaVuSans-44"/>
      <use transform="translate(1305.566406 0.015625)" xlink:href="#DejaVuSans-32"/>
      <use transform="translate(1337.353516 0.015625)" xlink:href="#DejaVuSans-114"/>
      <use transform="translate(1378.466797 0.015625)" xlink:href="#DejaVuSans-101"/>
      <use transform="translate(1439.990234 0.015625)" xlink:href="#DejaVuSans-108"/>
     </g>
    </g>
    <g id="line2d_35">
     <path d="M 132.028989 205.165656 
L 152.028989 205.165656 
" style="fill:none;stroke:#dd0a34;stroke-linecap:square;stroke-width:2;"/>
    </g>
    <g id="line2d_36"/>
    <g id="text_19">
     <!-- D-COACH, $K$: 15,000, $e$: 1, abs -->
     <g transform="translate(160.028989 208.665656)scale(0.1 -0.1)">
      <defs>
       <path d="M 48.6875 27.296875 
Q 48.6875 37.203125 44.609375 42.84375 
Q 40.53125 48.484375 33.40625 48.484375 
Q 26.265625 48.484375 22.1875 42.84375 
Q 18.109375 37.203125 18.109375 27.296875 
Q 18.109375 17.390625 22.1875 11.75 
Q 26.265625 6.109375 33.40625 6.109375 
Q 40.53125 6.109375 44.609375 11.75 
Q 48.6875 17.390625 48.6875 27.296875 
z
M 18.109375 46.390625 
Q 20.953125 51.265625 25.265625 53.625 
Q 29.59375 56 35.59375 56 
Q 45.5625 56 51.78125 48.09375 
Q 58.015625 40.1875 58.015625 27.296875 
Q 58.015625 14.40625 51.78125 6.484375 
Q 45.5625 -1.421875 35.59375 -1.421875 
Q 29.59375 -1.421875 25.265625 0.953125 
Q 20.953125 3.328125 18.109375 8.203125 
L 18.109375 0 
L 9.078125 0 
L 9.078125 75.984375 
L 18.109375 75.984375 
z
" id="DejaVuSans-98"/>
      </defs>
      <use transform="translate(0 0.015625)" xlink:href="#DejaVuSans-68"/>
      <use transform="translate(77.001953 0.015625)" xlink:href="#DejaVuSans-45"/>
      <use transform="translate(113.085938 0.015625)" xlink:href="#DejaVuSans-67"/>
      <use transform="translate(182.910156 0.015625)" xlink:href="#DejaVuSans-79"/>
      <use transform="translate(261.621094 0.015625)" xlink:href="#DejaVuSans-65"/>
      <use transform="translate(330.029297 0.015625)" xlink:href="#DejaVuSans-67"/>
      <use transform="translate(399.853516 0.015625)" xlink:href="#DejaVuSans-72"/>
      <use transform="translate(475.048828 0.015625)" xlink:href="#DejaVuSans-44"/>
      <use transform="translate(506.835938 0.015625)" xlink:href="#DejaVuSans-32"/>
      <use transform="translate(538.623047 0.015625)" xlink:href="#DejaVuSans-Oblique-75"/>
      <use transform="translate(604.199219 0.015625)" xlink:href="#DejaVuSans-58"/>
      <use transform="translate(637.890625 0.015625)" xlink:href="#DejaVuSans-32"/>
      <use transform="translate(669.677734 0.015625)" xlink:href="#DejaVuSans-49"/>
      <use transform="translate(733.300781 0.015625)" xlink:href="#DejaVuSans-53"/>
      <use transform="translate(796.923828 0.015625)" xlink:href="#DejaVuSans-44"/>
      <use transform="translate(828.710938 0.015625)" xlink:href="#DejaVuSans-48"/>
      <use transform="translate(892.333984 0.015625)" xlink:href="#DejaVuSans-48"/>
      <use transform="translate(955.957031 0.015625)" xlink:href="#DejaVuSans-48"/>
      <use transform="translate(1019.580078 0.015625)" xlink:href="#DejaVuSans-44"/>
      <use transform="translate(1051.367188 0.015625)" xlink:href="#DejaVuSans-32"/>
      <use transform="translate(1083.154297 0.015625)" xlink:href="#DejaVuSans-Oblique-101"/>
      <use transform="translate(1144.677734 0.015625)" xlink:href="#DejaVuSans-58"/>
      <use transform="translate(1178.369141 0.015625)" xlink:href="#DejaVuSans-32"/>
      <use transform="translate(1210.15625 0.015625)" xlink:href="#DejaVuSans-49"/>
      <use transform="translate(1273.779297 0.015625)" xlink:href="#DejaVuSans-44"/>
      <use transform="translate(1305.566406 0.015625)" xlink:href="#DejaVuSans-32"/>
      <use transform="translate(1337.353516 0.015625)" xlink:href="#DejaVuSans-97"/>
      <use transform="translate(1398.632812 0.015625)" xlink:href="#DejaVuSans-98"/>
      <use transform="translate(1462.109375 0.015625)" xlink:href="#DejaVuSans-115"/>
     </g>
    </g>
    <g id="line2d_37">
     <path d="M 132.028989 219.843781 
L 152.028989 219.843781 
" style="fill:none;stroke:#7251b5;stroke-dasharray:2,2;stroke-dashoffset:0;stroke-width:2;"/>
    </g>
    <g id="line2d_38"/>
    <g id="text_20">
     <!-- BD-COACH, $K$: 30,000, $e$: 0.1, rel -->
     <g transform="translate(160.028989 223.343781)scale(0.1 -0.1)">
      <defs>
       <path d="M 19.671875 34.8125 
L 19.671875 8.109375 
L 35.5 8.109375 
Q 43.453125 8.109375 47.28125 11.40625 
Q 51.125 14.703125 51.125 21.484375 
Q 51.125 28.328125 47.28125 31.5625 
Q 43.453125 34.8125 35.5 34.8125 
z
M 19.671875 64.796875 
L 19.671875 42.828125 
L 34.28125 42.828125 
Q 41.5 42.828125 45.03125 45.53125 
Q 48.578125 48.25 48.578125 53.8125 
Q 48.578125 59.328125 45.03125 62.0625 
Q 41.5 64.796875 34.28125 64.796875 
z
M 9.8125 72.90625 
L 35.015625 72.90625 
Q 46.296875 72.90625 52.390625 68.21875 
Q 58.5 63.53125 58.5 54.890625 
Q 58.5 48.1875 55.375 44.234375 
Q 52.25 40.28125 46.1875 39.3125 
Q 53.46875 37.75 57.5 32.78125 
Q 61.53125 27.828125 61.53125 20.40625 
Q 61.53125 10.640625 54.890625 5.3125 
Q 48.25 0 35.984375 0 
L 9.8125 0 
z
" id="DejaVuSans-66"/>
       <path d="M 10.6875 12.40625 
L 21 12.40625 
L 21 0 
L 10.6875 0 
z
" id="DejaVuSans-46"/>
      </defs>
      <use transform="translate(0 0.015625)" xlink:href="#DejaVuSans-66"/>
      <use transform="translate(68.603516 0.015625)" xlink:href="#DejaVuSans-68"/>
      <use transform="translate(145.605469 0.015625)" xlink:href="#DejaVuSans-45"/>
      <use transform="translate(181.689453 0.015625)" xlink:href="#DejaVuSans-67"/>
      <use transform="translate(251.513672 0.015625)" xlink:href="#DejaVuSans-79"/>
      <use transform="translate(330.224609 0.015625)" xlink:href="#DejaVuSans-65"/>
      <use transform="translate(398.632812 0.015625)" xlink:href="#DejaVuSans-67"/>
      <use transform="translate(468.457031 0.015625)" xlink:href="#DejaVuSans-72"/>
      <use transform="translate(543.652344 0.015625)" xlink:href="#DejaVuSans-44"/>
      <use transform="translate(575.439453 0.015625)" xlink:href="#DejaVuSans-32"/>
      <use transform="translate(607.226562 0.015625)" xlink:href="#DejaVuSans-Oblique-75"/>
      <use transform="translate(672.802734 0.015625)" xlink:href="#DejaVuSans-58"/>
      <use transform="translate(706.494141 0.015625)" xlink:href="#DejaVuSans-32"/>
      <use transform="translate(738.28125 0.015625)" xlink:href="#DejaVuSans-51"/>
      <use transform="translate(801.904297 0.015625)" xlink:href="#DejaVuSans-48"/>
      <use transform="translate(865.527344 0.015625)" xlink:href="#DejaVuSans-44"/>
      <use transform="translate(897.314453 0.015625)" xlink:href="#DejaVuSans-48"/>
      <use transform="translate(960.9375 0.015625)" xlink:href="#DejaVuSans-48"/>
      <use transform="translate(1024.560547 0.015625)" xlink:href="#DejaVuSans-48"/>
      <use transform="translate(1088.183594 0.015625)" xlink:href="#DejaVuSans-44"/>
      <use transform="translate(1119.970703 0.015625)" xlink:href="#DejaVuSans-32"/>
      <use transform="translate(1151.757812 0.015625)" xlink:href="#DejaVuSans-Oblique-101"/>
      <use transform="translate(1213.28125 0.015625)" xlink:href="#DejaVuSans-58"/>
      <use transform="translate(1246.972656 0.015625)" xlink:href="#DejaVuSans-32"/>
      <use transform="translate(1278.759766 0.015625)" xlink:href="#DejaVuSans-48"/>
      <use transform="translate(1342.382812 0.015625)" xlink:href="#DejaVuSans-46"/>
      <use transform="translate(1374.169922 0.015625)" xlink:href="#DejaVuSans-49"/>
      <use transform="translate(1437.792969 0.015625)" xlink:href="#DejaVuSans-44"/>
      <use transform="translate(1469.580078 0.015625)" xlink:href="#DejaVuSans-32"/>
      <use transform="translate(1501.367188 0.015625)" xlink:href="#DejaVuSans-114"/>
      <use transform="translate(1542.480469 0.015625)" xlink:href="#DejaVuSans-101"/>
      <use transform="translate(1604.003906 0.015625)" xlink:href="#DejaVuSans-108"/>
     </g>
    </g>
    <g id="line2d_39">
     <path d="M 132.028989 234.521906 
L 152.028989 234.521906 
" style="fill:none;stroke:#7251b5;stroke-linecap:square;stroke-width:2;"/>
    </g>
    <g id="line2d_40"/>
    <g id="text_21">
     <!-- BD-COACH, $K$: 30,000, $e$: 0.1, abs -->
     <g transform="translate(160.028989 238.021906)scale(0.1 -0.1)">
      <use transform="translate(0 0.015625)" xlink:href="#DejaVuSans-66"/>
      <use transform="translate(68.603516 0.015625)" xlink:href="#DejaVuSans-68"/>
      <use transform="translate(145.605469 0.015625)" xlink:href="#DejaVuSans-45"/>
      <use transform="translate(181.689453 0.015625)" xlink:href="#DejaVuSans-67"/>
      <use transform="translate(251.513672 0.015625)" xlink:href="#DejaVuSans-79"/>
      <use transform="translate(330.224609 0.015625)" xlink:href="#DejaVuSans-65"/>
      <use transform="translate(398.632812 0.015625)" xlink:href="#DejaVuSans-67"/>
      <use transform="translate(468.457031 0.015625)" xlink:href="#DejaVuSans-72"/>
      <use transform="translate(543.652344 0.015625)" xlink:href="#DejaVuSans-44"/>
      <use transform="translate(575.439453 0.015625)" xlink:href="#DejaVuSans-32"/>
      <use transform="translate(607.226562 0.015625)" xlink:href="#DejaVuSans-Oblique-75"/>
      <use transform="translate(672.802734 0.015625)" xlink:href="#DejaVuSans-58"/>
      <use transform="translate(706.494141 0.015625)" xlink:href="#DejaVuSans-32"/>
      <use transform="translate(738.28125 0.015625)" xlink:href="#DejaVuSans-51"/>
      <use transform="translate(801.904297 0.015625)" xlink:href="#DejaVuSans-48"/>
      <use transform="translate(865.527344 0.015625)" xlink:href="#DejaVuSans-44"/>
      <use transform="translate(897.314453 0.015625)" xlink:href="#DejaVuSans-48"/>
      <use transform="translate(960.9375 0.015625)" xlink:href="#DejaVuSans-48"/>
      <use transform="translate(1024.560547 0.015625)" xlink:href="#DejaVuSans-48"/>
      <use transform="translate(1088.183594 0.015625)" xlink:href="#DejaVuSans-44"/>
      <use transform="translate(1119.970703 0.015625)" xlink:href="#DejaVuSans-32"/>
      <use transform="translate(1151.757812 0.015625)" xlink:href="#DejaVuSans-Oblique-101"/>
      <use transform="translate(1213.28125 0.015625)" xlink:href="#DejaVuSans-58"/>
      <use transform="translate(1246.972656 0.015625)" xlink:href="#DejaVuSans-32"/>
      <use transform="translate(1278.759766 0.015625)" xlink:href="#DejaVuSans-48"/>
      <use transform="translate(1342.382812 0.015625)" xlink:href="#DejaVuSans-46"/>
      <use transform="translate(1374.169922 0.015625)" xlink:href="#DejaVuSans-49"/>
      <use transform="translate(1437.792969 0.015625)" xlink:href="#DejaVuSans-44"/>
      <use transform="translate(1469.580078 0.015625)" xlink:href="#DejaVuSans-32"/>
      <use transform="translate(1501.367188 0.015625)" xlink:href="#DejaVuSans-97"/>
      <use transform="translate(1562.646484 0.015625)" xlink:href="#DejaVuSans-98"/>
      <use transform="translate(1626.123047 0.015625)" xlink:href="#DejaVuSans-115"/>
     </g>
    </g>
   </g>
  </g>
  <g id="axes_2">
   <g id="matplotlib.axis_3">
    <g id="xtick_9">
     <g id="line2d_41">
      <g>
       <use style="stroke:#000000;stroke-width:0.8;" x="55.213479" xlink:href="#mf4a361144e" y="289.101593"/>
      </g>
     </g>
     <g id="text_22">
      <!-- 0 -->
      <g transform="translate(52.28483 304.225645)rotate(-5)scale(0.1 -0.1)">
       <use xlink:href="#DejaVuSans-48"/>
      </g>
     </g>
    </g>
    <g id="xtick_10">
     <g id="line2d_42">
      <g>
       <use style="stroke:#000000;stroke-width:0.8;" x="92.413876" xlink:href="#mf4a361144e" y="289.101593"/>
      </g>
     </g>
     <g id="text_23">
      <!-- 2 -->
      <g transform="translate(89.485227 304.225645)rotate(-5)scale(0.1 -0.1)">
       <use xlink:href="#DejaVuSans-50"/>
      </g>
     </g>
    </g>
    <g id="xtick_11">
     <g id="line2d_43">
      <g>
       <use style="stroke:#000000;stroke-width:0.8;" x="129.614274" xlink:href="#mf4a361144e" y="289.101593"/>
      </g>
     </g>
     <g id="text_24">
      <!-- 4 -->
      <g transform="translate(126.685625 304.225645)rotate(-5)scale(0.1 -0.1)">
       <use xlink:href="#DejaVuSans-52"/>
      </g>
     </g>
    </g>
    <g id="xtick_12">
     <g id="line2d_44">
      <g>
       <use style="stroke:#000000;stroke-width:0.8;" x="166.814671" xlink:href="#mf4a361144e" y="289.101593"/>
      </g>
     </g>
     <g id="text_25">
      <!-- 6 -->
      <g transform="translate(163.886022 304.225645)rotate(-5)scale(0.1 -0.1)">
       <use xlink:href="#DejaVuSans-54"/>
      </g>
     </g>
    </g>
    <g id="xtick_13">
     <g id="line2d_45">
      <g>
       <use style="stroke:#000000;stroke-width:0.8;" x="204.015069" xlink:href="#mf4a361144e" y="289.101593"/>
      </g>
     </g>
     <g id="text_26">
      <!-- 8 -->
      <g transform="translate(201.08642 304.225645)rotate(-5)scale(0.1 -0.1)">
       <use xlink:href="#DejaVuSans-56"/>
      </g>
     </g>
    </g>
    <g id="xtick_14">
     <g id="line2d_46">
      <g>
       <use style="stroke:#000000;stroke-width:0.8;" x="241.215466" xlink:href="#mf4a361144e" y="289.101593"/>
      </g>
     </g>
     <g id="text_27">
      <!-- 10 -->
      <g transform="translate(235.117673 304.780173)rotate(-5)scale(0.1 -0.1)">
       <use xlink:href="#DejaVuSans-49"/>
       <use x="63.623047" xlink:href="#DejaVuSans-48"/>
      </g>
     </g>
    </g>
    <g id="xtick_15">
     <g id="line2d_47">
      <g>
       <use style="stroke:#000000;stroke-width:0.8;" x="278.415864" xlink:href="#mf4a361144e" y="289.101593"/>
      </g>
     </g>
     <g id="text_28">
      <!-- 12 -->
      <g transform="translate(272.31807 304.780173)rotate(-5)scale(0.1 -0.1)">
       <use xlink:href="#DejaVuSans-49"/>
       <use x="63.623047" xlink:href="#DejaVuSans-50"/>
      </g>
     </g>
    </g>
    <g id="xtick_16">
     <g id="line2d_48">
      <g>
       <use style="stroke:#000000;stroke-width:0.8;" x="315.616261" xlink:href="#mf4a361144e" y="289.101593"/>
      </g>
     </g>
     <g id="text_29">
      <!-- 14 -->
      <g transform="translate(309.518468 304.780173)rotate(-5)scale(0.1 -0.1)">
       <use xlink:href="#DejaVuSans-49"/>
       <use x="63.623047" xlink:href="#DejaVuSans-52"/>
      </g>
     </g>
    </g>
    <g id="text_30">
     <!-- Time (min) -->
     <g transform="translate(153.405197 322.249603)scale(0.15 -0.15)">
      <defs>
       <path d="M 31 75.875 
Q 24.46875 64.65625 21.28125 53.65625 
Q 18.109375 42.671875 18.109375 31.390625 
Q 18.109375 20.125 21.3125 9.0625 
Q 24.515625 -2 31 -13.1875 
L 23.1875 -13.1875 
Q 15.875 -1.703125 12.234375 9.375 
Q 8.59375 20.453125 8.59375 31.390625 
Q 8.59375 42.28125 12.203125 53.3125 
Q 15.828125 64.359375 23.1875 75.875 
z
" id="DejaVuSans-40"/>
       <path d="M 54.890625 33.015625 
L 54.890625 0 
L 45.90625 0 
L 45.90625 32.71875 
Q 45.90625 40.484375 42.875 44.328125 
Q 39.84375 48.1875 33.796875 48.1875 
Q 26.515625 48.1875 22.3125 43.546875 
Q 18.109375 38.921875 18.109375 30.90625 
L 18.109375 0 
L 9.078125 0 
L 9.078125 54.6875 
L 18.109375 54.6875 
L 18.109375 46.1875 
Q 21.34375 51.125 25.703125 53.5625 
Q 30.078125 56 35.796875 56 
Q 45.21875 56 50.046875 50.171875 
Q 54.890625 44.34375 54.890625 33.015625 
z
" id="DejaVuSans-110"/>
       <path d="M 8.015625 75.875 
L 15.828125 75.875 
Q 23.140625 64.359375 26.78125 53.3125 
Q 30.421875 42.28125 30.421875 31.390625 
Q 30.421875 20.453125 26.78125 9.375 
Q 23.140625 -1.703125 15.828125 -13.1875 
L 8.015625 -13.1875 
Q 14.5 -2 17.703125 9.0625 
Q 20.90625 20.125 20.90625 31.390625 
Q 20.90625 42.671875 17.703125 53.65625 
Q 14.5 64.65625 8.015625 75.875 
z
" id="DejaVuSans-41"/>
      </defs>
      <use xlink:href="#DejaVuSans-84"/>
      <use x="57.958984" xlink:href="#DejaVuSans-105"/>
      <use x="85.742188" xlink:href="#DejaVuSans-109"/>
      <use x="183.154297" xlink:href="#DejaVuSans-101"/>
      <use x="244.677734" xlink:href="#DejaVuSans-32"/>
      <use x="276.464844" xlink:href="#DejaVuSans-40"/>
      <use x="315.478516" xlink:href="#DejaVuSans-109"/>
      <use x="412.890625" xlink:href="#DejaVuSans-105"/>
      <use x="440.673828" xlink:href="#DejaVuSans-110"/>
      <use x="504.052734" xlink:href="#DejaVuSans-41"/>
     </g>
    </g>
   </g>
   <g id="patch_8">
    <path d="M 51.338438 249.101593 
L 51.338438 24.597656 
" style="fill:none;stroke:#000000;stroke-linecap:square;stroke-linejoin:miter;stroke-width:0.8;"/>
   </g>
   <g id="patch_9">
    <path d="M 336.928989 249.101593 
L 336.928989 24.597656 
" style="fill:none;stroke:#000000;stroke-linecap:square;stroke-linejoin:miter;stroke-width:0.8;"/>
   </g>
   <g id="patch_10">
    <path d="M 51.338438 289.101593 
L 336.928989 289.101593 
" style="fill:none;stroke:#000000;stroke-linecap:square;stroke-linejoin:miter;stroke-width:0.8;"/>
   </g>
   <g id="patch_11">
    <path d="M 51.338438 24.597656 
L 336.928989 24.597656 
" style="fill:none;stroke:#000000;stroke-linecap:square;stroke-linejoin:miter;stroke-width:0.8;"/>
   </g>
  </g>
 </g>
 <defs>
  <clipPath id="pfff52ea822">
   <rect height="224.503937" width="285.590551" x="51.338438" y="24.597656"/>
  </clipPath>
 </defs>
</svg>
