<svg version="1.1" viewBox="0.0 0.0 415.748031496063 151.1811023622047" fill="none" stroke="none" stroke-linecap="square" stroke-miterlimit="10" xmlns:xlink="http://www.w3.org/1999/xlink" xmlns="http://www.w3.org/2000/svg"><clipPath id="gf850932200_1_64.0"><path d="m0 0l415.74802 0l0 151.1811l-415.74802 0l0 -151.1811z" clip-rule="nonzero"/></clipPath><g clip-path="url(#gf850932200_1_64.0)"><path fill="#ffffff" d="m0 0l415.74802 0l0 151.1811l-415.74802 0z" fill-rule="evenodd"/><path fill="#595959" d="m27.666437 67.70442l0 0c0 -0.5419464 0.43933296 -0.98127747 0.9812794 -0.98127747l22.215683 0c0.2602501 0 0.5098419 0.103385925 0.69387054 0.28740692c0.18402481 0.18402863 0.28741074 0.43362427 0.28741074 0.69387054l0 3.925003c0 0.5419464 -0.43933487 0.98127747 -0.9812813 0.98127747l-22.215683 0c-0.5419464 0 -0.9812794 -0.43933105 -0.9812794 -0.98127747z" fill-rule="evenodd"/><path stroke="#595959" stroke-width="1.0" stroke-linejoin="round" stroke-linecap="butt" d="m27.666437 67.70442l0 0c0 -0.5419464 0.43933296 -0.98127747 0.9812794 -0.98127747l22.215683 0c0.2602501 0 0.5098419 0.103385925 0.69387054 0.28740692c0.18402481 0.18402863 0.28741074 0.43362427 0.28741074 0.69387054l0 3.925003c0 0.5419464 -0.43933487 0.98127747 -0.9812813 0.98127747l-22.215683 0c-0.5419464 0 -0.9812794 -0.43933105 -0.9812794 -0.98127747z" fill-rule="evenodd"/><path fill="#595959" d="m27.666437 139.49121l0 0c0 -0.9044342 0.7331886 -1.6376343 1.6376247 -1.6376343l11.666065 0c0.43432617 0 0.8508644 0.17254639 1.157978 0.47966003c0.30711365 0.30711365 0.4796486 0.7236481 0.4796486 1.1579742l0 2.6123047c0 0.9044342 -0.7331886 1.637619 -1.6376266 1.637619l-11.666065 0l0 0c-0.9044361 0 -1.6376247 -0.7331848 -1.6376247 -1.637619z" fill-rule="evenodd"/><path stroke="#595959" stroke-width="1.0" stroke-linejoin="round" stroke-linecap="butt" d="m27.666437 139.49121l0 0c0 -0.9044342 0.7331886 -1.6376343 1.6376247 -1.6376343l11.666065 0c0.43432617 0 0.8508644 0.17254639 1.157978 0.47966003c0.30711365 0.30711365 0.4796486 0.7236481 0.4796486 1.1579742l0 2.6123047c0 0.9044342 -0.7331886 1.637619 -1.6376266 1.637619l-11.666065 0l0 0c-0.9044361 0 -1.6376247 -0.7331848 -1.6376247 -1.637619z" fill-rule="evenodd"/><path fill="#595959" d="m27.666437 109.85064l0 0c0 -0.992363 0.80446815 -1.7968292 1.7968311 -1.7968292l7.187111 0l0 0c0.47655106 0 0.9335823 0.18930817 1.2705536 0.52627563c0.33697128 0.3369751 0.52627945 0.79400635 0.52627945 1.2705536l0 30.475685c0 0.99235535 -0.80447006 1.7968292 -1.796833 1.7968292l-7.187111 0c-0.992363 0 -1.7968311 -0.8044739 -1.7968311 -1.7968292z" fill-rule="evenodd"/><path stroke="#595959" stroke-width="1.0" stroke-linejoin="round" stroke-linecap="butt" d="m27.666437 109.85064l0 0c0 -0.992363 0.80446815 -1.7968292 1.7968311 -1.7968292l7.187111 0l0 0c0.47655106 0 0.9335823 0.18930817 1.2705536 0.52627563c0.33697128 0.3369751 0.52627945 0.79400635 0.52627945 1.2705536l0 30.475685c0 0.99235535 -0.80447006 1.7968292 -1.796833 1.7968292l-7.187111 0c-0.992363 0 -1.7968311 -0.8044739 -1.7968311 -1.7968292z" fill-rule="evenodd"/><path fill="#595959" d="m24.526405 54.681995l0 0c0 -4.9930267 4.0476475 -9.040672 9.040672 -9.040672l0 0c2.3977356 0 4.6972694 0.9524956 6.392723 2.647953c1.6954536 1.6954536 2.647953 3.9949837 2.647953 6.3927193l0 0c0 4.9930267 -4.0476494 9.040676 -9.040676 9.040676l0 0c-4.993025 0 -9.040672 -4.0476494 -9.040672 -9.040676z" fill-rule="evenodd"/><path stroke="#595959" stroke-width="1.0" stroke-linejoin="round" stroke-linecap="butt" d="m24.526405 54.681995l0 0c0 -4.9930267 4.0476475 -9.040672 9.040672 -9.040672l0 0c2.3977356 0 4.6972694 0.9524956 6.392723 2.647953c1.6954536 1.6954536 2.647953 3.9949837 2.647953 6.3927193l0 0c0 4.9930267 -4.0476494 9.040676 -9.040676 9.040676l0 0c-4.993025 0 -9.040672 -4.0476494 -9.040672 -9.040676z" fill-rule="evenodd"/><path fill="#595959" d="m23.383783 72.58995l0 0c0 -3.2401505 2.6266556 -5.866806 5.8668003 -5.866806l6.8710823 0l0 0c1.555973 0 3.0482178 0.61811066 4.1484566 1.7183456c1.1002388 1.1002426 1.7183456 2.5924835 1.7183456 4.1484604l0 31.25866c0 3.2401428 -2.6266556 5.8667984 -5.866802 5.8667984l-6.8710823 0c-3.2401447 0 -5.8668003 -2.6266556 -5.8668003 -5.8667984z" fill-rule="evenodd"/><path stroke="#595959" stroke-width="1.0" stroke-linejoin="round" stroke-linecap="butt" d="m23.383783 72.58995l0 0c0 -3.2401505 2.6266556 -5.866806 5.8668003 -5.866806l6.8710823 0l0 0c1.555973 0 3.0482178 0.61811066 4.1484566 1.7183456c1.1002388 1.1002426 1.7183456 2.5924835 1.7183456 4.1484604l0 31.25866c0 3.2401428 -2.6266556 5.8667984 -5.866802 5.8667984l-6.8710823 0c-3.2401447 0 -5.8668003 -2.6266556 -5.8668003 -5.8667984z" fill-rule="evenodd"/><path fill="#595959" d="m48.82894 70.87501l0 0c-0.70090103 -1.466835 -0.07916641 -3.222412 1.3886871 -3.9211884l12.713451 -6.052265c0.7048874 -0.33556366 1.5146141 -0.37755966 2.2510414 -0.11675644c0.73643494 0.26080704 1.3392487 0.8030548 1.6758347 1.5074577l0 0l0 0c0.70090485 1.466835 0.07917023 3.2224083 -1.3886871 3.9211845l-12.713451 6.052269c-1.4678497 0.69877625 -3.2259712 0.07613373 -3.926876 -1.3907013z" fill-rule="evenodd"/><path stroke="#595959" stroke-width="1.0" stroke-linejoin="round" stroke-linecap="butt" d="m48.82894 70.87501l0 0c-0.70090103 -1.466835 -0.07916641 -3.222412 1.3886871 -3.9211884l12.713451 -6.052265c0.7048874 -0.33556366 1.5146141 -0.37755966 2.2510414 -0.11675644c0.73643494 0.26080704 1.3392487 0.8030548 1.6758347 1.5074577l0 0l0 0c0.70090485 1.466835 0.07917023 3.2224083 -1.3886871 3.9211845l-12.713451 6.052269c-1.4678497 0.69877625 -3.2259712 0.07613373 -3.926876 -1.3907013z" fill-rule="evenodd"/><path fill="#595959" d="m67.918365 60.346893l31.735306 -17.197655l-30.269958 19.683514z" fill-rule="evenodd"/><path stroke="#595959" stroke-width="1.0" stroke-linejoin="round" stroke-linecap="butt" d="m67.918365 60.346893l31.735306 -17.197655l-30.269958 19.683514z" fill-rule="evenodd"/><path fill="#000000" fill-opacity="0.0" d="m301.39633 60.712566l0 0c0 -2.09243 1.6962585 -3.788681 3.7886658 -3.788681l99.572266 0c1.0047913 0 1.9684753 0.3991623 2.6789856 1.1096802c0.71051025 0.71051407 1.1096802 1.6741829 1.1096802 2.6790009l0 27.383266c0 2.09243 -1.6962585 3.788681 -3.7886658 3.788681l-99.572266 0c-2.0924072 0 -3.7886658 -1.6962509 -3.7886658 -3.788681z" fill-rule="evenodd"/><path stroke="#000000" stroke-width="1.0" stroke-linejoin="round" stroke-linecap="butt" d="m301.39633 60.712566l0 0c0 -2.09243 1.6962585 -3.788681 3.7886658 -3.788681l99.572266 0c1.0047913 0 1.9684753 0.3991623 2.6789856 1.1096802c0.71051025 0.71051407 1.1096802 1.6741829 1.1096802 2.6790009l0 27.383266c0 2.09243 -1.6962585 3.788681 -3.7886658 3.788681l-99.572266 0c-2.0924072 0 -3.7886658 -1.6962509 -3.7886658 -3.788681z" fill-rule="evenodd"/><path fill="#000000" d="m315.86325 78.54795l2.5625 0q0.3125 0 0.53125 -0.09375q0.234375 -0.09375 0.375 -0.234375q0.15625 -0.15625 0.234375 -0.34375q0.09375 -0.203125 0.125 -0.421875l0.09375 -0.578125l0.703125 0l-0.09375 2.328125l-7.15625 0l0 -0.5625l0.171875 0q0.21875 0 0.421875 -0.03125q0.203125 -0.03125 0.34375 -0.109375q0.15625 -0.09375 0.234375 -0.265625q0.09375 -0.1875 0.09375 -0.484375l0 -6.546875q0 -0.3125 -0.09375 -0.5q-0.078125 -0.1875 -0.234375 -0.28125q-0.140625 -0.109375 -0.34375 -0.140625q-0.1875 -0.03125 -0.421875 -0.03125l-0.171875 0l0 -0.5625l6.71875 0l0.0625 2.328125l-0.6875 0l-0.0625 -0.5625q-0.015625 -0.234375 -0.09375 -0.421875q-0.078125 -0.203125 -0.21875 -0.34375q-0.140625 -0.15625 -0.359375 -0.234375q-0.203125 -0.09375 -0.5 -0.09375l-2.234375 0l0 3.546875l3.203125 0l0 0.640625l-3.203125 0l0 4.0zm9.132172 0.09375l0 0.5625l-3.578125 0l0 -0.5625l0.109375 0q0.21875 0 0.421875 -0.03125q0.203125 -0.03125 0.34375 -0.125q0.15625 -0.109375 0.234375 -0.296875q0.09375 -0.1875 0.09375 -0.5l0 -4.15625q0 -0.296875 -0.09375 -0.46875q-0.078125 -0.1875 -0.234375 -0.28125q-0.15625 -0.09375 -0.359375 -0.125q-0.1875 -0.046875 -0.40625 -0.046875l-0.046875 0l0 -0.546875l2.15625 0l0.171875 1.078125l0.078125 0q0.203125 -0.375 0.421875 -0.609375q0.234375 -0.234375 0.484375 -0.359375q0.265625 -0.140625 0.546875 -0.1875q0.296875 -0.0625 0.625 -0.0625q0.53125 0 0.9375 0.15625q0.421875 0.15625 0.703125 0.46875q0.296875 0.3125 0.4375 0.8125q0.15625 0.5 0.15625 1.171875l0 3.15625q0 0.3125 0.078125 0.5q0.078125 0.1875 0.203125 0.296875q0.140625 0.09375 0.328125 0.125q0.1875 0.03125 0.421875 0.03125l0.03125 0l0 0.5625l-2.3125 0l0 -4.59375q0 -0.4375 -0.078125 -0.78125q-0.078125 -0.34375 -0.25 -0.578125q-0.171875 -0.234375 -0.453125 -0.34375q-0.28125 -0.125 -0.6875 -0.125q-0.453125 0 -0.765625 0.171875q-0.3125 0.171875 -0.5 0.484375q-0.1875 0.296875 -0.265625 0.6875q-0.078125 0.390625 -0.078125 0.8125l0 2.8125q0 0.296875 0.078125 0.484375q0.09375 0.171875 0.234375 0.265625q0.15625 0.078125 0.359375 0.109375q0.203125 0.03125 0.421875 0.03125l0.03125 0zm4.690674 -6.03125l0 -0.546875l3.34375 0l0 0.546875l-0.171875 0q-0.40625 0 -0.609375 0.15625q-0.1875 0.15625 -0.1875 0.5q0 0.109375 0.015625 0.21875q0.03125 0.109375 0.078125 0.265625l0.90625 2.515625q0.078125 0.234375 0.171875 0.515625q0.09375 0.28125 0.171875 0.5625q0.09375 0.265625 0.15625 0.515625q0.0625 0.25 0.09375 0.40625l0.03125 0q0.046875 -0.140625 0.109375 -0.34375q0.078125 -0.21875 0.171875 -0.46875q0.09375 -0.25 0.1875 -0.5q0.109375 -0.265625 0.203125 -0.515625l0.953125 -2.59375q0.0625 -0.15625 0.09375 -0.296875q0.03125 -0.15625 0.03125 -0.265625q0 -0.359375 -0.21875 -0.515625q-0.21875 -0.15625 -0.65625 -0.15625l-0.09375 0l0 -0.546875l2.84375 0l0 0.546875l-0.15625 0q-0.1875 0 -0.328125 0.046875q-0.140625 0.046875 -0.25 0.171875q-0.109375 0.109375 -0.21875 0.3125q-0.09375 0.203125 -0.21875 0.515625l-2.09375 5.546875l-1.21875 0l-2.140625 -5.875q-0.078125 -0.203125 -0.171875 -0.34375q-0.078125 -0.140625 -0.1875 -0.21875q-0.109375 -0.078125 -0.265625 -0.109375q-0.140625 -0.046875 -0.328125 -0.046875l-0.046875 0zm8.155823 6.03125q0.21875 0 0.40625 -0.03125q0.203125 -0.03125 0.359375 -0.109375q0.15625 -0.09375 0.234375 -0.265625q0.09375 -0.1875 0.09375 -0.484375l0 -4.21875q0 -0.296875 -0.09375 -0.46875q-0.078125 -0.1875 -0.234375 -0.28125q-0.15625 -0.09375 -0.359375 -0.125q-0.1875 -0.046875 -0.40625 -0.046875l-0.046875 0l0 -0.546875l2.390625 0l0 5.625q0 0.3125 0.078125 0.5q0.09375 0.1875 0.234375 0.296875q0.15625 0.09375 0.359375 0.125q0.203125 0.03125 0.421875 0.03125l0.171875 0l0 0.5625l-3.78125 0l0 -0.5625l0.171875 0zm0.90625 -8.75q0 -0.234375 0.046875 -0.390625q0.0625 -0.15625 0.171875 -0.25q0.109375 -0.09375 0.234375 -0.125q0.140625 -0.046875 0.296875 -0.046875q0.15625 0 0.296875 0.046875q0.140625 0.03125 0.234375 0.125q0.109375 0.09375 0.171875 0.25q0.0625 0.15625 0.0625 0.390625q0 0.234375 -0.0625 0.390625q-0.0625 0.15625 -0.171875 0.265625q-0.09375 0.09375 -0.234375 0.140625q-0.140625 0.03125 -0.296875 0.03125q-0.15625 0 -0.296875 -0.03125q-0.125 -0.046875 -0.234375 -0.140625q-0.109375 -0.109375 -0.171875 -0.265625q-0.046875 -0.15625 -0.046875 -0.390625zm7.15329 9.3125l-3.84375 0l0 -0.5625l0.046875 0q0.21875 0 0.421875 -0.03125q0.203125 -0.03125 0.34375 -0.125q0.15625 -0.109375 0.234375 -0.296875q0.09375 -0.1875 0.09375 -0.5l0 -4.15625q0 -0.296875 -0.09375 -0.46875q-0.078125 -0.1875 -0.234375 -0.28125q-0.15625 -0.09375 -0.359375 -0.125q-0.1875 -0.046875 -0.40625 -0.046875l-0.046875 0l0 -0.546875l2.0625 0l0.25 1.3125l0.0625 0q0.125 -0.296875 0.265625 -0.5625q0.140625 -0.265625 0.328125 -0.453125q0.203125 -0.203125 0.5 -0.3125q0.296875 -0.125 0.734375 -0.125q0.734375 0 1.078125 0.265625q0.359375 0.25 0.359375 0.703125q0 0.21875 -0.078125 0.390625q-0.0625 0.171875 -0.21875 0.296875q-0.140625 0.125 -0.375 0.203125q-0.234375 0.0625 -0.578125 0.0625q0 -0.546875 -0.15625 -0.78125q-0.15625 -0.25 -0.546875 -0.25q-0.234375 0 -0.4375 0.140625q-0.1875 0.125 -0.34375 0.359375q-0.140625 0.234375 -0.25 0.53125q-0.09375 0.296875 -0.15625 0.625q-0.0625 0.3125 -0.09375 0.625q-0.015625 0.3125 -0.015625 0.5625l0 2.09375q0 0.296875 0.078125 0.484375q0.09375 0.171875 0.234375 0.265625q0.15625 0.078125 0.359375 0.109375q0.203125 0.03125 0.421875 0.03125l0.359375 0l0 0.5625zm8.951996 -3.578125q0 1.875 -0.796875 2.796875q-0.796875 0.90625 -2.328125 0.90625q-0.71875 0 -1.296875 -0.21875q-0.578125 -0.234375 -0.984375 -0.6875q-0.390625 -0.46875 -0.609375 -1.171875q-0.203125 -0.703125 -0.203125 -1.625q0 -1.875 0.78125 -2.78125q0.796875 -0.921875 2.34375 -0.921875q0.734375 0 1.296875 0.234375q0.578125 0.21875 0.96875 0.6875q0.40625 0.453125 0.609375 1.15625q0.21875 0.6875 0.21875 1.625zm-4.921875 0q0 0.734375 0.09375 1.296875q0.09375 0.5625 0.3125 0.953125q0.21875 0.375 0.5625 0.578125q0.34375 0.1875 0.859375 0.1875q0.5 0 0.84375 -0.1875q0.34375 -0.203125 0.546875 -0.578125q0.21875 -0.390625 0.3125 -0.953125q0.09375 -0.5625 0.09375 -1.296875q0 -0.75 -0.09375 -1.3125q-0.09375 -0.5625 -0.3125 -0.9375q-0.21875 -0.375 -0.5625 -0.5625q-0.34375 -0.1875 -0.84375 -0.1875q-0.5 0 -0.84375 0.1875q-0.34375 0.1875 -0.5625 0.5625q-0.21875 0.375 -0.3125 0.9375q-0.09375 0.5625 -0.09375 1.3125zm9.614166 3.015625l0 0.5625l-3.578125 0l0 -0.5625l0.109375 0q0.21875 0 0.421875 -0.03125q0.203125 -0.03125 0.34375 -0.125q0.15625 -0.109375 0.234375 -0.296875q0.09375 -0.1875 0.09375 -0.5l0 -4.15625q0 -0.296875 -0.09375 -0.46875q-0.078125 -0.1875 -0.234375 -0.28125q-0.15625 -0.09375 -0.359375 -0.125q-0.1875 -0.046875 -0.40625 -0.046875l-0.046875 0l0 -0.546875l2.15625 0l0.171875 1.078125l0.078125 0q0.203125 -0.375 0.421875 -0.609375q0.234375 -0.234375 0.484375 -0.359375q0.265625 -0.140625 0.546875 -0.1875q0.296875 -0.0625 0.625 -0.0625q0.53125 0 0.9375 0.15625q0.421875 0.15625 0.703125 0.46875q0.296875 0.3125 0.4375 0.8125q0.15625 0.5 0.15625 1.171875l0 3.15625q0 0.3125 0.078125 0.5q0.078125 0.1875 0.203125 0.296875q0.140625 0.09375 0.328125 0.125q0.1875 0.03125 0.421875 0.03125l0.03125 0l0 0.5625l-2.3125 0l0 -4.59375q0 -0.4375 -0.078125 -0.78125q-0.078125 -0.34375 -0.25 -0.578125q-0.171875 -0.234375 -0.453125 -0.34375q-0.28125 -0.125 -0.6875 -0.125q-0.453125 0 -0.765625 0.171875q-0.3125 0.171875 -0.5 0.484375q-0.1875 0.296875 -0.265625 0.6875q-0.078125 0.390625 -0.078125 0.8125l0 2.8125q0 0.296875 0.078125 0.484375q0.09375 0.171875 0.234375 0.265625q0.15625 0.078125 0.359375 0.109375q0.203125 0.03125 0.421875 0.03125l0.03125 0zm8.596924 0l0 0.5625l-3.578125 0l0 -0.5625l0.171875 0q0.234375 0 0.421875 -0.03125q0.1875 -0.03125 0.3125 -0.125q0.140625 -0.109375 0.21875 -0.296875q0.078125 -0.1875 0.078125 -0.5l0 -4.15625q0 -0.296875 -0.078125 -0.46875q-0.078125 -0.1875 -0.21875 -0.28125q-0.140625 -0.09375 -0.328125 -0.125q-0.1875 -0.046875 -0.40625 -0.046875l-0.046875 0l0 -0.546875l2.09375 0l0.171875 1.078125l0.078125 0q0.203125 -0.375 0.421875 -0.609375q0.21875 -0.234375 0.46875 -0.359375q0.25 -0.140625 0.515625 -0.1875q0.28125 -0.0625 0.59375 -0.0625q0.328125 0 0.625 0.078125q0.296875 0.0625 0.546875 0.203125q0.25 0.140625 0.4375 0.375q0.203125 0.234375 0.328125 0.5625l0.109375 0q0.203125 -0.375 0.4375 -0.609375q0.234375 -0.234375 0.5 -0.359375q0.265625 -0.140625 0.546875 -0.1875q0.296875 -0.0625 0.609375 -0.0625q0.5 0 0.90625 0.15625q0.40625 0.15625 0.6875 0.46875q0.28125 0.3125 0.421875 0.8125q0.15625 0.5 0.15625 1.171875l0 3.15625q0 0.3125 0.078125 0.5q0.078125 0.1875 0.203125 0.296875q0.140625 0.09375 0.328125 0.125q0.203125 0.03125 0.421875 0.03125l0.03125 0l0 0.5625l-2.3125 0l0 -4.59375q0 -0.4375 -0.078125 -0.78125q-0.078125 -0.34375 -0.25 -0.578125q-0.15625 -0.234375 -0.421875 -0.34375q-0.265625 -0.125 -0.65625 -0.125q-0.40625 0 -0.703125 0.15625q-0.28125 0.15625 -0.453125 0.4375q-0.171875 0.265625 -0.25 0.625q-0.078125 0.359375 -0.078125 0.765625l0 2.921875q0 0.3125 0.078125 0.5q0.078125 0.1875 0.21875 0.296875q0.140625 0.09375 0.328125 0.125q0.1875 0.03125 0.40625 0.03125l0.046875 0l0 0.5625l-2.328125 0l0 -4.59375q0 -0.4375 -0.078125 -0.78125q-0.0625 -0.34375 -0.234375 -0.578125q-0.15625 -0.234375 -0.4375 -0.34375q-0.265625 -0.125 -0.640625 -0.125q-0.4375 0 -0.734375 0.171875q-0.296875 0.171875 -0.484375 0.484375q-0.171875 0.296875 -0.25 0.6875q-0.078125 0.390625 -0.078125 0.8125l0 2.8125q0 0.296875 0.078125 0.484375q0.09375 0.171875 0.234375 0.265625q0.15625 0.078125 0.359375 0.109375q0.203125 0.03125 0.421875 0.03125l0.03125 0zm12.295868 -6.0q-0.734375 0 -1.140625 0.609375q-0.390625 0.59375 -0.46875 1.75l3.0625 0q0 -0.515625 -0.078125 -0.953125q-0.078125 -0.4375 -0.25 -0.75q-0.15625 -0.3125 -0.4375 -0.484375q-0.28125 -0.171875 -0.6875 -0.171875zm0.171875 6.6875q-0.71875 0 -1.296875 -0.234375q-0.578125 -0.25 -0.984375 -0.71875q-0.390625 -0.46875 -0.609375 -1.140625q-0.203125 -0.6875 -0.203125 -1.546875q0 -1.875 0.765625 -2.8125q0.765625 -0.953125 2.1875 -0.953125q0.640625 0 1.15625 0.203125q0.515625 0.203125 0.875 0.609375q0.359375 0.390625 0.546875 1.0q0.203125 0.59375 0.203125 1.375l0 0.609375l-4.4375 0q0 0.734375 0.125 1.265625q0.140625 0.515625 0.390625 0.859375q0.265625 0.328125 0.625 0.5q0.359375 0.15625 0.84375 0.15625q0.34375 0 0.640625 -0.078125q0.296875 -0.078125 0.53125 -0.203125q0.234375 -0.140625 0.421875 -0.296875q0.1875 -0.171875 0.3125 -0.359375q0.078125 0.046875 0.15625 0.171875q0.09375 0.109375 0.09375 0.28125q0 0.203125 -0.140625 0.4375q-0.140625 0.234375 -0.4375 0.4375q-0.296875 0.1875 -0.734375 0.3125q-0.4375 0.125 -1.03125 0.125zm7.2576294 -0.6875l0 0.5625l-3.578125 0l0 -0.5625l0.109375 0q0.21875 0 0.421875 -0.03125q0.203125 -0.03125 0.34375 -0.125q0.15625 -0.109375 0.234375 -0.296875q0.09375 -0.1875 0.09375 -0.5l0 -4.15625q0 -0.296875 -0.09375 -0.46875q-0.078125 -0.1875 -0.234375 -0.28125q-0.15625 -0.09375 -0.359375 -0.125q-0.1875 -0.046875 -0.40625 -0.046875l-0.046875 0l0 -0.546875l2.15625 0l0.171875 1.078125l0.078125 0q0.203125 -0.375 0.421875 -0.609375q0.234375 -0.234375 0.484375 -0.359375q0.265625 -0.140625 0.546875 -0.1875q0.296875 -0.0625 0.625 -0.0625q0.53125 0 0.9375 0.15625q0.421875 0.15625 0.703125 0.46875q0.296875 0.3125 0.4375 0.8125q0.15625 0.5 0.15625 1.171875l0 3.15625q0 0.3125 0.078125 0.5q0.078125 0.1875 0.203125 0.296875q0.140625 0.09375 0.328125 0.125q0.1875 0.03125 0.421875 0.03125l0.03125 0l0 0.5625l-2.3125 0l0 -4.59375q0 -0.4375 -0.078125 -0.78125q-0.078125 -0.34375 -0.25 -0.578125q-0.171875 -0.234375 -0.453125 -0.34375q-0.28125 -0.125 -0.6875 -0.125q-0.453125 0 -0.765625 0.171875q-0.3125 0.171875 -0.5 0.484375q-0.1875 0.296875 -0.265625 0.6875q-0.078125 0.390625 -0.078125 0.8125l0 2.8125q0 0.296875 0.078125 0.484375q0.09375 0.171875 0.234375 0.265625q0.15625 0.078125 0.359375 0.109375q0.203125 0.03125 0.421875 0.03125l0.03125 0zm8.175018 -0.015625q0.25 0 0.4375 -0.015625q0.203125 -0.03125 0.421875 -0.0625l0 0.578125q-0.09375 0.046875 -0.234375 0.078125q-0.125 0.03125 -0.296875 0.0625q-0.15625 0.03125 -0.328125 0.046875q-0.171875 0.015625 -0.328125 0.015625q-0.515625 0 -0.875 -0.109375q-0.359375 -0.09375 -0.59375 -0.328125q-0.234375 -0.25 -0.359375 -0.640625q-0.109375 -0.40625 -0.109375 -0.984375l0 -4.453125l-1.015625 0l0 -0.53125q0.25 0 0.53125 -0.09375q0.296875 -0.09375 0.515625 -0.328125q0.21875 -0.25 0.359375 -0.578125q0.140625 -0.34375 0.25 -0.859375l0.609375 0l0 1.640625l1.75 0l0 0.75l-1.75 0l0 4.5q0 0.6875 0.28125 1.0q0.28125 0.3125 0.734375 0.3125z" fill-rule="nonzero"/><path fill="#000000" fill-opacity="0.0" d="m153.59055 58.94354l0 0c0 -2.09243 1.6962585 -3.7886848 3.7886963 -3.7886848l62.02893 0c1.0048218 0 1.9684753 0.3991661 2.6790009 1.1096802c0.71051025 0.7105179 1.1096802 1.6741829 1.1096802 2.6790047l0 27.383266c0 2.09243 -1.6962585 3.788681 -3.788681 3.788681l-62.02893 0c-2.0924377 0 -3.7886963 -1.6962509 -3.7886963 -3.788681z" fill-rule="evenodd"/><path stroke="#000000" stroke-width="1.0" stroke-linejoin="round" stroke-linecap="butt" d="m153.59055 58.94354l0 0c0 -2.09243 1.6962585 -3.7886848 3.7886963 -3.7886848l62.02893 0c1.0048218 0 1.9684753 0.3991661 2.6790009 1.1096802c0.71051025 0.7105179 1.1096802 1.6741829 1.1096802 2.6790047l0 27.383266c0 2.09243 -1.6962585 3.788681 -3.788681 3.788681l-62.02893 0c-2.0924377 0 -3.7886963 -1.6962509 -3.7886963 -3.788681z" fill-rule="evenodd"/><path fill="#000000" d="m172.71928 74.24767l-0.5 1.40625q-0.0625 0.15625 -0.09375 0.3125q-0.03125 0.140625 -0.03125 0.265625q0 0.328125 0.21875 0.484375q0.21875 0.15625 0.671875 0.15625l0.296875 0l0 0.5625l-3.25 0l0 -0.5625l0.25 0q0.203125 0 0.328125 -0.03125q0.140625 -0.046875 0.25 -0.15625q0.109375 -0.125 0.203125 -0.328125q0.109375 -0.203125 0.234375 -0.515625l2.953125 -7.921875l1.046875 0l3.015625 8.25q0.078125 0.203125 0.15625 0.34375q0.078125 0.140625 0.1875 0.21875q0.109375 0.078125 0.25 0.109375q0.15625 0.03125 0.34375 0.03125l0.171875 0l0 0.5625l-3.65625 0l0 -0.5625l0.3125 0q0.796875 0 0.796875 -0.640625q0 -0.109375 -0.03125 -0.21875q-0.03125 -0.125 -0.078125 -0.265625l-0.53125 -1.5l-3.515625 0zm2.4375 -3.0q-0.203125 -0.59375 -0.375 -1.109375q-0.171875 -0.515625 -0.28125 -1.0q-0.046875 0.25 -0.109375 0.484375q-0.0625 0.21875 -0.140625 0.453125q-0.0625 0.234375 -0.15625 0.484375q-0.09375 0.25 -0.203125 0.5625l-0.90625 2.453125l3.0 0l-0.828125 -2.328125zm11.021072 -0.671875q0 0.140625 -0.046875 0.265625q-0.046875 0.125 -0.140625 0.21875q-0.078125 0.09375 -0.21875 0.15625q-0.125 0.046875 -0.296875 0.046875q0 -0.078125 -0.03125 -0.15625q-0.015625 -0.078125 -0.0625 -0.140625q-0.046875 -0.078125 -0.140625 -0.109375q-0.078125 -0.046875 -0.21875 -0.046875q-0.171875 0 -0.3125 0.046875q-0.125 0.03125 -0.25 0.109375q0.21875 0.28125 0.359375 0.671875q0.15625 0.375 0.15625 0.953125q0 0.484375 -0.15625 0.90625q-0.140625 0.421875 -0.4375 0.734375q-0.296875 0.296875 -0.75 0.46875q-0.453125 0.171875 -1.0625 0.171875q-0.078125 0 -0.171875 0q-0.09375 0 -0.203125 0q-0.09375 -0.015625 -0.1875 -0.015625q-0.078125 -0.015625 -0.125 -0.015625q-0.125 0.0625 -0.25 0.140625q-0.109375 0.078125 -0.203125 0.171875q-0.078125 0.09375 -0.140625 0.21875q-0.046875 0.125 -0.046875 0.28125q0 0.15625 0.0625 0.265625q0.0625 0.09375 0.171875 0.15625q0.109375 0.046875 0.265625 0.0625q0.15625 0.015625 0.328125 0.015625l1.5 0q0.609375 0 1.015625 0.15625q0.421875 0.140625 0.6875 0.40625q0.265625 0.265625 0.375 0.640625q0.125 0.359375 0.125 0.78125q0 0.578125 -0.21875 1.03125q-0.203125 0.46875 -0.640625 0.78125q-0.4375 0.328125 -1.109375 0.5q-0.65625 0.1875 -1.5625 0.1875q-1.390625 0 -2.078125 -0.515625q-0.6875 -0.515625 -0.6875 -1.4375q0 -0.390625 0.125 -0.6875q0.140625 -0.28125 0.375 -0.5q0.234375 -0.203125 0.53125 -0.328125q0.296875 -0.125 0.625 -0.1875q-0.140625 -0.0625 -0.265625 -0.15625q-0.125 -0.09375 -0.234375 -0.234375q-0.109375 -0.140625 -0.171875 -0.3125q-0.0625 -0.171875 -0.0625 -0.390625q0 -0.40625 0.203125 -0.6875q0.21875 -0.296875 0.671875 -0.5625q-0.28125 -0.125 -0.515625 -0.328125q-0.21875 -0.203125 -0.375 -0.46875q-0.15625 -0.265625 -0.234375 -0.578125q-0.078125 -0.3125 -0.078125 -0.640625q0 -0.578125 0.15625 -1.03125q0.15625 -0.453125 0.46875 -0.765625q0.3125 -0.328125 0.78125 -0.5q0.46875 -0.171875 1.09375 -0.171875q0.25 0 0.484375 0.046875q0.234375 0.03125 0.421875 0.09375q0.203125 0.0625 0.359375 0.140625q0.15625 0.078125 0.265625 0.15625q0.09375 -0.09375 0.21875 -0.21875q0.140625 -0.140625 0.296875 -0.234375q0.15625 -0.109375 0.34375 -0.1875q0.203125 -0.078125 0.421875 -0.078125q0.203125 0 0.34375 0.0625q0.15625 0.0625 0.25 0.15625q0.09375 0.09375 0.140625 0.21875q0.0625 0.125 0.0625 0.265625zm-5.625 8.03125q0 0.296875 0.078125 0.546875q0.078125 0.25 0.265625 0.4375q0.203125 0.1875 0.53125 0.28125q0.328125 0.109375 0.84375 0.109375q0.703125 0 1.171875 -0.125q0.46875 -0.125 0.734375 -0.34375q0.28125 -0.203125 0.390625 -0.5q0.109375 -0.296875 0.109375 -0.640625q0 -0.3125 -0.09375 -0.515625q-0.078125 -0.1875 -0.25 -0.3125q-0.171875 -0.109375 -0.4375 -0.15625q-0.25 -0.046875 -0.578125 -0.046875l-1.3125 0q-0.265625 0 -0.53125 0.046875q-0.265625 0.046875 -0.46875 0.1875q-0.203125 0.140625 -0.328125 0.390625q-0.125 0.25 -0.125 0.640625zm0.765625 -6.015625q0 0.84375 0.28125 1.25q0.296875 0.390625 0.9375 0.390625q0.328125 0 0.546875 -0.09375q0.21875 -0.09375 0.359375 -0.296875q0.15625 -0.203125 0.21875 -0.515625q0.0625 -0.328125 0.0625 -0.765625q0 -0.890625 -0.28125 -1.3125q-0.265625 -0.4375 -0.921875 -0.4375q-0.640625 0 -0.921875 0.4375q-0.28125 0.4375 -0.28125 1.34375zm8.671677 -1.71875q-0.734375 0 -1.140625 0.609375q-0.390625 0.59375 -0.46875 1.75l3.0625 0q0 -0.515625 -0.078125 -0.953125q-0.078125 -0.4375 -0.25 -0.75q-0.15625 -0.3125 -0.4375 -0.484375q-0.28125 -0.171875 -0.6875 -0.171875zm0.171875 6.6875q-0.71875 0 -1.296875 -0.234375q-0.578125 -0.25 -0.984375 -0.71875q-0.390625 -0.46875 -0.609375 -1.140625q-0.203125 -0.6875 -0.203125 -1.546875q0 -1.875 0.765625 -2.8125q0.765625 -0.953125 2.1875 -0.953125q0.640625 0 1.15625 0.203125q0.515625 0.203125 0.875 0.609375q0.359375 0.390625 0.546875 1.0q0.203125 0.59375 0.203125 1.375l0 0.609375l-4.4375 0q0 0.734375 0.125 1.265625q0.140625 0.515625 0.390625 0.859375q0.265625 0.328125 0.625 0.5q0.359375 0.15625 0.84375 0.15625q0.34375 0 0.640625 -0.078125q0.296875 -0.078125 0.53125 -0.203125q0.234375 -0.140625 0.421875 -0.296875q0.1875 -0.171875 0.3125 -0.359375q0.078125 0.046875 0.15625 0.171875q0.09375 0.109375 0.09375 0.28125q0 0.203125 -0.140625 0.4375q-0.140625 0.234375 -0.4375 0.4375q-0.296875 0.1875 -0.734375 0.3125q-0.4375 0.125 -1.03125 0.125zm7.2576294 -0.6875l0 0.5625l-3.578125 0l0 -0.5625l0.109375 0q0.21875 0 0.421875 -0.03125q0.203125 -0.03125 0.34375 -0.125q0.15625 -0.109375 0.234375 -0.296875q0.09375 -0.1875 0.09375 -0.5l0 -4.15625q0 -0.296875 -0.09375 -0.46875q-0.078125 -0.1875 -0.234375 -0.28125q-0.15625 -0.09375 -0.359375 -0.125q-0.1875 -0.046875 -0.40625 -0.046875l-0.046875 0l0 -0.546875l2.15625 0l0.171875 1.078125l0.078125 0q0.203125 -0.375 0.421875 -0.609375q0.234375 -0.234375 0.484375 -0.359375q0.265625 -0.140625 0.546875 -0.1875q0.296875 -0.0625 0.625 -0.0625q0.53125 0 0.9375 0.15625q0.421875 0.15625 0.703125 0.46875q0.296875 0.3125 0.4375 0.8125q0.15625 0.5 0.15625 1.171875l0 3.15625q0 0.3125 0.078125 0.5q0.078125 0.1875 0.203125 0.296875q0.140625 0.09375 0.328125 0.125q0.1875 0.03125 0.421875 0.03125l0.03125 0l0 0.5625l-2.3125 0l0 -4.59375q0 -0.4375 -0.078125 -0.78125q-0.078125 -0.34375 -0.25 -0.578125q-0.171875 -0.234375 -0.453125 -0.34375q-0.28125 -0.125 -0.6875 -0.125q-0.453125 0 -0.765625 0.171875q-0.3125 0.171875 -0.5 0.484375q-0.1875 0.296875 -0.265625 0.6875q-0.078125 0.390625 -0.078125 0.8125l0 2.8125q0 0.296875 0.078125 0.484375q0.09375 0.171875 0.234375 0.265625q0.15625 0.078125 0.359375 0.109375q0.203125 0.03125 0.421875 0.03125l0.03125 0zm8.175034 -0.015625q0.25 0 0.4375 -0.015625q0.203125 -0.03125 0.421875 -0.0625l0 0.578125q-0.09375 0.046875 -0.234375 0.078125q-0.125 0.03125 -0.296875 0.0625q-0.15625 0.03125 -0.328125 0.046875q-0.171875 0.015625 -0.328125 0.015625q-0.515625 0 -0.875 -0.109375q-0.359375 -0.09375 -0.59375 -0.328125q-0.234375 -0.25 -0.359375 -0.640625q-0.109375 -0.40625 -0.109375 -0.984375l0 -4.453125l-1.015625 0l0 -0.53125q0.25 0 0.53125 -0.09375q0.296875 -0.09375 0.515625 -0.328125q0.21875 -0.25 0.359375 -0.578125q0.140625 -0.34375 0.25 -0.859375l0.609375 0l0 1.640625l1.75 0l0 0.75l-1.75 0l0 4.5q0 0.6875 0.28125 1.0q0.28125 0.3125 0.734375 0.3125z" fill-rule="nonzero"/><path fill="#000000" fill-opacity="0.0" d="m188.3937 90.115486l0 26.76902l166.58267 0l0 -25.005241" fill-rule="evenodd"/><path stroke="#595959" stroke-width="1.0" stroke-linejoin="round" stroke-linecap="butt" d="m188.3937 90.115486l0 26.76902l166.58267 0l0 -19.005241" fill-rule="evenodd"/><path fill="#595959" stroke="#595959" stroke-width="1.0" stroke-linecap="butt" d="m356.6281 97.879265l-1.6517334 -4.538101l-1.6517334 4.538101z" fill-rule="evenodd"/><path fill="#000000" fill-opacity="0.0" d="m354.97113 56.923885l0 -26.769024l-166.58267 0l0 25.005245" fill-rule="evenodd"/><path stroke="#595959" stroke-width="1.0" stroke-linejoin="round" stroke-linecap="butt" d="m354.97113 56.923885l0 -26.769024l-166.58267 0l0 19.005245" fill-rule="evenodd"/><path fill="#595959" stroke="#595959" stroke-width="1.0" stroke-linecap="butt" d="m186.73672 49.160107l1.6517334 4.5380974l1.6517181 -4.5380974z" fill-rule="evenodd"/><path fill="#000000" fill-opacity="0.0" d="m-8.799212 10.403178l0 0c0 -1.6362438 1.326438 -2.9626818 2.9626822 -2.9626818l79.1455 0c0.785759 0 1.5393295 0.31213856 2.0949402 0.8677492c0.55561066 0.55561066 0.86774445 1.3091803 0.86774445 2.0949326l0 21.41322c0 1.6362438 -1.3264389 2.9626827 -2.9626846 2.9626827l-79.1455 0c-1.6362443 0 -2.9626822 -1.3264389 -2.9626822 -2.9626827z" fill-rule="evenodd"/><path fill="#000000" d="m13.066536 24.394163q0 0.3125 0.078125 0.5q0.09375 0.1875 0.234375 0.296875q0.15625 0.09375 0.34375 0.125q0.203125 0.03125 0.4375 0.03125l0.296875 0l0 0.5625l-4.140625 0l0 -0.5625l0.296875 0q0.234375 0 0.421875 -0.03125q0.203125 -0.03125 0.34375 -0.109375q0.15625 -0.09375 0.234375 -0.265625q0.09375 -0.1875 0.09375 -0.484375l0 -7.390625l-1.265625 0q-0.296875 0 -0.5 0.09375q-0.1875 0.078125 -0.328125 0.234375q-0.125 0.140625 -0.1875 0.34375q-0.0625 0.1875 -0.078125 0.421875l-0.078125 0.5625l-0.6875 0l0.0625 -2.328125l7.5 0l0.078125 2.328125l-0.703125 0l-0.0625 -0.5625q-0.015625 -0.234375 -0.09375 -0.421875q-0.0625 -0.203125 -0.1875 -0.34375q-0.125 -0.15625 -0.328125 -0.234375q-0.1875 -0.09375 -0.484375 -0.09375l-1.296875 0l0 7.328125zm6.6764984 -5.046875q-0.734375 0 -1.140625 0.609375q-0.390625 0.59375 -0.46875 1.75l3.0625 0q0 -0.515625 -0.078125 -0.953125q-0.078125 -0.4375 -0.25 -0.75q-0.15625 -0.3125 -0.4375 -0.484375q-0.28125 -0.171875 -0.6875 -0.171875zm0.171875 6.6875q-0.71875 0 -1.296875 -0.234375q-0.578125 -0.25 -0.984375 -0.71875q-0.390625 -0.46875 -0.609375 -1.140625q-0.203125 -0.6875 -0.203125 -1.546875q0 -1.875 0.765625 -2.8125q0.765625 -0.953125 2.1875 -0.953125q0.640625 0 1.15625 0.203125q0.515625 0.203125 0.875 0.609375q0.359375 0.390625 0.546875 1.0q0.203125 0.59375 0.203125 1.375l0 0.609375l-4.4375 0q0 0.734375 0.125 1.265625q0.140625 0.515625 0.390625 0.859375q0.265625 0.328125 0.625 0.5q0.359375 0.15625 0.84375 0.15625q0.34375 0 0.640625 -0.078125q0.296875 -0.078125 0.53125 -0.203125q0.234375 -0.140625 0.421875 -0.296875q0.1875 -0.171875 0.3125 -0.359375q0.078125 0.046875 0.15625 0.171875q0.09375 0.109375 0.09375 0.28125q0 0.203125 -0.140625 0.4375q-0.140625 0.234375 -0.4375 0.4375q-0.296875 0.1875 -0.734375 0.3125q-0.4375 0.125 -1.03125 0.125zm5.2576294 -2.0625q0 0.625 0.265625 0.9375q0.265625 0.3125 0.828125 0.3125q0.390625 0 0.71875 -0.125q0.328125 -0.140625 0.5625 -0.375q0.234375 -0.25 0.359375 -0.59375q0.125 -0.34375 0.125 -0.765625l0 -1.078125l-0.859375 0.046875q-0.5625 0.015625 -0.953125 0.140625q-0.375 0.109375 -0.609375 0.3125q-0.234375 0.203125 -0.34375 0.5q-0.09375 0.296875 -0.09375 0.6875zm1.625 -4.671875q-0.390625 0 -0.625 0.109375q-0.234375 0.109375 -0.375 0.3125q-0.125 0.1875 -0.171875 0.453125q-0.046875 0.265625 -0.046875 0.578125q-0.5625 0 -0.859375 -0.1875q-0.28125 -0.1875 -0.28125 -0.65625q0 -0.34375 0.1875 -0.578125q0.1875 -0.25 0.515625 -0.390625q0.34375 -0.15625 0.765625 -0.234375q0.4375 -0.078125 0.9375 -0.078125q0.609375 0 1.0625 0.125q0.453125 0.125 0.765625 0.40625q0.3125 0.265625 0.453125 0.703125q0.15625 0.4375 0.15625 1.078125l0 3.453125q0 0.28125 0.046875 0.46875q0.046875 0.171875 0.140625 0.28125q0.109375 0.109375 0.265625 0.15625q0.15625 0.046875 0.375 0.046875l0.046875 0l0 0.5625l-1.8125 0l-0.203125 -1.140625l-0.109375 0q-0.21875 0.28125 -0.421875 0.515625q-0.1875 0.234375 -0.421875 0.40625q-0.234375 0.15625 -0.53125 0.25q-0.28125 0.09375 -0.703125 0.09375q-0.4375 0 -0.828125 -0.125q-0.375 -0.125 -0.65625 -0.390625q-0.28125 -0.265625 -0.4375 -0.65625q-0.15625 -0.40625 -0.15625 -0.953125q0 -1.0625 0.75 -1.578125q0.765625 -0.515625 2.296875 -0.546875l1.109375 -0.046875l0 -0.796875q0 -0.359375 -0.046875 -0.65625q-0.03125 -0.3125 -0.171875 -0.53125q-0.125 -0.21875 -0.375 -0.328125q-0.234375 -0.125 -0.640625 -0.125zm7.706711 6.734375q-0.671875 0 -1.234375 -0.203125q-0.5625 -0.203125 -0.96875 -0.640625q-0.390625 -0.453125 -0.625 -1.140625q-0.21875 -0.6875 -0.21875 -1.671875q0 -1.0625 0.21875 -1.78125q0.234375 -0.734375 0.625 -1.15625q0.40625 -0.4375 0.953125 -0.625q0.546875 -0.1875 1.171875 -0.1875q0.421875 0 0.828125 0.09375q0.421875 0.078125 0.75 0.25q0.328125 0.15625 0.53125 0.421875q0.21875 0.25 0.21875 0.59375q0 0.46875 -0.3125 0.65625q-0.296875 0.1875 -0.890625 0.1875q0 -0.3125 -0.046875 -0.59375q-0.046875 -0.28125 -0.171875 -0.484375q-0.125 -0.21875 -0.34375 -0.328125q-0.21875 -0.125 -0.5625 -0.125q-0.390625 0 -0.703125 0.140625q-0.296875 0.140625 -0.515625 0.5q-0.21875 0.34375 -0.34375 0.9375q-0.109375 0.59375 -0.109375 1.484375q0 1.421875 0.46875 2.125q0.46875 0.6875 1.546875 0.6875q0.609375 0 1.0625 -0.25q0.46875 -0.265625 0.703125 -0.6875q0.09375 0.078125 0.15625 0.21875q0.078125 0.125 0.078125 0.3125q0 0.21875 -0.15625 0.453125q-0.140625 0.21875 -0.421875 0.40625q-0.28125 0.1875 -0.703125 0.296875q-0.421875 0.109375 -0.984375 0.109375zm6.6068115 -0.6875l0 0.5625l-3.59375 0l0 -0.5625l0.109375 0q0.234375 0 0.421875 -0.03125q0.203125 -0.03125 0.34375 -0.125q0.15625 -0.109375 0.234375 -0.296875q0.09375 -0.1875 0.09375 -0.5l0 -7.140625q0 -0.296875 -0.09375 -0.46875q-0.078125 -0.1875 -0.234375 -0.28125q-0.140625 -0.109375 -0.34375 -0.125q-0.203125 -0.03125 -0.421875 -0.03125l-0.109375 0l0 -0.56250095l2.453125 0l0 2.921876q0 0.1875 0 0.390625q0 0.1875 -0.015625 0.359375q-0.015625 0.203125 -0.03125 0.390625l0.0625 0q0.609375 -1.21875 1.96875 -1.21875q0.5625 0 1.0 0.15625q0.4375 0.15625 0.734375 0.46875q0.296875 0.3125 0.453125 0.8125q0.15625 0.5 0.15625 1.171875l0 3.15625q0 0.3125 0.078125 0.5q0.078125 0.1875 0.21875 0.296875q0.140625 0.09375 0.328125 0.125q0.1875 0.03125 0.40625 0.03125l0.046875 0l0 0.5625l-2.328125 0l0 -4.59375q0 -0.4375 -0.078125 -0.78125q-0.078125 -0.34375 -0.25 -0.578125q-0.171875 -0.234375 -0.453125 -0.34375q-0.265625 -0.125 -0.671875 -0.125q-0.421875 0 -0.734375 0.15625q-0.296875 0.140625 -0.5 0.4375q-0.1875 0.28125 -0.296875 0.6875q-0.09375 0.390625 -0.09375 0.875l0 2.8125q0 0.296875 0.09375 0.484375q0.09375 0.171875 0.234375 0.265625q0.15625 0.078125 0.34375 0.109375q0.203125 0.03125 0.421875 0.03125l0.046875 0zm8.288361 -6.0q-0.734375 0 -1.140625 0.609375q-0.390625 0.59375 -0.46875 1.75l3.0625 0q0 -0.515625 -0.078125 -0.953125q-0.078125 -0.4375 -0.25 -0.75q-0.15625 -0.3125 -0.4375 -0.484375q-0.28125 -0.171875 -0.6875 -0.171875zm0.171875 6.6875q-0.71875 0 -1.296875 -0.234375q-0.578125 -0.25 -0.984375 -0.71875q-0.390625 -0.46875 -0.609375 -1.140625q-0.203125 -0.6875 -0.203125 -1.546875q0 -1.875 0.765625 -2.8125q0.765625 -0.953125 2.1875 -0.953125q0.640625 0 1.15625 0.203125q0.515625 0.203125 0.875 0.609375q0.359375 0.390625 0.546875 1.0q0.203125 0.59375 0.203125 1.375l0 0.609375l-4.4375 0q0 0.734375 0.125 1.265625q0.140625 0.515625 0.390625 0.859375q0.265625 0.328125 0.625 0.5q0.359375 0.15625 0.84375 0.15625q0.34375 0 0.640625 -0.078125q0.296875 -0.078125 0.53125 -0.203125q0.234375 -0.140625 0.421875 -0.296875q0.1875 -0.171875 0.3125 -0.359375q0.078125 0.046875 0.15625 0.171875q0.09375 0.109375 0.09375 0.28125q0 0.203125 -0.140625 0.4375q-0.140625 0.234375 -0.4375 0.4375q-0.296875 0.1875 -0.734375 0.3125q-0.4375 0.125 -1.03125 0.125zm7.5857544 -0.125l-3.84375 0l0 -0.5625l0.046875 0q0.21875 0 0.421875 -0.03125q0.203125 -0.03125 0.34375 -0.125q0.15625 -0.109375 0.234375 -0.296875q0.09375 -0.1875 0.09375 -0.5l0 -4.15625q0 -0.296875 -0.09375 -0.46875q-0.078125 -0.1875 -0.234375 -0.28125q-0.15625 -0.09375 -0.359375 -0.125q-0.1875 -0.046875 -0.40625 -0.046875l-0.046875 0l0 -0.546875l2.0625 0l0.25 1.3125l0.0625 0q0.125 -0.296875 0.265625 -0.5625q0.140625 -0.265625 0.328125 -0.453125q0.203125 -0.203125 0.5 -0.3125q0.296875 -0.125 0.734375 -0.125q0.734375 0 1.078125 0.265625q0.359375 0.25 0.359375 0.703125q0 0.21875 -0.078125 0.390625q-0.0625 0.171875 -0.21875 0.296875q-0.140625 0.125 -0.375 0.203125q-0.234375 0.0625 -0.578125 0.0625q0 -0.546875 -0.15625 -0.78125q-0.15625 -0.25 -0.546875 -0.25q-0.234375 0 -0.4375 0.140625q-0.1875 0.125 -0.34375 0.359375q-0.140625 0.234375 -0.25 0.53125q-0.09375 0.296875 -0.15625 0.625q-0.0625 0.3125 -0.09375 0.625q-0.015625 0.3125 -0.015625 0.5625l0 2.09375q0 0.296875 0.078125 0.484375q0.09375 0.171875 0.234375 0.265625q0.15625 0.078125 0.359375 0.109375q0.203125 0.03125 0.421875 0.03125l0.359375 0l0 0.5625z" fill-rule="nonzero"/><path fill="#000000" fill-opacity="0.0" d="m223.19554 97.33494l0 0c0 -1.6362457 1.3264313 -2.9626846 2.962677 -2.9626846l79.14549 0c0.7857666 0 1.5393372 0.31214142 2.0949402 0.8677521c0.555603 0.55561066 0.86776733 1.3091812 0.86776733 2.0949326l0 21.413216c0 1.6362457 -1.3264465 2.9626846 -2.9627075 2.9626846l-79.14549 0c-1.6362457 0 -2.962677 -1.3264389 -2.962677 -2.9626846z" fill-rule="evenodd"/><path fill="#000000" d="m245.97643 109.23467l-0.640625 1.125q-0.203125 0.34375 -0.203125 0.59375q0 0.375 0.59375 0.375l0.25 0l-0.09375 0.453125l-2.625 0l0.078125 -0.453125l0.203125 0q0.296875 0 0.484375 -0.140625q0.1875 -0.15625 0.515625 -0.6875l3.703125 -6.328125l0.828125 0l1.015625 6.59375q0.046875 0.328125 0.171875 0.453125q0.140625 0.109375 0.453125 0.109375l0.140625 0l-0.078125 0.453125l-2.90625 0l0.078125 -0.453125l0.25 0q0.765625 0 0.765625 -0.53125q0 -0.21875 -0.015625 -0.375l-0.171875 -1.1875l-2.796875 0zm2.453125 -2.390625q-0.15625 -1.140625 -0.171875 -1.6875q-0.234375 0.578125 -0.828125 1.578125l-1.140625 1.96875l2.40625 0l-0.265625 -1.859375zm6.987442 3.609375q0.109375 0.0625 0.109375 0.265625q0 0.421875 -0.5 0.796875q-0.5 0.375 -1.34375 0.375q-0.921875 0 -1.5 -0.59375q-0.578125 -0.59375 -0.578125 -1.609375q0 -1.390625 0.90625 -2.546875q0.90625 -1.171875 2.265625 -1.171875q0.734375 0 1.140625 0.296875q0.421875 0.28125 0.421875 0.71875q0 0.328125 -0.265625 0.546875q-0.25 0.203125 -0.6875 0.203125q0 -0.5625 -0.21875 -0.90625q-0.21875 -0.359375 -0.59375 -0.359375q-0.75 0 -1.3125 1.125q-0.546875 1.109375 -0.546875 2.171875q0 1.453125 1.171875 1.453125q0.9375 0 1.53125 -0.765625zm4.125122 0.53125l0.1875 0.390625q-0.71875 0.515625 -1.4375 0.515625q-1.15625 0 -1.15625 -1.25q0 -0.40625 0.09375 -0.890625l0.65625 -3.078125l-0.8125 0l0.09375 -0.421875q1.046875 0 1.640625 -1.5l0.484375 0l-0.28125 1.3125l1.296875 0l-0.140625 0.609375l-1.28125 0l-0.640625 3.046875q-0.140625 0.609375 -0.140625 0.90625q0 0.59375 0.578125 0.59375q0.421875 0 0.859375 -0.234375zm3.1107483 -5.984375q-0.59375 0 -0.59375 -0.578125q0 -0.34375 0.171875 -0.546875q0.171875 -0.203125 0.46875 -0.203125q0.59375 0 0.59375 0.578125q0 0.375 -0.1875 0.5625q-0.171875 0.1875 -0.453125 0.1875zm-1.734375 1.515625l0.09375 -0.453125l1.921875 0l-0.734375 3.421875q-0.15625 0.765625 -0.15625 1.1875q0 0.546875 0.359375 0.546875q0.296875 0 0.75 -0.28125l0.203125 0.3125q-0.734375 0.640625 -1.4375 0.640625q-0.40625 0 -0.65625 -0.28125q-0.234375 -0.296875 -0.234375 -0.734375q0 -0.484375 0.234375 -1.671875l0.421875 -1.953125q0.03125 -0.171875 0.03125 -0.28125q0 -0.453125 -0.65625 -0.453125l-0.140625 0zm6.210388 -0.546875q0.953125 0 1.484375 0.5625q0.546875 0.5625 0.546875 1.640625q0 1.421875 -0.875 2.578125q-0.859375 1.140625 -2.28125 1.140625q-0.953125 0 -1.5 -0.578125q-0.546875 -0.59375 -0.546875 -1.625q0 -1.4375 0.875 -2.578125q0.890625 -1.140625 2.296875 -1.140625zm-1.0 5.390625q0.875 0 1.390625 -1.03125q0.53125 -1.046875 0.53125 -2.3125q0 -1.484375 -1.046875 -1.484375q-0.859375 0 -1.40625 1.046875q-0.53125 1.046875 -0.53125 2.3125q0 1.46875 1.0625 1.46875zm4.9627686 0.421875l-1.0 0l0.890625 -4.28125q0.0625 -0.296875 0.0625 -0.484375q0 -0.5 -0.734375 -0.5l-0.09375 0l0.09375 -0.453125l1.984375 0l-0.296875 1.34375l0.109375 0q0.859375 -1.4375 1.9375 -1.4375q1.140625 0 1.140625 1.1875q0 0.34375 -0.1875 1.171875l-0.28125 1.25q-0.140625 0.640625 -0.140625 1.125q0 0.515625 0.375 0.515625q0.3125 0 0.6875 -0.25l0.1875 0.3125q-0.703125 0.609375 -1.296875 0.609375q-0.453125 0 -0.71875 -0.28125q-0.25 -0.296875 -0.25 -0.78125q0 -0.5 0.203125 -1.453125l0.234375 -1.09375q0.15625 -0.640625 0.15625 -1.0q0 -0.625 -0.484375 -0.625q-0.59375 0 -1.21875 0.8125q-0.609375 0.796875 -0.796875 1.59375l-0.5625 2.71875zm4.618744 1.5625l0.046875 -0.453125q1.078125 -0.25 1.078125 -0.890625q0 -0.1875 -0.34375 -0.40625q-0.34375 -0.21875 -0.34375 -0.546875q0 -0.28125 0.171875 -0.453125q0.1875 -0.171875 0.484375 -0.171875q0.359375 0 0.59375 0.234375q0.234375 0.234375 0.234375 0.640625q0 0.78125 -0.5 1.3125q-0.484375 0.546875 -1.421875 0.734375zm9.61969 -3.171875l-0.0625 0q-0.765625 1.71875 -2.0 1.71875q-0.640625 0 -1.015625 -0.515625q-0.359375 -0.515625 -0.359375 -1.4375q0 -1.46875 0.90625 -2.71875q0.921875 -1.25 2.265625 -1.25q0.734375 0 1.25 0.375l0.46875 -0.265625l0.34375 0l-0.71875 3.40625q-0.15625 0.734375 -0.15625 1.1875q0 0.546875 0.34375 0.546875q0.296875 0 0.765625 -0.28125l0.203125 0.3125q-0.765625 0.640625 -1.515625 0.640625q-0.828125 0 -0.828125 -0.890625q0 -0.34375 0.109375 -0.828125zm0.609375 -3.34375q-0.25 -0.390625 -0.8125 -0.390625q-0.90625 0 -1.53125 1.171875q-0.609375 1.15625 -0.609375 2.375q0 1.234375 0.671875 1.234375q0.53125 0 1.109375 -0.78125q0.578125 -0.796875 0.765625 -1.71875l0.40625 -1.890625z" fill-rule="nonzero"/><path fill="#000000" fill-opacity="0.0" d="m227.7126 10.403178l0 0c0 -1.6362438 1.3264313 -2.9626818 2.962677 -2.9626818l79.14549 0c0.7857666 0 1.5393372 0.31213856 2.0949402 0.8677492c0.555603 0.55561066 0.86776733 1.3091803 0.86776733 2.0949326l0 21.41322c0 1.6362438 -1.3264465 2.9626827 -2.9627075 2.9626827l-79.14549 0c-1.6362457 0 -2.962677 -1.3264389 -2.962677 -2.9626827z" fill-rule="evenodd"/><path fill="#000000" d="m253.4164 22.615414q0 0.828125 0.4375 1.328125q0.4375 0.484375 1.1875 0.484375q0.734375 0 1.1718903 -0.359375q0.453125 -0.375 0.453125 -1.015625q0 -0.5 -0.265625 -0.84375q-0.25 -0.34375 -1.0781403 -0.828125q-0.859375 -0.484375 -1.1875 -1.0q-0.328125 -0.53125 -0.328125 -1.1875q0 -0.921875 0.6875 -1.484375q0.703125 -0.578125 1.8906403 -0.578125q0.9375 0 1.484375 0.328125q0.546875 0.3125 0.546875 0.828125q0 0.734375 -0.9375 0.734375q0 -0.625 -0.296875 -0.984375q-0.296875 -0.375 -0.875 -0.375q-0.64064026 0 -1.0468903 0.375q-0.390625 0.359375 -0.390625 0.96875q0 0.453125 0.203125 0.796875q0.21875 0.328125 1.1093903 0.84375q0.828125 0.484375 1.203125 0.96875q0.375 0.484375 0.375 1.09375q0 1.0625 -0.75 1.65625q-0.734375 0.59375 -2.0468903 0.59375q-1.078125 0 -1.71875 -0.421875q-0.640625 -0.4375 -0.640625 -1.109375q0 -0.359375 0.21875 -0.578125q0.234375 -0.234375 0.59375 -0.234375zm8.1089325 1.4375l0.1875 0.390625q-0.71875 0.515625 -1.4375 0.515625q-1.15625 0 -1.15625 -1.25q0 -0.40625 0.09375 -0.890625l0.65625 -3.078125l-0.8125 0l0.09375 -0.421875q1.046875 0 1.640625 -1.5l0.484375 0l-0.28125 1.3125l1.296875 0l-0.140625 0.609375l-1.28125 0l-0.640625 3.046875q-0.140625 0.609375 -0.140625 0.90625q0 0.59375 0.578125 0.59375q0.421875 0 0.859375 -0.234375zm4.6107483 -0.8125l-0.0625 0q-0.765625 1.71875 -2.0 1.71875q-0.640625 0 -1.015625 -0.515625q-0.359375 -0.515625 -0.359375 -1.4375q0 -1.46875 0.90625 -2.71875q0.921875 -1.25 2.265625 -1.25q0.734375 0 1.25 0.375l0.46875 -0.265625l0.34375 0l-0.71875 3.40625q-0.15625 0.734375 -0.15625 1.1875q0 0.546875 0.34375 0.546875q0.296875 0 0.765625 -0.28125l0.203125 0.3125q-0.765625 0.640625 -1.515625 0.640625q-0.828125 0 -0.828125 -0.890625q0 -0.34375 0.109375 -0.828125zm0.609375 -3.34375q-0.25 -0.390625 -0.8125 -0.390625q-0.90625 0 -1.53125 1.171875q-0.609375 1.15625 -0.609375 2.375q0 1.234375 0.671875 1.234375q0.53125 0 1.109375 -0.78125q0.578125 -0.796875 0.765625 -1.71875l0.40625 -1.890625zm4.874176 4.15625l0.1875 0.390625q-0.71875 0.515625 -1.4375 0.515625q-1.15625 0 -1.15625 -1.25q0 -0.40625 0.09375 -0.890625l0.65625 -3.078125l-0.8125 0l0.09375 -0.421875q1.046875 0 1.640625 -1.5l0.484375 0l-0.28125 1.3125l1.296875 0l-0.140625 0.609375l-1.28125 0l-0.640625 3.046875q-0.140625 0.609375 -0.140625 0.90625q0 0.59375 0.578125 0.59375q0.421875 0 0.859375 -0.234375zm4.9857483 -0.53125q0.109375 0.0625 0.109375 0.265625q0 0.421875 -0.5 0.796875q-0.5 0.375 -1.34375 0.375q-0.921875 0 -1.5 -0.59375q-0.578125 -0.59375 -0.578125 -1.609375q0 -1.390625 0.90625 -2.546875q0.90625 -1.171875 2.265625 -1.171875q0.6875 0 1.046875 0.328125q0.375 0.3125 0.375 0.890625q0 0.859375 -0.90625 1.5q-0.890625 0.640625 -2.171875 0.640625l-0.1875 0q-0.09375 0 -0.1875 -0.015625q-0.03125 0.15625 -0.03125 0.453125q0 1.453125 1.171875 1.453125q0.90625 0 1.53125 -0.765625zm-2.578125 -1.625l0.109375 0q0.9375 0 1.546875 -0.453125q0.609375 -0.453125 0.609375 -1.1875q0 -0.71875 -0.625 -0.71875q-0.515625 0 -0.96875 0.65625q-0.4375 0.640625 -0.671875 1.703125zm3.2709045 4.515625l0.046875 -0.453125q1.078125 -0.25 1.078125 -0.890625q0 -0.1875 -0.34375 -0.40625q-0.34375 -0.21875 -0.34375 -0.546875q0 -0.28125 0.171875 -0.453125q0.1875 -0.171875 0.484375 -0.171875q0.359375 0 0.59375 0.234375q0.234375 0.234375 0.234375 0.640625q0 0.78125 -0.5 1.3125q-0.484375 0.546875 -1.421875 0.734375zm9.58844 -5.703125q0 -0.53125 -0.265625 -0.84375q-0.25 -0.328125 -0.703125 -0.328125q-0.46875 0 -0.75 0.265625q-0.28125 0.25 -0.28125 0.640625q0 0.359375 0.265625 0.609375q0.265625 0.25 0.828125 0.5q1.28125 0.5625 1.28125 1.640625q0 0.796875 -0.609375 1.28125q-0.609375 0.484375 -1.59375 0.484375q-0.8125 0 -1.296875 -0.328125q-0.46875 -0.328125 -0.46875 -0.875q0 -0.34375 0.1875 -0.515625q0.1875 -0.1875 0.484375 -0.1875q0 0.65625 0.3125 1.03125q0.328125 0.359375 0.90625 0.359375q1.140625 0 1.140625 -0.984375q0 -0.390625 -0.25 -0.640625q-0.234375 -0.265625 -0.8125 -0.546875q-0.765625 -0.359375 -1.03125 -0.734375q-0.265625 -0.390625 -0.265625 -0.90625q0 -0.703125 0.5625 -1.140625q0.578125 -0.453125 1.484375 -0.453125q0.796875 0 1.234375 0.296875q0.4375 0.296875 0.4375 0.71875q0 0.65625 -0.796875 0.65625z" fill-rule="nonzero"/><path fill="#000000" fill-opacity="0.0" d="m80.53543 49.945175l0 0c0 -1.6362457 1.3264389 -2.9626846 2.9626846 -2.9626846l79.1455 0c0.78575134 0 1.5393219 0.3121376 2.0949402 0.86774826c0.555603 0.55561066 0.8677368 1.3091812 0.8677368 2.0949364l0 21.413216c0 1.6362457 -1.3264313 2.9626846 -2.962677 2.9626846l-79.1455 0c-1.6362457 0 -2.9626846 -1.3264389 -2.9626846 -2.9626846z" fill-rule="evenodd"/><path fill="#000000" d="m99.95551 63.938656l0.140625 0q0.5 0 0.71875 -0.171875q0.21875 -0.171875 0.3125 -0.53125l1.125 -5.28125q0.046875 -0.203125 0.046875 -0.296875q0 -0.421875 -0.78125 -0.421875l-0.125 0l0.09375 -0.453125l5.359375 0l-0.328125 1.859375l-0.5625 0l0.015625 -0.1875q0.015625 -0.09375 0.015625 -0.1875q0.03125 -0.171875 0.03125 -0.234375q0 -0.71875 -0.8125 -0.71875l-1.75 0l-0.65625 3.078125l2.578125 0l-0.109375 0.53125l-2.5625 0l-0.484375 2.25q-0.03125 0.171875 -0.03125 0.265625q0 0.5 0.734375 0.5l0.34375 0l-0.078125 0.4531288l-3.3125 0l0.078125 -0.4531288zm10.264694 -0.875q0.109375 0.0625 0.109375 0.265625q0 0.421875 -0.5 0.7968788q-0.5 0.375 -1.34375 0.375q-0.921875 0 -1.5 -0.5937538q-0.578125 -0.59375 -0.578125 -1.609375q0 -1.390625 0.90625 -2.546875q0.90625 -1.171875 2.265625 -1.171875q0.6875 0 1.046875 0.328125q0.375 0.3125 0.375 0.890625q0 0.859375 -0.90625 1.5q-0.890625 0.640625 -2.171875 0.640625l-0.1875 0q-0.09375 0 -0.1875 -0.015625q-0.03125 0.15625 -0.03125 0.453125q0 1.453125 1.171875 1.453125q0.90625 0 1.53125 -0.765625zm-2.578125 -1.625l0.109375 0q0.9375 0 1.546875 -0.453125q0.609375 -0.453125 0.609375 -1.1875q0 -0.71875 -0.625 -0.71875q-0.515625 0 -0.96875 0.65625q-0.4375 0.640625 -0.671875 1.703125zm7.8334045 1.625q0.109375 0.0625 0.109375 0.265625q0 0.421875 -0.5 0.7968788q-0.5 0.375 -1.34375 0.375q-0.921875 0 -1.5 -0.5937538q-0.578125 -0.59375 -0.578125 -1.609375q0 -1.390625 0.90625 -2.546875q0.90625 -1.171875 2.265625 -1.171875q0.6875 0 1.046875 0.328125q0.375 0.3125 0.375 0.890625q0 0.859375 -0.90625 1.5q-0.890625 0.640625 -2.171875 0.640625l-0.1875 0q-0.09375 0 -0.1875 -0.015625q-0.03125 0.15625 -0.03125 0.453125q0 1.453125 1.171875 1.453125q0.90625 0 1.53125 -0.765625zm-2.578125 -1.625l0.109375 0q0.9375 0 1.546875 -0.453125q0.609375 -0.453125 0.609375 -1.1875q0 -0.71875 -0.625 -0.71875q-0.515625 0 -0.96875 0.65625q-0.4375 0.640625 -0.671875 1.703125zm7.4584045 1.34375l-0.0625 0q-0.765625 1.7187538 -2.0 1.7187538q-0.640625 0 -1.015625 -0.5156288q-0.359375 -0.515625 -0.359375 -1.4375q0 -1.46875 0.90625 -2.71875q0.921875 -1.25 2.265625 -1.25q0.609375 0 1.046875 0.25q0.09375 -0.484375 0.125 -0.59375l0.109375 -0.515625q0.0625 -0.359375 0.0625 -0.484375q0 -0.5 -0.734375 -0.5l-0.09375 0l0.09375 -0.4375l1.96875 0l-1.234375 5.796875q-0.15625 0.734375 -0.15625 1.1875q0 0.546875 0.34375 0.546875q0.296875 0 0.765625 -0.28125l0.203125 0.3125q-0.765625 0.6406288 -1.515625 0.6406288q-0.828125 0 -0.828125 -0.8906288q0 -0.34375 0.109375 -0.828125zm0.609375 -3.34375q-0.25 -0.390625 -0.8125 -0.390625q-0.90625 0 -1.53125 1.171875q-0.609375 1.15625 -0.609375 2.375q0 1.234375 0.671875 1.234375q0.53125 0 1.109375 -0.78125q0.578125 -0.796875 0.765625 -1.71875l0.40625 -1.890625zm2.780426 4.671879l-0.484375 0.3125l-0.34375 0l1.421875 -6.625004q0.09375 -0.4375 0.09375 -0.5625q0 -0.5 -0.75 -0.5l-0.09375 0l0.109375 -0.4375l2.0 0l-0.5 2.390625q-0.109375 0.515625 -0.390625 1.40625l0.0625 0q0.78125 -1.515625 1.9375 -1.515625q0.640625 0 1.0 0.484375q0.35936737 0.484375 0.35936737 1.4375q0 1.484375 -0.9218674 2.75q-0.90625 1.2500038 -2.25 1.2500038q-0.765625 0 -1.25 -0.390625zm0.375 -0.4687538q0.328125 0.3750038 0.828125 0.3750038q0.921875 0 1.515625 -1.1718788q0.609375 -1.1875 0.609375 -2.359375q0 -1.234375 -0.671875 -1.234375q-0.578125 0 -1.140625 0.8125q-0.546875 0.796875 -0.6875 1.46875l-0.453125 2.109375zm8.39518 -0.859375l-0.0625 0q-0.765625 1.7187538 -2.0 1.7187538q-0.640625 0 -1.015625 -0.5156288q-0.359375 -0.515625 -0.359375 -1.4375q0 -1.46875 0.90625 -2.71875q0.921875 -1.25 2.265625 -1.25q0.734375 0 1.25 0.375l0.46875 -0.265625l0.34375 0l-0.71875 3.40625q-0.15625 0.734375 -0.15625 1.1875q0 0.546875 0.34375 0.546875q0.296875 0 0.765625 -0.28125l0.203125 0.3125q-0.765625 0.6406288 -1.515625 0.6406288q-0.828125 0 -0.828125 -0.8906288q0 -0.34375 0.109375 -0.828125zm0.609375 -3.34375q-0.25 -0.390625 -0.8125 -0.390625q-0.90625 0 -1.53125 1.171875q-0.609375 1.15625 -0.609375 2.375q0 1.234375 0.671875 1.234375q0.53125 0 1.109375 -0.78125q0.578125 -0.796875 0.765625 -1.71875l0.40625 -1.890625zm5.936676 3.625q0.109375 0.0625 0.109375 0.265625q0 0.421875 -0.5 0.7968788q-0.5 0.375 -1.34375 0.375q-0.921875 0 -1.5 -0.5937538q-0.578125 -0.59375 -0.578125 -1.609375q0 -1.390625 0.90625 -2.546875q0.90625 -1.171875 2.265625 -1.171875q0.734375 0 1.140625 0.296875q0.421875 0.28125 0.421875 0.71875q0 0.328125 -0.265625 0.546875q-0.25 0.203125 -0.6875 0.203125q0 -0.5625 -0.21875 -0.90625q-0.21875 -0.359375 -0.59375 -0.359375q-0.75 0 -1.3125 1.125q-0.546875 1.109375 -0.546875 2.171875q0 1.453125 1.171875 1.453125q0.9375 0 1.53125 -0.765625zm4.5313873 -2.765625q0.78125 -0.671875 0.78125 -1.0q0 -0.15625 -0.46875 -0.15625l0.09375 -0.453125l2.359375 0l-0.09375 0.453125q-0.625 0 -1.71875 0.984375l-0.96875 0.890625l0.984375 2.109375q0.40625 0.8906288 1.078125 0.8906288l-0.09375 0.453125q-0.890625 0 -1.3125 -0.203125q-0.40625 -0.21875 -0.6875 -0.9062538l-0.703125 -1.6875l-0.953125 0.609375l-0.4375 2.1093788l-1.0 0l1.390625 -6.593754q0.09375 -0.46875 0.09375 -0.5625q0 -0.5 -0.75 -0.5l-0.078125 0l0.09375 -0.4375l1.953125 0l-0.421875 1.953125q-0.5625 2.6875 -0.8125 3.5l1.671875 -1.453125z" fill-rule="nonzero"/><path fill="#000000" fill-opacity="0.0" d="m99.00656 72.63472l54.582672 0" fill-rule="evenodd"/><path stroke="#595959" stroke-width="1.0" stroke-linejoin="round" stroke-linecap="butt" d="m99.00656 72.63472l48.582672 0" fill-rule="evenodd"/><path fill="#595959" stroke="#595959" stroke-width="1.0" stroke-linecap="butt" d="m147.58923 74.28645l4.538101 -1.6517334l-4.538101 -1.6517334z" fill-rule="evenodd"/><path fill="#000000" fill-opacity="0.0" d="m37.29659 53.207348l148.7559 -18.236217" fill-rule="evenodd"/><path stroke="#595959" stroke-width="1.0" stroke-linejoin="round" stroke-linecap="butt" stroke-dasharray="1.0,3.0" d="m37.29659 53.207348l148.7559 -18.236217" fill-rule="evenodd"/><path fill="#000000" fill-opacity="0.0" d="m36.047245 54.958004l152.50394 57.007877" fill-rule="evenodd"/><path stroke="#595959" stroke-width="1.0" stroke-linejoin="round" stroke-linecap="butt" stroke-dasharray="1.0,3.0" d="m36.047245 54.958004l152.50394 57.007877" fill-rule="evenodd"/></g></svg>