<svg version="1.1" viewBox="0.0 0.0 566.9291338582677 453.54330708661416" fill="none" stroke="none" stroke-linecap="square" stroke-miterlimit="10" xmlns:xlink="http://www.w3.org/1999/xlink" xmlns="http://www.w3.org/2000/svg"><clipPath id="gf850932200_1_64.0"><path d="m0 0l566.92914 0l0 453.5433l-566.92914 0l0 -453.5433z" clip-rule="nonzero"/></clipPath><g clip-path="url(#gf850932200_1_64.0)"><path fill="#ffffff" d="m0 0l566.92914 0l0 453.5433l-566.92914 0z" fill-rule="evenodd"/><path fill="#eeeeee" d="m493.24408 158.1916l0 0c0 -0.38269043 0.3102417 -0.69291687 0.6929321 -0.69291687l0 0c0.18377686 0 0.36001587 0.07299805 0.48995972 0.20295715c0.12994385 0.12994385 0.2029419 0.30618286 0.2029419 0.48995972l0 0c0 0.38267517 -0.31021118 0.69291687 -0.6929016 0.69291687l0 0c-0.38269043 0 -0.6929321 -0.3102417 -0.6929321 -0.69291687z" fill-rule="evenodd"/><path stroke="#595959" stroke-width="1.0" stroke-linejoin="round" stroke-linecap="butt" d="m493.24408 158.1916l0 0c0 -0.38269043 0.3102417 -0.69291687 0.6929321 -0.69291687l0 0c0.18377686 0 0.36001587 0.07299805 0.48995972 0.20295715c0.12994385 0.12994385 0.2029419 0.30618286 0.2029419 0.48995972l0 0c0 0.38267517 -0.31021118 0.69291687 -0.6929016 0.69291687l0 0c-0.38269043 0 -0.6929321 -0.3102417 -0.6929321 -0.69291687z" fill-rule="evenodd"/><path fill="#595959" d="m74.619194 248.74641l0 0c0 -0.5419464 0.43933105 -0.98127747 0.98127747 -0.98127747l22.215683 0c0.2602539 0 0.5098419 0.103393555 0.69387054 0.28741455c0.18402863 0.184021 0.28740692 0.433609 0.28740692 0.6938629l0 3.925003c0 0.5419464 -0.43933105 0.98127747 -0.98127747 0.98127747l-22.215683 0c-0.5419464 0 -0.98127747 -0.43933105 -0.98127747 -0.98127747z" fill-rule="evenodd"/><path stroke="#595959" stroke-width="1.0" stroke-linejoin="round" stroke-linecap="butt" d="m74.619194 248.74641l0 0c0 -0.5419464 0.43933105 -0.98127747 0.98127747 -0.98127747l22.215683 0c0.2602539 0 0.5098419 0.103393555 0.69387054 0.28741455c0.18402863 0.184021 0.28740692 0.433609 0.28740692 0.6938629l0 3.925003c0 0.5419464 -0.43933105 0.98127747 -0.98127747 0.98127747l-22.215683 0c-0.5419464 0 -0.98127747 -0.43933105 -0.98127747 -0.98127747z" fill-rule="evenodd"/><path fill="#595959" d="m74.619194 320.5332l0 0c0 -0.90444946 0.7331848 -1.6376343 1.6376266 -1.6376343l11.666061 0c0.43432617 0 0.8508606 0.17254639 1.1579742 0.47964478c0.30712128 0.3071289 0.4796524 0.72366333 0.4796524 1.1579895l0 2.6123047c0 0.90444946 -0.73319244 1.6376343 -1.6376266 1.6376343l-11.666061 0l0 0c-0.90444183 0 -1.6376266 -0.7331848 -1.6376266 -1.6376343z" fill-rule="evenodd"/><path stroke="#595959" stroke-width="1.0" stroke-linejoin="round" stroke-linecap="butt" d="m74.619194 320.5332l0 0c0 -0.90444946 0.7331848 -1.6376343 1.6376266 -1.6376343l11.666061 0c0.43432617 0 0.8508606 0.17254639 1.1579742 0.47964478c0.30712128 0.3071289 0.4796524 0.72366333 0.4796524 1.1579895l0 2.6123047c0 0.90444946 -0.73319244 1.6376343 -1.6376266 1.6376343l-11.666061 0l0 0c-0.90444183 0 -1.6376266 -0.7331848 -1.6376266 -1.6376343z" fill-rule="evenodd"/><path fill="#595959" d="m74.619194 290.89264l0 0c0 -0.9923706 0.80446625 -1.7968445 1.7968292 -1.7968445l7.187111 0l0 0c0.47654724 0 0.9335785 0.18933105 1.2705536 0.52627563c0.33696747 0.3369751 0.52627563 0.79400635 0.52627563 1.2705688l0 30.475677c0 0.9923706 -0.80446625 1.7968445 -1.7968292 1.7968445l-7.187111 0c-0.992363 0 -1.7968292 -0.8044739 -1.7968292 -1.7968445z" fill-rule="evenodd"/><path stroke="#595959" stroke-width="1.0" stroke-linejoin="round" stroke-linecap="butt" d="m74.619194 290.89264l0 0c0 -0.9923706 0.80446625 -1.7968445 1.7968292 -1.7968445l7.187111 0l0 0c0.47654724 0 0.9335785 0.18933105 1.2705536 0.52627563c0.33696747 0.3369751 0.52627563 0.79400635 0.52627563 1.2705688l0 30.475677c0 0.9923706 -0.80446625 1.7968445 -1.7968292 1.7968445l-7.187111 0c-0.992363 0 -1.7968292 -0.8044739 -1.7968292 -1.7968445z" fill-rule="evenodd"/><path fill="#595959" d="m71.479164 235.72398l0 0c0 -4.9930115 4.0476456 -9.040665 9.040672 -9.040665l0 0c2.3977356 0 4.6972656 0.9524994 6.392723 2.6479492c1.6954498 1.6954498 2.6479492 3.9949799 2.6479492 6.3927155l0 0c0 4.9930267 -4.0476456 9.04068 -9.040672 9.04068l0 0c-4.9930267 0 -9.040672 -4.047653 -9.040672 -9.04068z" fill-rule="evenodd"/><path stroke="#595959" stroke-width="1.0" stroke-linejoin="round" stroke-linecap="butt" d="m71.479164 235.72398l0 0c0 -4.9930115 4.0476456 -9.040665 9.040672 -9.040665l0 0c2.3977356 0 4.6972656 0.9524994 6.392723 2.6479492c1.6954498 1.6954498 2.6479492 3.9949799 2.6479492 6.3927155l0 0c0 4.9930267 -4.0476456 9.04068 -9.040672 9.04068l0 0c-4.9930267 0 -9.040672 -4.047653 -9.040672 -9.04068z" fill-rule="evenodd"/><path fill="#595959" d="m70.33654 253.63194l0 0c0 -3.2401428 2.6266556 -5.866806 5.8667984 -5.866806l6.871086 0l0 0c1.5559692 0 3.0482178 0.618103 4.1484528 1.7183533c1.1002426 1.100235 1.7183456 2.5924835 1.7183456 4.1484528l0 31.258652c0 3.2401428 -2.6266556 5.8668213 -5.8667984 5.8668213l-6.871086 0c-3.2401428 0 -5.8667984 -2.6266785 -5.8667984 -5.8668213z" fill-rule="evenodd"/><path stroke="#595959" stroke-width="1.0" stroke-linejoin="round" stroke-linecap="butt" d="m70.33654 253.63194l0 0c0 -3.2401428 2.6266556 -5.866806 5.8667984 -5.866806l6.871086 0l0 0c1.5559692 0 3.0482178 0.618103 4.1484528 1.7183533c1.1002426 1.100235 1.7183456 2.5924835 1.7183456 4.1484528l0 31.258652c0 3.2401428 -2.6266556 5.8668213 -5.8667984 5.8668213l-6.871086 0c-3.2401428 0 -5.8667984 -2.6266785 -5.8667984 -5.8668213z" fill-rule="evenodd"/><path fill="#595959" d="m95.7817 251.917l0 0c-0.70090485 -1.4668427 -0.07917023 -3.222412 1.3886795 -3.9211884l12.713455 -6.0522766c0.7048874 -0.33555603 1.5146103 -0.37754822 2.2510452 -0.116744995c0.73643494 0.26080322 1.3392487 0.8030548 1.6758347 1.5074463l0 0l0 0c0.7008972 1.4668427 0.0791626 3.222412 -1.3886871 3.9211884l-12.713455 6.0522766c-1.4678497 0.698761 -3.225975 0.0761261 -3.9268723 -1.3907013z" fill-rule="evenodd"/><path stroke="#595959" stroke-width="1.0" stroke-linejoin="round" stroke-linecap="butt" d="m95.7817 251.917l0 0c-0.70090485 -1.4668427 -0.07917023 -3.222412 1.3886795 -3.9211884l12.713455 -6.0522766c0.7048874 -0.33555603 1.5146103 -0.37754822 2.2510452 -0.116744995c0.73643494 0.26080322 1.3392487 0.8030548 1.6758347 1.5074463l0 0l0 0c0.7008972 1.4668427 0.0791626 3.222412 -1.3886871 3.9211884l-12.713455 6.0522766c-1.4678497 0.698761 -3.225975 0.0761261 -3.9268723 -1.3907013z" fill-rule="evenodd"/><path fill="#595959" d="m114.871124 241.38889l31.735306 -17.197647l-30.269958 19.683502z" fill-rule="evenodd"/><path stroke="#595959" stroke-width="1.0" stroke-linejoin="round" stroke-linecap="butt" d="m114.871124 241.38889l31.735306 -17.197647l-30.269958 19.683502z" fill-rule="evenodd"/><path fill="#000000" fill-opacity="0.0" d="m348.3491 241.75456l0 0c0 -2.0924377 1.696228 -3.788681 3.7886658 -3.788681l99.572235 0c1.0048218 0 1.9685059 0.39915466 2.679016 1.1096802c0.71051025 0.71051025 1.1096802 1.6741791 1.1096802 2.6790009l0 27.383255c0 2.0924377 -1.6962585 3.7886963 -3.7886963 3.7886963l-99.572235 0c-2.0924377 0 -3.7886658 -1.6962585 -3.7886658 -3.7886963z" fill-rule="evenodd"/><path stroke="#000000" stroke-width="1.0" stroke-linejoin="round" stroke-linecap="butt" d="m348.3491 241.75456l0 0c0 -2.0924377 1.696228 -3.788681 3.7886658 -3.788681l99.572235 0c1.0048218 0 1.9685059 0.39915466 2.679016 1.1096802c0.71051025 0.71051025 1.1096802 1.6741791 1.1096802 2.6790009l0 27.383255c0 2.0924377 -1.6962585 3.7886963 -3.7886963 3.7886963l-99.572235 0c-2.0924377 0 -3.7886658 -1.6962585 -3.7886658 -3.7886963z" fill-rule="evenodd"/><path fill="#000000" d="m362.816 259.58994l2.5625 0q0.3125 0 0.53125 -0.09375q0.234375 -0.09375 0.375 -0.234375q0.15625 -0.15625 0.234375 -0.34375q0.09375 -0.203125 0.125 -0.421875l0.09375 -0.578125l0.703125 0l-0.09375 2.328125l-7.15625 0l0 -0.5625l0.171875 0q0.21875 0 0.421875 -0.03125q0.203125 -0.03125 0.34375 -0.109375q0.15625 -0.09375 0.234375 -0.265625q0.09375 -0.1875 0.09375 -0.484375l0 -6.5468597q0 -0.3125 -0.09375 -0.5q-0.078125 -0.1875 -0.234375 -0.28125q-0.140625 -0.109375 -0.34375 -0.140625q-0.1875 -0.03125 -0.421875 -0.03125l-0.171875 0l0 -0.5625l6.71875 0l0.0625 2.328125l-0.6875 0l-0.0625 -0.5625q-0.015625 -0.234375 -0.09375 -0.421875q-0.078125 -0.203125 -0.21875 -0.34375q-0.140625 -0.15625 -0.359375 -0.234375q-0.203125 -0.09375 -0.5 -0.09375l-2.234375 0l0 3.546875l3.203125 0l0 0.640625l-3.203125 0l0 3.9999847zm9.132172 0.09375l0 0.5625l-3.578125 0l0 -0.5625l0.109375 0q0.21875 0 0.421875 -0.03125q0.203125 -0.03125 0.34375 -0.125q0.15625 -0.109375 0.234375 -0.296875q0.09375 -0.1875 0.09375 -0.5l0 -4.1562347q0 -0.296875 -0.09375 -0.46875q-0.078125 -0.1875 -0.234375 -0.28125q-0.15625 -0.09375 -0.359375 -0.125q-0.1875 -0.046875 -0.40625 -0.046875l-0.046875 0l0 -0.546875l2.15625 0l0.171875 1.078125l0.078125 0q0.203125 -0.375 0.421875 -0.609375q0.234375 -0.234375 0.484375 -0.359375q0.265625 -0.140625 0.546875 -0.1875q0.296875 -0.0625 0.625 -0.0625q0.53125 0 0.9375 0.15625q0.421875 0.15625 0.703125 0.46875q0.296875 0.3125 0.4375 0.8125q0.15625 0.5 0.15625 1.171875l0 3.1562347q0 0.3125 0.078125 0.5q0.078125 0.1875 0.203125 0.296875q0.140625 0.09375 0.328125 0.125q0.1875 0.03125 0.421875 0.03125l0.03125 0l0 0.5625l-2.3125 0l0 -4.5937347q0 -0.4375 -0.078125 -0.78125q-0.078125 -0.34375 -0.25 -0.578125q-0.171875 -0.234375 -0.453125 -0.34375q-0.28125 -0.125 -0.6875 -0.125q-0.453125 0 -0.765625 0.171875q-0.3125 0.171875 -0.5 0.484375q-0.1875 0.296875 -0.265625 0.6875q-0.078125 0.390625 -0.078125 0.8125l0 2.8124847q0 0.296875 0.078125 0.484375q0.09375 0.171875 0.234375 0.265625q0.15625 0.078125 0.359375 0.109375q0.203125 0.03125 0.421875 0.03125l0.03125 0zm4.690674 -6.0312347l0 -0.546875l3.34375 0l0 0.546875l-0.171875 0q-0.40625 0 -0.609375 0.15625q-0.1875 0.15625 -0.1875 0.5q0 0.109375 0.015625 0.21875q0.03125 0.109375 0.078125 0.265625l0.90625 2.5156097q0.078125 0.234375 0.171875 0.515625q0.09375 0.28125 0.171875 0.5625q0.09375 0.265625 0.15625 0.515625q0.0625 0.25 0.09375 0.40625l0.03125 0q0.046875 -0.140625 0.109375 -0.34375q0.078125 -0.21875 0.171875 -0.46875q0.09375 -0.25 0.1875 -0.5q0.109375 -0.265625 0.203125 -0.515625l0.953125 -2.5937347q0.0625 -0.15625 0.09375 -0.296875q0.03125 -0.15625 0.03125 -0.265625q0 -0.359375 -0.21875 -0.515625q-0.21875 -0.15625 -0.65625 -0.15625l-0.09375 0l0 -0.546875l2.84375 0l0 0.546875l-0.15625 0q-0.1875 0 -0.328125 0.046875q-0.140625 0.046875 -0.25 0.171875q-0.109375 0.109375 -0.21875 0.3125q-0.09375 0.203125 -0.21875 0.515625l-2.09375 5.5468597l-1.21875 0l-2.140625 -5.8749847q-0.078125 -0.203125 -0.171875 -0.34375q-0.078125 -0.140625 -0.1875 -0.21875q-0.109375 -0.078125 -0.265625 -0.109375q-0.140625 -0.046875 -0.328125 -0.046875l-0.046875 0zm8.155823 6.0312347q0.21875 0 0.40625 -0.03125q0.203125 -0.03125 0.359375 -0.109375q0.15625 -0.09375 0.234375 -0.265625q0.09375 -0.1875 0.09375 -0.484375l0 -4.2187347q0 -0.296875 -0.09375 -0.46875q-0.078125 -0.1875 -0.234375 -0.28125q-0.15625 -0.09375 -0.359375 -0.125q-0.1875 -0.046875 -0.40625 -0.046875l-0.046875 0l0 -0.546875l2.390625 0l0 5.6249847q0 0.3125 0.078125 0.5q0.09375 0.1875 0.234375 0.296875q0.15625 0.09375 0.359375 0.125q0.203125 0.03125 0.421875 0.03125l0.171875 0l0 0.5625l-3.78125 0l0 -0.5625l0.171875 0zm0.90625 -8.749985q0 -0.234375 0.046875 -0.390625q0.0625 -0.15625 0.171875 -0.25q0.109375 -0.09375 0.234375 -0.125q0.140625 -0.046875 0.296875 -0.046875q0.15625 0 0.296875 0.046875q0.140625 0.03125 0.234375 0.125q0.109375 0.09375 0.171875 0.25q0.0625 0.15625 0.0625 0.390625q0 0.234375 -0.0625 0.390625q-0.0625 0.15625 -0.171875 0.265625q-0.09375 0.09375 -0.234375 0.140625q-0.140625 0.03125 -0.296875 0.03125q-0.15625 0 -0.296875 -0.03125q-0.125 -0.046875 -0.234375 -0.140625q-0.109375 -0.109375 -0.171875 -0.265625q-0.046875 -0.15625 -0.046875 -0.390625zm7.15329 9.312485l-3.84375 0l0 -0.5625l0.046875 0q0.21875 0 0.421875 -0.03125q0.203125 -0.03125 0.34375 -0.125q0.15625 -0.109375 0.234375 -0.296875q0.09375 -0.1875 0.09375 -0.5l0 -4.1562347q0 -0.296875 -0.09375 -0.46875q-0.078125 -0.1875 -0.234375 -0.28125q-0.15625 -0.09375 -0.359375 -0.125q-0.1875 -0.046875 -0.40625 -0.046875l-0.046875 0l0 -0.546875l2.0625 0l0.25 1.3125l0.0625 0q0.125 -0.296875 0.265625 -0.5625q0.140625 -0.265625 0.328125 -0.453125q0.203125 -0.203125 0.5 -0.3125q0.296875 -0.125 0.734375 -0.125q0.734375 0 1.078125 0.265625q0.359375 0.25 0.359375 0.703125q0 0.21875 -0.078125 0.390625q-0.0625 0.171875 -0.21875 0.296875q-0.140625 0.125 -0.375 0.203125q-0.234375 0.0625 -0.578125 0.0625q0 -0.546875 -0.15625 -0.78125q-0.15625 -0.25 -0.546875 -0.25q-0.234375 0 -0.4375 0.140625q-0.1875 0.125 -0.34375 0.359375q-0.140625 0.234375 -0.25 0.53125q-0.09375 0.296875 -0.15625 0.625q-0.0625 0.3125 -0.09375 0.62498474q-0.015625 0.3125 -0.015625 0.5625l0 2.09375q0 0.296875 0.078125 0.484375q0.09375 0.171875 0.234375 0.265625q0.15625 0.078125 0.359375 0.109375q0.203125 0.03125 0.421875 0.03125l0.359375 0l0 0.5625zm8.951996 -3.578125q0 1.875 -0.796875 2.796875q-0.796875 0.90625 -2.328125 0.90625q-0.71875 0 -1.296875 -0.21875q-0.578125 -0.234375 -0.984375 -0.6875q-0.390625 -0.46875 -0.609375 -1.171875q-0.203125 -0.703125 -0.203125 -1.625q0 -1.8749847 0.78125 -2.7812347q0.796875 -0.921875 2.34375 -0.921875q0.734375 0 1.296875 0.234375q0.578125 0.21875 0.96875 0.6875q0.40625 0.453125 0.609375 1.15625q0.21875 0.6875 0.21875 1.6249847zm-4.921875 0q0 0.734375 0.09375 1.296875q0.09375 0.5625 0.3125 0.953125q0.21875 0.375 0.5625 0.578125q0.34375 0.1875 0.859375 0.1875q0.5 0 0.84375 -0.1875q0.34375 -0.203125 0.546875 -0.578125q0.21875 -0.390625 0.3125 -0.953125q0.09375 -0.5625 0.09375 -1.296875q0 -0.74998474 -0.09375 -1.3124847q-0.09375 -0.5625 -0.3125 -0.9375q-0.21875 -0.375 -0.5625 -0.5625q-0.34375 -0.1875 -0.84375 -0.1875q-0.5 0 -0.84375 0.1875q-0.34375 0.1875 -0.5625 0.5625q-0.21875 0.375 -0.3125 0.9375q-0.09375 0.5625 -0.09375 1.3124847zm9.614166 3.015625l0 0.5625l-3.578125 0l0 -0.5625l0.109375 0q0.21875 0 0.421875 -0.03125q0.203125 -0.03125 0.34375 -0.125q0.15625 -0.109375 0.234375 -0.296875q0.09375 -0.1875 0.09375 -0.5l0 -4.1562347q0 -0.296875 -0.09375 -0.46875q-0.078125 -0.1875 -0.234375 -0.28125q-0.15625 -0.09375 -0.359375 -0.125q-0.1875 -0.046875 -0.40625 -0.046875l-0.046875 0l0 -0.546875l2.15625 0l0.171875 1.078125l0.078125 0q0.203125 -0.375 0.421875 -0.609375q0.234375 -0.234375 0.484375 -0.359375q0.265625 -0.140625 0.546875 -0.1875q0.296875 -0.0625 0.625 -0.0625q0.53125 0 0.9375 0.15625q0.421875 0.15625 0.703125 0.46875q0.296875 0.3125 0.4375 0.8125q0.15625 0.5 0.15625 1.171875l0 3.1562347q0 0.3125 0.078125 0.5q0.078125 0.1875 0.203125 0.296875q0.140625 0.09375 0.328125 0.125q0.1875 0.03125 0.421875 0.03125l0.03125 0l0 0.5625l-2.3125 0l0 -4.5937347q0 -0.4375 -0.078125 -0.78125q-0.078125 -0.34375 -0.25 -0.578125q-0.171875 -0.234375 -0.453125 -0.34375q-0.28125 -0.125 -0.6875 -0.125q-0.453125 0 -0.765625 0.171875q-0.3125 0.171875 -0.5 0.484375q-0.1875 0.296875 -0.265625 0.6875q-0.078125 0.390625 -0.078125 0.8125l0 2.8124847q0 0.296875 0.078125 0.484375q0.09375 0.171875 0.234375 0.265625q0.15625 0.078125 0.359375 0.109375q0.203125 0.03125 0.421875 0.03125l0.03125 0zm8.596924 0l0 0.5625l-3.578125 0l0 -0.5625l0.171875 0q0.234375 0 0.421875 -0.03125q0.1875 -0.03125 0.3125 -0.125q0.140625 -0.109375 0.21875 -0.296875q0.078125 -0.1875 0.078125 -0.5l0 -4.1562347q0 -0.296875 -0.078125 -0.46875q-0.078125 -0.1875 -0.21875 -0.28125q-0.140625 -0.09375 -0.328125 -0.125q-0.1875 -0.046875 -0.40625 -0.046875l-0.046875 0l0 -0.546875l2.09375 0l0.171875 1.078125l0.078125 0q0.203125 -0.375 0.421875 -0.609375q0.21875 -0.234375 0.46875 -0.359375q0.25 -0.140625 0.515625 -0.1875q0.28125 -0.0625 0.59375 -0.0625q0.328125 0 0.625 0.078125q0.296875 0.0625 0.546875 0.203125q0.25 0.140625 0.4375 0.375q0.203125 0.234375 0.328125 0.5625l0.109375 0q0.203125 -0.375 0.4375 -0.609375q0.234375 -0.234375 0.5 -0.359375q0.265625 -0.140625 0.546875 -0.1875q0.296875 -0.0625 0.609375 -0.0625q0.5 0 0.90625 0.15625q0.40625 0.15625 0.6875 0.46875q0.28125 0.3125 0.421875 0.8125q0.15625 0.5 0.15625 1.171875l0 3.1562347q0 0.3125 0.078125 0.5q0.078125 0.1875 0.203125 0.296875q0.140625 0.09375 0.328125 0.125q0.203125 0.03125 0.421875 0.03125l0.03125 0l0 0.5625l-2.3125 0l0 -4.5937347q0 -0.4375 -0.078125 -0.78125q-0.078125 -0.34375 -0.25 -0.578125q-0.15625 -0.234375 -0.421875 -0.34375q-0.265625 -0.125 -0.65625 -0.125q-0.40625 0 -0.703125 0.15625q-0.28125 0.15625 -0.453125 0.4375q-0.171875 0.265625 -0.25 0.625q-0.078125 0.359375 -0.078125 0.765625l0 2.9218597q0 0.3125 0.078125 0.5q0.078125 0.1875 0.21875 0.296875q0.140625 0.09375 0.328125 0.125q0.1875 0.03125 0.40625 0.03125l0.046875 0l0 0.5625l-2.328125 0l0 -4.5937347q0 -0.4375 -0.078125 -0.78125q-0.0625 -0.34375 -0.234375 -0.578125q-0.15625 -0.234375 -0.4375 -0.34375q-0.265625 -0.125 -0.640625 -0.125q-0.4375 0 -0.734375 0.171875q-0.296875 0.171875 -0.484375 0.484375q-0.171875 0.296875 -0.25 0.6875q-0.078125 0.390625 -0.078125 0.8125l0 2.8124847q0 0.296875 0.078125 0.484375q0.09375 0.171875 0.234375 0.265625q0.15625 0.078125 0.359375 0.109375q0.203125 0.03125 0.421875 0.03125l0.03125 0zm12.295868 -5.9999847q-0.734375 0 -1.140625 0.609375q-0.390625 0.59375 -0.46875 1.7499847l3.0625 0q0 -0.51560974 -0.078125 -0.95310974q-0.078125 -0.4375 -0.25 -0.75q-0.15625 -0.3125 -0.4375 -0.484375q-0.28125 -0.171875 -0.6875 -0.171875zm0.171875 6.6874847q-0.71875 0 -1.296875 -0.234375q-0.578125 -0.25 -0.984375 -0.71875q-0.390625 -0.46875 -0.609375 -1.140625q-0.203125 -0.6875 -0.203125 -1.546875q0 -1.8749847 0.765625 -2.8124847q0.765625 -0.953125 2.1875 -0.953125q0.640625 0 1.15625 0.203125q0.515625 0.203125 0.875 0.609375q0.359375 0.390625 0.546875 1.0q0.203125 0.59375 0.203125 1.3749847l0 0.609375l-4.4375 0q0 0.734375 0.125 1.265625q0.140625 0.515625 0.390625 0.859375q0.265625 0.328125 0.625 0.5q0.359375 0.15625 0.84375 0.15625q0.34375 0 0.640625 -0.078125q0.296875 -0.078125 0.53125 -0.203125q0.234375 -0.140625 0.421875 -0.296875q0.1875 -0.171875 0.3125 -0.359375q0.078125 0.046875 0.15625 0.171875q0.09375 0.109375 0.09375 0.28125q0 0.203125 -0.140625 0.4375q-0.140625 0.234375 -0.4375 0.4375q-0.296875 0.1875 -0.734375 0.3125q-0.4375 0.125 -1.03125 0.125zm7.2576294 -0.6875l0 0.5625l-3.578125 0l0 -0.5625l0.109375 0q0.21875 0 0.421875 -0.03125q0.203125 -0.03125 0.34375 -0.125q0.15625 -0.109375 0.234375 -0.296875q0.09375 -0.1875 0.09375 -0.5l0 -4.1562347q0 -0.296875 -0.09375 -0.46875q-0.078125 -0.1875 -0.234375 -0.28125q-0.15625 -0.09375 -0.359375 -0.125q-0.1875 -0.046875 -0.40625 -0.046875l-0.046875 0l0 -0.546875l2.15625 0l0.171875 1.078125l0.078125 0q0.203125 -0.375 0.421875 -0.609375q0.234375 -0.234375 0.484375 -0.359375q0.265625 -0.140625 0.546875 -0.1875q0.296875 -0.0625 0.625 -0.0625q0.53125 0 0.9375 0.15625q0.421875 0.15625 0.703125 0.46875q0.296875 0.3125 0.4375 0.8125q0.15625 0.5 0.15625 1.171875l0 3.1562347q0 0.3125 0.078125 0.5q0.078125 0.1875 0.203125 0.296875q0.140625 0.09375 0.328125 0.125q0.1875 0.03125 0.421875 0.03125l0.03125 0l0 0.5625l-2.3125 0l0 -4.5937347q0 -0.4375 -0.078125 -0.78125q-0.078125 -0.34375 -0.25 -0.578125q-0.171875 -0.234375 -0.453125 -0.34375q-0.28125 -0.125 -0.6875 -0.125q-0.453125 0 -0.765625 0.171875q-0.3125 0.171875 -0.5 0.484375q-0.1875 0.296875 -0.265625 0.6875q-0.078125 0.390625 -0.078125 0.8125l0 2.8124847q0 0.296875 0.078125 0.484375q0.09375 0.171875 0.234375 0.265625q0.15625 0.078125 0.359375 0.109375q0.203125 0.03125 0.421875 0.03125l0.03125 0zm8.175018 -0.015625q0.25 0 0.4375 -0.015625q0.203125 -0.03125 0.421875 -0.0625l0 0.578125q-0.09375 0.046875 -0.234375 0.078125q-0.125 0.03125 -0.296875 0.0625q-0.15625 0.03125 -0.328125 0.046875q-0.171875 0.015625 -0.328125 0.015625q-0.515625 0 -0.875 -0.109375q-0.359375 -0.09375 -0.59375 -0.328125q-0.234375 -0.25 -0.359375 -0.640625q-0.109375 -0.40625 -0.109375 -0.984375l0 -4.4531097l-1.015625 0l0 -0.53125q0.25 0 0.53125 -0.09375q0.296875 -0.09375 0.515625 -0.328125q0.21875 -0.25 0.359375 -0.578125q0.140625 -0.34375 0.25 -0.859375l0.609375 0l0 1.640625l1.75 0l0 0.75l-1.75 0l0 4.4999847q0 0.6875 0.28125 1.0q0.28125 0.3125 0.734375 0.3125z" fill-rule="nonzero"/><path fill="#000000" fill-opacity="0.0" d="m200.5433 239.98553l0 0c0 -2.0924377 1.6962585 -3.788681 3.788681 -3.788681l62.028946 0c1.0048218 0 1.9684753 0.39915466 2.6789856 1.1096802c0.7105408 0.71051025 1.1096802 1.6741791 1.1096802 2.6790009l0 27.38327c0 2.0924377 -1.696228 3.7886658 -3.7886658 3.7886658l-62.028946 0c-2.0924225 0 -3.788681 -1.696228 -3.788681 -3.7886658z" fill-rule="evenodd"/><path stroke="#000000" stroke-width="1.0" stroke-linejoin="round" stroke-linecap="butt" d="m200.5433 239.98553l0 0c0 -2.0924377 1.6962585 -3.788681 3.788681 -3.788681l62.028946 0c1.0048218 0 1.9684753 0.39915466 2.6789856 1.1096802c0.7105408 0.71051025 1.1096802 1.6741791 1.1096802 2.6790009l0 27.38327c0 2.0924377 -1.696228 3.7886658 -3.7886658 3.7886658l-62.028946 0c-2.0924225 0 -3.788681 -1.696228 -3.788681 -3.7886658z" fill-rule="evenodd"/><path fill="#000000" d="m219.67203 255.28966l-0.5 1.4062653q-0.0625 0.15625 -0.09375 0.3125q-0.03125 0.140625 -0.03125 0.265625q0 0.328125 0.21875 0.484375q0.21875 0.15625 0.671875 0.15625l0.296875 0l0 0.5625l-3.25 0l0 -0.5625l0.25 0q0.203125 0 0.328125 -0.03125q0.140625 -0.046875 0.25 -0.15625q0.109375 -0.125 0.203125 -0.328125q0.109375 -0.203125 0.234375 -0.515625l2.953125 -7.9218903l1.046875 0l3.015625 8.250015q0.078125 0.203125 0.15625 0.34375q0.078125 0.140625 0.1875 0.21875q0.109375 0.078125 0.25 0.109375q0.15625 0.03125 0.34375 0.03125l0.171875 0l0 0.5625l-3.65625 0l0 -0.5625l0.3125 0q0.796875 0 0.796875 -0.640625q0 -0.109375 -0.03125 -0.21875q-0.03125 -0.125 -0.078125 -0.265625l-0.53125 -1.5000153l-3.515625 0zm2.4375 -3.0q-0.203125 -0.59375 -0.375 -1.109375q-0.171875 -0.515625 -0.28125 -1.0q-0.046875 0.25 -0.109375 0.484375q-0.0625 0.21875 -0.140625 0.453125q-0.0625 0.234375 -0.15625 0.484375q-0.09375 0.25 -0.203125 0.5625l-0.90625 2.453125l3.0 0l-0.828125 -2.328125zm11.021072 -0.671875q0 0.140625 -0.046875 0.265625q-0.046875 0.125 -0.140625 0.21875q-0.078125 0.09375 -0.21875 0.15625q-0.125 0.046875 -0.296875 0.046875q0 -0.078125 -0.03125 -0.15625q-0.015625 -0.078125 -0.0625 -0.140625q-0.046875 -0.078125 -0.140625 -0.109375q-0.078125 -0.046875 -0.21875 -0.046875q-0.171875 0 -0.3125 0.046875q-0.125 0.03125 -0.25 0.109375q0.21875 0.28125 0.359375 0.671875q0.15625 0.375 0.15625 0.953125q0 0.484375 -0.15625 0.90625q-0.140625 0.421875 -0.4375 0.734375q-0.296875 0.296875 -0.75 0.46875q-0.453125 0.171875 -1.0625 0.171875q-0.078125 0 -0.171875 0q-0.09375 0 -0.203125 0q-0.09375 -0.015625 -0.1875 -0.015625q-0.078125 -0.015625 -0.125 -0.015625q-0.125 0.0625 -0.25 0.14064026q-0.109375 0.078125 -0.203125 0.171875q-0.078125 0.09375 -0.140625 0.21875q-0.046875 0.125 -0.046875 0.28125q0 0.15625 0.0625 0.265625q0.0625 0.09375 0.171875 0.15625q0.109375 0.046875 0.265625 0.0625q0.15625 0.015625 0.328125 0.015625l1.5 0q0.609375 0 1.015625 0.15625q0.421875 0.140625 0.6875 0.40625q0.265625 0.265625 0.375 0.640625q0.125 0.359375 0.125 0.78125q0 0.578125 -0.21875 1.03125q-0.203125 0.46875 -0.640625 0.78125q-0.4375 0.328125 -1.109375 0.5q-0.65625 0.1875 -1.5625 0.1875q-1.390625 0 -2.078125 -0.515625q-0.6875 -0.515625 -0.6875 -1.4375q0 -0.390625 0.125 -0.6875q0.140625 -0.28125 0.375 -0.5q0.234375 -0.203125 0.53125 -0.328125q0.296875 -0.125 0.625 -0.1875q-0.140625 -0.0625 -0.265625 -0.15625q-0.125 -0.09375 -0.234375 -0.234375q-0.109375 -0.140625 -0.171875 -0.3125q-0.0625 -0.171875 -0.0625 -0.390625q0 -0.40625 0.203125 -0.6875q0.21875 -0.29689026 0.671875 -0.56251526q-0.28125 -0.125 -0.515625 -0.328125q-0.21875 -0.203125 -0.375 -0.46875q-0.15625 -0.265625 -0.234375 -0.578125q-0.078125 -0.3125 -0.078125 -0.640625q0 -0.578125 0.15625 -1.03125q0.15625 -0.453125 0.46875 -0.765625q0.3125 -0.328125 0.78125 -0.5q0.46875 -0.171875 1.09375 -0.171875q0.25 0 0.484375 0.046875q0.234375 0.03125 0.421875 0.09375q0.203125 0.0625 0.359375 0.140625q0.15625 0.078125 0.265625 0.15625q0.09375 -0.09375 0.21875 -0.21875q0.140625 -0.140625 0.296875 -0.234375q0.15625 -0.109375 0.34375 -0.1875q0.203125 -0.078125 0.421875 -0.078125q0.203125 0 0.34375 0.0625q0.15625 0.0625 0.25 0.15625q0.09375 0.09375 0.140625 0.21875q0.0625 0.125 0.0625 0.265625zm-5.625 8.031265q0 0.296875 0.078125 0.546875q0.078125 0.25 0.265625 0.4375q0.203125 0.1875 0.53125 0.28125q0.328125 0.109375 0.84375 0.109375q0.703125 0 1.171875 -0.125q0.46875 -0.125 0.734375 -0.34375q0.28125 -0.203125 0.390625 -0.5q0.109375 -0.296875 0.109375 -0.640625q0 -0.3125 -0.09375 -0.515625q-0.078125 -0.1875 -0.25 -0.3125q-0.171875 -0.109375 -0.4375 -0.15625q-0.25 -0.046875 -0.578125 -0.046875l-1.3125 0q-0.265625 0 -0.53125 0.046875q-0.265625 0.046875 -0.46875 0.1875q-0.203125 0.140625 -0.328125 0.390625q-0.125 0.25 -0.125 0.640625zm0.765625 -6.0156403q0 0.84375 0.28125 1.25q0.296875 0.390625 0.9375 0.390625q0.328125 0 0.546875 -0.09375q0.21875 -0.09375 0.359375 -0.296875q0.15625 -0.203125 0.21875 -0.515625q0.0625 -0.328125 0.0625 -0.765625q0 -0.890625 -0.28125 -1.3125q-0.265625 -0.4375 -0.921875 -0.4375q-0.640625 0 -0.921875 0.4375q-0.28125 0.4375 -0.28125 1.34375zm8.671677 -1.71875q-0.734375 0 -1.140625 0.609375q-0.390625 0.59375 -0.46875 1.75l3.0625 0q0 -0.515625 -0.078125 -0.953125q-0.078125 -0.4375 -0.25 -0.75q-0.15625 -0.3125 -0.4375 -0.484375q-0.28125 -0.171875 -0.6875 -0.171875zm0.171875 6.6875153q-0.71875 0 -1.296875 -0.234375q-0.578125 -0.25 -0.984375 -0.71875q-0.390625 -0.46875 -0.609375 -1.140625q-0.203125 -0.68751526 -0.203125 -1.5468903q0 -1.875 0.765625 -2.8125q0.765625 -0.953125 2.1875 -0.953125q0.640625 0 1.15625 0.203125q0.515625 0.203125 0.875 0.609375q0.359375 0.390625 0.546875 1.0q0.203125 0.59375 0.203125 1.375l0 0.609375l-4.4375 0q0 0.734375 0.125 1.2656403q0.140625 0.515625 0.390625 0.859375q0.265625 0.328125 0.625 0.5q0.359375 0.15625 0.84375 0.15625q0.34375 0 0.640625 -0.078125q0.296875 -0.078125 0.53125 -0.203125q0.234375 -0.140625 0.421875 -0.296875q0.1875 -0.171875 0.3125 -0.359375q0.078125 0.046875 0.15625 0.171875q0.09375 0.109375 0.09375 0.28125q0 0.203125 -0.140625 0.4375q-0.140625 0.234375 -0.4375 0.4375q-0.296875 0.1875 -0.734375 0.3125q-0.4375 0.125 -1.03125 0.125zm7.2576294 -0.6875l0 0.5625l-3.578125 0l0 -0.5625l0.109375 0q0.21875 0 0.421875 -0.03125q0.203125 -0.03125 0.34375 -0.125q0.15625 -0.109375 0.234375 -0.296875q0.09375 -0.1875 0.09375 -0.5l0 -4.1562653q0 -0.296875 -0.09375 -0.46875q-0.078125 -0.1875 -0.234375 -0.28125q-0.15625 -0.09375 -0.359375 -0.125q-0.1875 -0.046875 -0.40625 -0.046875l-0.046875 0l0 -0.546875l2.15625 0l0.171875 1.078125l0.078125 0q0.203125 -0.375 0.421875 -0.609375q0.234375 -0.234375 0.484375 -0.359375q0.265625 -0.140625 0.546875 -0.1875q0.296875 -0.0625 0.625 -0.0625q0.53125 0 0.9375 0.15625q0.421875 0.15625 0.703125 0.46875q0.296875 0.3125 0.4375 0.8125q0.15625 0.5 0.15625 1.171875l0 3.1562653q0 0.3125 0.078125 0.5q0.078125 0.1875 0.203125 0.296875q0.140625 0.09375 0.328125 0.125q0.1875 0.03125 0.421875 0.03125l0.03125 0l0 0.5625l-2.3125 0l0 -4.5937653q0 -0.4375 -0.078125 -0.78125q-0.078125 -0.34375 -0.25 -0.578125q-0.171875 -0.234375 -0.453125 -0.34375q-0.28125 -0.125 -0.6875 -0.125q-0.453125 0 -0.765625 0.171875q-0.3125 0.171875 -0.5 0.484375q-0.1875 0.296875 -0.265625 0.6875q-0.078125 0.390625 -0.078125 0.8125l0 2.8125153q0 0.296875 0.078125 0.484375q0.09375 0.171875 0.234375 0.265625q0.15625 0.078125 0.359375 0.109375q0.203125 0.03125 0.421875 0.03125l0.03125 0zm8.175034 -0.015625q0.25 0 0.4375 -0.015625q0.203125 -0.03125 0.421875 -0.0625l0 0.578125q-0.09375 0.046875 -0.234375 0.078125q-0.125 0.03125 -0.296875 0.0625q-0.15625 0.03125 -0.328125 0.046875q-0.171875 0.015625 -0.328125 0.015625q-0.515625 0 -0.875 -0.109375q-0.359375 -0.09375 -0.59375 -0.328125q-0.234375 -0.25 -0.359375 -0.640625q-0.109375 -0.40625 -0.109375 -0.984375l0 -4.4531403l-1.015625 0l0 -0.53125q0.25 0 0.53125 -0.09375q0.296875 -0.09375 0.515625 -0.328125q0.21875 -0.25 0.359375 -0.578125q0.140625 -0.34375 0.25 -0.859375l0.609375 0l0 1.640625l1.75 0l0 0.75l-1.75 0l0 4.5000153q0 0.6875 0.28125 1.0q0.28125 0.3125 0.734375 0.3125z" fill-rule="nonzero"/><path fill="#000000" fill-opacity="0.0" d="m235.34645 271.15747l0 26.769043l166.58269 0l0 -25.005249" fill-rule="evenodd"/><path stroke="#595959" stroke-width="1.0" stroke-linejoin="round" stroke-linecap="butt" d="m235.34645 271.15747l0 26.769043l166.58269 0l0 -19.005249" fill-rule="evenodd"/><path fill="#595959" stroke="#595959" stroke-width="1.0" stroke-linecap="butt" d="m403.58087 278.92126l-1.6517334 -4.5381165l-1.6517334 4.5381165z" fill-rule="evenodd"/><path fill="#000000" fill-opacity="0.0" d="m401.9239 237.96588l0 -26.769028l-166.58269 0l0 25.005249" fill-rule="evenodd"/><path stroke="#595959" stroke-width="1.0" stroke-linejoin="round" stroke-linecap="butt" d="m401.9239 237.96588l0 -26.769028l-166.58269 0l0 19.005249" fill-rule="evenodd"/><path fill="#595959" stroke="#595959" stroke-width="1.0" stroke-linecap="butt" d="m233.68947 230.2021l1.6517334 4.538101l1.6517334 -4.538101z" fill-rule="evenodd"/><path fill="#000000" fill-opacity="0.0" d="m38.15354 191.44518l0 0c0 -1.6362457 1.3264389 -2.962677 2.9626846 -2.962677l79.1455 0c0.78575134 0 1.5393219 0.3121338 2.0949326 0.8677368c0.55561066 0.5556183 0.8677521 1.3091888 0.8677521 2.0949402l0 21.413223c0 1.6362305 -1.3264389 2.962677 -2.9626846 2.962677l-79.1455 0c-1.6362457 0 -2.9626846 -1.3264465 -2.9626846 -2.962677z" fill-rule="evenodd"/><path fill="#000000" d="m60.01929 205.43616q0 0.3125 0.078125 0.5q0.09375 0.1875 0.234375 0.296875q0.15625 0.09375 0.34375 0.125q0.203125 0.03125 0.4375 0.03125l0.296875 0l0 0.5625l-4.140625 0l0 -0.5625l0.296875 0q0.234375 0 0.421875 -0.03125q0.203125 -0.03125 0.34375 -0.109375q0.15625 -0.09375 0.234375 -0.265625q0.09375 -0.1875 0.09375 -0.484375l0 -7.390625l-1.265625 0q-0.296875 0 -0.5 0.09375q-0.1875 0.078125 -0.328125 0.234375q-0.125 0.140625 -0.1875 0.34375q-0.0625 0.1875 -0.078125 0.421875l-0.078125 0.5625l-0.6875 0l0.0625 -2.328125l7.5 0l0.078125 2.328125l-0.703125 0l-0.0625 -0.5625q-0.015625 -0.234375 -0.09375 -0.421875q-0.0625 -0.203125 -0.1875 -0.34375q-0.125 -0.15625 -0.328125 -0.234375q-0.1875 -0.09375 -0.484375 -0.09375l-1.296875 0l0 7.328125zm6.676502 -5.046875q-0.734375 0 -1.140625 0.609375q-0.390625 0.59375 -0.46875 1.75l3.0625 0q0 -0.515625 -0.078125 -0.953125q-0.078125 -0.4375 -0.25 -0.75q-0.15625 -0.3125 -0.4375 -0.484375q-0.28125 -0.171875 -0.6875 -0.171875zm0.171875 6.6875q-0.71875 0 -1.296875 -0.234375q-0.578125 -0.25 -0.984375 -0.71875q-0.390625 -0.46875 -0.6093788 -1.140625q-0.203125 -0.6875 -0.203125 -1.546875q0 -1.875 0.7656288 -2.8125q0.765625 -0.953125 2.1875 -0.953125q0.640625 0 1.15625 0.203125q0.515625 0.203125 0.875 0.609375q0.359375 0.390625 0.546875 1.0q0.203125 0.59375 0.203125 1.375l0 0.609375l-4.4375 0q0 0.734375 0.125 1.265625q0.140625 0.515625 0.390625 0.859375q0.265625 0.328125 0.625 0.5q0.359375 0.15625 0.84375 0.15625q0.34375 0 0.640625 -0.078125q0.296875 -0.078125 0.53125 -0.203125q0.234375 -0.140625 0.421875 -0.296875q0.1875 -0.171875 0.3125 -0.359375q0.078125 0.046875 0.15625 0.171875q0.09375 0.109375 0.09375 0.28125q0 0.203125 -0.140625 0.4375q-0.140625 0.234375 -0.4375 0.4375q-0.296875 0.1875 -0.734375 0.3125q-0.4375 0.125 -1.03125 0.125zm5.2576294 -2.0625q0 0.625 0.265625 0.9375q0.265625 0.3125 0.828125 0.3125q0.390625 0 0.71875 -0.125q0.328125 -0.140625 0.5625 -0.375q0.234375 -0.25 0.359375 -0.59375q0.125 -0.34375 0.125 -0.765625l0 -1.078125l-0.859375 0.046875q-0.5625 0.015625 -0.953125 0.140625q-0.375 0.109375 -0.609375 0.3125q-0.234375 0.203125 -0.34375 0.5q-0.09375 0.296875 -0.09375 0.6875zm1.625 -4.671875q-0.390625 0 -0.625 0.109375q-0.234375 0.109375 -0.375 0.3125q-0.125 0.1875 -0.171875 0.453125q-0.046875 0.265625 -0.046875 0.578125q-0.5625 0 -0.859375 -0.1875q-0.28125 -0.1875 -0.28125 -0.65625q0 -0.34375 0.1875 -0.578125q0.1875 -0.25 0.515625 -0.390625q0.34375 -0.15625 0.765625 -0.234375q0.4375 -0.078125 0.9375 -0.078125q0.609375 0 1.0625 0.125q0.453125 0.125 0.765625 0.40625q0.3125 0.265625 0.453125 0.703125q0.15625 0.4375 0.15625 1.078125l0 3.453125q0 0.28125 0.046875 0.46875q0.046875 0.171875 0.140625 0.28125q0.109375 0.109375 0.265625 0.15625q0.15625 0.046875 0.375 0.046875l0.046875 0l0 0.5625l-1.8125 0l-0.203125 -1.140625l-0.109375 0q-0.21875 0.28125 -0.421875 0.515625q-0.1875 0.234375 -0.421875 0.40625q-0.234375 0.15625 -0.53125 0.25q-0.28125 0.09375 -0.703125 0.09375q-0.4375 0 -0.828125 -0.125q-0.375 -0.125 -0.65625 -0.390625q-0.28125 -0.265625 -0.4375 -0.65625q-0.15625 -0.40625 -0.15625 -0.953125q0 -1.0625 0.75 -1.578125q0.765625 -0.515625 2.296875 -0.546875l1.109375 -0.046875l0 -0.796875q0 -0.359375 -0.046875 -0.65625q-0.03125 -0.3125 -0.171875 -0.53125q-0.125 -0.21875 -0.375 -0.328125q-0.234375 -0.125 -0.640625 -0.125zm7.706711 6.734375q-0.671875 0 -1.234375 -0.203125q-0.5625 -0.203125 -0.96875 -0.640625q-0.390625 -0.453125 -0.625 -1.140625q-0.21875 -0.6875 -0.21875 -1.671875q0 -1.0625 0.21875 -1.78125q0.234375 -0.734375 0.625 -1.15625q0.40625 -0.4375 0.953125 -0.625q0.546875 -0.1875 1.171875 -0.1875q0.421875 0 0.828125 0.09375q0.421875 0.078125 0.75 0.25q0.328125 0.15625 0.53125 0.421875q0.21875 0.25 0.21875 0.59375q0 0.46875 -0.3125 0.65625q-0.296875 0.1875 -0.890625 0.1875q0 -0.3125 -0.046875 -0.59375q-0.046875 -0.28125 -0.171875 -0.484375q-0.125 -0.21875 -0.34375 -0.328125q-0.21875 -0.125 -0.5625 -0.125q-0.390625 0 -0.703125 0.140625q-0.296875 0.140625 -0.515625 0.5q-0.21875 0.34375 -0.34375 0.9375q-0.109375 0.59375 -0.109375 1.484375q0 1.421875 0.46875 2.125q0.46875 0.6875 1.546875 0.6875q0.609375 0 1.0625 -0.25q0.46875 -0.265625 0.703125 -0.6875q0.09375 0.078125 0.15625 0.21875q0.078125 0.125 0.078125 0.3125q0 0.21875 -0.15625 0.453125q-0.140625 0.21875 -0.421875 0.40625q-0.28125 0.1875 -0.703125 0.296875q-0.421875 0.109375 -0.984375 0.109375zm6.6068115 -0.6875l0 0.5625l-3.59375 0l0 -0.5625l0.109375 0q0.234375 0 0.421875 -0.03125q0.203125 -0.03125 0.34375 -0.125q0.15625 -0.109375 0.234375 -0.296875q0.09375 -0.1875 0.09375 -0.5l0 -7.140625q0 -0.296875 -0.09375 -0.46875q-0.078125 -0.1875 -0.234375 -0.28125q-0.140625 -0.109375 -0.34375 -0.125q-0.203125 -0.03125 -0.421875 -0.03125l-0.109375 0l0 -0.5625l2.453125 0l0 2.921875q0 0.1875 0 0.390625q0 0.1875 -0.015625 0.359375q-0.015625 0.203125 -0.03125 0.390625l0.0625 0q0.609375 -1.21875 1.96875 -1.21875q0.5625 0 1.0 0.15625q0.4375 0.15625 0.734375 0.46875q0.296875 0.3125 0.453125 0.8125q0.15625 0.5 0.15625 1.171875l0 3.15625q0 0.3125 0.078125 0.5q0.078125 0.1875 0.21875 0.296875q0.140625 0.09375 0.328125 0.125q0.1875 0.03125 0.40625 0.03125l0.046875 0l0 0.5625l-2.328125 0l0 -4.59375q0 -0.4375 -0.078125 -0.78125q-0.078125 -0.34375 -0.25 -0.578125q-0.171875 -0.234375 -0.453125 -0.34375q-0.265625 -0.125 -0.671875 -0.125q-0.421875 0 -0.734375 0.15625q-0.296875 0.140625 -0.5 0.4375q-0.1875 0.28125 -0.296875 0.6875q-0.09375 0.390625 -0.09375 0.875l0 2.8125q0 0.296875 0.09375 0.484375q0.09375 0.171875 0.234375 0.265625q0.15625 0.078125 0.34375 0.109375q0.203125 0.03125 0.421875 0.03125l0.046875 0zm8.288361 -6.0q-0.734375 0 -1.140625 0.609375q-0.390625 0.59375 -0.46875 1.75l3.0625 0q0 -0.515625 -0.078125 -0.953125q-0.078125 -0.4375 -0.25 -0.75q-0.15625 -0.3125 -0.4375 -0.484375q-0.28125 -0.171875 -0.6875 -0.171875zm0.171875 6.6875q-0.71875 0 -1.296875 -0.234375q-0.578125 -0.25 -0.984375 -0.71875q-0.390625 -0.46875 -0.609375 -1.140625q-0.203125 -0.6875 -0.203125 -1.546875q0 -1.875 0.765625 -2.8125q0.765625 -0.953125 2.1875 -0.953125q0.640625 0 1.15625 0.203125q0.515625 0.203125 0.875 0.609375q0.359375 0.390625 0.546875 1.0q0.203125 0.59375 0.203125 1.375l0 0.609375l-4.4375 0q0 0.734375 0.125 1.265625q0.140625 0.515625 0.390625 0.859375q0.265625 0.328125 0.625 0.5q0.359375 0.15625 0.84375 0.15625q0.34375 0 0.640625 -0.078125q0.296875 -0.078125 0.53125 -0.203125q0.234375 -0.140625 0.421875 -0.296875q0.1875 -0.171875 0.3125 -0.359375q0.078125 0.046875 0.15625 0.171875q0.09375 0.109375 0.09375 0.28125q0 0.203125 -0.140625 0.4375q-0.140625 0.234375 -0.4375 0.4375q-0.296875 0.1875 -0.734375 0.3125q-0.4375 0.125 -1.03125 0.125zm7.5857544 -0.125l-3.84375 0l0 -0.5625l0.046875 0q0.21875 0 0.421875 -0.03125q0.203125 -0.03125 0.34375 -0.125q0.15625 -0.109375 0.234375 -0.296875q0.09375 -0.1875 0.09375 -0.5l0 -4.15625q0 -0.296875 -0.09375 -0.46875q-0.078125 -0.1875 -0.234375 -0.28125q-0.15625 -0.09375 -0.359375 -0.125q-0.1875 -0.046875 -0.40625 -0.046875l-0.046875 0l0 -0.546875l2.0625 0l0.25 1.3125l0.0625 0q0.125 -0.296875 0.265625 -0.5625q0.140625 -0.265625 0.328125 -0.453125q0.203125 -0.203125 0.5 -0.3125q0.296875 -0.125 0.734375 -0.125q0.734375 0 1.078125 0.265625q0.359375 0.25 0.359375 0.703125q0 0.21875 -0.078125 0.390625q-0.0625 0.171875 -0.21875 0.296875q-0.140625 0.125 -0.375 0.203125q-0.234375 0.0625 -0.578125 0.0625q0 -0.546875 -0.15625 -0.78125q-0.15625 -0.25 -0.546875 -0.25q-0.234375 0 -0.4375 0.140625q-0.1875 0.125 -0.34375 0.359375q-0.140625 0.234375 -0.25 0.53125q-0.09375 0.296875 -0.15625 0.625q-0.0625 0.3125 -0.09375 0.625q-0.015625 0.3125 -0.015625 0.5625l0 2.09375q0 0.296875 0.078125 0.484375q0.09375 0.171875 0.234375 0.265625q0.15625 0.078125 0.359375 0.109375q0.203125 0.03125 0.421875 0.03125l0.359375 0l0 0.5625z" fill-rule="nonzero"/><path fill="#000000" fill-opacity="0.0" d="m270.1483 278.37692l0 0c0 -1.6362305 1.3264465 -2.962677 2.962677 -2.962677l79.14551 0c0.7857666 0 1.5393372 0.3121338 2.0949402 0.86776733c0.555603 0.555603 0.8677368 1.3091736 0.8677368 2.0949097l0 21.413239c0 1.6362305 -1.326416 2.962677 -2.962677 2.962677l-79.14551 0c-1.6362305 0 -2.962677 -1.3264465 -2.962677 -2.962677z" fill-rule="evenodd"/><path fill="#000000" d="m292.92917 290.27667l-0.640625 1.125q-0.203125 0.34375 -0.203125 0.59375q0 0.375 0.59375 0.375l0.25 0l-0.09375 0.453125l-2.625 0l0.078125 -0.453125l0.203125 0q0.296875 0 0.484375 -0.140625q0.1875 -0.15625 0.515625 -0.6875l3.703125 -6.328125l0.828125 0l1.015625 6.59375q0.046875 0.328125 0.171875 0.453125q0.140625 0.109375 0.453125 0.109375l0.140625 0l-0.078125 0.453125l-2.90625 0l0.078125 -0.453125l0.25 0q0.765625 0 0.765625 -0.53125q0 -0.21875 -0.015625 -0.375l-0.171875 -1.1875l-2.796875 0zm2.453125 -2.390625q-0.15625 -1.140625 -0.171875 -1.6875q-0.234375 0.578125 -0.828125 1.578125l-1.140625 1.96875l2.40625 0l-0.265625 -1.859375zm6.9874573 3.609375q0.109375 0.0625 0.109375 0.265625q0 0.421875 -0.5 0.796875q-0.5 0.375 -1.34375 0.375q-0.921875 0 -1.5 -0.59375q-0.578125 -0.59375 -0.578125 -1.609375q0 -1.390625 0.90625 -2.546875q0.90625 -1.171875 2.265625 -1.171875q0.734375 0 1.140625 0.296875q0.421875 0.28125 0.421875 0.71875q0 0.328125 -0.265625 0.546875q-0.25 0.203125 -0.6875 0.203125q0 -0.5625 -0.21875 -0.90625q-0.21875 -0.359375 -0.59375 -0.359375q-0.75 0 -1.3125 1.125q-0.546875 1.109375 -0.546875 2.171875q0 1.453125 1.171875 1.453125q0.9375 0 1.53125 -0.765625zm4.125122 0.53125l0.1875 0.390625q-0.71875 0.515625 -1.4375 0.515625q-1.15625 0 -1.15625 -1.25q0 -0.40625 0.09375 -0.890625l0.65625 -3.078125l-0.8125 0l0.09375 -0.421875q1.046875 0 1.640625 -1.5l0.484375 0l-0.28125 1.3125l1.296875 0l-0.140625 0.609375l-1.28125 0l-0.640625 3.046875q-0.140625 0.609375 -0.140625 0.90625q0 0.59375 0.578125 0.59375q0.421875 0 0.859375 -0.234375zm3.1107483 -5.984375q-0.59375 0 -0.59375 -0.578125q0 -0.34375 0.171875 -0.546875q0.171875 -0.203125 0.46875 -0.203125q0.59375 0 0.59375 0.578125q0 0.375 -0.1875 0.5625q-0.171875 0.1875 -0.453125 0.1875zm-1.734375 1.515625l0.09375 -0.453125l1.921875 0l-0.734375 3.421875q-0.15625 0.765625 -0.15625 1.1875q0 0.546875 0.359375 0.546875q0.296875 0 0.75 -0.28125l0.203125 0.3125q-0.734375 0.640625 -1.4375 0.640625q-0.40625 0 -0.65625 -0.28125q-0.234375 -0.296875 -0.234375 -0.734375q0 -0.484375 0.234375 -1.671875l0.421875 -1.953125q0.03125 -0.171875 0.03125 -0.28125q0 -0.453125 -0.65625 -0.453125l-0.140625 0zm6.210388 -0.546875q0.953125 0 1.484375 0.5625q0.546875 0.5625 0.546875 1.640625q0 1.421875 -0.875 2.578125q-0.859375 1.140625 -2.28125 1.140625q-0.953125 0 -1.5 -0.578125q-0.546875 -0.59375 -0.546875 -1.625q0 -1.4375 0.875 -2.578125q0.890625 -1.140625 2.296875 -1.140625zm-1.0 5.390625q0.875 0 1.390625 -1.03125q0.53125 -1.046875 0.53125 -2.3125q0 -1.484375 -1.046875 -1.484375q-0.859375 0 -1.40625 1.046875q-0.53125 1.046875 -0.53125 2.3125q0 1.46875 1.0625 1.46875zm4.9627686 0.421875l-1.0 0l0.890625 -4.28125q0.0625 -0.296875 0.0625 -0.484375q0 -0.5 -0.734375 -0.5l-0.09375 0l0.09375 -0.453125l1.984375 0l-0.296875 1.34375l0.109375 0q0.859375 -1.4375 1.9375 -1.4375q1.140625 0 1.140625 1.1875q0 0.34375 -0.1875 1.171875l-0.28125 1.25q-0.140625 0.640625 -0.140625 1.125q0 0.515625 0.375 0.515625q0.3125 0 0.6875 -0.25l0.1875 0.3125q-0.703125 0.609375 -1.296875 0.609375q-0.453125 0 -0.71875 -0.28125q-0.25 -0.296875 -0.25 -0.78125q0 -0.5 0.203125 -1.453125l0.234375 -1.09375q0.15625 -0.640625 0.15625 -1.0q0 -0.625 -0.484375 -0.625q-0.59375 0 -1.21875 0.8125q-0.609375 0.796875 -0.796875 1.59375l-0.5625 2.71875zm4.618744 1.5625l0.046875 -0.453125q1.078125 -0.25 1.078125 -0.890625q0 -0.1875 -0.34375 -0.40625q-0.34375 -0.21875 -0.34375 -0.546875q0 -0.28125 0.171875 -0.453125q0.1875 -0.171875 0.484375 -0.171875q0.359375 0 0.59375 0.234375q0.234375 0.234375 0.234375 0.640625q0 0.78125 -0.5 1.3125q-0.484375 0.546875 -1.421875 0.734375zm9.61969 -3.171875l-0.0625 0q-0.765625 1.71875 -2.0 1.71875q-0.640625 0 -1.015625 -0.515625q-0.359375 -0.515625 -0.359375 -1.4375q0 -1.46875 0.90625 -2.71875q0.921875 -1.25 2.265625 -1.25q0.734375 0 1.25 0.375l0.46875 -0.265625l0.34375 0l-0.71875 3.40625q-0.15625 0.734375 -0.15625 1.1875q0 0.546875 0.34375 0.546875q0.296875 0 0.765625 -0.28125l0.203125 0.3125q-0.765625 0.640625 -1.515625 0.640625q-0.828125 0 -0.828125 -0.890625q0 -0.34375 0.109375 -0.828125zm0.609375 -3.34375q-0.25 -0.390625 -0.8125 -0.390625q-0.90625 0 -1.53125 1.171875q-0.609375 1.15625 -0.609375 2.375q0 1.234375 0.671875 1.234375q0.53125 0 1.109375 -0.78125q0.578125 -0.796875 0.765625 -1.71875l0.40625 -1.890625z" fill-rule="nonzero"/><path fill="#000000" fill-opacity="0.0" d="m274.66534 191.44518l0 0c0 -1.6362457 1.3264465 -2.962677 2.9627075 -2.962677l79.14548 0c0.7857666 0 1.5393372 0.3121338 2.0949402 0.8677368c0.555603 0.5556183 0.8677368 1.3091888 0.8677368 2.0949402l0 21.413223c0 1.6362305 -1.326416 2.962677 -2.962677 2.962677l-79.14548 0c-1.636261 0 -2.9627075 -1.3264465 -2.9627075 -2.962677z" fill-rule="evenodd"/><path fill="#000000" d="m300.36914 203.65741q0 0.828125 0.4375 1.328125q0.4375 0.484375 1.1875 0.484375q0.734375 0 1.171875 -0.359375q0.453125 -0.375 0.453125 -1.015625q0 -0.5 -0.265625 -0.84375q-0.25 -0.34375 -1.078125 -0.828125q-0.859375 -0.484375 -1.1875 -1.0q-0.328125 -0.53125 -0.328125 -1.1875q0 -0.921875 0.6875 -1.484375q0.703125 -0.578125 1.890625 -0.578125q0.9375 0 1.484375 0.328125q0.546875 0.3125 0.546875 0.828125q0 0.734375 -0.9375 0.734375q0 -0.625 -0.296875 -0.984375q-0.296875 -0.375 -0.875 -0.375q-0.640625 0 -1.046875 0.375q-0.390625 0.359375 -0.390625 0.96875q0 0.453125 0.203125 0.796875q0.21875 0.328125 1.109375 0.84375q0.828125 0.484375 1.203125 0.96875q0.375 0.484375 0.375 1.09375q0 1.0625 -0.75 1.65625q-0.734375 0.59375 -2.046875 0.59375q-1.078125 0 -1.71875 -0.421875q-0.640625 -0.4375 -0.640625 -1.109375q0 -0.359375 0.21875 -0.578125q0.234375 -0.234375 0.59375 -0.234375zm8.108917 1.4375l0.1875 0.390625q-0.71875 0.515625 -1.4375 0.515625q-1.15625 0 -1.15625 -1.25q0 -0.40625 0.09375 -0.890625l0.65625 -3.078125l-0.8125 0l0.09375 -0.421875q1.046875 0 1.640625 -1.5l0.484375 0l-0.28125 1.3125l1.296875 0l-0.140625 0.609375l-1.28125 0l-0.640625 3.046875q-0.140625 0.609375 -0.140625 0.90625q0 0.59375 0.578125 0.59375q0.421875 0 0.859375 -0.234375zm4.6107483 -0.8125l-0.0625 0q-0.765625 1.71875 -2.0 1.71875q-0.640625 0 -1.015625 -0.515625q-0.359375 -0.515625 -0.359375 -1.4375q0 -1.46875 0.90625 -2.71875q0.921875 -1.25 2.265625 -1.25q0.734375 0 1.25 0.375l0.46875 -0.265625l0.34375 0l-0.71875 3.40625q-0.15625 0.734375 -0.15625 1.1875q0 0.546875 0.34375 0.546875q0.296875 0 0.765625 -0.28125l0.203125 0.3125q-0.765625 0.640625 -1.515625 0.640625q-0.828125 0 -0.828125 -0.890625q0 -0.34375 0.109375 -0.828125zm0.609375 -3.34375q-0.25 -0.390625 -0.8125 -0.390625q-0.90625 0 -1.53125 1.171875q-0.609375 1.15625 -0.609375 2.375q0 1.234375 0.671875 1.234375q0.53125 0 1.109375 -0.78125q0.578125 -0.796875 0.765625 -1.71875l0.40625 -1.890625zm4.874176 4.15625l0.1875 0.390625q-0.71875 0.515625 -1.4375 0.515625q-1.15625 0 -1.15625 -1.25q0 -0.40625 0.09375 -0.890625l0.65625 -3.078125l-0.8125 0l0.09375 -0.421875q1.046875 0 1.640625 -1.5l0.484375 0l-0.28125 1.3125l1.296875 0l-0.140625 0.609375l-1.28125 0l-0.640625 3.046875q-0.140625 0.609375 -0.140625 0.90625q0 0.59375 0.578125 0.59375q0.421875 0 0.859375 -0.234375zm4.9857483 -0.53125q0.109375 0.0625 0.109375 0.265625q0 0.421875 -0.5 0.796875q-0.5 0.375 -1.34375 0.375q-0.921875 0 -1.5 -0.59375q-0.578125 -0.59375 -0.578125 -1.609375q0 -1.390625 0.90625 -2.546875q0.90625 -1.171875 2.265625 -1.171875q0.6875 0 1.046875 0.328125q0.375 0.3125 0.375 0.890625q0 0.859375 -0.90625 1.5q-0.890625 0.640625 -2.171875 0.640625l-0.1875 0q-0.09375 0 -0.1875 -0.015625q-0.03125 0.15625 -0.03125 0.453125q0 1.453125 1.171875 1.453125q0.90625 0 1.53125 -0.765625zm-2.578125 -1.625l0.109375 0q0.9375 0 1.546875 -0.453125q0.609375 -0.453125 0.609375 -1.1875q0 -0.71875 -0.625 -0.71875q-0.515625 0 -0.96875 0.65625q-0.4375 0.640625 -0.671875 1.703125zm3.2709045 4.515625l0.046875 -0.453125q1.078125 -0.25 1.078125 -0.890625q0 -0.1875 -0.34375 -0.40625q-0.34375 -0.21875 -0.34375 -0.546875q0 -0.28125 0.171875 -0.453125q0.1875 -0.171875 0.484375 -0.171875q0.359375 0 0.59375 0.234375q0.234375 0.234375 0.234375 0.640625q0 0.78125 -0.5 1.3125q-0.484375 0.546875 -1.421875 0.734375zm9.58844 -5.703125q0 -0.53125 -0.265625 -0.84375q-0.25 -0.328125 -0.703125 -0.328125q-0.46875 0 -0.75 0.265625q-0.28125 0.25 -0.28125 0.640625q0 0.359375 0.265625 0.609375q0.265625 0.25 0.828125 0.5q1.28125 0.5625 1.28125 1.640625q0 0.796875 -0.609375 1.28125q-0.609375 0.484375 -1.59375 0.484375q-0.8125 0 -1.296875 -0.328125q-0.46875 -0.328125 -0.46875 -0.875q0 -0.34375 0.1875 -0.515625q0.1875 -0.1875 0.484375 -0.1875q0 0.65625 0.3125 1.03125q0.328125 0.359375 0.90625 0.359375q1.140625 0 1.140625 -0.984375q0 -0.390625 -0.25 -0.640625q-0.234375 -0.265625 -0.8125 -0.546875q-0.765625 -0.359375 -1.03125 -0.734375q-0.265625 -0.390625 -0.265625 -0.90625q0 -0.703125 0.5625 -1.140625q0.578125 -0.453125 1.484375 -0.453125q0.796875 0 1.234375 0.296875q0.4375 0.296875 0.4375 0.71875q0 0.65625 -0.796875 0.65625z" fill-rule="nonzero"/><path fill="#000000" fill-opacity="0.0" d="m127.48819 230.98717l0 0c0 -1.6362457 1.3264313 -2.962677 2.962677 -2.962677l79.14551 0c0.78575134 0 1.5393219 0.3121338 2.094925 0.8677521c0.5556183 0.555603 0.8677521 1.3091736 0.8677521 2.094925l0 21.413223c0 1.6362457 -1.3264313 2.962677 -2.962677 2.962677l-79.14551 0c-1.6362457 0 -2.962677 -1.3264313 -2.962677 -2.962677z" fill-rule="evenodd"/><path fill="#000000" d="m146.90826 244.98065l0.140625 0q0.5 0 0.71875 -0.171875q0.21875 -0.171875 0.3125 -0.53125l1.125 -5.28125q0.046875 -0.203125 0.046875 -0.296875q0 -0.421875 -0.78125 -0.421875l-0.125 0l0.09375 -0.453125l5.359375 0l-0.328125 1.859375l-0.5625 0l0.015625 -0.1875q0.015625 -0.09375 0.015625 -0.1875q0.03125 -0.171875 0.03125 -0.234375q0 -0.71875 -0.8125 -0.71875l-1.75 0l-0.65625 3.078125l2.578125 0l-0.109375 0.53125l-2.5625 0l-0.484375 2.25q-0.03125 0.171875 -0.03125 0.265625q0 0.5 0.734375 0.5l0.34375 0l-0.078125 0.453125l-3.3125 0l0.078125 -0.453125zm10.264694 -0.875q0.109375 0.0625 0.109375 0.265625q0 0.421875 -0.5 0.796875q-0.5 0.375 -1.34375 0.375q-0.921875 0 -1.5 -0.59375q-0.578125 -0.59375 -0.578125 -1.609375q0 -1.390625 0.90625 -2.546875q0.90625 -1.171875 2.265625 -1.171875q0.6875 0 1.046875 0.328125q0.375 0.3125 0.375 0.890625q0 0.859375 -0.90625 1.5q-0.890625 0.640625 -2.171875 0.640625l-0.1875 0q-0.09375 0 -0.1875 -0.015625q-0.03125 0.15625 -0.03125 0.453125q0 1.453125 1.171875 1.453125q0.90625 0 1.53125 -0.765625zm-2.578125 -1.625l0.109375 0q0.9375 0 1.546875 -0.453125q0.609375 -0.453125 0.609375 -1.1875q0 -0.71875 -0.625 -0.71875q-0.515625 0 -0.96875 0.65625q-0.4375 0.640625 -0.671875 1.703125zm7.8334045 1.625q0.109375 0.0625 0.109375 0.265625q0 0.421875 -0.5 0.796875q-0.5 0.375 -1.34375 0.375q-0.921875 0 -1.5 -0.59375q-0.578125 -0.59375 -0.578125 -1.609375q0 -1.390625 0.90625 -2.546875q0.90625 -1.171875 2.265625 -1.171875q0.6875 0 1.046875 0.328125q0.375 0.3125 0.375 0.890625q0 0.859375 -0.90625 1.5q-0.890625 0.640625 -2.171875 0.640625l-0.1875 0q-0.09375 0 -0.1875 -0.015625q-0.03125 0.15625 -0.03125 0.453125q0 1.453125 1.171875 1.453125q0.90625 0 1.53125 -0.765625zm-2.578125 -1.625l0.109375 0q0.9375 0 1.546875 -0.453125q0.609375 -0.453125 0.609375 -1.1875q0 -0.71875 -0.625 -0.71875q-0.515625 0 -0.96875 0.65625q-0.4375 0.640625 -0.671875 1.703125zm7.4584045 1.34375l-0.0625 0q-0.765625 1.71875 -2.0 1.71875q-0.640625 0 -1.015625 -0.515625q-0.359375 -0.515625 -0.359375 -1.4375q0 -1.46875 0.90625 -2.71875q0.921875 -1.25 2.265625 -1.25q0.609375 0 1.046875 0.25q0.09375 -0.484375 0.125 -0.59375l0.109375 -0.515625q0.0625 -0.359375 0.0625 -0.484375q0 -0.5 -0.734375 -0.5l-0.09375 0l0.09375 -0.4375l1.96875 0l-1.234375 5.796875q-0.15625 0.734375 -0.15625 1.1875q0 0.546875 0.34375 0.546875q0.296875 0 0.765625 -0.28125l0.203125 0.3125q-0.765625 0.640625 -1.515625 0.640625q-0.828125 0 -0.828125 -0.890625q0 -0.34375 0.109375 -0.828125zm0.609375 -3.34375q-0.25 -0.390625 -0.8125 -0.390625q-0.90625 0 -1.53125 1.171875q-0.609375 1.15625 -0.609375 2.375q0 1.234375 0.671875 1.234375q0.53125 0 1.109375 -0.78125q0.578125 -0.796875 0.765625 -1.71875l0.40625 -1.890625zm2.780426 4.671875l-0.484375 0.3125l-0.34375 0l1.421875 -6.625q0.09375 -0.4375 0.09375 -0.5625q0 -0.5 -0.75 -0.5l-0.09375 0l0.109375 -0.4375l2.0 0l-0.5 2.390625q-0.109375 0.515625 -0.390625 1.40625l0.0625 0q0.78125 -1.515625 1.9375 -1.515625q0.640625 0 1.0 0.484375q0.359375 0.484375 0.359375 1.4375q0 1.484375 -0.921875 2.75q-0.90625 1.25 -2.25 1.25q-0.765625 0 -1.25 -0.390625zm0.375 -0.46875q0.328125 0.375 0.828125 0.375q0.921875 0 1.515625 -1.171875q0.609375 -1.1875 0.609375 -2.359375q0 -1.234375 -0.671875 -1.234375q-0.578125 0 -1.140625 0.8125q-0.546875 0.796875 -0.6875 1.46875l-0.453125 2.109375zm8.395187 -0.859375l-0.0625 0q-0.765625 1.71875 -2.0 1.71875q-0.640625 0 -1.015625 -0.515625q-0.359375 -0.515625 -0.359375 -1.4375q0 -1.46875 0.90625 -2.71875q0.921875 -1.25 2.265625 -1.25q0.734375 0 1.25 0.375l0.46875 -0.265625l0.34375 0l-0.71875 3.40625q-0.15625 0.734375 -0.15625 1.1875q0 0.546875 0.34375 0.546875q0.296875 0 0.765625 -0.28125l0.203125 0.3125q-0.765625 0.640625 -1.515625 0.640625q-0.828125 0 -0.828125 -0.890625q0 -0.34375 0.109375 -0.828125zm0.609375 -3.34375q-0.25 -0.390625 -0.8125 -0.390625q-0.90625 0 -1.53125 1.171875q-0.609375 1.15625 -0.609375 2.375q0 1.234375 0.671875 1.234375q0.53125 0 1.109375 -0.78125q0.578125 -0.796875 0.765625 -1.71875l0.40625 -1.890625zm5.936676 3.625q0.109375 0.0625 0.109375 0.265625q0 0.421875 -0.5 0.796875q-0.5 0.375 -1.34375 0.375q-0.921875 0 -1.5 -0.59375q-0.578125 -0.59375 -0.578125 -1.609375q0 -1.390625 0.90625 -2.546875q0.90625 -1.171875 2.265625 -1.171875q0.734375 0 1.140625 0.296875q0.421875 0.28125 0.421875 0.71875q0 0.328125 -0.265625 0.546875q-0.25 0.203125 -0.6875 0.203125q0 -0.5625 -0.21875 -0.90625q-0.21875 -0.359375 -0.59375 -0.359375q-0.75 0 -1.3125 1.125q-0.546875 1.109375 -0.546875 2.171875q0 1.453125 1.171875 1.453125q0.9375 0 1.53125 -0.765625zm4.5313873 -2.765625q0.78125 -0.671875 0.78125 -1.0q0 -0.15625 -0.46875 -0.15625l0.09375 -0.453125l2.359375 0l-0.09375 0.453125q-0.625 0 -1.71875 0.984375l-0.96875 0.890625l0.984375 2.109375q0.40625 0.890625 1.078125 0.890625l-0.09375 0.453125q-0.890625 0 -1.3125 -0.203125q-0.40625 -0.21875 -0.6875 -0.90625l-0.703125 -1.6875l-0.953125 0.609375l-0.4375 2.109375l-1.0 0l1.390625 -6.59375q0.09375 -0.46875 0.09375 -0.5625q0 -0.5 -0.75 -0.5l-0.078125 0l0.09375 -0.4375l1.953125 0l-0.421875 1.953125q-0.5625 2.6875 -0.8125 3.5l1.671875 -1.453125z" fill-rule="nonzero"/><path fill="#000000" fill-opacity="0.0" d="m145.95932 253.67671l54.582672 0" fill-rule="evenodd"/><path stroke="#595959" stroke-width="1.0" stroke-linejoin="round" stroke-linecap="butt" d="m145.95932 253.67671l48.582672 0" fill-rule="evenodd"/><path fill="#595959" stroke="#595959" stroke-width="1.0" stroke-linecap="butt" d="m194.54199 255.32845l4.538101 -1.6517334l-4.538101 -1.6517334z" fill-rule="evenodd"/><path fill="#000000" fill-opacity="0.0" d="m84.249344 234.24934l148.7559 -18.236221" fill-rule="evenodd"/><path stroke="#595959" stroke-width="1.0" stroke-linejoin="round" stroke-linecap="butt" stroke-dasharray="1.0,3.0" d="m84.249344 234.24934l148.7559 -18.236221" fill-rule="evenodd"/><path fill="#000000" fill-opacity="0.0" d="m83.0 236.0l152.50394 57.007874" fill-rule="evenodd"/><path stroke="#595959" stroke-width="1.0" stroke-linejoin="round" stroke-linecap="butt" stroke-dasharray="1.0,3.0" d="m83.0 236.0l152.50394 57.007874" fill-rule="evenodd"/></g></svg>